<?xml version="1.0" encoding="utf-8"?>
<!-- Generator: Adobe Illustrator 19.0.0, SVG Export Plug-In . SVG Version: 6.00 Build 0)  -->
<svg version="1.1" xmlns="http://www.w3.org/2000/svg" xmlns:xlink="http://www.w3.org/1999/xlink" x="0px" y="0px"
	 viewBox="0 0 900 400" style="enable-background:new 0 0 900 400;" xml:space="preserve">
<style type="text/css">
	.st0{clip-path:url(#SVGID_2_);}
	.st1{opacity:0.75;fill:url(#SVGID_3_);}
	.st2{opacity:0.75;fill:url(#SVGID_4_);}
	.st3{fill:url(#SVGID_5_);}
	.st4{fill:url(#SVGID_6_);}
	.st5{fill:url(#SVGID_7_);}
	.st6{fill:url(#SVGID_8_);}
	.st7{fill:url(#SVGID_9_);}
	.st8{fill:url(#SVGID_10_);}
	.st9{fill:url(#SVGID_11_);}
	.st10{fill:url(#SVGID_12_);}
	.st11{fill:url(#SVGID_13_);}
	.st12{fill:url(#SVGID_14_);}
	.st13{fill:url(#SVGID_15_);}
	.st14{fill:url(#SVGID_16_);}
	.st15{opacity:0.61;fill:url(#SVGID_17_);}
	.st16{fill-rule:evenodd;clip-rule:evenodd;fill:#186664;}
	.st17{fill:#2A3030;}
	.st18{fill-rule:evenodd;clip-rule:evenodd;fill:#08A39F;}
	.st19{clip-path:url(#SVGID_19_);fill-rule:evenodd;clip-rule:evenodd;fill:#186664;}
	.st20{fill:#09B7B5;}
	.st21{fill:#7FD6D2;}
	.st22{clip-path:url(#SVGID_21_);fill:#23201A;}
	.st23{fill:none;stroke:#186664;stroke-width:4.9498;stroke-miterlimit:10;}
	.st24{fill:#FFB685;}
	.st25{fill:#252568;}
	.st26{fill:#E8E8E8;}
	.st27{fill:#F2305F;}
	.st28{fill:url(#XMLID_5_);}
	.st29{fill:url(#XMLID_6_);}
	.st30{opacity:0.7;}
	.st31{fill:url(#XMLID_8_);}
	.st32{fill:url(#XMLID_9_);}
	.st33{fill:url(#XMLID_13_);}
	.st34{fill:url(#XMLID_14_);}
	.st35{fill:#800A0A;}
	.st36{fill:#FFFFFF;stroke:#FFFFFF;stroke-width:0.3147;stroke-miterlimit:10;}
	.st37{opacity:0.3;fill:url(#XMLID_15_);enable-background:new    ;}
	.st38{fill:#FFFFFF;}
	.st39{fill:url(#XMLID_16_);}
	.st40{fill:#1B334D;}
	.st41{opacity:0.3;fill:url(#XMLID_17_);enable-background:new    ;}
	.st42{fill:url(#XMLID_18_);}
	.st43{fill:#8E6109;}
	.st44{fill:url(#XMLID_19_);}
	.st45{fill:url(#XMLID_20_);}
	.st46{fill:url(#XMLID_21_);}
	.st47{fill:url(#XMLID_22_);}
	.st48{fill:url(#XMLID_23_);}
	.st49{fill:url(#XMLID_24_);}
	.st50{fill:url(#XMLID_25_);}
	.st51{opacity:0.2;fill:url(#XMLID_26_);enable-background:new    ;}
	.st52{opacity:0.2;fill:url(#XMLID_27_);enable-background:new    ;}
	.st53{opacity:0.2;fill:url(#XMLID_28_);enable-background:new    ;}
	.st54{fill:#31317A;}
	.st55{fill:#665440;}
	.st56{fill:#1E1E26;}
	.st57{fill:#BCBCDD;}
	.st58{fill:#20253B;}
	.st59{clip-path:url(#SVGID_23_);fill:#0E9E9A;}
	.st60{fill:#186664;}
	.st61{fill:#606060;}
	.st62{fill-rule:evenodd;clip-rule:evenodd;fill:#7FD6D2;}
	.st63{clip-path:url(#SVGID_25_);fill-rule:evenodd;clip-rule:evenodd;fill:#186664;}
	.st64{fill-rule:evenodd;clip-rule:evenodd;fill:#DBD9DA;}
	.st65{fill-rule:evenodd;clip-rule:evenodd;fill:#C6C6C6;}
	.st66{fill-rule:evenodd;clip-rule:evenodd;fill:#606060;}
	.st67{fill-rule:evenodd;clip-rule:evenodd;fill:#23201A;}
</style>
<g id="Background">
</g>
<g id="Objects">
	<g>
		<g>
			<defs>
				<rect id="SVGID_1_" x="0" y="1" width="900" height="400"/>
			</defs>
			<clipPath id="SVGID_2_">
				<use xlink:href="#SVGID_1_"  style="overflow:visible;opacity:0.18;"/>
			</clipPath>
			<g class="st0">
				<g>
					<g>
						
							<linearGradient id="SVGID_3_" gradientUnits="userSpaceOnUse" x1="238.075" y1="316.0643" x2="339.3125" y2="316.0643" gradientTransform="matrix(1.2055 -0.1679 0.1679 1.2055 -55.7369 -230.5723)">
							<stop  offset="0" style="stop-color:#FFFFFF"/>
							<stop  offset="0.166" style="stop-color:#F7FCFE"/>
							<stop  offset="0.4213" style="stop-color:#E2F3FC"/>
							<stop  offset="0.7323" style="stop-color:#BFE5F9"/>
							<stop  offset="1" style="stop-color:#9BD7F5"/>
						</linearGradient>
						<path class="st1" d="M396,101.2c0,0-0.1,0-0.1,0c-1.3-6.1-7.1-10.2-13.3-9.3c-1.3,0.2-2.5,0.6-3.6,1.1
							c-2.7-9-11.4-15-20.9-14.2c-4.1-9.4-14.1-15.3-24.8-13.9c-12.9,1.8-21.9,13.7-20.1,26.6c0,0,0,0,0,0c-3.6,0.6-6.5,2.8-8.2,5.8
							c-2.1-0.7-4.5-0.9-6.9-0.6c-8.5,1.2-14.4,9-13.2,17.5c0.9,6.1,5.2,10.9,10.7,12.6c2.7,6.6,9.5,10.8,16.9,9.8
							c3.7-0.5,6.8-2.2,9.2-4.7c4.4,6.1,11.9,9.6,19.8,8.5c6-0.8,11.1-4.1,14.3-8.8c4.5,3.9,11.4,6,18.8,4.9
							c10-1.4,17.7-7.9,19-15.5c1.6,0.5,3.3,0.6,5.1,0.4c6.2-0.9,10.6-6.1,9.8-11.7C407.9,104.1,402.2,100.3,396,101.2z"/>
						<linearGradient id="SVGID_4_" gradientUnits="userSpaceOnUse" x1="493.0177" y1="78.5575" x2="493.0177" y2="223.3553">
							<stop  offset="0" style="stop-color:#FFFFFF"/>
							<stop  offset="0.166" style="stop-color:#F7FCFE"/>
							<stop  offset="0.4213" style="stop-color:#E2F3FC"/>
							<stop  offset="0.7323" style="stop-color:#BFE5F9"/>
							<stop  offset="1" style="stop-color:#9BD7F5"/>
						</linearGradient>
						<path class="st2" d="M439,124.7c0,0,0.1,0,0.1,0c0.6,6.6,6.3,11.8,13.1,11.6c1.4,0,2.7-0.3,4-0.7c1.8,9.9,10.4,17.5,20.7,17.8
							c3.3,10.6,13.2,18.2,24.9,17.9c14-0.3,25.1-12,24.8-26c0,0,0,0,0,0c3.9-0.3,7.3-2.2,9.5-5.2c2.2,1,4.7,1.5,7.3,1.5
							c9.2-0.2,16.5-7.9,16.3-17.1c-0.2-6.7-4.2-12.3-9.9-14.8c-2-7.4-8.9-12.7-16.9-12.5c-4,0.1-7.6,1.6-10.5,3.9
							c-3.9-7-11.6-11.7-20.2-11.5c-6.5,0.2-12.3,3.1-16.3,7.6c-4.3-4.8-11.5-7.8-19.5-7.6c-10.9,0.3-19.9,6.3-22.3,14.3
							c-1.7-0.7-3.5-1.1-5.5-1c-6.8,0.2-12.1,5.2-12,11.3C426.7,120,432.2,124.8,439,124.7z"/>
						
							<radialGradient id="SVGID_5_" cx="-494.3854" cy="245.7137" r="69.2038" gradientTransform="matrix(-0.1766 1.1921 3.1593 0.3709 -457.4789 609.8906)" gradientUnits="userSpaceOnUse">
							<stop  offset="0" style="stop-color:#FFFFFF"/>
							<stop  offset="1" style="stop-color:#C0EEF5"/>
						</radialGradient>
						<path class="st3" d="M305.9,140.4c0.1,0,0.1,0,0.2,0c1.9-7.6,11.5-12.6,22.2-11.3c2.2,0.3,4.3,0.8,6.2,1.5
							c4.2-11.2,18.7-18.5,35-17.2c6.6-11.7,23.4-18.9,41.7-16.7c22.1,2.6,38.2,17.8,35.8,33.9c0,0,0,0,0,0
							c6.2,0.9,11.3,3.7,14.3,7.5c3.6-0.8,7.6-1,11.7-0.6c14.6,1.7,25.1,11.7,23.5,22.3c-1.1,7.7-8.3,13.5-17.6,15.6
							c-4.2,8.2-15.7,13.3-28.4,11.8c-6.3-0.7-11.8-3-16-6.2c-7.2,7.5-19.9,11.7-33.5,10.1c-10.3-1.2-19.1-5.5-24.9-11.4
							c-7.5,4.8-19.2,7.2-31.9,5.7c-17.2-2-30.6-10.4-33.4-20c-2.7,0.5-5.7,0.7-8.8,0.3c-10.7-1.3-18.5-7.9-17.4-14.9
							C285.7,143.8,295.2,139.1,305.9,140.4z"/>
						<linearGradient id="SVGID_6_" gradientUnits="userSpaceOnUse" x1="266.534" y1="99.2188" x2="266.534" y2="236.4067">
							<stop  offset="0" style="stop-color:#FFFFFF"/>
							<stop  offset="1" style="stop-color:#C0EEF5"/>
						</linearGradient>
						<path class="st4" d="M215.4,142.9c0,0,0.1,0,0.1,0c0.6,6.3,6,11.1,12.4,11c1.3,0,2.6-0.3,3.8-0.7c1.7,9.4,9.8,16.5,19.6,16.8
							c3.1,10,12.5,17.2,23.6,17c13.3-0.3,23.8-11.3,23.5-24.6c0,0,0,0,0,0c3.7-0.2,6.9-2.1,9-4.9c2.1,0.9,4.4,1.5,6.9,1.4
							c8.7-0.2,15.7-7.5,15.5-16.2c-0.1-6.3-4-11.6-9.4-14.1c-1.9-7-8.4-12-16-11.9c-3.8,0.1-7.2,1.5-9.9,3.7
							c-3.7-6.7-11-11.1-19.1-10.9c-6.2,0.1-11.7,2.9-15.5,7.2c-4.1-4.5-10.9-7.4-18.5-7.2c-10.3,0.2-18.8,6-21.1,13.5
							c-1.6-0.7-3.3-1-5.2-1c-6.4,0.2-11.5,4.9-11.3,10.7C203.7,138.5,209,143.1,215.4,142.9z"/>
						
							<linearGradient id="SVGID_7_" gradientUnits="userSpaceOnUse" x1="3143.54" y1="257.9633" x2="3143.54" y2="388.3952" gradientTransform="matrix(-0.9958 -9.110000e-02 -9.110000e-02 0.9958 3670.8809 124.3302)">
							<stop  offset="0" style="stop-color:#FFFFFF"/>
							<stop  offset="0.2234" style="stop-color:#F9FDFD"/>
							<stop  offset="0.5235" style="stop-color:#E8F7F9"/>
							<stop  offset="0.8658" style="stop-color:#CCEDF2"/>
							<stop  offset="1" style="stop-color:#BFE9EF"/>
						</linearGradient>
						<path class="st5" d="M687.7,160.2c1.4-15.4-11.5-29.2-28.8-30.8c-13.5-1.2-25.8,5.3-31.2,15.6c-2.9-2.5-6.5-4.1-10.6-4.5
							c-5.1-0.5-10,1.2-13.7,4.2c-3.1-4.3-8-7.3-13.6-7.8c-6.7-0.6-12.9,2.3-16.7,7.2c-5.2-5.2-12.5-8.8-20.8-9.6
							c-6.5-0.6-12.7,0.6-18,3.2c-4.1-7.6-12.3-13.1-22.3-14.1c-14-1.3-26.5,7.1-29,19.2c-2.1-1.1-4.4-1.8-6.9-2
							c-2.6-0.2-5,0.1-7.3,0.8c-3.1-3.9-7.7-6.6-13.1-7.1c-10.5-1-19.7,6.7-20.7,17.2c-0.1,1.2-0.1,2.5,0,3.6
							c-4.5,0.5-8.7,1.9-12.2,4.2c-4.5-6-11.8-10.3-20.4-11.1c-15-1.4-28.1,8.3-29.4,21.6c0,0-45.8-3.2-56.8,44.5l354.3,32.4
							C670.4,247.1,717,219.3,687.7,160.2z"/>
						
							<linearGradient id="SVGID_8_" gradientUnits="userSpaceOnUse" x1="3340.2122" y1="293.2827" x2="3340.2122" y2="423.7054" gradientTransform="matrix(-0.9923 -0.1241 -0.1241 0.9923 3672.769 229.1824)">
							<stop  offset="0" style="stop-color:#FFFFFF"/>
							<stop  offset="0.3495" style="stop-color:#FCFEFE"/>
							<stop  offset="0.5629" style="stop-color:#F4FBFC"/>
							<stop  offset="0.7398" style="stop-color:#E6F6F9"/>
							<stop  offset="0.8957" style="stop-color:#D1EFF4"/>
							<stop  offset="1" style="stop-color:#BFE9EF"/>
						</linearGradient>
						<path class="st6" d="M490.2,176.7c1.9-15.4-10.5-29.6-27.8-31.7c-13.5-1.7-26,4.5-31.7,14.6c-2.8-2.6-6.4-4.4-10.5-4.9
							c-5.1-0.6-10,0.8-13.8,3.7c-3-4.4-7.7-7.5-13.4-8.2c-6.7-0.8-12.9,1.9-16.9,6.7c-5-5.4-12.2-9.2-20.5-10.3
							c-6.5-0.8-12.7,0.2-18.1,2.6c-3.8-7.7-11.9-13.5-21.8-14.8c-14-1.8-26.7,6.3-29.6,18.2c-2-1.1-4.3-1.9-6.8-2.2
							c-2.5-0.3-5-0.1-7.4,0.5c-3-4-7.5-6.8-12.9-7.5c-10.4-1.3-19.9,6.1-21.2,16.5c-0.2,1.2-0.2,2.4-0.1,3.6
							c-4.5,0.3-8.7,1.7-12.3,3.8c-4.3-6.2-11.5-10.7-20-11.7c-14.9-1.9-28.4,7.4-30.1,20.7c0,0-45.7-4.7-58.3,42.6l353,44.2
							C470.1,263,517.6,236.8,490.2,176.7z"/>
						
							<linearGradient id="SVGID_9_" gradientUnits="userSpaceOnUse" x1="3445.1492" y1="115.1914" x2="3445.1492" y2="275.6472" gradientTransform="matrix(-1 0 0 1 3900.4785 0)">
							<stop  offset="0" style="stop-color:#FFFFFF"/>
							<stop  offset="0.1955" style="stop-color:#FBFEFE"/>
							<stop  offset="0.3988" style="stop-color:#EEFAFD"/>
							<stop  offset="0.6055" style="stop-color:#DAF4FA"/>
							<stop  offset="0.8133" style="stop-color:#BDECF7"/>
							<stop  offset="1" style="stop-color:#9CE3F3"/>
						</linearGradient>
						<path class="st7" d="M671.7,176.2c0-19-17.4-34.5-38.8-34.5c-16.7,0-31,9.4-36.4,22.6c-3.8-2.7-8.5-4.3-13.5-4.3
							c-6.3,0-12.1,2.5-16.3,6.6c-4.3-4.9-10.6-8-17.6-8c-8.3,0-15.5,4.3-19.6,10.7c-6.9-5.8-16.3-9.4-26.6-9.4
							c-8.1,0-15.5,2.2-21.7,5.9c-5.8-8.8-16.6-14.7-28.9-14.7c-17.4,0-31.6,11.7-33.4,26.7c-2.7-1.1-5.6-1.7-8.6-1.7
							c-3.2,0-6.2,0.6-8.9,1.8c-4.3-4.4-10.2-7.2-16.8-7.2c-12.9,0-23.4,10.5-23.4,23.4c0,1.5,0.2,3,0.4,4.5
							c-5.5,1.1-10.4,3.4-14.5,6.5c-6.1-6.9-15.6-11.3-26.3-11.3c-18.5,0-33.5,13.3-33.5,29.8c0,0-56.5,1.2-64.6,60.9h437.6
							C660.2,284.6,714.3,245.3,671.7,176.2z"/>
						
							<radialGradient id="SVGID_10_" cx="-74.9026" cy="319.337" r="69.205" gradientTransform="matrix(-2.970000e-02 1.2578 2.4258 5.728061e-02 -49.7942 265.248)" gradientUnits="userSpaceOnUse">
							<stop  offset="0" style="stop-color:#FFFFFF"/>
							<stop  offset="1" style="stop-color:#C0EEF5"/>
						</radialGradient>
						<path class="st8" d="M653.6,229.6c0,0,0.1,0,0.1,0c0.8-8.1,7.6-14.3,15.8-14.1c1.7,0,3.3,0.4,4.8,0.9
							c2.2-12.1,12.6-21.2,25.1-21.6c4-12.8,16.1-22,30.2-21.7c17,0.4,30.5,14.5,30.1,31.5c0,0,0,0,0,0c4.7,0.3,8.9,2.7,11.5,6.3
							c2.7-1.2,5.7-1.9,8.8-1.8c11.2,0.3,20,9.6,19.8,20.7c-0.2,8.1-5.1,14.9-12,18c-2.5,8.9-10.8,15.4-20.5,15.2
							c-4.8-0.1-9.2-1.9-12.7-4.7c-4.8,8.5-14,14.2-24.5,14c-7.9-0.2-15-3.7-19.8-9.2c-5.2,5.8-13.9,9.4-23.7,9.2
							c-13.2-0.3-24.1-7.7-27-17.3c-2,0.8-4.3,1.3-6.6,1.3c-8.2-0.2-14.7-6.3-14.5-13.7C638.7,235.2,645.4,229.4,653.6,229.6z"/>
						<linearGradient id="SVGID_11_" gradientUnits="userSpaceOnUse" x1="267.2249" y1="140.9342" x2="267.2249" y2="301.3917">
							<stop  offset="0" style="stop-color:#FFFFFF"/>
							<stop  offset="0.2553" style="stop-color:#FBFEFE"/>
							<stop  offset="0.5052" style="stop-color:#EFFBFD"/>
							<stop  offset="0.7526" style="stop-color:#DCF5F9"/>
							<stop  offset="0.9976" style="stop-color:#C0EEF5"/>
							<stop  offset="1" style="stop-color:#C0EEF5"/>
						</linearGradient>
						<path class="st9" d="M50.9,201.9c0-19,17.4-34.5,38.8-34.5c16.7,0,31,9.4,36.4,22.6c3.8-2.7,8.5-4.3,13.5-4.3
							c6.3,0,12.1,2.5,16.3,6.6c4.3-4.9,10.6-8,17.6-8c8.3,0,15.5,4.3,19.6,10.7c6.9-5.8,16.3-9.4,26.6-9.4c8.1,0,15.5,2.2,21.7,5.9
							c5.8-8.8,16.6-14.7,28.9-14.7c17.4,0,31.6,11.7,33.4,26.7c2.7-1.1,5.6-1.7,8.6-1.7c3.2,0,6.2,0.6,8.9,1.8
							c4.3-4.4,10.2-7.2,16.8-7.2c12.9,0,23.4,10.5,23.4,23.4c0,1.5-0.2,3-0.4,4.5c5.5,1.1,10.4,3.4,14.5,6.5
							c6.1-6.9,15.6-11.3,26.3-11.3c18.5,0,33.5,13.3,33.5,29.8c0,0,56.5,1.2,64.6,60.9H62.3C62.3,310.3,8.3,271.1,50.9,201.9z"/>
						
							<radialGradient id="SVGID_12_" cx="-507.925" cy="382.9912" r="69.1996" gradientTransform="matrix(0.1242 1.2521 -2.4149 0.2395 1289.5234 817.8083)" gradientUnits="userSpaceOnUse">
							<stop  offset="0" style="stop-color:#FFFFFF"/>
							<stop  offset="0.4118" style="stop-color:#E8F9FB"/>
							<stop  offset="1" style="stop-color:#C0EEF5"/>
						</radialGradient>
						<path class="st10" d="M377.8,308.2c0,0-0.1,0-0.1,0c-1.4-8-8.7-13.6-16.9-12.8c-1.7,0.2-3.3,0.6-4.7,1.3
							c-3.1-11.9-14.1-20.2-26.6-19.6c-4.9-12.5-17.7-20.8-31.7-19.4c-16.9,1.7-29.3,16.8-27.6,33.7c0,0,0,0,0,0
							c-4.7,0.7-8.7,3.4-11,7.2c-2.8-1-5.8-1.4-8.9-1.1c-11.1,1.1-19.3,11-18.2,22.2c0.8,8,6.2,14.5,13.3,17.1
							c3.1,8.7,11.9,14.6,21.5,13.6c4.8-0.5,9.1-2.6,12.3-5.7c5.4,8.2,15,13.1,25.5,12.1c7.9-0.8,14.6-4.8,19.1-10.7
							c5.7,5.4,14.6,8.4,24.3,7.4c13.1-1.3,23.5-9.4,25.7-19.3c2.1,0.7,4.3,1,6.7,0.7c8.2-0.8,14.2-7.4,13.4-14.8
							C393.2,312.7,386,307.4,377.8,308.2z"/>
						
							<radialGradient id="SVGID_13_" cx="-298.3812" cy="345.8621" r="69.205" gradientTransform="matrix(2.970000e-02 1.2578 -2.4258 5.728061e-02 1430.5283 584.8206)" gradientUnits="userSpaceOnUse">
							<stop  offset="0" style="stop-color:#FFFFFF"/>
							<stop  offset="0.2962" style="stop-color:#EBFAFC"/>
							<stop  offset="1" style="stop-color:#C0EEF5"/>
						</radialGradient>
						<path class="st11" d="M656.1,269.6c0,0-0.1,0-0.1,0c-0.8-8.1-7.6-14.3-15.8-14.1c-1.7,0-3.3,0.4-4.8,0.9
							c-2.2-12.1-12.6-21.2-25-21.6c-4-12.8-16.1-22-30.2-21.7c-17,0.4-30.5,14.5-30.1,31.5c0,0,0,0,0,0c-4.7,0.3-8.9,2.7-11.5,6.3
							c-2.7-1.2-5.7-1.9-8.8-1.8c-11.2,0.3-20,9.5-19.8,20.7c0.2,8.1,5.1,14.9,12,18c2.5,8.9,10.8,15.4,20.5,15.2
							c4.8-0.1,9.2-1.9,12.7-4.7c4.8,8.5,14,14.2,24.5,14c7.9-0.2,15-3.7,19.8-9.2c5.2,5.8,13.9,9.4,23.7,9.2
							c13.2-0.3,24.1-7.7,27-17.3c2,0.8,4.3,1.3,6.6,1.2c8.2-0.2,14.7-6.3,14.5-13.7C671.1,275.2,664.3,269.4,656.1,269.6z"/>
						
							<radialGradient id="SVGID_14_" cx="423.5388" cy="355.0399" r="69.205" gradientTransform="matrix(-2.970000e-02 1.2578 2.4258 5.728061e-02 -749.6 -333.6334)" gradientUnits="userSpaceOnUse">
							<stop  offset="0" style="stop-color:#FFFFFF"/>
							<stop  offset="1" style="stop-color:#C0EEF5"/>
						</radialGradient>
						<path class="st12" d="M25.6,259.7c0,0,0.1,0,0.1,0c0.8-8.1,7.6-14.3,15.8-14.1c1.7,0,3.3,0.4,4.8,0.9
							c2.2-12.1,12.6-21.2,25.1-21.6c4-12.8,16.1-22,30.2-21.7c17,0.4,30.5,14.5,30.1,31.5c0,0,0,0,0,0c4.7,0.3,8.9,2.7,11.5,6.3
							c2.7-1.2,5.7-1.9,8.8-1.8c11.2,0.3,20,9.6,19.8,20.7c-0.2,8.1-5.1,14.9-12,18c-2.5,8.9-10.8,15.4-20.5,15.2
							c-4.8-0.1-9.2-1.9-12.7-4.7c-4.8,8.5-14,14.2-24.5,14c-7.9-0.2-15-3.7-19.8-9.2c-5.2,5.8-13.9,9.4-23.7,9.2
							c-13.2-0.3-24.1-7.7-27-17.3c-2,0.8-4.3,1.3-6.6,1.3c-8.2-0.2-14.7-6.3-14.5-13.7C10.7,265.3,17.4,259.5,25.6,259.7z"/>
						
							<radialGradient id="SVGID_15_" cx="298.4278" cy="446.4507" r="69.2024" gradientTransform="matrix(0.243 1.7444 -3.3643 0.4687 1879.797 -475.6325)" gradientUnits="userSpaceOnUse">
							<stop  offset="0" style="stop-color:#FFFFFF"/>
							<stop  offset="0.2431" style="stop-color:#FBFEFE"/>
							<stop  offset="0.5033" style="stop-color:#EEFAFC"/>
							<stop  offset="0.7705" style="stop-color:#D9F5F9"/>
							<stop  offset="1" style="stop-color:#C0EEF5"/>
						</radialGradient>
						<path class="st13" d="M558.9,298.4c-0.1,0-0.1,0-0.2,0c-2.4-11.1-12.9-18.6-24.3-17c-2.3,0.3-4.5,1-6.6,2
							c-5-16.4-20.9-27.4-38.3-26c-7.6-17.2-25.9-28.1-45.4-25.4c-23.6,3.3-40,25.1-36.8,48.7c0,0,0,0,0,0
							c-6.5,1.2-11.9,5.2-15,10.6c-3.9-1.3-8.2-1.7-12.5-1.1c-15.5,2.2-26.3,16.5-24.2,32c1.6,11.2,9.5,19.9,19.6,23.1
							c4.9,12,17.4,19.7,30.9,17.8c6.7-0.9,12.5-4.1,16.9-8.6c8,11.1,21.8,17.5,36.3,15.5c11-1.5,20.2-7.6,26.1-16
							c8.2,7.2,20.9,10.9,34.4,9c18.3-2.5,32.3-14.5,34.8-28.4c2.9,0.9,6.1,1.1,9.4,0.7c11.4-1.6,19.4-11.2,18-21.4
							C580.6,303.8,570.3,296.8,558.9,298.4z"/>
						
							<radialGradient id="SVGID_16_" cx="-31.9464" cy="426.5174" r="69.2021" gradientTransform="matrix(7.561933e-11 1.6843 -3.2484 1.458425e-10 1543.3055 299.1447)" gradientUnits="userSpaceOnUse">
							<stop  offset="0" style="stop-color:#FFFFFF"/>
							<stop  offset="0.2469" style="stop-color:#FBFEFE"/>
							<stop  offset="0.5034" style="stop-color:#EEFBFC"/>
							<stop  offset="0.7634" style="stop-color:#DAF5F9"/>
							<stop  offset="1" style="stop-color:#C0EEF5"/>
						</radialGradient>
						<path class="st14" d="M254.8,301.6c-0.1,0-0.1,0-0.2,0c-0.8-10.8-9.8-19.3-20.8-19.3c-2.3,0-4.4,0.4-6.5,1
							c-2.5-16.2-16.1-28.7-32.8-29.6c-4.9-17.3-20.8-30-39.7-30c-22.8,0-41.2,18.5-41.2,41.2c0,0,0,0,0,0c-6.4,0.3-12,3.4-15.6,8.1
							c-3.6-1.7-7.5-2.7-11.7-2.7c-15,0-27.1,12.1-27.1,27.1c0,10.8,6.3,20.1,15.5,24.5c3,12,13.9,21,26.9,21
							c6.5,0,12.4-2.2,17.1-5.9c6.1,11.6,18.3,19.5,32.3,19.5c10.6,0,20.1-4.5,26.8-11.7c6.8,7.9,18.3,13.1,31.4,13.1
							c17.7,0,32.5-9.5,36.7-22.3c2.7,1.2,5.6,1.9,8.8,1.9c11,0,19.9-8,19.9-17.9C274.7,309.6,265.8,301.6,254.8,301.6z"/>
					</g>
					<linearGradient id="SVGID_17_" gradientUnits="userSpaceOnUse" x1="450" y1="-212.1732" x2="450" y2="392.7938">
						<stop  offset="0.1656" style="stop-color:#FFFFFF;stop-opacity:0"/>
						<stop  offset="0.8377" style="stop-color:#FFFFFF;stop-opacity:0.9129"/>
						<stop  offset="0.9018" style="stop-color:#FFFFFF"/>
					</linearGradient>
					<rect x="0.4" y="7.1" class="st15" width="899.2" height="390.8"/>
				</g>
			</g>
		</g>
	</g>
	<g>
		<g>
			<g>
				<path class="st16" d="M232.7,200.1c0,0,0.1-0.2,0.2-0.6c0.7-2.1,2.2-9.7-7.7-10.8c-11.6-1.3-9.5,4.6-9.5,4.6L226,203"/>
				<circle class="st17" cx="383.7" cy="262.2" r="13.8"/>
				<g>
					<g>
						<path class="st18" d="M400,189.1c0,0,28.8-23,31.1-27c2.3-4,1-9.8-9.4-9.3c-10.4,0.5-62.8,16.8-71,19.7
							C342.6,175.4,400,189.1,400,189.1z"/>
						<g>
							<defs>
								<path id="SVGID_18_" d="M400,189.1c0,0,28.8-23,31.1-27c2.3-4,1-9.8-9.4-9.3c-10.4,0.5-62.8,16.8-71,19.7
									C342.6,175.4,400,189.1,400,189.1z"/>
							</defs>
							<clipPath id="SVGID_19_">
								<use xlink:href="#SVGID_18_"  style="overflow:visible;"/>
							</clipPath>
							<path class="st19" d="M421,177.1c0,0-2.8-16.7-47.5-12.5c-44.7,4.2,48.8-22.8,48.8-22.8l24.4,20.9L421,177.1z"/>
						</g>
					</g>
					<path class="st20" d="M310.8,183.5c0,0,57.1-31,113.2,12.5c0,0-24.9,0.4-28.1,27.1c0,0-1.7,19.5,17.3,26.8
						c0,0-74.4,30.3-131.3,8.7c-57-21.5-84.3-49.3-84.3-49.3l-13.2-36.9c0,0,31.8,4.7,35.4,11c3.6,6.2,2.6,13.4,13.3,12.9
						C244,195.8,305.9,182.1,310.8,183.5z"/>
					<path class="st21" d="M372.2,173.8c0,0-25.3-8.7-61.4,9.7c0,0-19.3,9.1,13,26.1c32.2,17.1,43,1.6,51.7-6.2
						c8.7-7.8,12.3-15.3,28.2-20.2C403.7,183.2,377.7,173.4,372.2,173.8z"/>
					<g>
						<defs>
							<path id="SVGID_20_" d="M310.8,183.5c0,0,57.1-31,113.2,12.5c0,0-24.9,0.4-28.1,27.1c0,0-1.7,19.5,17.3,26.8
								c0,0-74.4,30.3-131.3,8.7c-57-21.5-84.3-49.3-84.3-49.3l-13.2-36.9c0,0,31.8,4.7,35.4,11c3.6,6.2,2.6,13.4,13.3,12.9
								C244,195.8,305.9,182.1,310.8,183.5z"/>
						</defs>
						<clipPath id="SVGID_21_">
							<use xlink:href="#SVGID_20_"  style="overflow:visible;"/>
						</clipPath>
						<path class="st22" d="M411.1,183.9c0,0-11.9-4.8-21.6,1.9c-9.7,6.7-17.4,22.3-37.7,23.3c0,0-28-0.7-23.1-17.5
							c4.9-16.8,44-17.8,44-17.8l28.3-3.8L411.1,183.9z"/>
					</g>
					<path class="st23" d="M337.5,284.2c0,0,32.2-21.3,51.2-33.9"/>
					<g>
						<g>
							<path class="st24" d="M296.4,144.9c0,0-1.3-4.6-0.5-5.9c0.9-1.3,5.4-5.4,3.4-6.8c-2-1.4-3,0.3-3.4,1.7c0,0-1.8,3.3-2.1,2.1
								c-0.2-1.2-0.4-12.6-1.8-12.3c-1.3,0.3-2.7,0.3-0.9,10.6c0,0-0.3,2.5-0.9,1.7c-0.6-0.8-2.1-12.1-3.5-12
								c-1.4,0.1-0.8,2.4-0.4,4.4c0.4,2,1.3,7.2,1.3,7.2s0.9,2.3,0,2.1c-0.8-0.2-1.6-4-2.4-6.6c-0.8-2.5-2-5.9-3.1-4.9
								c-1.1,1,0,2.5,0.6,4.5c0.6,2,1.9,7.1,1.9,7.1s0.6,2.3,0.1,2c-0.5-0.3-2.8-7-3.6-6.8c-0.8,0.2-0.5,2.1,0.6,4.3
								c1.1,2.2,0.9,5.1,2.6,6.8c1.6,1.7,3.6,1.3,4.8,2.9"/>
							<path class="st25" d="M336.7,169.3c0,0-33.5,15.8-39.2-20.8l-7,2.9c0,0,2.8,37.4,45.6,27.3"/>
							<path class="st26" d="M297.6,143.5c0,0,2,5.8,1.1,6.6c-0.9,0.8-7.6,6.3-8.8,5.1c-1.2-1.1-3.6-7.7-2.2-7.9
								C289.1,147.1,296.3,143.1,297.6,143.5z"/>
						</g>
						<path class="st25" d="M387.3,133.6c0,0,24.6,28.9-21.9,39.2l-6.3-9.3c0,0,37.8,0.3,20.8-25.6L387.3,133.6z"/>
						<path class="st24" d="M363.9,136.5"/>
						<path class="st24" d="M364.7,126.4"/>
						<g id="Layer_1_1_">
							<g id="Layer_2_2_">
								<g id="Layer_1_3_">
									<g id="XMLID_10_">
										<g>
											<path class="st24" d="M354.4,160.7c0,0-3,0.4-3.8-4.7l-6.9,1.1c0.8,5.1-2.1,5.7-2.1,5.7l0.8,5.3l13.6-2.3L354.4,160.7z"
												/>
											<path class="st27" d="M352.4,157.2c0,0-1.1,3.7-5,3.6c-3.9-0.1-4.2-3-4.2-3S351,155.5,352.4,157.2z"/>
											<g id="XMLID_135_">
												
													<radialGradient id="XMLID_5_" cx="288.5739" cy="-14.5118" r="22.0407" gradientTransform="matrix(0.9902 -0.1397 0.1397 0.9902 60.0763 190.1224)" gradientUnits="userSpaceOnUse">
													<stop  offset="0" style="stop-color:#F2B68B"/>
													<stop  offset="1" style="stop-color:#E5BD9F"/>
												</radialGradient>
												<path id="XMLID_3_" class="st28" d="M362.5,125.5c-1.6-1.6-3.5,0.5-3.5,0.5s-0.1-1-0.3-2.1c0,0-3.1-13.3-18.1-11.2
													c-15,2.1-14,15.8-14.2,14.8c0-0.3,0.1,0.9,0.3,2.9c-0.6-0.2-2.1-1.6-3.4,0.5c-0.8,1.5-1.9,5,0.4,7.9
													c1.4,1.7,3.4,3.1,4.6,3.7c0.3,1.5,0.8,2,1,3.2c1.2,4.9,6.5,9.7,11.8,11.5c1.9,0.6,3.8,1,5.6,0.7
													c1.9-0.3,3.8-1.2,5.5-2.5c4.4-3.5,7.5-9.5,7.8-13.2c0.1-1.8,0.2-3.2,0.2-3.6l0,0c0,0,3.1-2.5,4-5.4
													C365.2,130.4,363.7,126.8,362.5,125.5z"/>
												
													<linearGradient id="XMLID_6_" gradientUnits="userSpaceOnUse" x1="283.9597" y1="-8.4493" x2="292.1545" y2="-8.4493" gradientTransform="matrix(0.9902 -0.1397 0.1397 0.9902 60.6352 194.0831)">
													<stop  offset="0" style="stop-color:#E28C47"/>
													<stop  offset="3.763440e-02" style="stop-color:#E48D48"/>
													<stop  offset="1" style="stop-color:#E39E68"/>
												</linearGradient>
												<path id="XMLID_177_" class="st29" d="M340.6,145.4c0,0,0.5-0.4,1.2-0.2c1.5,0.5,3.5,0.4,4.7-0.4
													c1.1-0.7,1.5-0.9,2.2-0.7c0,0-0.7,0-1.2,0.4c-0.5,0.5-1,1.5-2.1,1.8C343,147,342.1,144.9,340.6,145.4z"/>
												<g id="XMLID_265_" class="st30">
													
														<radialGradient id="XMLID_8_" cx="-615.0156" cy="-369.088" r="4.7758" gradientTransform="matrix(1.1857 -0.1064 8.611717e-02 0.7597 1097.047 358.4582)" gradientUnits="userSpaceOnUse">
														<stop  offset="0" style="stop-color:#E96565"/>
														<stop  offset="3.418660e-02" style="stop-color:#E96968;stop-opacity:0.9727"/>
														<stop  offset="0.4696" style="stop-color:#E79686;stop-opacity:0.6243"/>
														<stop  offset="0.8058" style="stop-color:#E5B298;stop-opacity:0.3554"/>
														<stop  offset="1" style="stop-color:#E5BD9F;stop-opacity:0.2"/>
													</radialGradient>
													<path id="XMLID_176_" class="st31" d="M335.5,139.7c3.2-0.4,6,0.9,6.3,3c0.3,2.1-2,4.2-5.2,4.6s-6-0.9-6.3-3
														S332.4,140.1,335.5,139.7z"/>
													
														<radialGradient id="XMLID_9_" cx="-600.674" cy="-368.4879" r="4.7776" gradientTransform="matrix(1.1857 -0.1064 8.611717e-02 0.7597 1096.88 357.1455)" gradientUnits="userSpaceOnUse">
														<stop  offset="0" style="stop-color:#E96565"/>
														<stop  offset="3.418660e-02" style="stop-color:#E96968;stop-opacity:0.9727"/>
														<stop  offset="0.4696" style="stop-color:#E79686;stop-opacity:0.6243"/>
														<stop  offset="0.8058" style="stop-color:#E5B298;stop-opacity:0.3554"/>
														<stop  offset="1" style="stop-color:#E5BD9F;stop-opacity:0.2"/>
													</radialGradient>
													<path id="XMLID_175_" class="st32" d="M352.4,137.3c3.2-0.4,6,0.9,6.3,3s-2,4.2-5.2,4.6c-3.2,0.4-6-0.9-6.3-3
														C346.9,139.8,349.3,137.7,352.4,137.3z"/>
												</g>
												<g id="XMLID_238_">
													
														<linearGradient id="XMLID_13_" gradientUnits="userSpaceOnUse" x1="288.2992" y1="-3.8838" x2="288.2992" y2="-5.1812" gradientTransform="matrix(0.9902 -0.1397 0.1397 0.9902 60.6352 194.0831)">
														<stop  offset="0" style="stop-color:#B12323"/>
														<stop  offset="1" style="stop-color:#E96565"/>
													</linearGradient>
													<path id="XMLID_157_" class="st33" d="M340.8,150.6c0,0,1.3-1.3,2.6-1.6c0.6-0.1,0.8,0.1,1.7,0
														c1.1-0.2,1.4-0.7,2.2-0.6c0.2,0,3,0.8,3,0.8L340.8,150.6z"/>
													
														<linearGradient id="XMLID_14_" gradientUnits="userSpaceOnUse" x1="-10866.6465" y1="-2432.8494" x2="-10866.6465" y2="-2435.8928" gradientTransform="matrix(-0.9902 0.1397 -0.1397 -0.9902 -10754.4961 -740.6454)">
														<stop  offset="0" style="stop-color:#B12323"/>
														<stop  offset="1" style="stop-color:#E96565"/>
													</linearGradient>
													<path id="XMLID_156_" class="st34" d="M349.9,149.4c0,0-0.2,2.1-1.5,2.9c-1.4,0.9-4,1.3-5.8,0.4
														c-1-0.5-1.5-2.1-1.5-2.1L349.9,149.4z"/>
													<path id="XMLID_155_" class="st35" d="M339.7,150.3c0,0,0.6,0.5,2,0.3c1.4-0.2,7.9-1.1,7.9-1.1s0.6-0.3,1.4-0.7
														c0,0-0.5,0.9-2.3,1.2c-1.8,0.3-6.7,0.9-6.7,0.9S340.6,151,339.7,150.3z"/>
													<path id="XMLID_154_" class="st35" d="M342.1,150.8c0,0,3.6,2.7,6.7-0.9L342.1,150.8z"/>
													<path id="XMLID_153_" class="st36" d="M342.6,150.5l6-0.8C348.6,149.7,344.7,151,342.6,150.5z"/>
												</g>
												<g id="XMLID_4_">
													<g id="XMLID_232_">
														
															<radialGradient id="XMLID_15_" cx="280.9037" cy="-17.4045" r="3.5654" gradientTransform="matrix(0.9902 -0.1397 0.1397 0.9902 60.6352 194.0831)" gradientUnits="userSpaceOnUse">
															<stop  offset="0" style="stop-color:#D3AF93"/>
															<stop  offset="1" style="stop-color:#F2B68B"/>
														</radialGradient>
														<path id="XMLID_151_" class="st37" d="M331.9,137.4c0,0,1.2,2.1,3.1,2.5c1.9,0.3,6.1-0.9,6.1-0.9s0.1-1.4-2-3
															C337,134.5,332.8,135.4,331.9,137.4z"/>
														<path id="XMLID_150_" class="st38" d="M332.4,137c0,0,0.8,2.5,2.6,2.7c1.8,0.2,5.8-0.8,5.8-0.8s-0.1-1.6-3.3-2.6
															C334.4,135.4,332.4,137,332.4,137z"/>
														
															<radialGradient id="XMLID_16_" cx="281.6935" cy="-16.9367" r="1.7126" gradientTransform="matrix(0.9902 -0.1397 0.1397 0.9902 60.6352 194.0831)" gradientUnits="userSpaceOnUse">
															<stop  offset="0" style="stop-color:#29ABE2"/>
															<stop  offset="1" style="stop-color:#007E9A"/>
														</radialGradient>
														<path id="XMLID_149_" class="st39" d="M337,136.2c0.2,0,0.3,0,0.5,0c-0.2,0.2-0.5,0.5-0.4,0.9c0.1,0.5,0.5,0.8,1,0.7
															c0.3,0,0.6-0.3,0.7-0.6c0.1,0.1,0.1,0.3,0.1,0.5c0.1,1-0.5,1.8-1.4,2c-0.9,0.1-1.8-0.5-1.9-1.5
															C335.4,137.2,336.1,136.3,337,136.2z"/>
														<circle id="XMLID_148_" class="st40" cx="337.4" cy="137.8" r="0.7"/>
														<path id="XMLID_147_" class="st40" d="M340.9,137.9c0,0-1.6-1.7-4.7-2c-3.1-0.2-5.1,0.7-5.1,0.7l1.2,1.3
															c0,0,0.1-0.6,1.1-1C334.5,136.5,338,135.9,340.9,137.9z"/>
													</g>
													<g id="XMLID_226_">
														
															<radialGradient id="XMLID_17_" cx="-10843.9785" cy="-17.4045" r="3.5649" gradientTransform="matrix(-0.9902 0.1397 0.1397 0.9902 -10384.3252 1667.9985)" gradientUnits="userSpaceOnUse">
															<stop  offset="0" style="stop-color:#D3AF93"/>
															<stop  offset="1" style="stop-color:#F2B68B"/>
														</radialGradient>
														<path id="XMLID_146_" class="st41" d="M355.2,134.2c0,0-0.6,2.4-2.3,3.2c-1.7,0.8-6.1,0.9-6.1,0.9s-0.5-1.3,1.1-3.4
															C349.4,132.8,353.7,132.5,355.2,134.2z"/>
														<path id="XMLID_145_" class="st38" d="M354.5,133.9c0,0-0.1,2.6-1.8,3.3c-1.7,0.7-5.8,0.8-5.8,0.8s-0.4-1.6,2.4-3.4
															C352.2,132.9,354.5,133.9,354.5,133.9z"/>
														
															<radialGradient id="XMLID_18_" cx="-10843.1982" cy="-16.9367" r="1.7109" gradientTransform="matrix(-0.9902 0.1397 0.1397 0.9902 -10384.3252 1667.9985)" gradientUnits="userSpaceOnUse">
															<stop  offset="0" style="stop-color:#29ABE2"/>
															<stop  offset="1" style="stop-color:#007E9A"/>
														</radialGradient>
														<path id="XMLID_144_" class="st42" d="M349.9,134.4c-0.2,0-0.3,0-0.5,0.1c0.3,0.1,0.6,0.4,0.6,0.7
															c0.1,0.5-0.3,0.9-0.7,1c-0.3,0-0.7-0.1-0.9-0.4c0,0.1,0,0.3,0,0.5c0.1,1,1,1.6,1.9,1.5c0.9-0.1,1.6-1,1.4-2
															C351.7,134.9,350.8,134.2,349.9,134.4z"/>
														<circle id="XMLID_143_" class="st40" cx="350" cy="136.1" r="0.7"/>
														<path id="XMLID_142_" class="st40" d="M346.6,137.1c0,0,1-2.1,4-3.2c3-1.1,5.1-0.7,5.1-0.7l-0.8,1.6
															c0,0-0.3-0.6-1.3-0.7C352.4,133.9,348.9,134.3,346.6,137.1z"/>
													</g>
													<g id="XMLID_221_">
														<g id="XMLID_224_">
															<path id="XMLID_141_" class="st43" d="M339.4,133.5c0,0-0.7-1.3-2.6-1.4c-2.3-0.1-4.5,1.3-5.1,2
																C331.8,134.2,335.4,131.3,339.4,133.5z"/>
														</g>
														<g id="XMLID_222_">
															<path id="XMLID_140_" class="st43" d="M346.9,132.6c0,0,0.3-1.4,2.1-2c2.2-0.8,4.7,0,5.5,0.5
																C354.5,131.1,350.1,129.3,346.9,132.6z"/>
														</g>
													</g>
													<g id="XMLID_271_">
														
															<radialGradient id="XMLID_19_" cx="307.0317" cy="-10.3074" r="5.1976" gradientTransform="matrix(0.9958 -9.146691e-02 5.639203e-02 0.6139 30.702 170.2929)" gradientUnits="userSpaceOnUse">
															<stop  offset="0" style="stop-color:#E96565"/>
															<stop  offset="3.418660e-02" style="stop-color:#E96968;stop-opacity:0.9727"/>
															<stop  offset="0.4696" style="stop-color:#E79686;stop-opacity:0.6243"/>
															<stop  offset="0.8058" style="stop-color:#E5B298;stop-opacity:0.3554"/>
															<stop  offset="1" style="stop-color:#E5BD9F;stop-opacity:0.2"/>
														</radialGradient>
														<path id="XMLID_181_" class="st44" d="M341,138.7c0,0-1.4-3.8-1.5-4.8c-0.1-1-3.4-2.3-6-1c-2.6,1.3-2.3,3.8-2.3,3.8
															s5-1.2,7-0.2C340.3,137.4,341,138.7,341,138.7z"/>
														
															<radialGradient id="XMLID_20_" cx="-10809.6318" cy="796.813" r="5.1976" gradientTransform="matrix(-0.9822 0.1877 0.1157 0.6056 -10358.6465 1679.6992)" gradientUnits="userSpaceOnUse">
															<stop  offset="0" style="stop-color:#E96565"/>
															<stop  offset="3.418660e-02" style="stop-color:#E96968;stop-opacity:0.9727"/>
															<stop  offset="0.4696" style="stop-color:#E79686;stop-opacity:0.6243"/>
															<stop  offset="0.8058" style="stop-color:#E5B298;stop-opacity:0.3554"/>
															<stop  offset="1" style="stop-color:#E5BD9F;stop-opacity:0.2"/>
														</radialGradient>
														<path id="XMLID_180_" class="st45" d="M346.8,137.9c0,0,0.3-4,0.1-5c-0.1-1,2.6-3.1,5.4-2.6c2.8,0.5,3.2,3,3.2,3
															s-5.1,0.2-6.8,1.8C347.1,136.5,346.8,137.9,346.8,137.9z"/>
													</g>
												</g>
											</g>
											<g id="XMLID_2_">
												
													<radialGradient id="XMLID_21_" cx="397.5197" cy="-937.355" r="43.0703" fx="387.0043" fy="-960.2122" gradientTransform="matrix(0.9311 -0.1314 -0.1349 -0.956 -152.8069 -707.3665)" gradientUnits="userSpaceOnUse">
													<stop  offset="0" style="stop-color:#C4862E"/>
													<stop  offset="0.1879" style="stop-color:#CE9938"/>
													<stop  offset="0.465" style="stop-color:#D9AD42"/>
													<stop  offset="0.7381" style="stop-color:#E0BA49"/>
													<stop  offset="1" style="stop-color:#E2BE4B"/>
												</radialGradient>
												<path id="XMLID_12_" class="st46" d="M373.9,151.3c-3.7-5,1-15.7-2.1-17.4c-3.1-1.9,0.5-6.9-3.6-9.8c-4-2.9-1-6.3-5-8.8
													c-4-2.5-2.6-7.1-13.5-11.3c-4.8-1.9-8.3-1.9-10.6-1.2l0,0c-2.4,0-5.8,0.9-9.9,4.1c-9.3,7-6.7,11-9.9,14.6
													c-3.2,3.5,0.7,6-2.4,9.8c-3.1,3.9,1.8,7.8-0.7,10.4c-2.5,2.6,4.9,11.5,2.8,17.3c-2.1,5.9,1.9,12.4,7.5,13.5
													c2.8,0.6,9.4-0.3,15.3-1.5c0.2-0.9,2.3-5.1,2-12.9c-6.6-1.4-13.2-9.7-14.9-19.2c-0.1-2.1,0-4.2,0.7-5.6
													c1.9-4,5.6-3.8,7.1-10.8c0,0,1.1,6.3,7.9,6.6c6.7,0.3,8.8-2.1,12.7,2.5c0.7,0.8,1.2,1.8,1.6,2.7
													c1.2,9.7-3.1,19.4-9.2,22.7c1.9,7.6,5.2,11.4,5.7,12.2c6-0.6,12.5-1.5,15.1-2.8C375.4,163.8,377.6,156.4,373.9,151.3z"
													/>
												
													<radialGradient id="XMLID_22_" cx="398.4227" cy="-928.9941" r="35.4225" gradientTransform="matrix(0.9311 -0.1314 -0.1349 -0.956 -152.8069 -707.3665)" gradientUnits="userSpaceOnUse">
													<stop  offset="0" style="stop-color:#C4862E"/>
													<stop  offset="0.4068" style="stop-color:#CE9738"/>
													<stop  offset="1" style="stop-color:#E1B84A"/>
													<stop  offset="1" style="stop-color:#E2BE4B"/>
												</radialGradient>
												<path id="XMLID_11_" class="st47" d="M368,124.2c-4-2.9-1-6.2-5-8.7c-4-2.5-2.6-7-13.5-11.2c-4.8-1.9-8.3-1.8-10.7-1.1
													l0,0c-2.4,0-5.8,0.9-9.9,4c-9.3,7-6.7,11-9.9,14.5c-3.1,3.5,0.7,5.9-2.4,9.8c-0.1,8.6,2.8,11.9,11.9,5.5
													c0-1.6,0.3-2.3,0.8-3.5c1.9-4,5.6-3.8,7.1-10.7c0,0,1.1,6.3,7.8,6.5c6.7,0.3,8.8-2.1,12.7,2.4c0.7,0.8,1.5,2.1,1.9,3.1
													C358.9,135.2,371.5,126.7,368,124.2z"/>
												
													<radialGradient id="XMLID_23_" cx="399.0176" cy="-915.8296" r="29.765" fx="399.015" fy="-926.6863" gradientTransform="matrix(0.9311 -0.1314 -0.1349 -0.956 -152.8069 -707.3665)" gradientUnits="userSpaceOnUse">
													<stop  offset="0" style="stop-color:#C4862E"/>
													<stop  offset="0" style="stop-color:#C68830"/>
													<stop  offset="0" style="stop-color:#D09E2A"/>
													<stop  offset="0.6685" style="stop-color:#DBAE3E"/>
													<stop  offset="1" style="stop-color:#E1B84A"/>
													<stop  offset="1" style="stop-color:#E2BE4B"/>
												</radialGradient>
												<path id="XMLID_7_" class="st48" d="M371.4,131.2c-1.5-2.1,0-6.5-3.5-8.9c-4-2.6-1-5.9-4.9-8.1
													c-4-2.3-2.6-6.5-13.4-10.4c-4.8-1.7-8.2-1.6-10.6-1l0,0c-2.4,0-5.8,0.9-9.9,3.9c-9.3,6.6-6.8,10.3-10,13.7
													c-3.2,3.3,0.7,5.5-2.5,9.2c-3.1,3.6,1.7,7.2-0.8,9.7c-0.2,0.2-0.4,0.5-0.4,0.8c5-0.1,9.8-1.2,13-4.7
													c0-1.5,0.2-2.9,0.8-3.9c1.9-3.8,5.7-3.6,7.2-10.2c0,0,1,5.9,7.8,6.1c6.7,0.2,8.8-2.1,12.7,2.2c0.7,0.8,1.1,1.7,1.5,2.5
													c0,0.3,0.2,0.6,0.2,1.1C363.5,135.5,365.7,129.9,371.4,131.2z"/>
											</g>
											<g id="XMLID_173_">
												<g id="XMLID_183_">
													
														<radialGradient id="XMLID_24_" cx="119.2907" cy="5.9166" r="6.743885e-02" gradientTransform="matrix(1.0254 -0.1447 0.1429 1.0127 248.9809 181.5205)" gradientUnits="userSpaceOnUse">
														<stop  offset="0" style="stop-color:#F2B68B"/>
														<stop  offset="1" style="stop-color:#E5BD9F"/>
													</radialGradient>
													<path id="XMLID_247_" class="st49" d="M372.1,170.2c0,0.1,0,0.1,0,0.2C372.2,170.3,372.1,170.2,372.1,170.2z"/>
													
														<radialGradient id="XMLID_25_" cx="96.7307" cy="-8.8745" r="16.6978" gradientTransform="matrix(1.0254 -0.1447 0.1429 1.0127 248.9809 181.5205)" gradientUnits="userSpaceOnUse">
														<stop  offset="0" style="stop-color:#F2B68B"/>
														<stop  offset="1" style="stop-color:#E5BD9F"/>
													</radialGradient>
													<path id="XMLID_248_" class="st50" d="M352.1,154.4C352.1,154.4,352.1,154.4,352.1,154.4c0,0.4,0,0.9,0,1.2
														C352.2,155.2,352.1,154.8,352.1,154.4z"/>
													
														<radialGradient id="XMLID_26_" cx="311.7908" cy="5.7757" r="2.614878e-02" gradientTransform="matrix(0.9902 -0.1397 0.1429 1.0127 62.5743 207.8248)" gradientUnits="userSpaceOnUse">
														<stop  offset="0" style="stop-color:#F2B68B"/>
														<stop  offset="1" style="stop-color:#E5BD9F"/>
													</radialGradient>
													<path id="XMLID_252_" class="st51" d="M372.1,170L372.1,170C372.1,170.1,372.1,170.1,372.1,170z"/>
													
														<radialGradient id="XMLID_27_" cx="291.5345" cy="-2.8572" r="16.5072" gradientTransform="matrix(0.9902 -0.1397 0.1429 1.0127 62.5743 207.8248)" gradientUnits="userSpaceOnUse">
														<stop  offset="0" style="stop-color:#F2B68B"/>
														<stop  offset="1" style="stop-color:#E5BD9F"/>
													</radialGradient>
													<path id="XMLID_254_" class="st52" d="M372.2,170.3c0.2,1.6,0.3,2.9,0.3,2.9l-1,0.1l0,0l1-0.1
														C372.4,173.2,372.4,171.9,372.2,170.3z"/>
													
														<radialGradient id="XMLID_28_" cx="291.5345" cy="-3.0428" r="16.6165" gradientTransform="matrix(0.9902 -0.1397 0.1429 1.0127 62.5743 207.8248)" gradientUnits="userSpaceOnUse">
														<stop  offset="0" style="stop-color:#F2B68B"/>
														<stop  offset="1" style="stop-color:#E5BD9F"/>
													</radialGradient>
													<path id="XMLID_255_" class="st53" d="M352.5,158.5c-0.1-0.9-0.2-1.9-0.3-2.9C352.3,156.6,352.4,157.7,352.5,158.5z"/>
												</g>
											</g>
										</g>
									</g>
								</g>
							</g>
						</g>
						<path class="st54" d="M359.1,162.9c0,0,10.4,9,7,19.7c-1.1,3.5,0,14.1,6.7,18.4c0,0-13.8,14.1-36.4,4.8c0,0-2.6-36.9,1.4-39.2
							c2-1.1,9.4,0.7,13.8-0.4C356.2,165.2,359.1,162.9,359.1,162.9z"/>
						<g>
							<path class="st55" d="M333.3,100.4c13.6-3,23.8,6.5,23.8,6.5c19.8,20.9,6.6,44.4,6.6,44.4s-3.1-29.2-8.3-26.1
								c-5.2,3.1-9.9,6.8-13.3,6.7c-3.5-0.1-13.7-3.7-15.3-0.4c-1.7,3.2,3.3,25.8,3.3,25.8c-6.3-5.1-18.4-17.8-13.7-38.9
								C316.3,118.3,320.1,104.9,333.3,100.4"/>
							<path class="st56" d="M365.4,119.7c0,0-26.3-15.9-49.2,14.5c0,0-0.4-3.6-0.4-5.6c0,0,15.6-30.1,46.4-14.5
								C362.3,114.1,364.6,117.7,365.4,119.7z"/>
							
								<ellipse transform="matrix(0.8747 -0.4846 0.4846 0.8747 -11.2137 183.9013)" class="st56" cx="350.1" cy="113.6" rx="6.6" ry="9.1"/>
							
								<ellipse transform="matrix(-0.9993 3.815307e-02 -3.815307e-02 -0.9993 666.9557 221.0847)" class="st56" cx="331.4" cy="116.9" rx="6.6" ry="9.1"/>
							
								<ellipse transform="matrix(-0.9993 3.815467e-02 -3.815467e-02 -0.9993 665.377 219.4054)" class="st57" cx="330.6" cy="116.1" rx="4.5" ry="6.2"/>
							
								<ellipse transform="matrix(0.8747 -0.4846 0.4846 0.8747 -10.6858 183.8949)" class="st57" cx="350.4" cy="112.6" rx="4.5" ry="6.2"/>
						</g>
						<path class="st27" d="M345.1,158.2c0,0-20.8-5.5-33,0.8c-12.2,6.3-19.3,12.4-26.4,11.3l-1.7,12.2c0,0,13.5-2.1,19.7-6.2
							c6.2-4,11.1-14.6,20.8-14.7s22-0.7,23-0.9C348.4,160.6,345.1,158.2,345.1,158.2z"/>
						<path class="st26" d="M352.1,162.3c0,0-1.7,3.8-0.1,3.9c1.6,0.1,9.4,1.7,8.6-0.5C359.8,163.5,360.3,160.8,352.1,162.3z"/>
						<path class="st26" d="M353.8,165.8c0,0-8,0.6-9.7-3c0,0-10.4,3.4-8.9,4.8c1.6,1.4,7.4,6.7,10.6,4.8
							C349.2,170.5,353.8,165.8,353.8,165.8z"/>
						<g>
							<path class="st58" d="M353.1,166.6c0,0,0.4,0.5,1.1,1.4c0.7,0.9,1.6,2.3,2.5,4c0.5,0.9,1,1.8,1.5,2.8c0.5,1,1,2.1,1.5,3.2
								c0.5,1.1,0.9,2.3,1.4,3.5c0.4,1.2,0.8,2.5,1.2,3.7c0.3,1.3,0.7,2.5,1,3.8c0.3,1.3,0.6,2.5,0.8,3.7c0.2,1.2,0.4,2.4,0.6,3.5
								c0.2,1.1,0.3,2.2,0.4,3.1c0.2,1.9,0.3,3.6,0.3,4.7c0,1.1,0,1.8,0,1.8s-0.1-0.6-0.4-1.8c-0.1-0.6-0.3-1.2-0.4-2
								c-0.1-0.8-0.4-1.6-0.6-2.6c-0.2-0.9-0.4-2-0.7-3.1c-0.3-1.1-0.6-2.2-0.8-3.4c-0.3-1.2-0.6-2.4-0.9-3.6
								c-0.3-1.2-0.7-2.5-1-3.7c-0.4-1.2-0.7-2.5-1.1-3.7c-0.4-1.2-0.8-2.4-1.2-3.5c-0.4-1.1-0.8-2.2-1.2-3.3c-0.4-1-0.8-2-1.1-2.9
								c-0.4-0.9-0.7-1.7-1-2.4c-0.3-0.7-0.6-1.3-0.8-1.9C353.4,167.2,353.1,166.6,353.1,166.6z"/>
						</g>
						<path class="st24" d="M383.2,129.4c0,0-1.8-3.5-2.8-5.5c-1-2-7.7-4.7-9.8-2.8c0,0-2.4,0.2-4,1.9c0,0-4.8,1.3-2.8,2.7
							c2,1.4,7.8,1.3,9.9,4.2c2.1,2.9,3,5.8,4.1,5.2C378.9,134.5,384,131,383.2,129.4z"/>
						<path class="st26" d="M383.9,128.2c0,0,4.1,4.9,5.2,6.2c1.1,1.2-1,3.4-3.4,4.3c-2.4,0.9-4,1.5-4.5,2.4
							c-0.5,0.9-6.3-4.5-5.5-5.6C376.5,134.5,383.6,129.9,383.9,128.2z"/>
					</g>
					<g>
						<defs>
							<path id="SVGID_22_" d="M310.8,183.5c0,0,57.1-31,113.2,12.5c0,0-24.9,0.4-28.1,27.1c0,0-1.7,19.5,17.3,26.8
								c0,0-74.4,30.3-131.3,8.7c-57-21.5-84.3-49.3-84.3-49.3l-13.2-36.9c0,0,31.8,4.7,35.4,11c3.6,6.2,2.6,13.4,13.3,12.9
								C244,195.8,305.9,182.1,310.8,183.5z"/>
						</defs>
						<clipPath id="SVGID_23_">
							<use xlink:href="#SVGID_22_"  style="overflow:visible;"/>
						</clipPath>
						<path class="st59" d="M403.5,219.9c0,0-90.8,33.3-208.3-10.2l90.6,77.7c0,0,146.6-33.3,145.7-33.1
							C430.5,254.4,403.5,219.9,403.5,219.9z"/>
					</g>
					<g>
						<g>
							<path class="st60" d="M340.9,241.1c-5,14-10,28.1-15,42.1c-2,5.6,7,8.1,8.9,2.5c5-14,10-28.1,15-42.1
								C351.9,237.9,342.9,235.5,340.9,241.1L340.9,241.1z"/>
						</g>
					</g>
					<path class="st17" d="M328.3,269.3c0,0,23.6,0.7,21.5,16.4c-2,15.4-19.7,16.4-19.7,16.4"/>
					<circle class="st61" cx="328.7" cy="285.7" r="16.4"/>
					<circle class="st20" cx="328.8" cy="285.9" r="5.6"/>
					<g>
						<path class="st62" d="M260.4,221.8c0,0,10.1-4.5,17.5-4c7.3,0.5,57.7,4.9,63.7,13.7c0,0-52.2,27.2-111.3,35.5
							c0,0-41.4,3.7-42.9-9.3L260.4,221.8z"/>
						<g>
							<defs>
								<path id="SVGID_24_" d="M260.4,221.8c0,0,10.1-4.5,17.5-4c7.3,0.5,57.7,4.9,63.7,13.7c0,0-52.2,27.2-111.3,35.5
									c0,0-41.4,3.7-42.9-9.3L260.4,221.8z"/>
							</defs>
							<clipPath id="SVGID_25_">
								<use xlink:href="#SVGID_24_"  style="overflow:visible;"/>
							</clipPath>
							<path class="st63" d="M210.7,242.1c-2.2-1.7,66.2-5.4,67.7,18.7C279.8,284.9,173,300,173,300l-8.3-50.3L210.7,242.1z"/>
						</g>
					</g>
				</g>
				<path class="st16" d="M194.8,197.3c0,0,20.1,1.8,20.9,6.6c0,0-14.1,8.7-26.4,6.5c-12.4-2.3-17.7-5.4-11.9-8.1
					C183.2,199.5,194.8,197.3,194.8,197.3z"/>
				<path class="st64" d="M424.3,196.2c0,0,11.7,10.9,9.5,28.2c-2.2,17.3-16.4,24.1-30.3,29c0,0-23.8-10.4-13.1-43.9
					C401.1,176.1,424.3,196.2,424.3,196.2z"/>
				<path class="st65" d="M403.5,253.4c0,0,42.2-8.8,28.6-46.8c0,0-19.1,10.9-44.4,17.8C387.7,224.4,385.5,243.5,403.5,253.4z"/>
				<path class="st66" d="M432,210.7l11.6-31.3c0,0,1.1-7.4-3.2-11.4s-10.9-10.5-11.9-3.4C427.6,171.8,427.2,205.1,432,210.7z"/>
				<path class="st67" d="M429.4,206c0,0-7.3,2-8.5,8.5c0,0-1.8,11.4,5.8,13.1c0,0,20.8-2.8,18.9-11.3
					C443.6,207.8,429.4,206,429.4,206z"/>
				<path class="st66" d="M428.6,221.6l-16.8,28.9c0,0-2.4,7.1,1.2,11.8c3.5,4.6,9,12.3,11.1,5.3C426.3,260.7,432.4,228,428.6,221.6
					z"/>
			</g>
		</g>
	</g>
	<g>
		<path class="st25" d="M519.9,173.5c0,0-0.1,0.1-0.4,0.3c-0.3,0.1-0.8,0.3-1.3,0.4c-1.1,0.1-2.7-0.1-4.1-0.7c-0.7-0.3-1.4-0.6-2-1
			c-0.6-0.4-1.1-0.8-1.5-1.2c-0.2-0.2-0.4-0.4-0.5-0.6c-0.1-0.2-0.3-0.3-0.3-0.5c-0.2-0.3-0.3-0.4-0.3-0.4s0.1,0.1,0.4,0.4
			c0.2,0.2,0.6,0.5,1,0.9c0.4,0.3,1,0.7,1.5,1c0.6,0.3,1.2,0.7,1.9,0.9c0.7,0.3,1.4,0.5,2,0.7c0.3,0.1,0.6,0.2,1,0.2
			c0.3,0.1,0.6,0.1,0.9,0.1c0.3,0,0.5,0,0.7,0c0.2,0,0.4-0.1,0.6-0.1C519.8,173.6,519.9,173.5,519.9,173.5z"/>
	</g>
</g>
</svg>
