<?xml version="1.0" encoding="utf-8"?>
<!-- Generator: Adobe Illustrator 19.0.0, SVG Export Plug-In . SVG Version: 6.00 Build 0)  -->
<svg version="1.1" id="Layer_1" xmlns="http://www.w3.org/2000/svg" xmlns:xlink="http://www.w3.org/1999/xlink" x="0px" y="0px"
	 viewBox="-299 301 900 400" style="enable-background:new -299 301 900 400;" xml:space="preserve">
<style type="text/css">
	.st0{clip-path:url(#SVGID_2_);}
	.st1{opacity:0.75;fill:url(#SVGID_3_);enable-background:new    ;}
	.st2{opacity:0.75;fill:url(#SVGID_4_);enable-background:new    ;}
	.st3{fill:url(#SVGID_5_);}
	.st4{fill:url(#SVGID_6_);}
	.st5{fill:url(#SVGID_7_);}
	.st6{fill:url(#SVGID_8_);}
	.st7{fill:url(#SVGID_9_);}
	.st8{fill:url(#SVGID_10_);}
	.st9{fill:url(#SVGID_11_);}
	.st10{fill:url(#SVGID_12_);}
	.st11{fill:url(#SVGID_13_);}
	.st12{fill:url(#SVGID_14_);}
	.st13{fill:url(#SVGID_15_);}
	.st14{fill:url(#SVGID_16_);}
	.st15{opacity:0.61;fill:url(#SVGID_17_);enable-background:new    ;}
	.st16{fill:#186664;}
	.st17{fill:#2A3030;}
	.st18{fill:#08A39F;}
	.st19{clip-path:url(#SVGID_19_);fill:#186664;}
	.st20{fill:#09B7B5;}
	.st21{fill:#7FD6D2;}
	.st22{clip-path:url(#SVGID_21_);fill:#23201A;}
	.st23{fill:none;stroke:#186664;stroke-width:4.9498;stroke-miterlimit:10;}
	.st24{fill:#E8E8E8;}
	.st25{fill:#FFB685;}
	.st26{fill:#FFCCB0;}
	.st27{fill:#F2305F;}
	.st28{fill:url(#XMLID_5_);}
	.st29{fill:url(#XMLID_6_);}
	.st30{opacity:0.7;}
	.st31{fill:url(#XMLID_8_);}
	.st32{fill:url(#XMLID_9_);}
	.st33{fill:url(#XMLID_13_);}
	.st34{fill:url(#XMLID_14_);}
	.st35{fill:#800A0A;}
	.st36{fill:#FFFFFF;stroke:#FFFFFF;stroke-width:0.3147;stroke-miterlimit:10;}
	.st37{opacity:0.3;fill:url(#XMLID_15_);enable-background:new    ;}
	.st38{fill:#FFFFFF;}
	.st39{fill:url(#XMLID_16_);}
	.st40{fill:#1B334D;}
	.st41{opacity:0.3;fill:url(#XMLID_17_);enable-background:new    ;}
	.st42{fill:url(#XMLID_18_);}
	.st43{fill:#8E6109;}
	.st44{fill:url(#XMLID_19_);}
	.st45{fill:url(#XMLID_20_);}
	.st46{fill:url(#XMLID_21_);}
	.st47{fill:url(#XMLID_22_);}
	.st48{fill:url(#XMLID_23_);}
	.st49{fill:url(#XMLID_24_);}
	.st50{fill:url(#XMLID_25_);}
	.st51{opacity:0.2;fill:url(#XMLID_26_);enable-background:new    ;}
	.st52{opacity:0.2;fill:url(#XMLID_27_);enable-background:new    ;}
	.st53{opacity:0.2;fill:url(#XMLID_28_);enable-background:new    ;}
	.st54{fill:#1628B2;stroke:#1628B2;stroke-miterlimit:10;}
	.st55{fill:#5A3836;}
	.st56{fill:#7F5958;}
	.st57{fill:none;stroke:#5A3836;stroke-miterlimit:10;}
	.st58{fill:#CBEAEF;}
	.st59{clip-path:url(#SVGID_23_);fill:#0E9E9A;}
	.st60{fill:#606060;}
	.st61{clip-path:url(#SVGID_25_);fill:#186664;}
	.st62{fill:#DBD9DA;}
	.st63{fill:#C6C6C6;}
	.st64{fill:#23201A;}
	.st65{fill:#1628B2;}
	.st66{fill:#152584;}
	.st67{fill:none;stroke:#5A3836;stroke-width:0.9278;stroke-miterlimit:10;}
</style>
<g id="Background">
</g>
<g id="Objects">
	<g>
		<g>
			<g>
				<g>
					<defs>
						<rect id="SVGID_1_" x="-299" y="301" width="900" height="400"/>
					</defs>
					<clipPath id="SVGID_2_">
						<use xlink:href="#SVGID_1_"  style="overflow:visible;"/>
					</clipPath>
					<g class="st0">
						<g>
							<g>
								
									<linearGradient id="SVGID_3_" gradientUnits="userSpaceOnUse" x1="-261.5014" y1="658.5369" x2="-160.2639" y2="658.5369" gradientTransform="matrix(1.2055 -0.1679 0.1679 1.2055 190.0411 -427.3807)">
									<stop  offset="0" style="stop-color:#FFFFFF"/>
									<stop  offset="0.166" style="stop-color:#F7FCFE"/>
									<stop  offset="0.4213" style="stop-color:#E2F3FC"/>
									<stop  offset="0.7323" style="stop-color:#BFE5F9"/>
									<stop  offset="1" style="stop-color:#9BD7F5"/>
								</linearGradient>
								<path class="st1" d="M97,401.2L97,401.2c-1.4-6.1-7.2-10.2-13.4-9.3c-1.3,0.2-2.5,0.6-3.6,1.1c-2.7-9-11.4-15-20.9-14.2
									c-4.1-9.4-14.1-15.3-24.8-13.9c-12.9,1.8-21.9,13.7-20.1,26.6l0,0c-3.6,0.6-6.5,2.8-8.2,5.8c-2.1-0.7-4.5-0.9-6.9-0.6
									c-8.5,1.2-14.4,9-13.2,17.5c0.9,6.1,5.2,10.9,10.7,12.6c2.7,6.6,9.5,10.8,16.9,9.8c3.7-0.5,6.8-2.2,9.2-4.7
									c4.4,6.1,11.9,9.6,19.8,8.5c6-0.8,11.1-4.1,14.3-8.8c4.5,3.9,11.4,6,18.8,4.9c10-1.4,17.7-7.9,19-15.5
									c1.6,0.5,3.3,0.6,5.1,0.4c6.2-0.9,10.6-6.1,9.8-11.7C108.9,404.1,103.2,400.3,97,401.2z"/>
								
									<linearGradient id="SVGID_4_" gradientUnits="userSpaceOnUse" x1="194.1513" y1="374.5575" x2="194.1513" y2="519.3553" gradientTransform="matrix(1 0 0 1 0 4)">
									<stop  offset="0" style="stop-color:#FFFFFF"/>
									<stop  offset="0.166" style="stop-color:#F7FCFE"/>
									<stop  offset="0.4213" style="stop-color:#E2F3FC"/>
									<stop  offset="0.7323" style="stop-color:#BFE5F9"/>
									<stop  offset="1" style="stop-color:#9BD7F5"/>
								</linearGradient>
								<path class="st2" d="M140,424.7h0.1c0.6,6.6,6.3,11.8,13.1,11.6c1.4,0,2.7-0.3,4-0.7c1.8,9.9,10.4,17.5,20.7,17.8
									c3.3,10.6,13.2,18.2,24.9,17.9c14-0.3,25.1-12,24.8-26l0,0c3.9-0.3,7.3-2.2,9.5-5.2c2.2,1,4.7,1.5,7.3,1.5
									c9.2-0.2,16.5-7.9,16.3-17.1c-0.2-6.7-4.2-12.3-9.9-14.8c-2-7.4-8.9-12.7-16.9-12.5c-4,0.1-7.6,1.6-10.5,3.9
									c-3.9-7-11.6-11.7-20.2-11.5c-6.5,0.2-12.3,3.1-16.3,7.6c-4.3-4.8-11.5-7.8-19.5-7.6c-10.9,0.3-19.9,6.3-22.3,14.3
									c-1.7-0.7-3.5-1.1-5.5-1c-6.8,0.2-12.1,5.2-12,11.3C127.7,420,133.2,424.8,140,424.7z"/>
								
									<radialGradient id="SVGID_5_" cx="-1533.1562" cy="538.4263" r="69.2038" gradientTransform="matrix(-0.1766 1.1921 3.1593 0.3709 -1864.6925 2039.6422)" gradientUnits="userSpaceOnUse">
									<stop  offset="0" style="stop-color:#FFFFFF"/>
									<stop  offset="1" style="stop-color:#C0EEF5"/>
								</radialGradient>
								<path class="st3" d="M6.9,440.4c0.1,0,0.1,0,0.2,0c1.9-7.6,11.5-12.6,22.2-11.3c2.2,0.3,4.3,0.8,6.2,1.5
									c4.2-11.2,18.7-18.5,35-17.2c6.6-11.7,23.4-18.9,41.7-16.7c22.1,2.6,38.2,17.8,35.8,33.9l0,0c6.2,0.9,11.3,3.7,14.3,7.5
									c3.6-0.8,7.6-1,11.7-0.6c14.6,1.7,25.1,11.7,23.5,22.3c-1.1,7.7-8.3,13.5-17.6,15.6c-4.2,8.2-15.7,13.3-28.4,11.8
									c-6.3-0.7-11.8-3-16-6.2c-7.2,7.5-19.9,11.7-33.5,10.1c-10.3-1.2-19.1-5.5-24.9-11.4c-7.5,4.8-19.2,7.2-31.9,5.7
									c-17.2-2-30.6-10.4-33.4-20c-2.7,0.5-5.7,0.7-8.8,0.3c-10.7-1.3-18.5-7.9-17.4-14.9C-13.3,443.8-3.8,439.1,6.9,440.4z"/>
								
									<linearGradient id="SVGID_6_" gradientUnits="userSpaceOnUse" x1="-32.2007" y1="395.2188" x2="-32.2007" y2="532.4067" gradientTransform="matrix(1 0 0 1 0 4)">
									<stop  offset="0" style="stop-color:#FFFFFF"/>
									<stop  offset="1" style="stop-color:#C0EEF5"/>
								</linearGradient>
								<path class="st4" d="M-83.6,442.9L-83.6,442.9c0.7,6.3,6.1,11.1,12.5,11c1.3,0,2.6-0.3,3.8-0.7c1.7,9.4,9.8,16.5,19.6,16.8
									c3.1,10,12.5,17.2,23.6,17c13.3-0.3,23.8-11.3,23.5-24.6l0,0c3.7-0.2,6.9-2.1,9-4.9c2.1,0.9,4.4,1.5,6.9,1.4
									c8.7-0.2,15.7-7.5,15.5-16.2c-0.1-6.3-4-11.6-9.4-14.1c-1.9-7-8.4-12-16-11.9c-3.8,0.1-7.2,1.5-9.9,3.7
									c-3.7-6.7-11-11.1-19.1-10.9c-6.2,0.1-11.7,2.9-15.5,7.2c-4.1-4.5-10.9-7.4-18.5-7.2c-10.3,0.2-18.8,6-21.1,13.5
									c-1.6-0.7-3.3-1-5.2-1c-6.4,0.2-11.5,4.9-11.3,10.7C-95.3,438.5-90,443.1-83.6,442.9z"/>
								
									<linearGradient id="SVGID_7_" gradientUnits="userSpaceOnUse" x1="1027.2313" y1="471.0211" x2="1027.2313" y2="601.453" gradientTransform="matrix(-0.9958 -9.110000e-02 -9.110000e-02 0.9958 1283.9042 19.3746)">
									<stop  offset="0" style="stop-color:#FFFFFF"/>
									<stop  offset="0.2234" style="stop-color:#F9FDFD"/>
									<stop  offset="0.5235" style="stop-color:#E8F7F9"/>
									<stop  offset="0.8658" style="stop-color:#CCEDF2"/>
									<stop  offset="1" style="stop-color:#BFE9EF"/>
								</linearGradient>
								<path class="st5" d="M388.7,460.2c1.4-15.4-11.5-29.2-28.8-30.8c-13.5-1.2-25.8,5.3-31.2,15.6c-2.9-2.5-6.5-4.1-10.6-4.5
									c-5.1-0.5-10,1.2-13.7,4.2c-3.1-4.3-8-7.3-13.6-7.8c-6.7-0.6-12.9,2.3-16.7,7.2c-5.2-5.2-12.5-8.8-20.8-9.6
									c-6.5-0.6-12.7,0.6-18,3.2c-4.1-7.6-12.3-13.1-22.3-14.1c-14-1.3-26.5,7.1-29,19.2c-2.1-1.1-4.4-1.8-6.9-2
									c-2.6-0.2-5,0.1-7.3,0.8c-3.1-3.9-7.7-6.6-13.1-7.1c-10.5-1-19.7,6.7-20.7,17.2c-0.1,1.2-0.1,2.5,0,3.6
									c-4.5,0.5-8.7,1.9-12.2,4.2c-4.5-6-11.8-10.3-20.4-11.1c-15-1.4-28.1,8.3-29.4,21.6c0,0-45.8-3.2-56.8,44.5l354.3,32.4
									C371.4,547.1,418,519.3,388.7,460.2z"/>
								
									<linearGradient id="SVGID_8_" gradientUnits="userSpaceOnUse" x1="1217.4893" y1="475.6748" x2="1217.4893" y2="606.0975" gradientTransform="matrix(-0.9923 -0.1241 -0.1241 0.9923 1289.9781 84.7588)">
									<stop  offset="0" style="stop-color:#FFFFFF"/>
									<stop  offset="0.3495" style="stop-color:#FCFEFE"/>
									<stop  offset="0.5629" style="stop-color:#F4FBFC"/>
									<stop  offset="0.7398" style="stop-color:#E6F6F9"/>
									<stop  offset="0.8957" style="stop-color:#D1EFF4"/>
									<stop  offset="1" style="stop-color:#BFE9EF"/>
								</linearGradient>
								<path class="st6" d="M191.2,476.7c1.9-15.4-10.5-29.6-27.8-31.7c-13.5-1.7-26,4.5-31.7,14.6c-2.8-2.6-6.4-4.4-10.5-4.9
									c-5.1-0.6-10,0.8-13.8,3.7c-3-4.4-7.7-7.5-13.4-8.2c-6.7-0.8-12.9,1.9-16.9,6.7c-5-5.4-12.2-9.2-20.5-10.3
									c-6.5-0.8-12.7,0.2-18.1,2.6c-3.8-7.7-11.9-13.5-21.8-14.8c-14-1.8-26.7,6.3-29.6,18.2c-2-1.1-4.3-1.9-6.8-2.2
									c-2.5-0.3-5-0.1-7.4,0.5c-3-4-7.5-6.8-12.9-7.5c-10.4-1.3-19.9,6.1-21.2,16.5c-0.2,1.2-0.2,2.4-0.1,3.6
									c-4.5,0.3-8.7,1.7-12.3,3.8c-4.3-6.2-11.5-10.7-20-11.7c-14.9-1.9-28.4,7.4-30.1,20.7c0,0-45.7-4.7-58.3,42.6l353,44.2
									C171.1,563,218.6,536.8,191.2,476.7z"/>
								
									<linearGradient id="SVGID_9_" gradientUnits="userSpaceOnUse" x1="1352.1016" y1="411.1914" x2="1352.1016" y2="571.6472" gradientTransform="matrix(-1 0 0 1 1508.4785 4)">
									<stop  offset="0" style="stop-color:#FFFFFF"/>
									<stop  offset="0.1955" style="stop-color:#FBFEFE"/>
									<stop  offset="0.3988" style="stop-color:#EEFAFD"/>
									<stop  offset="0.6055" style="stop-color:#DAF4FA"/>
									<stop  offset="0.8133" style="stop-color:#BDECF7"/>
									<stop  offset="1" style="stop-color:#9CE3F3"/>
								</linearGradient>
								<path class="st7" d="M372.7,476.2c0-19-17.4-34.5-38.8-34.5c-16.7,0-31,9.4-36.4,22.6c-3.8-2.7-8.5-4.3-13.5-4.3
									c-6.3,0-12.1,2.5-16.3,6.6c-4.3-4.9-10.6-8-17.6-8c-8.3,0-15.5,4.3-19.6,10.7c-6.9-5.8-16.3-9.4-26.6-9.4
									c-8.1,0-15.5,2.2-21.7,5.9c-5.8-8.8-16.6-14.7-28.9-14.7c-17.4,0-31.6,11.7-33.4,26.7c-2.7-1.1-5.6-1.7-8.6-1.7
									c-3.2,0-6.2,0.6-8.9,1.8c-4.3-4.4-10.2-7.2-16.8-7.2c-12.9,0-23.4,10.5-23.4,23.4c0,1.5,0.2,3,0.4,4.5
									c-5.5,1.1-10.4,3.4-14.5,6.5c-6.1-6.9-15.6-11.3-26.3-11.3c-18.5,0-33.5,13.3-33.5,29.8c0,0-56.5,1.2-64.6,60.9h437.6
									C361.2,584.6,415.3,545.3,372.7,476.2z"/>
								
									<radialGradient id="SVGID_10_" cx="-1052.5325" cy="691.7855" r="69.205" gradientTransform="matrix(-2.970000e-02 1.2578 2.4258 5.728061e-02 -1281.3153 1773.5767)" gradientUnits="userSpaceOnUse">
									<stop  offset="0" style="stop-color:#FFFFFF"/>
									<stop  offset="1" style="stop-color:#C0EEF5"/>
								</radialGradient>
								<path class="st8" d="M354.6,529.6L354.6,529.6c0.9-8.1,7.7-14.3,15.9-14.1c1.7,0,3.3,0.4,4.8,0.9
									c2.2-12.1,12.6-21.2,25.1-21.6c4-12.8,16.1-22,30.2-21.7c17,0.4,30.5,14.5,30.1,31.5l0,0c4.7,0.3,8.9,2.7,11.5,6.3
									c2.7-1.2,5.7-1.9,8.8-1.8c11.2,0.3,20,9.6,19.8,20.7c-0.2,8.1-5.1,14.9-12,18c-2.5,8.9-10.8,15.4-20.5,15.2
									c-4.8-0.1-9.2-1.9-12.7-4.7c-4.8,8.5-14,14.2-24.5,14c-7.9-0.2-15-3.7-19.8-9.2c-5.2,5.8-13.9,9.4-23.7,9.2
									c-13.2-0.3-24.1-7.7-27-17.3c-2,0.8-4.3,1.3-6.6,1.3c-8.2-0.2-14.7-6.3-14.5-13.7C339.7,535.2,346.4,529.4,354.6,529.6z"/>
								
									<linearGradient id="SVGID_11_" gradientUnits="userSpaceOnUse" x1="-31.7855" y1="436.9342" x2="-31.7855" y2="597.3917" gradientTransform="matrix(1 0 0 1 0 4)">
									<stop  offset="0" style="stop-color:#FFFFFF"/>
									<stop  offset="0.2553" style="stop-color:#FBFEFE"/>
									<stop  offset="0.5052" style="stop-color:#EFFBFD"/>
									<stop  offset="0.7526" style="stop-color:#DCF5F9"/>
									<stop  offset="0.9976" style="stop-color:#C0EEF5"/>
									<stop  offset="1" style="stop-color:#C0EEF5"/>
								</linearGradient>
								<path class="st9" d="M-248.1,501.9c0-19,17.4-34.5,38.8-34.5c16.7,0,31,9.4,36.4,22.6c3.8-2.7,8.5-4.3,13.5-4.3
									c6.3,0,12.1,2.5,16.3,6.6c4.3-4.9,10.6-8,17.6-8c8.3,0,15.5,4.3,19.6,10.7c6.9-5.8,16.3-9.4,26.6-9.4
									c8.1,0,15.5,2.2,21.7,5.9c5.8-8.8,16.6-14.7,28.9-14.7c17.4,0,31.6,11.7,33.4,26.7c2.7-1.1,5.6-1.7,8.6-1.7
									c3.2,0,6.2,0.6,8.9,1.8c4.3-4.4,10.2-7.2,16.8-7.2c12.9,0,23.4,10.5,23.4,23.4c0,1.5-0.2,3-0.4,4.5
									c5.5,1.1,10.4,3.4,14.5,6.5c6.1-6.9,15.6-11.3,26.3-11.3c18.5,0,33.5,13.3,33.5,29.8c0,0,56.5,1.2,64.6,60.9h-437.6
									C-236.7,610.3-290.7,571.1-248.1,501.9z"/>
								
									<radialGradient id="SVGID_12_" cx="-1399.468" cy="27.2057" r="69.1996" gradientTransform="matrix(0.1242 1.2521 -2.4149 0.2395 242.0667 2319.3198)" gradientUnits="userSpaceOnUse">
									<stop  offset="0" style="stop-color:#FFFFFF"/>
									<stop  offset="0.4118" style="stop-color:#E8F9FB"/>
									<stop  offset="1" style="stop-color:#C0EEF5"/>
								</radialGradient>
								<path class="st10" d="M78.8,608.2L78.8,608.2c-1.5-8-8.8-13.6-17-12.8c-1.7,0.2-3.3,0.6-4.7,1.3
									C54,584.8,43,576.5,30.5,577.1c-4.9-12.5-17.7-20.8-31.7-19.4c-16.9,1.7-29.3,16.8-27.6,33.7l0,0c-4.7,0.7-8.7,3.4-11,7.2
									c-2.8-1-5.8-1.4-8.9-1.1c-11.1,1.1-19.3,11-18.2,22.2c0.8,8,6.2,14.5,13.3,17.1c3.1,8.7,11.9,14.6,21.5,13.6
									c4.8-0.5,9.1-2.6,12.3-5.7c5.4,8.2,15,13.1,25.5,12.1c7.9-0.8,14.6-4.8,19.1-10.7c5.7,5.4,14.6,8.4,24.3,7.4
									c13.1-1.3,23.5-9.4,25.7-19.3c2.1,0.7,4.3,1,6.7,0.7c8.2-0.8,14.2-7.4,13.4-14.8C94.2,612.7,87,607.4,78.8,608.2z"/>
								
									<radialGradient id="SVGID_13_" cx="-1242.3505" cy="-20.8271" r="69.205" gradientTransform="matrix(2.970000e-02 1.2578 -2.4258 5.728061e-02 270.0495 2093.1494)" gradientUnits="userSpaceOnUse">
									<stop  offset="0" style="stop-color:#FFFFFF"/>
									<stop  offset="0.2962" style="stop-color:#EBFAFC"/>
									<stop  offset="1" style="stop-color:#C0EEF5"/>
								</radialGradient>
								<path class="st11" d="M357.1,569.6L357.1,569.6c-0.9-8.1-7.7-14.3-15.9-14.1c-1.7,0-3.3,0.4-4.8,0.9
									c-2.2-12.1-12.6-21.2-25-21.6c-4-12.8-16.1-22-30.2-21.7c-17,0.4-30.5,14.5-30.1,31.5l0,0c-4.7,0.3-8.9,2.7-11.5,6.3
									c-2.7-1.2-5.7-1.9-8.8-1.8c-11.2,0.3-20,9.5-19.8,20.7c0.2,8.1,5.1,14.9,12,18c2.5,8.9,10.8,15.4,20.5,15.2
									c4.8-0.1,9.2-1.9,12.7-4.7c4.8,8.5,14,14.2,24.5,14c7.9-0.2,15-3.7,19.8-9.2c5.2,5.8,13.9,9.4,23.7,9.2
									c13.2-0.3,24.1-7.7,27-17.3c2,0.8,4.3,1.3,6.6,1.2c8.2-0.2,14.7-6.3,14.5-13.7C372.1,575.2,365.3,569.4,357.1,569.6z"/>
								
									<radialGradient id="SVGID_14_" cx="-554.0911" cy="727.4885" r="69.205" gradientTransform="matrix(-2.970000e-02 1.2578 2.4258 5.728061e-02 -1981.1211 1174.6954)" gradientUnits="userSpaceOnUse">
									<stop  offset="0" style="stop-color:#FFFFFF"/>
									<stop  offset="1" style="stop-color:#C0EEF5"/>
								</radialGradient>
								<path class="st12" d="M-273.4,559.7h0.1c0.8-8.1,7.6-14.3,15.8-14.1c1.7,0,3.3,0.4,4.8,0.9c2.2-12.1,12.6-21.2,25.1-21.6
									c4-12.8,16.1-22,30.2-21.7c17,0.4,30.5,14.5,30.1,31.5l0,0c4.7,0.3,8.9,2.7,11.5,6.3c2.7-1.2,5.7-1.9,8.8-1.8
									c11.2,0.3,20,9.6,19.8,20.7c-0.2,8.1-5.1,14.9-12,18c-2.5,8.9-10.8,15.4-20.5,15.2c-4.8-0.1-9.2-1.9-12.7-4.7
									c-4.8,8.5-14,14.2-24.5,14c-7.9-0.2-15-3.7-19.8-9.2c-5.2,5.8-13.9,9.4-23.7,9.2c-13.2-0.3-24.1-7.7-27-17.3
									c-2,0.8-4.3,1.3-6.6,1.3c-8.2-0.2-14.7-6.3-14.5-13.7C-288.3,565.3-281.6,559.5-273.4,559.7z"/>
								
									<radialGradient id="SVGID_15_" cx="-660.842" cy="196.9264" r="69.2024" gradientTransform="matrix(0.243 1.7444 -3.3643 0.4687 974.425 1614.6699)" gradientUnits="userSpaceOnUse">
									<stop  offset="0" style="stop-color:#FFFFFF"/>
									<stop  offset="0.2431" style="stop-color:#FBFEFE"/>
									<stop  offset="0.5033" style="stop-color:#EEFAFC"/>
									<stop  offset="0.7705" style="stop-color:#D9F5F9"/>
									<stop  offset="1" style="stop-color:#C0EEF5"/>
								</radialGradient>
								<path class="st13" d="M259.9,598.4c-0.1,0-0.1,0-0.2,0c-2.4-11.1-12.9-18.6-24.3-17c-2.3,0.3-4.5,1-6.6,2
									c-5-16.4-20.9-27.4-38.3-26c-7.6-17.2-25.9-28.1-45.4-25.4c-23.6,3.3-40,25.1-36.8,48.7l0,0c-6.5,1.2-11.9,5.2-15,10.6
									c-3.9-1.3-8.2-1.7-12.5-1.1c-15.5,2.2-26.3,16.5-24.2,32c1.6,11.2,9.5,19.9,19.6,23.1c4.9,12,17.4,19.7,30.9,17.8
									c6.7-0.9,12.5-4.1,16.9-8.6c8,11.1,21.8,17.5,36.3,15.5c11-1.5,20.2-7.6,26.1-16c8.2,7.2,20.9,10.9,34.4,9
									c18.3-2.5,32.3-14.5,34.8-28.4c2.9,0.9,6.1,1.1,9.4,0.7c11.4-1.6,19.4-11.2,18-21.4C281.6,603.8,271.3,596.8,259.9,598.4z"
									/>
								
									<radialGradient id="SVGID_16_" cx="-1052.2057" cy="150.3815" r="69.2021" gradientTransform="matrix(7.561933e-11 1.6843 -3.2484 1.458425e-10 347.3055 2317.5674)" gradientUnits="userSpaceOnUse">
									<stop  offset="0" style="stop-color:#FFFFFF"/>
									<stop  offset="0.2469" style="stop-color:#FBFEFE"/>
									<stop  offset="0.5034" style="stop-color:#EEFBFC"/>
									<stop  offset="0.7634" style="stop-color:#DAF5F9"/>
									<stop  offset="1" style="stop-color:#C0EEF5"/>
								</radialGradient>
								<path class="st14" d="M-44.2,601.6c-0.1,0-0.1,0-0.2,0c-0.8-10.8-9.8-19.3-20.8-19.3c-2.3,0-4.4,0.4-6.5,1
									c-2.5-16.2-16.1-28.7-32.8-29.6c-4.9-17.3-20.8-30-39.7-30c-22.8,0-41.2,18.5-41.2,41.2l0,0c-6.4,0.3-12,3.4-15.6,8.1
									c-3.6-1.7-7.5-2.7-11.7-2.7c-15,0-27.1,12.1-27.1,27.1c0,10.8,6.3,20.1,15.5,24.5c3,12,13.9,21,26.9,21
									c6.5,0,12.4-2.2,17.1-5.9c6.1,11.6,18.3,19.5,32.3,19.5c10.6,0,20.1-4.5,26.8-11.7c6.8,7.9,18.3,13.1,31.4,13.1
									c17.7,0,32.5-9.5,36.7-22.3c2.7,1.2,5.6,1.9,8.8,1.9c11,0,19.9-8,19.9-17.9C-24.3,609.6-33.2,601.6-44.2,601.6z"/>
							</g>
							
								<linearGradient id="SVGID_17_" gradientUnits="userSpaceOnUse" x1="151" y1="83.8268" x2="151" y2="688.7938" gradientTransform="matrix(1 0 0 1 0 4)">
								<stop  offset="0.1656" style="stop-color:#FFFFFF;stop-opacity:0"/>
								<stop  offset="0.8377" style="stop-color:#FFFFFF;stop-opacity:0.9129"/>
								<stop  offset="0.9018" style="stop-color:#FFFFFF"/>
							</linearGradient>
							<rect x="-298.6" y="307.1" class="st15" width="899.2" height="390.8"/>
						</g>
					</g>
				</g>
			</g>
		</g>
	</g>
	<g>
		<g>
			<g>
				<path class="st16" d="M-66.3,500.1c0,0,0.1-0.2,0.2-0.6c0.7-2.1,2.2-9.7-7.7-10.8c-11.6-1.3-9.5,4.6-9.5,4.6L-73,503"/>
				<circle class="st17" cx="84.7" cy="562.2" r="13.8"/>
				<g>
					<g>
						<path class="st18" d="M101,489.1c0,0,28.8-23,31.1-27s1-9.8-9.4-9.3s-62.8,16.8-71,19.7C43.6,475.4,101,489.1,101,489.1z"/>
						<g>
							<g>
								<g>
									<defs>
										<path id="SVGID_18_" d="M101,489.1c0,0,28.8-23,31.1-27s1-9.8-9.4-9.3s-62.8,16.8-71,19.7C43.6,475.4,101,489.1,101,489.1
											z"/>
									</defs>
									<clipPath id="SVGID_19_">
										<use xlink:href="#SVGID_18_"  style="overflow:visible;"/>
									</clipPath>
									<path class="st19" d="M122,477.1c0,0-2.8-16.7-47.5-12.5s48.8-22.8,48.8-22.8l24.4,20.9L122,477.1z"/>
								</g>
							</g>
						</g>
					</g>
					<path class="st20" d="M11.8,483.5c0,0,57.1-31,113.2,12.5c0,0-24.9,0.4-28.1,27.1c0,0-1.7,19.5,17.3,26.8
						c0,0-74.4,30.3-131.3,8.7c-57-21.5-84.3-49.3-84.3-49.3l-13.2-36.9c0,0,31.8,4.7,35.4,11c3.6,6.2,2.6,13.4,13.3,12.9
						C-55,495.8,6.9,482.1,11.8,483.5z"/>
					<path class="st21" d="M73.2,473.8c0,0-25.3-8.7-61.4,9.7c0,0-19.3,9.1,13,26.1c32.2,17.1,43,1.6,51.7-6.2
						c8.7-7.8,12.3-15.3,28.2-20.2C104.7,483.2,78.7,473.4,73.2,473.8z"/>
					<g>
						<g>
							<g>
								<defs>
									<path id="SVGID_20_" d="M11.8,483.5c0,0,57.1-31,113.2,12.5c0,0-24.9,0.4-28.1,27.1c0,0-1.7,19.5,17.3,26.8
										c0,0-74.4,30.3-131.3,8.7c-57-21.5-84.3-49.3-84.3-49.3l-13.2-36.9c0,0,31.8,4.7,35.4,11c3.6,6.2,2.6,13.4,13.3,12.9
										C-55,495.8,6.9,482.1,11.8,483.5z"/>
								</defs>
								<clipPath id="SVGID_21_">
									<use xlink:href="#SVGID_20_"  style="overflow:visible;"/>
								</clipPath>
								<path class="st22" d="M112.1,483.9c0,0-11.9-4.8-21.6,1.9s-17.4,22.3-37.7,23.3c0,0-28-0.7-23.1-17.5s44-17.8,44-17.8
									L102,470L112.1,483.9z"/>
							</g>
						</g>
					</g>
					<path class="st23" d="M38.5,584.2c0,0,32.2-21.3,51.2-33.9"/>
					<g>
						<g>
							<path class="st24" d="M-1.4,443.5c0,0,2,5.8,1.1,6.6s-7.6,6.3-8.8,5.1c-1.2-1.1-3.6-7.7-2.2-7.9
								C-9.9,447.1-2.7,443.1-1.4,443.5z"/>
						</g>
						<path class="st25" d="M64.9,436.5"/>
						<path class="st25" d="M65.7,426.4"/>
						<g id="Layer_1_1_">
							<g id="Layer_2_2_">
								<g id="Layer_1_3_">
									<g id="XMLID_10_">
										<g>
											<path class="st26" d="M55.4,460.7c0,0-3,0.4-3.8-4.7l-6.9,1.1c0.8,5.1-2.1,5.7-2.1,5.7l0.8,5.3l13.6-2.3L55.4,460.7z"/>
											<path class="st27" d="M53.4,457.2c0,0-1.1,3.7-5,3.6s-4.2-3-4.2-3S52,455.5,53.4,457.2z"/>
											<g id="XMLID_135_">
												
													<radialGradient id="XMLID_5_" cx="-60.5976" cy="403.8932" r="22.05" gradientTransform="matrix(0.9902 -0.1397 0.1397 0.9902 48.3555 27.0412)" gradientUnits="userSpaceOnUse">
													<stop  offset="0" style="stop-color:#F2B68B"/>
													<stop  offset="1" style="stop-color:#E5BD9F"/>
												</radialGradient>
												<path id="XMLID_3_" class="st28" d="M63.5,425.5c-1.6-1.6-3.5,0.5-3.5,0.5s-0.1-1-0.3-2.1c0,0-3.1-13.3-18.1-11.2
													c-15,2.1-14,15.8-14.2,14.8c0-0.3,0.1,0.9,0.3,2.9c-0.6-0.2-2.1-1.6-3.4,0.5c-0.8,1.5-1.9,5,0.4,7.9
													c1.4,1.7,3.4,3.1,4.6,3.7c0.3,1.5,0.8,2,1,3.2c1.2,4.9,6.5,9.7,11.8,11.5c1.9,0.6,3.8,1,5.6,0.7
													c1.9-0.3,3.8-1.2,5.5-2.5c4.4-3.5,7.5-9.5,7.8-13.2c0.1-1.8,0.2-3.2,0.2-3.6l0,0c0,0,3.1-2.5,4-5.4
													C66.2,430.4,64.7,426.8,63.5,425.5z"/>
												
													<linearGradient id="XMLID_6_" gradientUnits="userSpaceOnUse" x1="-65.1924" y1="409.9572" x2="-56.9902" y2="409.9572" gradientTransform="matrix(0.9902 -0.1397 0.1397 0.9902 48.9144 31.0019)">
													<stop  offset="0" style="stop-color:#E28C47"/>
													<stop  offset="3.763440e-02" style="stop-color:#E48D48"/>
													<stop  offset="1" style="stop-color:#E39E68"/>
												</linearGradient>
												<path id="XMLID_177_" class="st29" d="M41.6,445.4c0,0,0.5-0.4,1.2-0.2c1.5,0.5,3.5,0.4,4.7-0.4
													c1.1-0.7,1.5-0.9,2.2-0.7c0,0-0.7,0-1.2,0.4c-0.5,0.5-1,1.5-2.1,1.8C44,447,43.1,444.9,41.6,445.4z"/>
												<g id="XMLID_265_" class="st30">
													
														<radialGradient id="XMLID_8_" cx="-1090.1321" cy="121.5048" r="4.7767" gradientTransform="matrix(1.1857 -0.1064 8.611717e-02 0.7597 1319.1443 235.2038)" gradientUnits="userSpaceOnUse">
														<stop  offset="0" style="stop-color:#E96565"/>
														<stop  offset="3.418660e-02" style="stop-color:#E96968;stop-opacity:0.9727"/>
														<stop  offset="0.4696" style="stop-color:#E79686;stop-opacity:0.6243"/>
														<stop  offset="0.8058" style="stop-color:#E5B298;stop-opacity:0.3554"/>
														<stop  offset="1" style="stop-color:#E5BD9F;stop-opacity:0.2"/>
													</radialGradient>
													<path id="XMLID_176_" class="st31" d="M36.5,439.7c3.2-0.4,6,0.9,6.3,3s-2,4.2-5.2,4.6s-6-0.9-6.3-3
														S33.4,440.1,36.5,439.7z"/>
													
														<radialGradient id="XMLID_9_" cx="-1075.7904" cy="122.1031" r="4.7776" gradientTransform="matrix(1.1857 -0.1064 8.611717e-02 0.7597 1318.9773 233.8911)" gradientUnits="userSpaceOnUse">
														<stop  offset="0" style="stop-color:#E96565"/>
														<stop  offset="3.418660e-02" style="stop-color:#E96968;stop-opacity:0.9727"/>
														<stop  offset="0.4696" style="stop-color:#E79686;stop-opacity:0.6243"/>
														<stop  offset="0.8058" style="stop-color:#E5B298;stop-opacity:0.3554"/>
														<stop  offset="1" style="stop-color:#E5BD9F;stop-opacity:0.2"/>
													</radialGradient>
													<path id="XMLID_175_" class="st32" d="M53.4,437.3c3.2-0.4,6,0.9,6.3,3s-2,4.2-5.2,4.6s-6-0.9-6.3-3
														S50.3,437.7,53.4,437.3z"/>
												</g>
												<g id="XMLID_238_">
													
														<linearGradient id="XMLID_13_" gradientUnits="userSpaceOnUse" x1="-60.8605" y1="414.5212" x2="-60.8605" y2="413.2238" gradientTransform="matrix(0.9902 -0.1397 0.1397 0.9902 48.9144 31.0019)">
														<stop  offset="0" style="stop-color:#B12323"/>
														<stop  offset="1" style="stop-color:#E96565"/>
													</linearGradient>
													<path id="XMLID_157_" class="st33" d="M41.8,450.6c0,0,1.3-1.3,2.6-1.6c0.6-0.1,0.8,0.1,1.7,0c1.1-0.2,1.4-0.7,2.2-0.6
														c0.2,0,3,0.8,3,0.8L41.8,450.6z"/>
													
														<linearGradient id="XMLID_14_" gradientUnits="userSpaceOnUse" x1="-12909.5098" y1="-2851.2544" x2="-12909.5098" y2="-2854.2979" gradientTransform="matrix(-0.9902 0.1397 -0.1397 -0.9902 -13134.7754 -569.5641)">
														<stop  offset="0" style="stop-color:#B12323"/>
														<stop  offset="1" style="stop-color:#E96565"/>
													</linearGradient>
													<path id="XMLID_156_" class="st34" d="M50.9,449.4c0,0-0.2,2.1-1.5,2.9c-1.4,0.9-4,1.3-5.8,0.4c-1-0.5-1.5-2.1-1.5-2.1
														L50.9,449.4z"/>
													<path id="XMLID_155_" class="st35" d="M40.7,450.3c0,0,0.6,0.5,2,0.3s7.9-1.1,7.9-1.1s0.6-0.3,1.4-0.7
														c0,0-0.5,0.9-2.3,1.2s-6.7,0.9-6.7,0.9S41.6,451,40.7,450.3z"/>
													<path id="XMLID_154_" class="st35" d="M43.1,450.8c0,0,3.6,2.7,6.7-0.9L43.1,450.8z"/>
													<path id="XMLID_153_" class="st36" d="M43.6,450.5l6-0.8C49.6,449.7,45.7,451,43.6,450.5z"/>
												</g>
												<g id="XMLID_4_">
													<g id="XMLID_232_">
														
															<radialGradient id="XMLID_15_" cx="-68.2484" cy="401.0005" r="3.5654" gradientTransform="matrix(0.9902 -0.1397 0.1397 0.9902 48.9144 31.0019)" gradientUnits="userSpaceOnUse">
															<stop  offset="0" style="stop-color:#D3AF93"/>
															<stop  offset="1" style="stop-color:#F2B68B"/>
														</radialGradient>
														<path id="XMLID_151_" class="st37" d="M32.9,437.4c0,0,1.2,2.1,3.1,2.5c1.9,0.3,6.1-0.9,6.1-0.9s0.1-1.4-2-3
															C38,434.5,33.8,435.4,32.9,437.4z"/>
														<path id="XMLID_150_" class="st38" d="M33.4,437c0,0,0.8,2.5,2.6,2.7s5.8-0.8,5.8-0.8s-0.1-1.6-3.3-2.6
															C35.4,435.4,33.4,437,33.4,437z"/>
														
															<radialGradient id="XMLID_16_" cx="-67.4586" cy="401.465" r="1.711" gradientTransform="matrix(0.9902 -0.1397 0.1397 0.9902 48.9144 31.0019)" gradientUnits="userSpaceOnUse">
															<stop  offset="0" style="stop-color:#29ABE2"/>
															<stop  offset="1" style="stop-color:#007E9A"/>
														</radialGradient>
														<path id="XMLID_149_" class="st39" d="M38,436.2c0.2,0,0.3,0,0.5,0c-0.2,0.2-0.5,0.5-0.4,0.9c0.1,0.5,0.5,0.8,1,0.7
															c0.3,0,0.6-0.3,0.7-0.6c0.1,0.1,0.1,0.3,0.1,0.5c0.1,1-0.5,1.8-1.4,2c-0.9,0.1-1.8-0.5-1.9-1.5
															C36.4,437.2,37.1,436.3,38,436.2z"/>
														<circle id="XMLID_148_" class="st40" cx="38.4" cy="437.8" r="0.7"/>
														<path id="XMLID_147_" class="st40" d="M41.9,437.9c0,0-1.6-1.7-4.7-2c-3.1-0.2-5.1,0.7-5.1,0.7l1.2,1.3
															c0,0,0.1-0.6,1.1-1C35.5,436.5,39,435.9,41.9,437.9z"/>
													</g>
													<g id="XMLID_226_">
														
															<radialGradient id="XMLID_17_" cx="-12886.8271" cy="401.0005" r="3.5649" gradientTransform="matrix(-0.9902 0.1397 0.1397 0.9902 -12764.6045 1839.0797)" gradientUnits="userSpaceOnUse">
															<stop  offset="0" style="stop-color:#D3AF93"/>
															<stop  offset="1" style="stop-color:#F2B68B"/>
														</radialGradient>
														<path id="XMLID_146_" class="st41" d="M56.2,434.2c0,0-0.6,2.4-2.3,3.2c-1.7,0.8-6.1,0.9-6.1,0.9s-0.5-1.3,1.1-3.4
															C50.4,432.8,54.7,432.5,56.2,434.2z"/>
														<path id="XMLID_145_" class="st38" d="M55.5,433.9c0,0-0.1,2.6-1.8,3.3c-1.7,0.7-5.8,0.8-5.8,0.8s-0.4-1.6,2.4-3.4
															C53.2,432.9,55.5,433.9,55.5,433.9z"/>
														
															<radialGradient id="XMLID_18_" cx="-12886.0469" cy="401.4683" r="1.7109" gradientTransform="matrix(-0.9902 0.1397 0.1397 0.9902 -12764.6045 1839.0797)" gradientUnits="userSpaceOnUse">
															<stop  offset="0" style="stop-color:#29ABE2"/>
															<stop  offset="1" style="stop-color:#007E9A"/>
														</radialGradient>
														<path id="XMLID_144_" class="st42" d="M50.9,434.4c-0.2,0-0.3,0-0.5,0.1c0.3,0.1,0.6,0.4,0.6,0.7
															c0.1,0.5-0.3,0.9-0.7,1c-0.3,0-0.7-0.1-0.9-0.4c0,0.1,0,0.3,0,0.5c0.1,1,1,1.6,1.9,1.5s1.6-1,1.4-2
															C52.7,434.9,51.8,434.2,50.9,434.4z"/>
														<circle id="XMLID_143_" class="st40" cx="51" cy="436.1" r="0.7"/>
														<path id="XMLID_142_" class="st40" d="M47.6,437.1c0,0,1-2.1,4-3.2s5.1-0.7,5.1-0.7l-0.8,1.6c0,0-0.3-0.6-1.3-0.7
															C53.4,433.9,49.9,434.3,47.6,437.1z"/>
													</g>
													<g id="XMLID_221_">
														<g id="XMLID_224_">
															<path id="XMLID_141_" class="st43" d="M40.4,433.5c0,0-0.7-1.3-2.6-1.4c-2.3-0.1-4.5,1.3-5.1,2
																C32.8,434.2,36.4,431.3,40.4,433.5z"/>
														</g>
														<g id="XMLID_222_">
															<path id="XMLID_140_" class="st43" d="M47.9,432.6c0,0,0.3-1.4,2.1-2c2.2-0.8,4.7,0,5.5,0.5
																C55.5,431.1,51.1,429.3,47.9,432.6z"/>
														</g>
													</g>
													<g id="XMLID_271_">
														
															<radialGradient id="XMLID_19_" cx="-22.7982" cy="600.9093" r="5.1976" gradientTransform="matrix(0.9958 -9.146691e-02 5.639203e-02 0.6139 25.6788 64.8985)" gradientUnits="userSpaceOnUse">
															<stop  offset="0" style="stop-color:#E96565"/>
															<stop  offset="3.418660e-02" style="stop-color:#E96968;stop-opacity:0.9727"/>
															<stop  offset="0.4696" style="stop-color:#E79686;stop-opacity:0.6243"/>
															<stop  offset="0.8058" style="stop-color:#E5B298;stop-opacity:0.3554"/>
															<stop  offset="1" style="stop-color:#E5BD9F;stop-opacity:0.2"/>
														</radialGradient>
														<path id="XMLID_181_" class="st44" d="M42,438.7c0,0-1.4-3.8-1.5-4.8s-3.4-2.3-6-1s-2.3,3.8-2.3,3.8s5-1.2,7-0.2
															C41.3,437.4,42,438.7,42,438.7z"/>
														
															<radialGradient id="XMLID_20_" cx="-12831.1719" cy="1541.4528" r="5.1976" gradientTransform="matrix(-0.9822 0.1877 0.1157 0.6056 -12729.3574 1908.1885)" gradientUnits="userSpaceOnUse">
															<stop  offset="0" style="stop-color:#E96565"/>
															<stop  offset="3.418660e-02" style="stop-color:#E96968;stop-opacity:0.9727"/>
															<stop  offset="0.4696" style="stop-color:#E79686;stop-opacity:0.6243"/>
															<stop  offset="0.8058" style="stop-color:#E5B298;stop-opacity:0.3554"/>
															<stop  offset="1" style="stop-color:#E5BD9F;stop-opacity:0.2"/>
														</radialGradient>
														<path id="XMLID_180_" class="st45" d="M47.8,437.9c0,0,0.3-4,0.1-5c-0.1-1,2.6-3.1,5.4-2.6s3.2,3,3.2,3
															s-5.1,0.2-6.8,1.8C48.1,436.5,47.8,437.9,47.8,437.9z"/>
													</g>
												</g>
											</g>
											<g id="XMLID_2_">
												
													<radialGradient id="XMLID_21_" cx="102.1497" cy="-1370.7577" r="43.0452" fx="91.6403" fy="-1393.6017" gradientTransform="matrix(0.9311 -0.1314 -0.1349 -0.956 -235.2113 -860.5209)" gradientUnits="userSpaceOnUse">
													<stop  offset="0" style="stop-color:#C4862E"/>
													<stop  offset="0.1879" style="stop-color:#CE9938"/>
													<stop  offset="0.465" style="stop-color:#D9AD42"/>
													<stop  offset="0.7381" style="stop-color:#E0BA49"/>
													<stop  offset="1" style="stop-color:#E2BE4B"/>
												</radialGradient>
												<path id="XMLID_12_" class="st46" d="M74.9,451.3c-3.7-5,1-15.7-2.1-17.4c-3.1-1.9,0.5-6.9-3.6-9.8c-4-2.9-2-5.3-6-7.8
													s-1.6-8.1-12.5-12.3c-4.8-1.9-8.3-1.9-10.6-1.2l0,0c-2.4,0-5.8,0.9-9.9,4.1c-9.3,7-6.7,11-9.9,14.6
													c-3.2,3.5,0.7,6-2.4,9.8c-3.1,3.9,1.8,7.8-0.7,10.4s4.9,11.5,2.8,17.3c-2.1,5.9,1.9,12.4,7.5,13.5
													c2.8,0.6,9.4-0.3,15.3-1.5c0.2-0.9,2.3-5.1,2-12.9c-6.6-1.4-13.2-9.7-14.9-19.2c-0.1-2.1,0-4.2,0.7-5.6
													c1.9-4,5.6-3.8,7.1-10.8c0,0,1.1,6.3,7.9,6.6c6.7,0.3,8.8-2.1,12.7,2.5c0.7,0.8,1.2,1.8,1.6,2.7
													c1.2,9.7-3.1,19.4-9.2,22.7c1.9,7.6,5.2,11.4,5.7,12.2c6-0.6,12.5-1.5,15.1-2.8C76.4,463.8,78.6,456.4,74.9,451.3z"/>
												
													<radialGradient id="XMLID_22_" cx="103.0064" cy="-1362.4006" r="35.4225" gradientTransform="matrix(0.9311 -0.1314 -0.1349 -0.956 -235.2113 -860.5209)" gradientUnits="userSpaceOnUse">
													<stop  offset="0" style="stop-color:#C4862E"/>
													<stop  offset="0.4068" style="stop-color:#CE9738"/>
													<stop  offset="1" style="stop-color:#E1B84A"/>
													<stop  offset="1" style="stop-color:#E2BE4B"/>
												</radialGradient>
												<path id="XMLID_11_" class="st47" d="M69,424.2c-4-2.9-4-7.7-5-8.7c-3.3-3.3-2.6-7-13.5-11.2c-4.8-1.9-8.3-1.8-10.7-1.1
													l0,0c-2.4,0-5.8,0.9-9.9,4c-9.3,7-6.7,11-9.9,14.5c-3.1,3.5,0.7,5.9-2.4,9.8c-0.1,8.6,2.8,11.9,11.9,5.5
													c0-1.6,0.3-2.3,0.8-3.5c1.9-4,5.6-3.8,7.1-10.7c0,0,1.1,6.3,7.8,6.5c6.7,0.3,8.8-2.1,12.7,2.4c0.7,0.8,1.5,2.1,1.9,3.1
													C59.9,435.2,72.5,426.7,69,424.2z"/>
												
													<radialGradient id="XMLID_23_" cx="103.6012" cy="-1349.2363" r="29.765" fx="103.5987" fy="-1360.093" gradientTransform="matrix(0.8999 -0.1314 -0.1304 -0.956 -226.7868 -860.5209)" gradientUnits="userSpaceOnUse">
													<stop  offset="0" style="stop-color:#C4862E"/>
													<stop  offset="0" style="stop-color:#C68830"/>
													<stop  offset="0" style="stop-color:#D09E2A"/>
													<stop  offset="0.6685" style="stop-color:#DBAE3E"/>
													<stop  offset="1" style="stop-color:#E1B84A"/>
													<stop  offset="1" style="stop-color:#E2BE4B"/>
												</radialGradient>
												<path id="XMLID_7_" class="st48" d="M70.5,431.2c-1.4-2.1,0-6.5-3.4-8.9c-3.9-2.6-1-5.9-4.7-8.1
													c-3.9-2.3-2.5-6.5-13-10.4c-4.6-1.7-7.9-1.6-10.2-1l0,0c-2.3,0-5.6,0.9-9.6,3.9c-9,6.6-6.6,10.3-9.7,13.7
													c-3.1,3.3,0.7,5.5-2.4,9.2c-3,3.6,1.6,7.2-0.8,9.7c-0.2,0.2-0.4,0.5-0.4,0.8c4.8-0.1,9.5-1.2,12.6-4.7
													c0-1.5,0.2-2.9,0.8-3.9c1.8-3.8,5.5-3.6,7-10.2c0,0,1,5.9,7.5,6.1c6.5,0.2,8.5-2.1,12.3,2.2c0.7,0.8,1.1,1.7,1.4,2.5
													c0,0.3,0.2,0.6,0.2,1.1C62.9,435.5,65,429.9,70.5,431.2z"/>
											</g>
											<g id="XMLID_173_">
												<g id="XMLID_183_">
													
														<radialGradient id="XMLID_24_" cx="-258.9458" cy="415.0509" r="6.743885e-02" gradientTransform="matrix(1.0254 -0.1447 0.1429 1.0127 279.3593 12.4592)" gradientUnits="userSpaceOnUse">
														<stop  offset="0" style="stop-color:#F2B68B"/>
														<stop  offset="1" style="stop-color:#E5BD9F"/>
													</radialGradient>
													<path id="XMLID_247_" class="st49" d="M73.1,470.2c0,0.1,0,0.1,0,0.2C73.2,470.3,73.1,470.2,73.1,470.2z"/>
													
														<radialGradient id="XMLID_25_" cx="-281.5058" cy="400.2599" r="16.6978" gradientTransform="matrix(1.0254 -0.1447 0.1429 1.0127 279.3593 12.4592)" gradientUnits="userSpaceOnUse">
														<stop  offset="0" style="stop-color:#F2B68B"/>
														<stop  offset="1" style="stop-color:#E5BD9F"/>
													</radialGradient>
													<path id="XMLID_248_" class="st50" d="M53.1,454.4L53.1,454.4c0,0.4,0,0.9,0,1.2C53.2,455.2,53.1,454.8,53.1,454.4z"/>
													
														<radialGradient id="XMLID_26_" cx="-37.3717" cy="414.8833" r="2.614878e-02" gradientTransform="matrix(0.9902 -0.1397 0.1429 1.0127 50.8535 44.7436)" gradientUnits="userSpaceOnUse">
														<stop  offset="0" style="stop-color:#F2B68B"/>
														<stop  offset="1" style="stop-color:#E5BD9F"/>
													</radialGradient>
													<path id="XMLID_252_" class="st51" d="M73.1,470L73.1,470C73.1,470.1,73.1,470.1,73.1,470z"/>
													
														<radialGradient id="XMLID_27_" cx="-57.628" cy="406.2504" r="16.5072" gradientTransform="matrix(0.9902 -0.1397 0.1429 1.0127 50.8535 44.7436)" gradientUnits="userSpaceOnUse">
														<stop  offset="0" style="stop-color:#F2B68B"/>
														<stop  offset="1" style="stop-color:#E5BD9F"/>
													</radialGradient>
													<path id="XMLID_254_" class="st52" d="M73.2,470.3c0.2,1.6,0.3,2.9,0.3,2.9l-1,0.1l0,0l1-0.1
														C73.4,473.2,73.4,471.9,73.2,470.3z"/>
													
														<radialGradient id="XMLID_28_" cx="-57.628" cy="406.0648" r="16.6165" gradientTransform="matrix(0.9902 -0.1397 0.1429 1.0127 50.8535 44.7436)" gradientUnits="userSpaceOnUse">
														<stop  offset="0" style="stop-color:#F2B68B"/>
														<stop  offset="1" style="stop-color:#E5BD9F"/>
													</radialGradient>
													<path id="XMLID_255_" class="st53" d="M53.5,458.5c-0.1-0.9-0.2-1.9-0.3-2.9C53.3,456.6,53.4,457.7,53.5,458.5z"/>
												</g>
											</g>
										</g>
									</g>
								</g>
							</g>
						</g>
						<path class="st26" d="M-3.5,431.3c-0.8-0.1-1.4,0.8-1.7,1.4c-0.4,1-0.3,2.3-0.4,3.2c-0.1,0.9-0.1,1.3-1,0.6
							c-1-0.8-1.8-4.1-2.2-5.1c-0.3-1-1.1-3.6-1.3-4.3c-0.2-0.7-0.5-1.9-1.7-1.5c-1.2,0.3-0.3,2.4-0.2,3c0.1,0.5,0.5,1.8,0.6,2.4
							c0.1,0.6,1,3.4,0.5,3.6c-0.5,0.3-1.5-1.8-1.9-2.5c-0.4-0.7-1.4-2.2-1.7-2.7c-0.4-0.5-0.9-1.4-1.3-1.9c-0.3-0.5-1-1.1-1.7-0.6
							c-0.7,0.5-0.4,1.1-0.3,1.4c0.2,0.3,0.9,1.4,1.1,1.9c0.3,0.5,1,1.8,1.4,2.6c0.4,0.8,1.4,2.5,1.7,3c0.4,0.5,0,1-0.4,0.8
							c-0.4-0.2-3.1-2.3-3.5-2.8c-0.5-0.4-1.5-1.5-2.3-2.2c-0.9-0.7-1.4-0.6-1.8-0.2c-0.3,0.4-0.3,0.9,0,1.3
							c0.3,0.3,1.9,1.7,2.4,2.4c0.6,0.7,2,1.9,2.6,2.4c0.6,0.5,1.2,1.3,1.1,1.6c-0.2,0.3-1-0.1-1.7-0.4c-0.7-0.3-2.6-1.1-3.6-1.6
							c-1-0.5-1.6-0.2-1.8,0.1c-0.2,0.3-0.1,0.9,0.6,1.4c0.7,0.5,2.5,1.4,3.2,1.7c0.7,0.3,2.7,1.4,2.7,1.4c0.6,0.7,1,1.1,1.5,1.7
							c0.4,0.4,1.2,1.2,1.7,1.8c0.5,0.6,2,1.7,2.5,2.2c-0.1-0.1-0.2-0.2-0.3-0.3c1.5,0.2,3.1-0.2,4.2-1.2c0.1-0.1,0.2-0.1,0.2-0.2
							c0.5-0.1,1-0.2,1.5-0.5c0.3-0.2,0.7-0.5,1-0.7c0.1-0.1,0.2-0.2,0.3-0.3c0,0,0,0,0-0.1c0.3-0.4,0.4-1.9,0.5-2.6
							c0.1-0.8,0.4-2.2,0.3-3.3c0-0.5-0.5-1.5-0.4-2.2c0.1-0.8-0.2-2.7-0.2-3.5C-3.2,431.9-2.8,431.4-3.5,431.3z"/>
						<path class="st54" d="M44.1,462.8c0,0-8.5,2.8-10.7,5s-5.3,4.5-7.7,4.7c-2.4,0.2-14.7-2.1-19.6-8.1c-4.9-6-7.3-13.5-7.3-13.5
							l-6.6,4.5c0,0,8.1,20.7,21.8,23.9s25.1-2,25.1-2s3.8,8.1,3.7,11.9c-0.1,3.8-8.3,13.6-6.2,15.5c2,1.9,11.5,5.1,18.9,4.3
							c7.8-0.9,14.8-6.3,14.8-6.3s-5.9-5.5-7.7-10.1s1.3-9.5,1.3-9.5s2.1-4.7,0.7-6.6c-1.4-1.8,19.2-4.9,24.1-8.7s3.9-26,1.8-31.7
							c-2.4,1.6-8.2,5-8.2,5s3.6,14.4,2.1,17.6s-11.8,3.6-16.7,4.2c-4.9,0.6-14.5-0.6-14.5-0.6s2.3,4.3-1.9,4.6
							S44.1,462.8,44.1,462.8z"/>
						<path class="st27" d="M46.1,458.2c0,0-20.8-5.5-33,0.8s-19.3,12.4-26.4,11.3l-1.7,12.2c0,0,13.5-2.1,19.7-6.2
							c6.2-4,11.1-14.6,20.8-14.7s22-0.7,23-0.9C49.4,460.6,46.1,458.2,46.1,458.2z"/>
						<g>
							<path class="st55" d="M17.2,440.7c0,0-7.3,24,2.3,22.4s10-28.1,10-28.1L17.2,440.7z"/>
							<path class="st56" d="M20.5,438.7c0,0-7.4,23.9-1.2,22.3c6.1-1.6,8.3-10.5,8.3-10.5s2.5-14.1,1.9-15.6S20.5,438.7,20.5,438.7
								z"/>
							<path class="st55" d="M72.5,429.6c0,0,7.3,24-2.3,22.4s-8-24.1-8-24.1L72.5,429.6z"/>
							<path class="st57" d="M19.9,439.9c0,0,9.2-5.7,24.5-8.8s20.5-2,20.5-2"/>
							<g>
								
									<ellipse transform="matrix(0.9987 5.138987e-02 -5.138987e-02 0.9987 21.3473 -2.0518)" class="st56" cx="50.6" cy="414.1" rx="11.4" ry="7.7"/>
								
									<ellipse transform="matrix(0.9987 5.138987e-02 -5.138987e-02 0.9987 21.567 -1.0045)" class="st56" cx="30.3" cy="418.9" rx="11.4" ry="7.7"/>
								<g>
									<path class="st55" d="M66.6,421.1c-0.6-3.1-2.8-7.6-2.8-7.6l0,0C65.1,416.4,66,419,66.6,421.1
										C66.6,421.1,66.6,421.1,66.6,421.1z"/>
									<path class="st55" d="M28.4,412c5.9-3,10.4,0.3,10.4,0.3l3.5-0.5c0,0,3-2,9.1-2.5c6.1-0.6,9.1,4,9.1,4l3.3,0.2
										c-0.2-0.5-0.4-0.9-0.6-1.4c-4.1-8.5-19.2-10.6-25.8-8.9C19.6,407.9,16.7,417.3,16,422l5.2-2.5
										C21.3,419.5,22.4,415,28.4,412z"/>
									<path class="st55" d="M60.4,420c0,0-0.4,1.4-6.1,2.2c-9.2,1.8-12.1-5.9-12.1-5.9s-1.4,0.3-2.1,0.4
										c-0.8,2.7-3.6,7.9-8.9,9.6c-5.3,1.7-8.4-1.2-8.4-1.2l-6.4,3.9c0.6,3.2,1.4,6.2,1.2,7.4c25.1-7.8,27.5-7,50.1-9.6
										c0,0-0.2-2.2-1.1-5.8C65.1,418.5,60.4,420,60.4,420z"/>
									<path class="st56" d="M31.2,426.3c5.3-1.7,8-6.9,8.9-9.6c0.7-0.1,2.1-0.4,2.1-0.4s2.8,7.7,12.1,5.9
										c5.7-0.8,6.1-2.2,6.1-2.2s4.7-1.5,6.2,1.1c-0.6-2.1-1.5-4.7-2.8-7.6l-3.3-0.2c0,0-2.9-4.6-9.1-4c-6.1,0.6-9.1,2.5-9.1,2.5
										l-3.5,0.5c0,0-4.5-3.2-10.4-0.3c-5.9,3-7.1,7.5-7.1,7.5L16,422c0,0.1,0,0.2,0,0.4c-0.3,1.9,0.1,4.3,0.5,6.6l6.4-3.9
										C22.8,425.1,25.9,428,31.2,426.3z M49.5,408.7c0,0,6.7-1.7,9,3.7c2.3,5.4-5,7.2-5,7.2s-7.4,0.9-9.4-5.7
										C43.6,411,49.5,408.7,49.5,408.7z M26.7,414.5c0,0,7.3-4.4,10.4,0.1c3.1,4.5-2.2,9.1-5.2,9.9c-3,0.9-6.7,1.7-8.8-2.3
										C21,418.3,26.7,414.5,26.7,414.5z"/>
								</g>
								<path class="st56" d="M15.2,442.7c0,0-1.2-5.1,3-6.9c4.2-1.8,33.7-12.6,50.2-9.9c3.7,0.6,4.5,5.5,4.5,5.5s-6.4-5.5-28.5-0.4
									S15.2,442.7,15.2,442.7z"/>
								
									<ellipse transform="matrix(0.8986 -0.4389 0.4389 0.8986 -180.6631 55.9176)" class="st56" cx="30.6" cy="418.7" rx="10.4" ry="7.1"/>
								
									<ellipse transform="matrix(0.9965 8.354538e-02 -8.354538e-02 0.9965 34.8941 -2.8488)" class="st56" cx="51.5" cy="415.5" rx="10.4" ry="7.1"/>
								
									<ellipse transform="matrix(0.8986 -0.4389 0.4389 0.8986 -180.7403 55.9313)" class="st58" cx="30.6" cy="418.9" rx="8.6" ry="5.9"/>
								
									<ellipse transform="matrix(0.9958 9.128520e-02 -9.128520e-02 0.9958 38.1451 -2.9651)" class="st58" cx="51.5" cy="415.5" rx="8.6" ry="5.9"/>
							</g>
						</g>
						<path class="st26" d="M84.2,429.4c0,0-1.8-3.5-2.8-5.5s-7.7-4.7-9.8-2.8c0,0-2.4,0.2-4,1.9c0,0-4.8,1.3-2.8,2.7
							c2,1.4,7.8,1.3,9.9,4.2s3,5.8,4.1,5.2C79.9,434.5,85,431,84.2,429.4z"/>
						<path class="st24" d="M84.9,428.2c0,0,4.1,4.9,5.2,6.2c1.1,1.2-1,3.4-3.4,4.3s-4,1.5-4.5,2.4s-6.3-4.5-5.5-5.6
							C77.5,434.5,84.6,429.9,84.9,428.2z"/>
					</g>
					<g>
						<g>
							<g>
								<defs>
									<path id="SVGID_22_" d="M11.8,483.5c0,0,57.1-31,113.2,12.5c0,0-24.9,0.4-28.1,27.1c0,0-1.7,19.5,17.3,26.8
										c0,0-74.4,30.3-131.3,8.7c-57-21.5-84.3-49.3-84.3-49.3l-13.2-36.9c0,0,31.8,4.7,35.4,11c3.6,6.2,2.6,13.4,13.3,12.9
										C-55,495.8,6.9,482.1,11.8,483.5z"/>
								</defs>
								<clipPath id="SVGID_23_">
									<use xlink:href="#SVGID_22_"  style="overflow:visible;"/>
								</clipPath>
								<path class="st59" d="M104.5,519.9c0,0-90.8,33.3-208.3-10.2l90.6,77.7c0,0,146.6-33.3,145.7-33.1
									C131.5,554.4,104.5,519.9,104.5,519.9z"/>
							</g>
						</g>
					</g>
					<g>
						<g>
							<path class="st16" d="M41.9,541.1c-5,14-10,28.1-15,42.1c-2,5.6,7,8.1,8.9,2.5c5-14,10-28.1,15-42.1
								C52.9,537.9,43.9,535.5,41.9,541.1L41.9,541.1z"/>
						</g>
					</g>
					<path class="st17" d="M29.3,569.3c0,0,23.6,0.7,21.5,16.4c-2,15.4-19.7,16.4-19.7,16.4"/>
					<circle class="st60" cx="29.7" cy="585.7" r="16.4"/>
					<circle class="st20" cx="29.8" cy="585.9" r="5.6"/>
					<g>
						<path class="st21" d="M-38.6,521.8c0,0,10.1-4.5,17.5-4c7.3,0.5,57.7,4.9,63.7,13.7c0,0-52.2,27.2-111.3,35.5
							c0,0-41.4,3.7-42.9-9.3L-38.6,521.8z"/>
						<g>
							<g>
								<g>
									<defs>
										<path id="SVGID_24_" d="M-38.6,521.8c0,0,10.1-4.5,17.5-4c7.3,0.5,57.7,4.9,63.7,13.7c0,0-52.2,27.2-111.3,35.5
											c0,0-41.4,3.7-42.9-9.3L-38.6,521.8z"/>
									</defs>
									<clipPath id="SVGID_25_">
										<use xlink:href="#SVGID_24_"  style="overflow:visible;"/>
									</clipPath>
									<path class="st61" d="M-88.3,542.1c-2.2-1.7,66.2-5.4,67.7,18.7C-19.2,584.9-126,600-126,600l-8.3-50.3L-88.3,542.1z"/>
								</g>
							</g>
						</g>
					</g>
				</g>
				<path class="st16" d="M-104.2,497.3c0,0,20.1,1.8,20.9,6.6c0,0-14.1,8.7-26.4,6.5c-12.4-2.3-17.7-5.4-11.9-8.1
					C-115.8,499.5-104.2,497.3-104.2,497.3z"/>
				<path class="st62" d="M125.3,496.2c0,0,11.7,10.9,9.5,28.2c-2.2,17.3-16.4,24.1-30.3,29c0,0-23.8-10.4-13.1-43.9
					C102.1,476.1,125.3,496.2,125.3,496.2z"/>
				<path class="st63" d="M104.5,553.4c0,0,42.2-8.8,28.6-46.8c0,0-19.1,10.9-44.4,17.8C88.7,524.4,86.5,543.5,104.5,553.4z"/>
				<path class="st60" d="M133,510.7l11.6-31.3c0,0,1.1-7.4-3.2-11.4s-10.9-10.5-11.9-3.4C128.6,471.8,128.2,505.1,133,510.7z"/>
				<path class="st64" d="M130.4,506c0,0-7.3,2-8.5,8.5c0,0-1.8,11.4,5.8,13.1c0,0,20.8-2.8,18.9-11.3
					C144.6,507.8,130.4,506,130.4,506z"/>
				<path class="st60" d="M129.6,521.6l-16.8,28.9c0,0-2.4,7.1,1.2,11.8c3.5,4.6,9,12.3,11.1,5.3C127.3,560.7,133.4,528,129.6,521.6
					z"/>
			</g>
		</g>
	</g>
</g>
<g>
	<path class="st65" d="M40.7,475.2c0,0-2,11,5.2,10.1c5-0.6,5.6-1.8,8.8-2.4c3.2-0.5,3.8,1.6,7.3,0.9c3.5-0.7,5.2-3.4,3.3-7.5"/>
	<path class="st66" d="M40.7,475.2c0,0-0.1,0.6-0.1,1.7c0,1.1,0,2.7,0.4,4.4c0.2,0.9,0.6,1.8,1.3,2.5c0.7,0.7,1.7,1.1,2.7,1.1
		c0.5,0,1.1-0.1,1.7-0.2c0.6-0.1,1.2-0.2,1.7-0.3c1.2-0.3,2.3-0.7,3.4-1.2c1.2-0.5,2.5-0.8,3.8-0.8c0.7,0,1.3,0.1,1.9,0.4
		c0.6,0.2,1.1,0.5,1.6,0.6c1,0.3,2.1,0.2,3.1,0c1-0.2,1.9-0.7,2.5-1.3c0.6-0.6,0.9-1.4,1-2.1c0.1-0.7,0-1.4-0.1-1.9
		c-0.1-0.5-0.2-0.9-0.3-1.2c-0.1-0.3-0.1-0.4-0.1-0.4s0.1,0.1,0.2,0.4c0.1,0.3,0.3,0.7,0.5,1.2c0.2,0.5,0.3,1.2,0.3,2
		c0,0.8-0.3,1.7-1,2.5c-0.7,0.8-1.6,1.3-2.7,1.6c-1,0.3-2.3,0.5-3.5,0.1c-1.2-0.3-2.2-0.9-3.3-0.9c-1.1,0-2.3,0.4-3.4,0.8
		c-1.1,0.5-2.4,0.9-3.6,1.2c-0.6,0.1-1.2,0.2-1.8,0.3c-0.6,0.1-1.2,0.2-1.8,0.1c-1.3,0-2.5-0.6-3.2-1.5c-0.7-0.9-1.1-1.9-1.3-2.9
		c-0.2-0.9-0.2-1.8-0.2-2.6c0-0.8,0.1-1.4,0.1-2C40.5,475.9,40.7,475.2,40.7,475.2z"/>
</g>
<g>
	<rect x="69.5" y="451.1" class="st67" width="2.5" height="5.9"/>
	
		<rect x="18.6" y="461.1" transform="matrix(0.901 -0.4338 0.4338 0.901 -199.3928 54.2821)" class="st55" width="1.3" height="6.1"/>
</g>
</svg>
