<?xml version="1.0" encoding="utf-8"?>
<!-- Generator: Adobe Illustrator 19.0.0, SVG Export Plug-In . SVG Version: 6.00 Build 0)  -->
<svg version="1.1" id="OBJECTS" xmlns="http://www.w3.org/2000/svg" xmlns:xlink="http://www.w3.org/1999/xlink" x="0px" y="0px"
	 viewBox="0 0 800 800" style="enable-background:new 0 0 800 800;" xml:space="preserve">
<style type="text/css">
	.st0{fill:#EDEDED;}
	.st1{enable-background:new    ;}
	.st2{fill:#92A4B0;}
	.st3{fill:#D5D7CD;}
	.st4{fill:#FFFFFF;}
	.st5{fill:#415460;}
	.st6{fill:#2F3154;}
	.st7{fill:#3E6985;}
	.st8{fill:#617C8C;}
	.st9{fill:#DEDEDE;}
	.st10{fill:#F29B06;}
	.st11{fill:#FDD206;}
	.st12{fill:#FFB406;}
	.st13{fill:url(#XMLID_5_);}
	.st14{fill:#D64128;}
	.st15{fill:#F26B54;}
	.st16{fill:#E8533A;}
	.st17{fill:url(#XMLID_6_);}
	.st18{fill:#3382E0;}
	.st19{fill:#60BCF5;}
	.st20{fill:#35A4E8;}
	.st21{fill:url(#XMLID_7_);}
	.st22{fill:#1B9971;}
	.st23{fill:#60D4AF;}
	.st24{fill:#36C295;}
	.st25{fill:url(#XMLID_8_);}
	.st26{fill:url(#XMLID_9_);}
	.st27{fill:#329FBA;}
	.st28{fill:#5BCACC;}
	.st29{fill:#45BACC;}
	.st30{fill:url(#XMLID_10_);}
	.st31{fill:url(#XMLID_11_);}
	.st32{fill:#DE2A48;}
	.st33{fill:#FF617B;}
	.st34{fill:#DE3551;}
	.st35{fill:url(#XMLID_12_);}
	.st36{fill:#D7D8DE;}
</style>
<g id="XMLID_707_">
	<g id="XMLID_405_">
		<path id="XMLID_396_" class="st0" d="M730.9,324.6L343.2,549.9c-19.4,11.2-50.9,11.2-70.3,0L87.4,442.9
			c-9.8-5.7-14.7-13.1-14.7-20.5l-0.1,22.4c0,7.4,4.9,14.9,14.7,20.5l185.5,105.1c19.5,11.2,51,11.2,70.3,0L730.8,350
			c9.6-5.6,14.4-17.9,14.5-25.2l0.1-21.4C745.4,310.7,740.5,319,730.9,324.6z"/>
		<g id="XMLID_417_">
			<g id="XMLID_418_" class="st1">
				<path id="XMLID_421_" class="st2" d="M730.9,324.5L343.2,549.8c-19.4,11.2-50.9,11.2-70.3,0L87.4,442.8
					c-9.8-5.7-14.7-13.1-14.7-20.5l-0.1,22.4c0,7.4,4.9,14.9,14.7,20.5l185.5,105.1c19.5,11.2,51,11.2,70.3,0l387.7-221.3
					c9.6-5.6,14.4-12.9,14.5-20.2l0.1-24.4C745.4,311.6,740.5,318.9,730.9,324.5z"/>
				<g id="XMLID_419_">
					<path id="XMLID_420_" class="st3" d="M730.7,284.8c17.2,9.9,21.9,28.2,0.2,40.7L343.2,550.8c-19.4,11.2-50.9,11.2-70.3,0
						L87.4,443.8c-19.5-11.2-19.6-29.5-0.2-40.7l387.7-225.3c19.4-11.3,50.9-11.2,70.3,0L730.7,284.8z"/>
				</g>
			</g>
		</g>
		<g id="XMLID_415_">
			<path id="XMLID_416_" class="st4" d="M727.8,285.2c18.6,10.7,18.7,28.1,0.2,38.9L334.3,552.4c-23.2,9.1-49.5,2.7-68.1-8
				l-178-103.2c-18.6-10.7-15.7-28.1,2.8-38.9L475.8,179c18.5-10.7,48.5-10.7,67.1,0L727.8,285.2z"/>
		</g>
		<g id="XMLID_413_">
			<polygon id="XMLID_414_" class="st5" points="707.4,325.3 364.9,524 131.3,389.2 473.8,190.5 			"/>
			<g id="XMLID_388_">
				<polygon id="XMLID_390_" class="st6" points="707.4,325.3 687.2,337.1 453.5,202.3 473.8,190.5 				"/>
			</g>
		</g>
		<g id="XMLID_408_">
			<g id="XMLID_411_">
				<path id="XMLID_412_" class="st7" d="M698.3,356.5c0,4.4-3.1,9.8-6.9,12l-60.4,34.9c-2.8,1.6-5.3,1.1-6.4-1
					c-0.4-0.8-0.6-1.8-0.6-2.9c0-4.4,3.1-9.8,7-12.1l60.4-34.9c1-0.6,1.9-0.8,2.7-0.9C696.5,351.4,698.3,353.2,698.3,356.5z"/>
			</g>
			<g id="XMLID_409_">
				<path id="XMLID_410_" class="st8" d="M694.7,354.6c0,4.4-3.1,9.8-6.9,12l-60.4,34.9c-1,0.6-1.9,0.9-2.8,0.9
					c-0.4-0.8-0.6-1.8-0.6-2.9c0-4.4,3.1-9.8,7-12.1l60.4-34.9c1-0.6,1.9-0.8,2.7-0.9C694.4,352.4,694.7,353.4,694.7,354.6z"/>
			</g>
		</g>
		<g id="XMLID_391_">
			<g id="XMLID_424_">
				<path id="XMLID_402_" class="st9" d="M635.3,259.6c-0.2,0.4-0.7,0.8-1.2,1.1c-2.1,1.2-5.4,1.2-7.5,0l-41.4-23.9
					c-0.6-0.3-1-0.7-1.2-1.1c-0.7-1.1-0.3-2.4,1.2-3.3c2.1-1.2,5.5-1.2,7.5,0l41.4,23.9C635.6,257.2,636,258.5,635.3,259.6z"/>
			</g>
			<g id="XMLID_392_">
				<path id="XMLID_400_" class="st2" d="M635.3,259.6c-0.2,0.4-0.7,0.8-1.2,1.1c-2.1,1.2-5.4,1.2-7.5,0l-41.4-23.9
					c-0.6-0.3-1-0.7-1.2-1.1c0.2-0.4,0.6-0.8,1.2-1.1c2.1-1.2,5.5-1.2,7.5,0l41.4,23.9C634.7,258.8,635.1,259.2,635.3,259.6z"/>
			</g>
		</g>
		<g id="XMLID_403_">
			<g id="XMLID_426_">
				<path id="XMLID_427_" class="st7" d="M161.7,497.1c0,2.4,1.7,5.4,3.9,6.7l33.5,19.4c1.6,0.9,2.9,0.6,3.5-0.6
					c0.2-0.4,0.3-1,0.3-1.6c0-2.5-1.7-5.5-3.9-6.7l-33.5-19.4c-0.5-0.3-1.1-0.5-1.5-0.5C162.6,494.2,161.7,495.2,161.7,497.1z"/>
			</g>
			<g id="XMLID_404_">
				<path id="XMLID_425_" class="st8" d="M163.7,496c0,2.5,1.7,5.4,3.9,6.7L201,522c0.5,0.3,1.1,0.5,1.5,0.5c0.2-0.4,0.3-1,0.3-1.6
					c0-2.5-1.7-5.5-3.9-6.7l-33.5-19.4c-0.5-0.3-1.1-0.5-1.5-0.5C163.8,494.8,163.7,495.3,163.7,496z"/>
			</g>
		</g>
		<g id="XMLID_429_">
			<g id="XMLID_428_">
				<path id="XMLID_440_" class="st7" d="M96.1,461.6c0,0.9-0.2,1.6-0.5,2.1c-0.7,1.1-2.2,1.4-3.8,0.4c-2.4-1.4-4.4-4.8-4.3-7.6
					c0-1.9,0.9-3,2.2-3.1c0.6,0,1.4,0.1,2.2,0.6C94.2,455.5,96.1,458.9,96.1,461.6z"/>
			</g>
			<g id="XMLID_430_">
				<path id="XMLID_438_" class="st8" d="M96.1,461.6c0,0.9-0.2,1.6-0.5,2.1c-0.6,0.1-1.4-0.1-2.2-0.6c-2.4-1.4-4.4-4.8-4.4-7.6
					c0-0.9,0.2-1.6,0.6-2.1c0.6,0,1.4,0.1,2.2,0.6C94.2,455.5,96.1,458.9,96.1,461.6z"/>
			</g>
		</g>
		<polygon id="XMLID_468_" class="st6" points="308.6,425.4 265.7,450.3 205.3,415.2 248.4,390.6 		"/>
		<polygon id="XMLID_456_" class="st6" points="537.9,263.5 483.2,295.2 398.4,246 453.3,214.6 		"/>
		<polygon id="XMLID_635_" class="st6" points="241.6,386.7 198.8,411.6 155.3,386.4 198.5,361.8 		"/>
		<polygon id="XMLID_439_" class="st6" points="410.9,484.4 368,509.3 324.6,484.1 367.7,459.5 		"/>
		<polygon id="XMLID_431_" class="st6" points="665.2,338 611,369.5 556.2,337.6 610.7,306.6 		"/>
		<polygon id="XMLID_455_" class="st6" points="602,301.6 547.9,333.1 493.1,301.2 547.6,270.1 		"/>
		<polygon id="XMLID_475_" class="st6" points="482.9,315.1 454.1,332 352.1,272.8 381.3,256.4 		"/>
		<polygon id="XMLID_448_" class="st6" points="551.1,404.2 431.1,473.7 217.9,350.3 338.3,281.2 		"/>
		<polygon id="XMLID_446_" class="st6" points="594.1,379.4 565.4,396.2 535.8,378.9 564.9,362.5 		"/>
		<polygon id="XMLID_541_" class="st6" points="556.5,357.6 527.7,374.5 498.2,357.1 527.3,340.8 		"/>
		<polygon id="XMLID_540_" class="st6" points="520.1,336.6 491.4,353.5 461.8,336.2 491,319.8 		"/>
		<polygon id="XMLID_454_" class="st6" points="360.5,454.7 318,479.5 274.3,454.1 317.2,429.7 		"/>
	</g>
	<g id="XMLID_642_">
		<g id="XMLID_568_">
			<g id="XMLID_572_">
				<polygon id="XMLID_634_" class="st10" points="602,273.4 547.9,304.8 548,321.2 602,290 				"/>
				<polygon id="XMLID_627_" class="st11" points="602,273.4 547.9,304.8 493.1,273 547.6,241.9 				"/>
				<polygon id="XMLID_620_" class="st12" points="493.1,273 547.9,304.8 548,321.2 493.1,289.6 				"/>
			</g>
			<linearGradient id="XMLID_5_" gradientUnits="userSpaceOnUse" x1="571.4103" y1="291.0644" x2="578.5934" y2="303.506">
				<stop  offset="0" style="stop-color:#FFFFFF;stop-opacity:0"/>
				<stop  offset="0.1003" style="stop-color:#FEF9F8;stop-opacity:0.1003"/>
				<stop  offset="0.2423" style="stop-color:#FAE9E6;stop-opacity:0.2423"/>
				<stop  offset="0.4092" style="stop-color:#F4CEC7;stop-opacity:0.4092"/>
				<stop  offset="0.5949" style="stop-color:#ECA89D;stop-opacity:0.5949"/>
				<stop  offset="0.7963" style="stop-color:#E27867;stop-opacity:0.7963"/>
				<stop  offset="1" style="stop-color:#D64128"/>
			</linearGradient>
			<polygon id="XMLID_571_" class="st13" points="602,273.4 547.9,304.8 548,321.2 602,290 			"/>
		</g>
		<g id="XMLID_557_">
			<g id="XMLID_588_">
				<path id="XMLID_589_" class="st4" d="M565.3,263.9c0.6,0.3,0.6,0.9,0,1.2l-4.9,2.9c-0.6,0.3-1.5,0.3-2.1,0
					c-0.6-0.3-0.6-0.9,0-1.2l4.9-2.9C563.7,263.6,564.7,263.6,565.3,263.9z"/>
			</g>
			<g id="XMLID_586_">
				<path id="XMLID_587_" class="st4" d="M535.9,270.6c0.4,0.2,0.5,0.5,0.4,0.8c-0.2,0.5-1,0.7-1.8,0.6l-6.8-1
					c-0.3,0-0.5-0.1-0.7-0.2c-0.4-0.2-0.5-0.5-0.4-0.8c0.2-0.5,1-0.7,1.8-0.6l6.8,1C535.5,270.4,535.7,270.5,535.9,270.6z"/>
			</g>
			<g id="XMLID_584_">
				<path id="XMLID_585_" class="st4" d="M553.9,280.9c0.2,0.1,0.3,0.2,0.4,0.4l1.8,3.9c0.2,0.5-0.3,0.9-1.1,1.1
					c-0.5,0.1-1.1,0-1.4-0.2c-0.2-0.1-0.3-0.2-0.4-0.4l-1.8-3.9c-0.2-0.5,0.3-0.9,1.1-1.1C553,280.6,553.5,280.7,553.9,280.9z"/>
			</g>
			<g id="XMLID_580_">
				<path id="XMLID_581_" class="st4" d="M556.2,269.2c4,2.3,4,6.1,0,8.4c-4,2.3-10.5,2.3-14.5,0c-4-2.3-4-6.1,0-8.4
					C545.7,266.9,552.2,266.9,556.2,269.2z M543.9,276.3c2.8,1.6,7.4,1.6,10.2,0c2.8-1.6,2.8-4.3,0-5.9c-2.8-1.6-7.4-1.6-10.2,0
					C541,272,541.1,274.7,543.9,276.3"/>
			</g>
			<g id="XMLID_578_">
				<path id="XMLID_579_" class="st4" d="M544.4,260.7c0.2,0.1,0.3,0.2,0.4,0.4l1.8,3.9c0.2,0.5-0.3,0.9-1.1,1.1
					c-0.5,0.1-1.1,0-1.4-0.2c-0.2-0.1-0.3-0.2-0.4-0.4l-1.8-3.9c-0.2-0.5,0.3-0.9,1.1-1.1C543.5,260.4,544,260.5,544.4,260.7z"/>
			</g>
			<g id="XMLID_576_">
				<path id="XMLID_577_" class="st4" d="M539.7,278.8c0.6,0.3,0.6,0.9,0,1.2l-4.9,2.9c-0.6,0.3-1.5,0.3-2.1,0
					c-0.6-0.3-0.6-0.9,0-1.2l4.9-2.9C538.2,278.4,539.2,278.4,539.7,278.8z"/>
			</g>
			<g id="XMLID_574_">
				<path id="XMLID_575_" class="st4" d="M570.9,276c0.4,0.2,0.5,0.5,0.4,0.8c-0.2,0.5-1,0.7-1.8,0.6l-6.8-1c-0.3,0-0.5-0.1-0.7-0.2
					c-0.4-0.2-0.5-0.5-0.4-0.8c0.2-0.5,1-0.7,1.8-0.6l6.8,1C570.5,275.8,570.8,275.9,570.9,276z"/>
			</g>
		</g>
	</g>
	<g id="XMLID_645_">
		<g id="XMLID_532_">
			<g id="XMLID_534_">
				<polygon id="XMLID_537_" class="st14" points="665.2,322.3 611,353.7 611.1,370.1 665.1,338.9 				"/>
				<polygon id="XMLID_536_" class="st15" points="665.2,322.3 611,353.7 556.2,321.9 610.7,290.8 				"/>
				<polygon id="XMLID_535_" class="st16" points="556.2,321.9 611,353.7 611.1,370.1 556.2,338.5 				"/>
			</g>
			<linearGradient id="XMLID_6_" gradientUnits="userSpaceOnUse" x1="634.5213" y1="339.9554" x2="641.7044" y2="352.397">
				<stop  offset="0" style="stop-color:#FFFFFF;stop-opacity:0"/>
				<stop  offset="0.1003" style="stop-color:#FEF9F8;stop-opacity:0.1003"/>
				<stop  offset="0.2423" style="stop-color:#FAE9E6;stop-opacity:0.2423"/>
				<stop  offset="0.4092" style="stop-color:#F4CEC7;stop-opacity:0.4092"/>
				<stop  offset="0.5949" style="stop-color:#ECA89D;stop-opacity:0.5949"/>
				<stop  offset="0.7963" style="stop-color:#E27867;stop-opacity:0.7963"/>
				<stop  offset="1" style="stop-color:#D64128"/>
			</linearGradient>
			<polygon id="XMLID_533_" class="st17" points="665.2,322.3 611,353.7 611.1,370.1 665.1,338.9 			"/>
		</g>
		<g id="XMLID_558_">
			<g id="XMLID_663_">
				<path id="XMLID_664_" class="st4" d="M636.5,326.8c1.2,0.7,1.2,1.8,0,2.5l-19.1,11.1c-1.2,0.7-3.1,0.7-4.3,0l-29.3-16.9
					c-1.2-0.7-1.2-1.8,0-2.5l19.1-11.1c1.2-0.7,3.1-0.7,4.3,0l6.9,4l3.4-2.1c0.6-0.3,1.3-0.5,2.1-0.5c0.8,0,1.6,0.2,2.2,0.5
					l11.2,6.5c1.2,0.7,1.2,1.8,0,2.5l-3.5,2L636.5,326.8z M615.3,336.7l14.8-8.6l-7-4c-1.2-0.7-1.2-1.8,0-2.5l3.5-2l-6.9-4l-3.4,2.1
					c-0.6,0.3-1.3,0.5-2.1,0.5c-0.8,0-1.6-0.2-2.2-0.5l-7-4l-14.8,8.6L615.3,336.7"/>
			</g>
			<g id="XMLID_650_">
				<path id="XMLID_651_" class="st4" d="M614.6,322.6c2.2,1.2,2.2,3.3,0,4.5s-5.6,1.2-7.8,0c-2.2-1.2-2.2-3.3,0-4.5
					C608.9,321.3,612.4,321.3,614.6,322.6z"/>
			</g>
		</g>
	</g>
	<g id="XMLID_669_">
		<g id="XMLID_479_">
			<g id="XMLID_482_">
				<polygon id="XMLID_490_" class="st18" points="412.9,468.6 370.4,493.4 370.4,509.7 412.9,485.2 				"/>
				<polygon id="XMLID_489_" class="st19" points="412.9,468.6 370.4,493.4 326.7,467.9 369.6,443.5 				"/>
				<polygon id="XMLID_486_" class="st20" points="326.7,467.9 370.4,493.4 370.4,509.7 326.7,484.5 				"/>
			</g>
			<linearGradient id="XMLID_7_" gradientUnits="userSpaceOnUse" x1="387.8795" y1="482.6052" x2="395.0626" y2="495.0467">
				<stop  offset="0" style="stop-color:#FFFFFF;stop-opacity:0"/>
				<stop  offset="0.1" style="stop-color:#F8FCFE;stop-opacity:0.1"/>
				<stop  offset="0.2416" style="stop-color:#E6F5FC;stop-opacity:0.2416"/>
				<stop  offset="0.4079" style="stop-color:#C7E9F7;stop-opacity:0.4079"/>
				<stop  offset="0.5931" style="stop-color:#9DD8F1;stop-opacity:0.5931"/>
				<stop  offset="0.7938" style="stop-color:#67C3EA;stop-opacity:0.7938"/>
				<stop  offset="1" style="stop-color:#27AAE1"/>
			</linearGradient>
			<polygon id="XMLID_480_" class="st21" points="412.7,468.3 370.2,493 370.2,509.4 412.7,484.9 			"/>
		</g>
		<g id="XMLID_570_">
			<path id="XMLID_562_" class="st4" d="M391.5,469.5c0.8,0.5,0.8,1.2,0,1.6l-15.5,9c-0.8,0.5-2,0.5-2.8,0l-23.8-13.8
				c-0.8-0.5-0.8-1.2,0-1.6l15.5-9c0.8-0.5,2-0.5,2.8,0L391.5,469.5z M383.9,472.2l3.3-1.9l-21-12.1l-3.3,1.9l1.3,11.4L383.9,472.2
				 M374.6,477.7l6.2-3.6l-13.4-0.5L374.6,477.7 M353.5,465.6l7.1,4.1l-0.9-7.7L353.5,465.6"/>
		</g>
	</g>
	<g id="XMLID_646_">
		<g id="XMLID_471_">
			<g id="XMLID_473_">
				<polygon id="XMLID_538_" class="st22" points="537.3,227.4 483.2,258.9 483.2,275.2 537.3,244 				"/>
				<polygon id="XMLID_531_" class="st23" points="537.3,227.4 483.2,258.9 398.4,209.5 452.9,178.4 				"/>
				<polygon id="XMLID_474_" class="st24" points="398.4,209.5 483.2,258.9 483.2,275.2 398.5,226.1 				"/>
			</g>
			<linearGradient id="XMLID_8_" gradientUnits="userSpaceOnUse" x1="506.6197" y1="245.1648" x2="513.8029" y2="257.6064">
				<stop  offset="0" style="stop-color:#FFFFFF;stop-opacity:0"/>
				<stop  offset="9.279342e-02" style="stop-color:#F8FDFC;stop-opacity:9.279342e-02"/>
				<stop  offset="0.2242" style="stop-color:#E6F7F5;stop-opacity:0.2242"/>
				<stop  offset="0.3785" style="stop-color:#C7EEE8;stop-opacity:0.3785"/>
				<stop  offset="0.5504" style="stop-color:#9DE1D7;stop-opacity:0.5504"/>
				<stop  offset="0.7367" style="stop-color:#67D0C1;stop-opacity:0.7367"/>
				<stop  offset="0.9322" style="stop-color:#25BCA6;stop-opacity:0.9322"/>
				<stop  offset="1" style="stop-color:#0DB59C"/>
			</linearGradient>
			<polygon id="XMLID_472_" class="st25" points="537.3,227.5 483.1,258.9 483.2,275.3 537.2,244.1 			"/>
		</g>
		<g id="XMLID_569_">
			<g id="XMLID_632_">
				<path id="XMLID_633_" class="st4" d="M471.4,215.3c4.6,2.7,6.5,6.6,4.8,10.3c-0.4,0.9-2,1.4-3.5,1.2c-0.5-0.1-0.9-0.2-1.3-0.4
					c-0.7-0.4-1-1-0.8-1.6c1.1-2.5-0.1-5.2-3.3-7.1c-3.2-1.8-7.8-2.6-12.2-1.9c-1,0.2-2.1,0-2.8-0.4c-0.3-0.2-0.6-0.5-0.7-0.7
					c-0.4-0.9,0.5-1.8,2-2C460,211.6,466.8,212.6,471.4,215.3z"/>
			</g>
			<g id="XMLID_630_">
				<path id="XMLID_631_" class="st4" d="M460.9,221.4c2,1.1,2,3,0,4.1c-2,1.1-5.1,1.1-7.1,0c-2-1.1-2-3,0-4.1
					C455.8,220.2,459,220.3,460.9,221.4z"/>
			</g>
			<g id="XMLID_628_">
				<path id="XMLID_629_" class="st4" d="M481.8,209.3c7.4,4.3,10.3,10.5,7.7,16.4c-0.4,0.9-2,1.4-3.5,1.2c-0.5-0.1-0.9-0.2-1.3-0.4
					c-0.7-0.4-1-1-0.8-1.6c2.1-4.7-0.2-9.7-6.2-13.2c-5.9-3.4-14.6-4.8-22.7-3.5c-1,0.2-2.1,0-2.8-0.4c-0.3-0.2-0.6-0.5-0.7-0.7
					c-0.4-0.9,0.5-1.8,2-2C463.6,203.3,474.4,205,481.8,209.3z"/>
			</g>
		</g>
	</g>
	<g id="XMLID_649_">
		<g id="XMLID_469_">
			<g id="XMLID_515_">
				<polygon id="XMLID_524_" class="st22" points="360.5,421.3 318,446 318,462.4 360.5,437.9 				"/>
				<polygon id="XMLID_523_" class="st23" points="360.5,421.3 318,446 274.3,420.6 317.2,396.2 				"/>
				<polygon id="XMLID_522_" class="st24" points="274.3,420.6 318,446 318,462.4 274.3,437.2 				"/>
			</g>
			<linearGradient id="XMLID_9_" gradientUnits="userSpaceOnUse" x1="335.8524" y1="435.6877" x2="343.0356" y2="448.1294">
				<stop  offset="0" style="stop-color:#FFFFFF;stop-opacity:0"/>
				<stop  offset="9.279342e-02" style="stop-color:#F8FDFC;stop-opacity:9.279342e-02"/>
				<stop  offset="0.2242" style="stop-color:#E6F7F5;stop-opacity:0.2242"/>
				<stop  offset="0.3785" style="stop-color:#C7EEE8;stop-opacity:0.3785"/>
				<stop  offset="0.5504" style="stop-color:#9DE1D7;stop-opacity:0.5504"/>
				<stop  offset="0.7367" style="stop-color:#67D0C1;stop-opacity:0.7367"/>
				<stop  offset="0.9322" style="stop-color:#25BCA6;stop-opacity:0.9322"/>
				<stop  offset="1" style="stop-color:#0DB59C"/>
			</linearGradient>
			<polygon id="XMLID_495_" class="st26" points="360.7,421.3 318.1,446.1 318.2,462.5 360.7,437.9 			"/>
		</g>
		<g id="XMLID_567_">
			<g id="XMLID_573_" class="st1">
				<g id="XMLID_594_">
					<path id="XMLID_595_" class="st4" d="M324,418.2c1.6,0.9,1.6,2.4,0,3.3c-1.6,0.9-4.1,0.9-5.7,0c-1.6-0.9-1.6-2.4,0-3.3
						C319.9,417.2,322.4,417.2,324,418.2z"/>
				</g>
				<g id="XMLID_590_">
					<path id="XMLID_591_" class="st4" d="M332.9,424.8c-2.4,1.8-5.9,3-9.8,3.3l-15.6,1.1c-0.6,0-1.3-0.1-1.8-0.4
						c-0.5-0.3-0.7-0.6-0.6-1l1.8-9c0.5-2.3,2.4-4.3,5.6-5.7c3.2-1.4,7.1-2,11-1.6c3.1,0.3,5.9,1.1,8.1,2.4c2.1,1.2,3.6,2.8,4.1,4.7
						C336.2,420.7,335.3,423,332.9,424.8z M322.5,425.6c2.8-0.2,5.3-1,6.9-2.3c1.7-1.3,2.4-2.9,1.9-4.5c-0.3-1.3-1.4-2.4-2.9-3.3
						c-1.5-0.9-3.5-1.5-5.7-1.7c-2.8-0.3-5.5,0.2-7.8,1.1c-2.2,1-3.6,2.4-4,4l-1.5,7.5L322.5,425.6"/>
				</g>
			</g>
		</g>
	</g>
	<g id="XMLID_668_">
		<g id="XMLID_636_">
			<g id="XMLID_638_">
				<polygon id="XMLID_641_" class="st27" points="241.6,370.3 199.1,395.1 199.1,411.5 241.6,386.9 				"/>
				<polygon id="XMLID_640_" class="st28" points="241.6,370.3 199.1,395.1 155.4,369.7 198.3,345.3 				"/>
				<polygon id="XMLID_639_" class="st29" points="155.4,369.7 199.1,395.1 199.1,411.5 155.4,386.3 				"/>
			</g>
			<linearGradient id="XMLID_10_" gradientUnits="userSpaceOnUse" x1="216.759" y1="384.6911" x2="223.9422" y2="397.1326">
				<stop  offset="0" style="stop-color:#FFFFFF;stop-opacity:0"/>
				<stop  offset="0.1035" style="stop-color:#F8FCFD;stop-opacity:0.1035"/>
				<stop  offset="0.25" style="stop-color:#E6F3F7;stop-opacity:0.25"/>
				<stop  offset="0.4222" style="stop-color:#C7E5EC;stop-opacity:0.4222"/>
				<stop  offset="0.6138" style="stop-color:#9DD1DE;stop-opacity:0.6138"/>
				<stop  offset="0.8188" style="stop-color:#68B8CC;stop-opacity:0.8188"/>
				<stop  offset="1" style="stop-color:#329FBA"/>
			</linearGradient>
			<polygon id="XMLID_637_" class="st30" points="241.6,370.3 199.1,395.1 199.1,411.5 241.6,386.9 			"/>
		</g>
		<g id="XMLID_644_">
			<g id="XMLID_652_" class="st1">
				<g id="XMLID_661_">
					<path id="XMLID_662_" class="st4" d="M201,367.3c0.9,0.5,0.9,1.4,0,1.9c-0.9,0.5-2.4,0.5-3.3,0c-0.9-0.5-0.9-1.4,0-1.9
						C198.6,366.8,200.1,366.8,201,367.3z"/>
				</g>
				<g id="XMLID_657_">
					<path id="XMLID_658_" class="st4" d="M219.3,369.4c0.9,0.5,0.9,1.4,0,1.9l-15.3,8.9c-0.9,0.5-2.3,0.5-3.2,0l-2.5-1.4l-3,1.7
						c-0.6,0.4-1.6,0.5-2.4,0.3c-0.3-0.1-0.6-0.2-0.8-0.3c-0.4-0.2-0.6-0.5-0.7-0.8l-0.6-5.2l-11.9-6.9c-0.9-0.5-0.9-1.4,0-1.9
						l15.3-8.9c0.9-0.5,2.3-0.5,3.2,0L219.3,369.4z M202.4,377.3l12.1-7l-18.7-10.8l-12.1,7l10.9,6.3c0.4,0.2,0.6,0.5,0.7,0.8
						l0.3,2.8l1-0.6c0.9-0.5,2.3-0.5,3.2,0L202.4,377.3"/>
				</g>
				<g id="XMLID_655_">
					<path id="XMLID_656_" class="st4" d="M196.4,364.7c0.9,0.5,0.9,1.4,0,1.9c-0.9,0.5-2.4,0.5-3.3,0c-0.9-0.5-0.9-1.4,0-1.9
						C194.1,364.2,195.5,364.2,196.4,364.7z"/>
				</g>
				<g id="XMLID_653_">
					<path id="XMLID_654_" class="st4" d="M205.5,369.9c0.9,0.5,0.9,1.4,0,1.9c-0.9,0.5-2.4,0.5-3.3,0c-0.9-0.5-0.9-1.4,0-1.9
						C203.2,369.4,204.6,369.4,205.5,369.9z"/>
				</g>
			</g>
		</g>
	</g>
	<g id="XMLID_670_">
		<g id="XMLID_539_">
			<g id="XMLID_542_">
				<g id="XMLID_544_">
					<polygon id="XMLID_547_" class="st20" points="594.5,349.5 565.7,366.6 565.8,383 594.5,366.1 					"/>
					<polygon id="XMLID_546_" class="st19" points="594.5,349.5 565.7,366.6 536.2,349 565.4,332.2 					"/>
					<polygon id="XMLID_545_" class="st20" points="536.2,349 565.7,366.6 565.8,383 536.2,365.6 					"/>
				</g>
			</g>
			<linearGradient id="XMLID_11_" gradientUnits="userSpaceOnUse" x1="575.8167" y1="360.2678" x2="583.1147" y2="372.9083">
				<stop  offset="0" style="stop-color:#FFFFFF;stop-opacity:0"/>
				<stop  offset="0.1" style="stop-color:#F8FCFE;stop-opacity:0.1"/>
				<stop  offset="0.2416" style="stop-color:#E6F5FC;stop-opacity:0.2416"/>
				<stop  offset="0.4079" style="stop-color:#C7E9F7;stop-opacity:0.4079"/>
				<stop  offset="0.5931" style="stop-color:#9DD8F1;stop-opacity:0.5931"/>
				<stop  offset="0.7938" style="stop-color:#67C3EA;stop-opacity:0.7938"/>
				<stop  offset="1" style="stop-color:#27AAE1"/>
			</linearGradient>
			<polygon id="XMLID_543_" class="st31" points="593.8,349.9 565.1,366.9 565.1,383.3 593.8,366.5 			"/>
		</g>
		<g id="XMLID_671_">
			<g id="XMLID_682_">
				<path id="XMLID_683_" class="st4" d="M567.2,348.2c1,0.6,1,1.5,0,2.1c-1,0.6-2.6,0.6-3.6,0c-1-0.6-1-1.5,0-2.1
					C564.5,347.6,566.2,347.6,567.2,348.2z"/>
			</g>
			<g id="XMLID_677_">
				<path id="XMLID_678_" class="st4" d="M571.8,356c0.1,0.4-0.3,0.7-1,0.8l-3.6,0.6c-0.5,0.1-1,0-1.3-0.2c-0.1-0.1-0.2-0.1-0.3-0.2
					l-1.4-1.8c-1-0.1-2.1-0.2-3-0.5l-2.7,1.1c-0.5,0.2-1.3,0.2-1.7-0.1l-2.7-1.5c-0.5-0.3-0.5-0.7-0.1-1l1.9-1.6
					c-0.4-0.6-0.7-1.1-0.8-1.7l-3-0.8c-0.2,0-0.3-0.1-0.4-0.2c-0.3-0.2-0.5-0.5-0.4-0.8l1-2.1c0.2-0.4,0.8-0.6,1.4-0.6l3.3,0.2
					c0.3-0.3,0.6-0.5,1-0.7c0.4-0.2,0.8-0.4,1.2-0.6l-0.4-1.9c-0.1-0.4,0.3-0.7,1-0.8l3.6-0.6c0.5-0.1,1,0,1.3,0.2
					c0.1,0.1,0.2,0.1,0.3,0.2l1.4,1.8c1,0.1,2.1,0.2,3,0.5l2.7-1.1c0.5-0.2,1.3-0.2,1.7,0.1l2.7,1.5c0.5,0.3,0.5,0.7,0.1,1l-1.9,1.6
					c0.4,0.6,0.7,1.1,0.8,1.7l3.1,0.8c0.2,0,0.3,0.1,0.4,0.2c0.3,0.2,0.5,0.5,0.4,0.8l-1,2.1c-0.2,0.4-0.8,0.6-1.4,0.6l-3.3-0.2
					c-0.3,0.2-0.7,0.5-1,0.7c-0.4,0.2-0.8,0.4-1.2,0.6L571.8,356z M567.6,355.7l1.4-0.2l-0.3-1.7c-0.1-0.3,0.2-0.6,0.6-0.7
					c0.5-0.2,1-0.4,1.4-0.6c0.4-0.2,0.8-0.5,1.1-0.8c0.3-0.3,0.8-0.4,1.3-0.4l3,0.2l0.4-0.8l-2.7-0.7c-0.2,0-0.3-0.1-0.4-0.2
					c-0.2-0.1-0.4-0.3-0.4-0.5c0-0.7-0.4-1.4-0.9-2c-0.2-0.3-0.2-0.6,0.1-0.8l1.7-1.4l-1-0.6l-2.4,1c-0.4,0.2-1,0.2-1.4,0.1
					c-1.1-0.3-2.2-0.5-3.4-0.5c-0.4,0-0.7-0.1-0.9-0.2c-0.1-0.1-0.2-0.1-0.3-0.2l-1.2-1.6l-1.4,0.2l0.3,1.7c0.1,0.3-0.2,0.6-0.6,0.7
					c-0.5,0.2-1,0.4-1.4,0.6c-0.4,0.2-0.8,0.5-1.1,0.8c-0.3,0.3-0.8,0.4-1.3,0.4l-3-0.2l-0.4,0.8l2.7,0.7c0.2,0,0.3,0.1,0.4,0.2
					c0.2,0.1,0.4,0.3,0.4,0.5c0,0.7,0.4,1.4,0.9,2c0.2,0.3,0.2,0.6-0.1,0.8l-1.7,1.4l1,0.6l2.4-1c0.4-0.2,1-0.2,1.4-0.1
					c1,0.3,2.2,0.5,3.4,0.5c0.3,0,0.7,0.1,0.9,0.2c0.1,0.1,0.2,0.1,0.3,0.2L567.6,355.7"/>
			</g>
		</g>
	</g>
	<g id="XMLID_648_">
		<g id="XMLID_525_">
			<g id="XMLID_527_">
				<polygon id="XMLID_530_" class="st32" points="551.1,367.7 431.1,437.5 431.1,453.9 551.1,384.3 				"/>
				<polygon id="XMLID_529_" class="st33" points="551.1,367.7 431.1,437.5 217.9,314.3 338.3,244.8 				"/>
				<polygon id="XMLID_528_" class="st34" points="217.9,314.3 431.1,437.5 431.1,453.9 217.9,330.9 				"/>
			</g>
			<linearGradient id="XMLID_12_" gradientUnits="userSpaceOnUse" x1="486.9041" y1="404.5257" x2="494.2147" y2="417.1881">
				<stop  offset="0" style="stop-color:#FFFFFF;stop-opacity:0"/>
				<stop  offset="0.1009" style="stop-color:#FEF8F9;stop-opacity:0.1009"/>
				<stop  offset="0.2438" style="stop-color:#FBE6E9;stop-opacity:0.2438"/>
				<stop  offset="0.4117" style="stop-color:#F6C7CF;stop-opacity:0.4117"/>
				<stop  offset="0.5986" style="stop-color:#F09DAB;stop-opacity:0.5986"/>
				<stop  offset="0.7993" style="stop-color:#E7677D;stop-opacity:0.7993"/>
				<stop  offset="1" style="stop-color:#DE2A48"/>
			</linearGradient>
			<polygon id="XMLID_526_" class="st35" points="550.6,367.8 430.6,437.6 430.6,453.9 550.6,384.4 			"/>
		</g>
		<g id="XMLID_647_">
			<g id="XMLID_560_">
				<g id="XMLID_623_">
					<path id="XMLID_624_" class="st4" d="M422.9,317.3c15,8.7,15.1,22.8,0.2,31.5c-14.9,8.7-39.3,8.7-54.3,0
						c-15-8.7-15.1-22.8-0.2-31.5C383.5,308.7,407.8,308.7,422.9,317.3z M375,345.1c11.5,6.7,30.3,6.7,41.7,0
						c11.5-6.7,11.4-17.5-0.1-24.2c-11.5-6.7-30.2-6.7-41.7,0C363.4,327.6,363.5,338.5,375,345.1"/>
				</g>
				<g id="XMLID_621_">
					<path id="XMLID_622_" class="st4" d="M400.5,324.1c0.4,0.2,0.7,0.5,0.8,0.8l5.6,12.2c0.6,1.4-1.5,2.6-3.9,2.3l-21.1-3.2
						c-0.6-0.1-1.1-0.3-1.5-0.5c-1.2-0.7-1.3-1.9,0-2.6l15.5-9C397.2,323.4,399.3,323.5,400.5,324.1z"/>
				</g>
			</g>
			<polygon id="XMLID_556_" class="st4" points="463.8,418.5 463.4,418.8 250.3,295.6 250.6,295.4 			"/>
		</g>
	</g>
</g>
<g id="XMLID_3_">
	<ellipse id="XMLID_1_" class="st36" cx="204.6" cy="474.2" rx="25.4" ry="19.2"/>
	<ellipse id="XMLID_2_" class="st4" cx="204.4" cy="474.2" rx="22.6" ry="17.1"/>
</g>
</svg>
