<?xml version="1.0" encoding="utf-8"?>
<!-- Generator: Adobe Illustrator 19.0.0, SVG Export Plug-In . SVG Version: 6.00 Build 0)  -->
<svg version="1.1" id="Layer_1" xmlns="http://www.w3.org/2000/svg" xmlns:xlink="http://www.w3.org/1999/xlink" x="0px" y="0px"
	 viewBox="-402 178 703.6 463" style="enable-background:new -402 178 703.6 463;" xml:space="preserve">
<style type="text/css">
	.st0{fill:#46A18A;}
</style>
<g id="behance">
	<g>
		<g>
			<path class="st0" d="M-104.7,393.1c-3.8-1.1-7.8-1.9-12-2.4c3.4-0.9,6.9-2.1,10.5-3.7l-3.4,2.9L-104.7,393.1z"/>
			<path class="st0" d="M221.8,183.1H58.6c-8.3,0-15.1,7-15.1,15.6v50.4c0,8.6,6.8,15.6,15.1,15.6h163.2c8.3,0,15.1-7,15.1-15.6
				v-50.4C236.9,190.1,230.1,183.1,221.8,183.1L221.8,183.1z M73.7,233.5v-19.2h133v19.2H73.7L73.7,233.5z M-178.3,188.8h-205.8
				c-8.3,0-15.1,7-15.1,15.6v409.4c0,8.6,6.8,15.6,15.1,15.6h205.3c0.2,0,1.7,0,1.9,0c9.3,0,42.3-1.3,74.1-18.2
				c29.7-15.8,65.2-49.1,65.2-117.4c0.1-2.4,2.8-58.6-28.4-92.8c-4.7-5.2-9.9-9.5-15.5-13.1c16.6-14.3,30.3-37.8,30.3-74.5
				C-51.3,237.7-101.2,188.8-178.3,188.8L-178.3,188.8z M-369.1,598.2V220h190.7c60.7,0,96.8,34.9,96.8,93.4
				c0,56.4-41.8,61.9-46.4,62.4c-8.1,0.6-14.2,7.8-13.9,16.1c0.3,8.4,7,15,15.1,15c16.5,0,29.2,5.1,38.7,15.5
				c22.3,24.3,20.3,69.3,20.3,70.6c0,42.9-16.4,73.3-48.8,90.5c-26.5,14-55,14.7-60.4,14.7l-1.4,0H-369.1L-369.1,598.2z
				 M-178.3,261.6h-115.1c-8.3,0-15.1,7-15.1,15.6v91.4c0,8.6,6.8,15.6,15.1,15.6h108c33.8,0,50.2-21.1,50.2-64.4
				C-135.3,273.7-163.4,261.6-178.3,261.6L-178.3,261.6z M-278.4,352.9v-60.1h100.1c0.1,0,12.9,0.3,12.9,27c0,33.2-9.3,33.2-20,33.2
				H-278.4L-278.4,352.9z M143.7,278c-86.3,0-127.3,47.5-146.5,87.3c-20.3,42.2-20.5,83.9-20.5,84.7c-0.2,3.4-4.5,84.6,45.4,139.7
				c29,32,69.9,48.3,120.6,48.3h0.1c0,0,2.3,0.1,6.3,0.1c70.1,0,145-32.7,145-124.6c0-8.6-6.8-15.6-15.1-15.6h-69.6
				c-4,0-7.9,1.8-10.7,4.8c-2.8,3-4.4,7.1-4.3,11.3c0,0.4,0.1,10.3-7.2,17.9c-6.5,6.9-17.2,10.4-32.2,10.4c-2.5,0-5.1-0.1-7.9-0.3
				c-24.4-1.8-50.3-7.9-54.9-55h189.2c0,0,0,0,0,0c7.6,0,13.9-5.8,14.9-13.6c0.5-3.7,10.8-90.8-37.7-148
				C232,294,193.3,278,143.7,278L143.7,278z M149.2,606.9c-2.8,0-4.4-0.1-5.5-0.1c-42.9,0-76.3-12.9-99.5-38.3
				C3.2,523.4,6.8,452.6,6.8,451c0-5.8,2-141.7,136.9-141.7c40.5,0,71.5,12.3,92.2,36.6c29.4,34.6,32,85.7,31.4,109.9H76.4
				c-8.3,0-15.1,7-15.1,15.6c0,95.7,63,100.2,83.6,101.7c3.5,0.3,6.9,0.4,10.2,0.4c24.2,0,41.7-6.9,54.1-20.3
				c7.3-7.9,11.2-16.7,13.1-24H263c-3.8,29.3-18.9,50.1-45.9,63.3C190.6,605.5,160.8,606.9,149.2,606.9L149.2,606.9z M145.3,338
				c-58.7,0-81,50.1-84.5,76.6c-0.6,4.5,0.7,9,3.6,12.4c2.9,3.4,7,5.4,11.4,5.4h129.9c8.2,0,15-6.9,15.1-15.4
				c0-1.4,0.2-34.8-21.8-57.9C185.5,345.1,167.5,338,145.3,338L145.3,338z M96,401.1L96,401.1c6.5-14.3,20.4-31.9,49.3-31.9
				c14,0,24.4,3.8,32,11.6c5.8,6,9.1,13.6,10.9,20.3H96L96,401.1z M-178.3,416h-115.1c-8.3,0-15.1,7-15.1,15.6v109.4
				c0,8.6,6.8,15.6,15.1,15.6h102l4.5,0l3.2,0c39.6-0.9,62.2-26,62.2-68.8C-121.5,431-158.6,416-178.3,416L-178.3,416z
				 M-278.4,525.5v-78.2h100c4.4,0.1,26.6,2.4,26.6,40.6c0,32.4-15.7,37.2-32.7,37.6H-278.4L-278.4,525.5z"/>
		</g>
	</g>
</g>
</svg>
