<?xml version="1.0" encoding="utf-8"?>
<!-- Generator: Adobe Illustrator 19.0.0, SVG Export Plug-In . SVG Version: 6.00 Build 0)  -->
<svg version="1.1" id="Layer_1" xmlns="http://www.w3.org/2000/svg" xmlns:xlink="http://www.w3.org/1999/xlink" x="0px" y="0px"
	 viewBox="-348 172.5 262.1 217.5" style="enable-background:new -348 172.5 262.1 217.5;" xml:space="preserve">
<style type="text/css">
	.st0{display:none;}
	.st1{display:inline;fill:#DAE5E8;}
	.st2{display:inline;fill:#546274;}
	.st3{display:inline;fill:#4EA7C8;}
	.st4{fill:#CBCBCB;}
	.st5{fill:#F1F1F1;}
	.st6{fill:#E2E2E2;}
	.st7{fill:#FF1D25;}
	.st8{fill:#FBED21;}
	.st9{fill:#8BC53F;}
	.st10{fill:#808080;}
	.st11{fill:#F9F9F9;}
	.st12{fill:#FCFCFC;}
	.st13{fill:#AFE8DD;}
	.st14{fill:#F2D249;}
	.st15{fill:#EA923B;}
	.st16{fill:#C246BC;}
	.st17{fill:#4D4D4D;}
	.st18{fill:#333333;}
	.st19{fill:#BD3700;}
	.st20{fill:#FF530A;}
	.st21{fill:#FF6527;}
	.st22{fill:#FF763B;}
	.st23{fill:#FF8148;}
	.st24{fill:#FF9860;}
	.st25{fill:#FFB183;}
	.st26{fill:#BD6600;}
	.st27{fill:#FF8F0A;}
	.st28{fill:#FF9A27;}
	.st29{fill:#FFA63B;}
	.st30{fill:#FFAE48;}
	.st31{fill:#FFBE60;}
	.st32{fill:#FFCE83;}
	.st33{fill:#BD9E00;}
	.st34{fill:#FFD80A;}
	.st35{fill:#FFDB27;}
	.st36{fill:#FFE03B;}
	.st37{fill:#FFE448;}
	.st38{fill:#FFEC60;}
	.st39{fill:#FFF283;}
	.st40{fill:#2C6B00;}
	.st41{fill:#337D04;}
	.st42{fill:#468F11;}
	.st43{fill:#55A621;}
	.st44{fill:#5DB32C;}
	.st45{fill:#68C246;}
	.st46{fill:#9AD18A;}
	.st47{fill:#00366B;}
	.st48{fill:#043E7D;}
	.st49{fill:#11528F;}
	.st50{fill:#2161A6;}
	.st51{fill:#2C68B3;}
	.st52{fill:#4670C2;}
	.st53{fill:#8A9ED1;}
	.st54{fill:#60006B;}
	.st55{fill:#73047D;}
	.st56{fill:#80118F;}
	.st57{fill:#9B21A6;}
	.st58{fill:#AC2CB3;}
	.st59{fill:#D18ACA;}
	.st60{fill:#FFFFFF;}
	.st61{fill:#84004F;}
	.st62{fill:#960559;}
	.st63{fill:#A8146F;}
	.st64{fill:#BD267D;}
	.st65{fill:#C83184;}
	.st66{fill:#D54D8A;}
	.st67{fill:#E396B4;}
	.st68{display:inline;}
	.st69{fill:#F7F292;}
	.st70{fill:#004D69;}
	.st71{fill:none;stroke:#002D3D;stroke-width:0.5;stroke-miterlimit:10;}
	.st72{fill:#002D3D;}
	.st73{fill:none;}
	.st74{fill:#E5E5E5;}
	.st75{fill:#1E8C72;}
	.st76{fill:#45B29A;}
	.st77{display:inline;fill:#F1F1F1;}
	.st78{display:inline;fill:#19A58E;}
	.st79{fill:#13A37D;}
	.st80{fill:#2E3191;}
	.st81{fill:#13A37D;stroke:#067057;stroke-miterlimit:10;}
	.st82{fill:#1B1464;stroke:#067057;stroke-miterlimit:10;}
	.st83{fill:#1B1464;}
</style>
<g id="Background" class="st0">
	<rect x="-348" y="149.8" class="st1" width="800" height="266.7"/>
	<rect x="-348" y="-116.9" class="st2" width="800" height="266.7"/>
	<rect x="-348" y="-383.6" class="st3" width="800" height="266.7"/>
</g>
<g id="Objects">
	<g>
		<g>
			<g>
				<rect x="-241.2" y="333.5" class="st4" width="53.9" height="23.5"/>
				<rect x="-248.1" y="351.4" class="st5" width="67.7" height="5.5"/>
				<g>
					<path class="st5" d="M-121.6,332.1c0,3.1-2.5,5.5-5.5,5.5h-174.4c-3.1,0-5.5-2.5-5.5-5.5V208c0-3.1,2.5-5.5,5.5-5.5h174.4
						c3.1,0,5.5,2.5,5.5,5.5V332.1z"/>
					<g>
						<path d="M-121.6,320.1V208c0-3.1-2.5-5.5-5.5-5.5h-174.4c-3.1,0-5.5,2.5-5.5,5.5v112.2h185.4V320.1z"/>
						<g>
							<rect x="-299.1" y="210.3" class="st6" width="169.7" height="105.1"/>
							<rect x="-299.1" y="210.3" class="st4" width="169.7" height="8.8"/>
							<rect x="-277.4" y="212.7" class="st5" width="126.3" height="4.1"/>
							<circle class="st7" cx="-295.4" cy="214.7" r="2"/>
							<circle class="st8" cx="-289.6" cy="214.7" r="2"/>
							<circle class="st9" cx="-283.8" cy="214.7" r="2"/>
							<rect x="-149.1" y="212.7" class="st10" width="9.5" height="0.5"/>
							<rect x="-149.1" y="213.8" class="st10" width="9.5" height="0.5"/>
							<rect x="-149.1" y="215" class="st10" width="9.5" height="0.5"/>
							<rect x="-149.1" y="216.2" class="st10" width="9.5" height="0.5"/>
							<rect x="-137.5" y="212.7" class="st10" width="5.3" height="4.1"/>
							<rect x="-281.5" y="227.8" class="st11" width="134.5" height="18.3"/>
							<rect x="-281.5" y="246.1" class="st12" width="134.5" height="69.3"/>
							<rect x="-278.6" y="233.9" class="st13" width="37.6" height="13.7"/>
							<rect x="-232.4" y="238.9" class="st13" width="12.3" height="4.5"/>
							<rect x="-216.1" y="238.9" class="st13" width="12.3" height="4.5"/>
							<rect x="-199.9" y="238.9" class="st13" width="12.3" height="4.5"/>
							<rect x="-183.6" y="238.9" class="st13" width="12.3" height="4.5"/>
							<rect x="-167.4" y="238.9" class="st13" width="12.3" height="4.5"/>
							<g>
								<g>
									<rect x="-277.6" y="256.1" class="st14" width="37.6" height="37.6"/>
									<rect x="-233.1" y="256.1" class="st15" width="37.6" height="37.6"/>
									<rect x="-188.6" y="256.1" class="st16" width="37.6" height="37.6"/>
								</g>
								<g>
									<rect x="-277.6" y="295.4" class="st17" width="37.6" height="0.8"/>
									<rect x="-277.6" y="297.5" class="st17" width="37.6" height="0.8"/>
									<rect x="-277.6" y="299.5" class="st17" width="37.6" height="0.8"/>
									<rect x="-277.6" y="301.5" class="st17" width="37.6" height="0.8"/>
									<rect x="-277.6" y="303.6" class="st17" width="37.6" height="0.8"/>
									<rect x="-277.6" y="305.6" class="st17" width="37.6" height="0.8"/>
									<rect x="-277.6" y="307.6" class="st17" width="37.6" height="0.8"/>
								</g>
								<g>
									<rect x="-233.1" y="295.4" class="st17" width="37.6" height="0.8"/>
									<rect x="-233.1" y="297.5" class="st17" width="37.6" height="0.8"/>
									<rect x="-233.1" y="299.5" class="st17" width="37.6" height="0.8"/>
									<rect x="-233.1" y="301.5" class="st17" width="37.6" height="0.8"/>
									<rect x="-233.1" y="303.6" class="st17" width="37.6" height="0.8"/>
									<rect x="-233.1" y="305.6" class="st17" width="37.6" height="0.8"/>
									<rect x="-233.1" y="307.6" class="st17" width="37.6" height="0.8"/>
								</g>
								<g>
									<rect x="-188.6" y="295.4" class="st17" width="37.6" height="0.8"/>
									<rect x="-188.6" y="297.5" class="st17" width="37.6" height="0.8"/>
									<rect x="-188.6" y="299.5" class="st17" width="37.6" height="0.8"/>
									<rect x="-188.6" y="301.5" class="st17" width="37.6" height="0.8"/>
									<rect x="-188.6" y="303.6" class="st17" width="37.6" height="0.8"/>
									<rect x="-188.6" y="305.6" class="st17" width="37.6" height="0.8"/>
									<rect x="-188.6" y="307.6" class="st17" width="37.6" height="0.8"/>
								</g>
							</g>
						</g>
					</g>
				</g>
			</g>
			<circle cx="-214.3" cy="329.7" r="4.3"/>
		</g>
		<g>
			<g>
				<polygon class="st5" points="-317.7,333.5 -320,345.9 -262.9,356.2 -260.7,343.7 				"/>
				<circle class="st5" cx="-257.9" cy="350.6" r="6.4"/>
				
					<rect x="-267.7" y="346.6" transform="matrix(-0.1775 0.9841 -0.9841 -0.1775 36.7786 669.3663)" class="st5" width="12.7" height="6.9"/>
				<circle class="st18" cx="-257.9" cy="350.6" r="2.6"/>
				
					<rect x="-272.1" y="345.2" transform="matrix(-0.1775 0.9841 -0.9841 -0.1775 30.7464 672.7159)" class="st19" width="12.7" height="8"/>
				
					<rect x="-279.9" y="343.8" transform="matrix(-0.1775 0.9841 -0.9841 -0.1775 20.1305 678.7785)" class="st20" width="12.7" height="8"/>
				
					<rect x="-287.8" y="342.4" transform="matrix(-0.1775 0.9841 -0.9841 -0.1775 9.4648 684.8857)" class="st21" width="12.7" height="8"/>
				
					<rect x="-295.7" y="341" transform="matrix(-0.1775 0.9841 -0.9841 -0.1775 -1.1748 690.973)" class="st22" width="12.7" height="8"/>
				
					<rect x="-303.5" y="339.6" transform="matrix(-0.1774 0.9841 -0.9841 -0.1774 -11.7612 697.0129)" class="st23" width="12.7" height="8"/>
				
					<rect x="-311.4" y="338.2" transform="matrix(-0.1775 0.9841 -0.9841 -0.1775 -22.454 703.1432)" class="st24" width="12.7" height="8"/>
				
					<rect x="-319.3" y="336.8" transform="matrix(-0.1774 0.9841 -0.9841 -0.1774 -33.0421 709.1874)" class="st25" width="12.7" height="8"/>
				
					<rect x="-324.1" y="338.8" transform="matrix(-0.1775 0.9841 -0.9841 -0.1775 -39.7292 712.9743)" class="st5" width="12.7" height="2.1"/>
			</g>
			<g>
				<polygon class="st5" points="-310.8,317.7 -316.3,329.2 -264.2,354.5 -258.6,343.1 				"/>
				<circle class="st5" cx="-257.9" cy="350.4" r="6.4"/>
				
					<rect x="-267.3" y="345.5" transform="matrix(-0.4363 0.8998 -0.8998 -0.4363 -60.8484 735.9612)" class="st5" width="12.7" height="6.9"/>
				<circle class="st18" cx="-257.9" cy="350.4" r="2.6"/>
				
					<rect x="-271.4" y="343.1" transform="matrix(-0.4363 0.8998 -0.8998 -0.4363 -68.3505 736.9304)" class="st26" width="12.7" height="8"/>
				
					<rect x="-278.5" y="339.5" transform="matrix(-0.4363 0.8998 -0.8998 -0.4363 -81.8582 738.2408)" class="st27" width="12.7" height="8"/>
				
					<rect x="-285.7" y="336" transform="matrix(-0.4363 0.8998 -0.8998 -0.4363 -95.3403 739.7245)" class="st28" width="12.7" height="8"/>
				
					<rect x="-292.9" y="332.5" transform="matrix(-0.4363 0.8998 -0.8998 -0.4363 -108.8328 741.1934)" class="st29" width="12.7" height="8"/>
				
					<rect x="-300.1" y="329" transform="matrix(-0.4364 0.8998 -0.8998 -0.4364 -122.3407 742.6891)" class="st30" width="12.7" height="8"/>
				
					<rect x="-307.3" y="325.6" transform="matrix(-0.4364 0.8997 -0.8997 -0.4364 -135.7003 744.168)" class="st31" width="12.7" height="8"/>
				
					<rect x="-314.5" y="322.1" transform="matrix(-0.4365 0.8997 -0.8997 -0.4365 -149.2096 745.668)" class="st32" width="12.7" height="8"/>
				
					<rect x="-318.9" y="322.9" transform="matrix(-0.4362 0.8998 -0.8998 -0.4362 -157.4905 746.4808)" class="st5" width="12.7" height="2.1"/>
			</g>
			<g>
				<polygon class="st5" points="-309.5,315.7 -301.3,305.9 -256.8,343.1 -264.9,352.8 				"/>
				<circle class="st5" cx="-257.9" cy="350.4" r="6.4"/>
				
					<rect x="-266.9" y="344.8" transform="matrix(-0.641 0.7676 -0.7676 -0.641 -160.1841 771.4598)" class="st5" width="12.7" height="6.9"/>
				<circle class="st18" cx="-257.9" cy="350.4" r="2.6"/>
				
					<rect x="-270.3" y="341.4" transform="matrix(-0.641 0.7675 -0.7675 -0.641 -168.0273 769.3641)" class="st33" width="12.7" height="8"/>
				
					<rect x="-276.4" y="336.3" transform="matrix(-0.641 0.7676 -0.7676 -0.641 -181.9137 765.6192)" class="st34" width="12.7" height="8"/>
				
					<rect x="-282.6" y="331.1" transform="matrix(-0.6411 0.7675 -0.7675 -0.6411 -196.141 762.0081)" class="st35" width="12.7" height="8"/>
				
					<rect x="-288.7" y="326" transform="matrix(-0.641 0.7675 -0.7675 -0.641 -210.0704 758.252)" class="st36" width="12.7" height="8"/>
				
					<rect x="-294.8" y="320.9" transform="matrix(-0.6411 0.7674 -0.7674 -0.6411 -224.0744 754.5249)" class="st37" width="12.7" height="8"/>
				
					<rect x="-301" y="315.8" transform="matrix(-0.641 0.7675 -0.7675 -0.641 -237.998 750.9326)" class="st38" width="12.7" height="8"/>
				<polygon class="st39" points="-293.6,312.3 -301.8,322.1 -307.9,317 -299.7,307.2 				"/>
				
					<rect x="-311" y="310.4" transform="matrix(-0.6411 0.7675 -0.7675 -0.6411 -260.825 744.9501)" class="st5" width="12.7" height="2.1"/>
			</g>
			<g>
				<polygon class="st5" points="-299.5,304.2 -289.2,296.7 -255,343.6 -265.3,351.1 				"/>
				<path class="st5" d="M-252.7,346.7c-2.1-2.8-6-3.5-8.9-1.4c-2.8,2.1-3.5,6.1-1.4,8.9s6.1,3.5,8.9,1.4
					C-251.3,353.5-250.7,349.5-252.7,346.7z"/>
				
					<rect x="-266.3" y="344.2" transform="matrix(-0.8076 0.5897 -0.5897 -0.8076 -264.8611 781.7386)" class="st5" width="12.7" height="6.9"/>
				<path d="M-255.8,348.9c-0.8-1.1-2.4-1.4-3.6-0.6c-1.1,0.8-1.4,2.4-0.6,3.6c0.8,1.1,2.4,1.4,3.6,0.6
					C-255.2,351.7-255,350.1-255.8,348.9z"/>
				
					<rect x="-268.9" y="340.1" transform="matrix(-0.8077 0.5896 -0.5896 -0.8077 -271.6821 776.7975)" class="st40" width="12.7" height="8"/>
				<polygon class="st41" points="-259.8,337.1 -270,344.6 -274.8,338.1 -264.5,330.6 				"/>
				
					<rect x="-278.3" y="327.2" transform="matrix(-0.8078 0.5895 -0.5895 -0.8078 -296.3425 759.0004)" class="st42" width="12.7" height="8"/>
				
					<rect x="-283" y="320.7" transform="matrix(-0.8077 0.5896 -0.5896 -0.8077 -308.6729 750.0612)" class="st43" width="12.7" height="8"/>
				
					<rect x="-287.8" y="314.2" transform="matrix(-0.8077 0.5896 -0.5896 -0.8077 -321.162 741.2441)" class="st44" width="12.7" height="8"/>
				
					<rect x="-292.5" y="307.8" transform="matrix(-0.8077 0.5895 -0.5895 -0.8077 -333.4393 732.3922)" class="st45" width="12.7" height="8"/>
				<polygon class="st46" points="-283.3,304.8 -293.6,312.3 -298.3,305.9 -288,298.4 				"/>
				<polygon class="st5" points="-288,298.4 -298.3,305.9 -299.5,304.2 -289.2,296.7 				"/>
			</g>
			<g>
				<polygon class="st5" points="-284.2,294 -272.2,289.9 -253.1,344.7 -265.2,348.8 				"/>
				<path class="st5" d="M-251.9,348.3c-1.1-3.3-4.8-5.1-8.1-3.9c-3.3,1.2-5.1,4.8-3.9,8.1c1.2,3.3,4.8,5.1,8.1,3.9
					C-252.5,355.3-250.7,351.7-251.9,348.3z"/>
				<polygon class="st5" points="-254.1,341.9 -266.1,346 -263.9,352.5 -251.9,348.3 				"/>
				<path d="M-255.5,349.6c-0.5-1.3-1.9-2-3.2-1.6c-1.3,0.5-2,1.9-1.6,3.2c0.5,1.3,1.9,2,3.2,1.6
					C-255.7,352.4-255,350.9-255.5,349.6z"/>
				<polygon class="st47" points="-253.1,344.7 -265.2,348.8 -267.8,341.3 -255.8,337.1 				"/>
				
					<rect x="-269.5" y="331.4" transform="matrix(-0.9446 0.3281 -0.3281 -0.9446 -401.6768 738.6143)" class="st48" width="12.7" height="8"/>
				<polygon class="st49" points="-258.4,329.6 -270.4,333.7 -273,326.2 -261,322 				"/>
				
					<rect x="-274.7" y="316.3" transform="matrix(-0.9448 0.3277 -0.3277 -0.9448 -416.9295 710.8735)" class="st50" width="12.7" height="8"/>
				
					<rect x="-277.3" y="308.8" transform="matrix(-0.9448 0.3276 -0.3276 -0.9448 -424.4703 697.1092)" class="st51" width="12.7" height="8"/>
				
					<rect x="-279.9" y="301.2" transform="matrix(-0.9448 0.3277 -0.3277 -0.9448 -431.9978 683.1863)" class="st52" width="12.7" height="8"/>
				<polygon class="st53" points="-268.9,299.4 -280.9,303.5 -283.5,296 -271.5,291.8 				"/>
				
					<rect x="-284.2" y="291.9" transform="matrix(-0.9448 0.3278 -0.3278 -0.9448 -444.296 660.8027)" class="st5" width="12.7" height="2.1"/>
			</g>
			<g>
				<polygon class="st5" points="-266.5,288.8 -253.8,288.4 -251.7,346.3 -264.4,346.8 				"/>
				<path class="st5" d="M-251.5,350.2c-0.1-3.5-3.1-6.2-6.6-6.1c-3.5,0.1-6.3,3.1-6.1,6.6c0.1,3.5,3.1,6.3,6.6,6.1
					C-254.1,356.7-251.4,353.7-251.5,350.2z"/>
				<polygon class="st5" points="-251.8,343.3 -264.5,343.8 -264.2,350.7 -251.5,350.2 				"/>
				<path d="M-255.3,350.3c-0.1-1.4-1.2-2.5-2.6-2.5s-2.5,1.2-2.5,2.6c0.1,1.4,1.2,2.5,2.6,2.5
					C-256.4,352.9-255.3,351.8-255.3,350.3z"/>
				<polygon class="st54" points="-251.7,346.3 -264.4,346.8 -264.7,338.8 -252,338.3 				"/>
				<polygon class="st55" points="-252,338.3 -264.7,338.8 -265,330.8 -252.3,330.3 				"/>
				<polygon class="st56" points="-252.3,330.3 -265,330.8 -265.3,322.8 -252.6,322.3 				"/>
				
					<rect x="-265.4" y="314.6" transform="matrix(-0.9993 3.718929e-02 -3.718929e-02 -0.9993 -506.0731 646.6099)" class="st57" width="12.7" height="8"/>
				
					<rect x="-265.7" y="306.6" transform="matrix(-0.9993 3.734496e-02 -3.734496e-02 -0.9993 -506.9204 630.667)" class="st58" width="12.7" height="8"/>
				<polygon class="st16" points="-253.2,306.4 -265.9,306.8 -266.2,298.9 -253.5,298.4 				"/>
				<polygon class="st59" points="-253.5,298.4 -266.2,298.9 -266.5,290.9 -253.7,290.4 				"/>
				<polygon class="st5" points="-253.7,290.4 -266.5,290.9 -266.5,288.8 -253.8,288.4 				"/>
			</g>
			<g>
				<polygon class="st60" points="-248,288.9 -235.7,292.2 -250.6,348.3 -262.9,345 				"/>
				<path class="st60" d="M-251.6,352c0.9-3.4-1.1-6.9-4.5-7.8c-3.4-0.9-6.9,1.1-7.8,4.5c-0.9,3.4,1.1,6.9,4.5,7.8
					C-256,357.4-252.5,355.4-251.6,352z"/>
				<polygon class="st60" points="-249.8,345.4 -262.1,342.1 -263.9,348.8 -251.6,352 				"/>
				<path d="M-255.3,351.1c0.4-1.4-0.4-2.8-1.8-3.1c-1.4-0.4-2.8,0.5-3.1,1.8c-0.4,1.4,0.4,2.8,1.8,3.1
					C-257,353.2-255.6,352.4-255.3,351.1z"/>
				<polygon class="st61" points="-250.6,348.3 -262.9,345 -260.8,337.3 -248.5,340.5 				"/>
				<polygon class="st62" points="-248.5,340.5 -260.8,337.3 -258.8,329.5 -246.5,332.8 				"/>
				<polygon class="st63" points="-246.5,332.8 -258.8,329.5 -256.7,321.8 -244.4,325.1 				"/>
				
					<rect x="-255.9" y="315.6" transform="matrix(-0.9665 -0.2566 0.2566 -0.9665 -572.7759 564.4578)" class="st64" width="12.7" height="8"/>
				
					<rect x="-253.9" y="307.9" transform="matrix(-0.9666 -0.2564 0.2564 -0.9666 -566.8065 549.8836)" class="st65" width="12.7" height="8"/>
				<polygon class="st66" points="-240.3,309.6 -252.6,306.4 -250.6,298.7 -238.3,301.9 				"/>
				<polygon class="st67" points="-238.3,301.9 -250.6,298.7 -248.5,290.9 -236.2,294.2 				"/>
				<polygon class="st60" points="-236.2,294.2 -248.5,290.9 -248,288.9 -235.7,292.2 				"/>
			</g>
		</g>
		<g class="st0">
			<g class="st68">
				<path class="st69" d="M-229,189.8c-1.2,2.1-1.9,4.5-1.8,7c0.1,7.6,6.3,13.6,13.9,13.5c7.6-0.1,13.6-6.3,13.5-13.9
					c0-2.6-0.8-4.9-2-7h0.1c-5.7-8.6-5.2-12.6-5.2-12.6l-6.8,0.1l-6.8,0.1C-224.2,177-223.6,181-229,189.8L-229,189.8z"/>
				<g>
					<path class="st70" d="M-210.4,193.5c-0.6,0.2-1.2,0.5-1.8,0.7h-0.1h-0.1c-0.4-0.2-0.7-0.4-1.1-0.6h0.3l-1.1,1.3l-0.2,0.2
						l-0.2-0.2c-0.7-0.5-1.3-1.1-2-1.6h0.5c-0.7,0.7-1.4,1.5-2.1,2.2l-0.3,0.3l-0.2-0.4c-0.3-0.6-0.6-1.1-0.9-1.7h0.6l-0.4,0.6
						l-0.2,0.3l-0.3-0.2l-0.7-0.6h0.4l-1,1.2l-0.1,0.1l-0.1-0.1c-0.8-0.4-1.5-0.8-2.3-1.2c0.8,0.3,1.6,0.5,2.5,0.8l-0.2,0.1l0.9-1.3
						l0.2-0.2l0.2,0.2l0.8,0.6l-0.5,0.1l0.4-0.6l0.3-0.5l0.3,0.5c0.3,0.6,0.7,1.1,1,1.7l-0.6-0.1c0.7-0.7,1.4-1.5,2.1-2.2l0.2-0.2
						l0.3,0.2c0.6,0.6,1.3,1.2,1.9,1.7h-0.4l1.2-1.2l0.1-0.1l0.1,0.1c0.3,0.2,0.7,0.5,1,0.7h-0.1
						C-211.7,193.8-211,193.6-210.4,193.5z"/>
				</g>
				<line class="st71" x1="-214.3" y1="175.6" x2="-210.4" y2="193.5"/>
				<circle class="st72" cx="-210.4" cy="193.5" r="1.1"/>
				<line class="st71" x1="-220.5" y1="175.7" x2="-224" y2="193.7"/>
				<circle class="st72" cx="-224" cy="193.7" r="1.1"/>
				<g>
					<polygon class="st70" points="-217.4,176.9 -210.6,176.8 -210.7,173.3 -212.1,170.8 -217.5,170.9 -222.8,170.9 -224.2,173.5 
						-224.2,177 					"/>
					<g>
						<path class="st72" d="M-224.9,175.8c0-0.3,0.2-0.6,0.5-0.6l13.9-0.2c0.3,0,0.6,0.3,0.6,0.6l0,0c0,0.3-0.2,0.6-0.5,0.6
							l-13.9,0.2C-224.7,176.4-224.9,176.1-224.9,175.8L-224.9,175.8z"/>
						<path class="st72" d="M-225,173.5c0-0.3,0.2-0.6,0.5-0.6l13.9-0.2c0.3,0,0.6,0.3,0.6,0.6l0,0c0,0.3-0.2,0.6-0.5,0.6l-13.9,0.2
							C-224.7,174.1-225,173.8-225,173.5L-225,173.5z"/>
						<path class="st72" d="M-223.7,171c0-0.3,0.2-0.5,0.4-0.5l11.4-0.2c0.3,0,0.5,0.2,0.5,0.5l0,0c0,0.3-0.2,0.5-0.4,0.5l-11.4,0.2
							C-223.4,171.4-223.7,171.2-223.7,171L-223.7,171z"/>
					</g>
				</g>
			</g>
			<g class="st68">
				<line class="st73" x1="-191.4" y1="179.9" x2="-200.7" y2="185.8"/>
				<path class="st5" d="M-191.4,179.9c0,0-0.5,0.5-1.3,1.2c-0.8,0.7-1.9,1.5-3.1,2.2c-1.2,0.7-2.4,1.4-3.3,1.8
					c-0.9,0.4-1.6,0.7-1.6,0.7s0.5-0.5,1.3-1.2c0.8-0.7,1.9-1.5,3.1-2.2c1.2-0.7,2.4-1.4,3.3-1.8
					C-192,180.1-191.4,179.9-191.4,179.9z"/>
			</g>
			<g class="st68">
				<line class="st73" x1="-186.6" y1="192.4" x2="-197.6" y2="193.7"/>
				<path class="st5" d="M-186.6,192.4c0,0-0.7,0.3-1.7,0.5c-1,0.3-2.4,0.5-3.7,0.7c-1.4,0.2-2.8,0.3-3.8,0.3s-1.8-0.1-1.8-0.1
					s0.7-0.3,1.7-0.5c1-0.3,2.4-0.5,3.7-0.7c1.4-0.2,2.8-0.3,3.8-0.3C-187.3,192.3-186.6,192.4-186.6,192.4z"/>
			</g>
			<g class="st68">
				<line class="st73" x1="-187.5" y1="205.7" x2="-198.1" y2="202.3"/>
				<path class="st5" d="M-187.5,205.7c0,0-0.7-0.1-1.7-0.3c-1-0.2-2.4-0.5-3.7-1c-1.3-0.4-2.6-0.9-3.6-1.4
					c-0.9-0.4-1.6-0.8-1.6-0.8s0.7,0.1,1.7,0.3s2.4,0.5,3.7,1c1.3,0.4,2.6,0.9,3.6,1.4C-188.1,205.3-187.5,205.7-187.5,205.7z"/>
			</g>
			<g class="st68">
				<line class="st73" x1="-194" y1="217.4" x2="-202.1" y2="209.8"/>
				<path class="st5" d="M-194,217.4c0,0-0.6-0.3-1.5-1c-0.8-0.6-1.9-1.5-2.9-2.4s-2-1.9-2.6-2.7c-0.7-0.8-1.1-1.4-1.1-1.4
					s0.6,0.3,1.5,1c0.8,0.6,1.9,1.5,2.9,2.4c1,0.9,2,2,2.6,2.7C-194.4,216.8-194,217.4-194,217.4z"/>
			</g>
			<g class="st68">
				<line class="st73" x1="-204.8" y1="225.2" x2="-209" y2="215"/>
				<path class="st5" d="M-204.8,225.2c0,0-0.4-0.6-0.9-1.5c-0.5-0.9-1.1-2.2-1.6-3.4c-0.5-1.3-1-2.6-1.2-3.6
					c-0.3-1-0.4-1.7-0.4-1.7s0.4,0.6,0.9,1.5s1.1,2.2,1.6,3.4c0.5,1.3,1,2.6,1.2,3.6C-204.9,224.5-204.8,225.2-204.8,225.2z"/>
			</g>
			<g class="st68">
				<line class="st73" x1="-217.9" y1="227.7" x2="-217.4" y2="216.7"/>
				<path class="st5" d="M-217.9,227.7c0,0-0.1-0.7-0.2-1.7c-0.1-1-0.1-2.4,0-3.8c0.1-1.4,0.2-2.8,0.4-3.8s0.4-1.7,0.4-1.7
					s0.1,0.7,0.2,1.7c0.1,1,0.1,2.4,0,3.8c-0.1,1.4-0.2,2.8-0.4,3.8C-217.7,227.1-217.9,227.7-217.9,227.7z"/>
			</g>
			<g class="st68">
				<line class="st73" x1="-230.9" y1="224.5" x2="-225.7" y2="214.7"/>
				<path class="st5" d="M-230.9,224.5c0,0,0.2-0.7,0.6-1.7s1-2.2,1.6-3.5c0.7-1.2,1.4-2.4,2-3.3c0.6-0.9,1.1-1.4,1.1-1.4
					s-0.2,0.7-0.6,1.7c-0.4,1-1,2.2-1.6,3.5c-0.7,1.2-1.4,2.4-2,3.3C-230.4,224-230.9,224.5-230.9,224.5z"/>
			</g>
			<g class="st68">
				<line class="st73" x1="-241.3" y1="216.1" x2="-232.4" y2="209.4"/>
				<path class="st5" d="M-241.3,216.1c0,0,0.5-0.5,1.2-1.3c0.8-0.7,1.8-1.6,2.9-2.5c1.1-0.8,2.3-1.6,3.2-2.1
					c0.9-0.5,1.6-0.8,1.6-0.8s-0.5,0.6-1.2,1.3c-0.8,0.7-1.8,1.6-2.9,2.5c-1.1,0.8-2.3,1.6-3.2,2.1S-241.3,216.1-241.3,216.1z"/>
			</g>
			<g class="st68">
				<line class="st73" x1="-247.1" y1="204.1" x2="-236.3" y2="201.8"/>
				<path class="st5" d="M-247.1,204.1c0,0,0.6-0.3,1.6-0.6s2.3-0.7,3.7-1c1.4-0.3,2.7-0.5,3.8-0.6c1-0.1,1.8-0.1,1.8-0.1
					s-0.6,0.3-1.6,0.6c-1,0.3-2.3,0.7-3.7,1c-1.4,0.3-2.7,0.5-3.8,0.6S-247.1,204.1-247.1,204.1z"/>
			</g>
			<g class="st68">
				<line class="st73" x1="-247.3" y1="190.7" x2="-236.5" y2="193.2"/>
				<path class="st5" d="M-247.3,190.7c0,0,0.7,0,1.7,0.1c1,0.1,2.4,0.3,3.8,0.6c1.3,0.3,2.7,0.7,3.7,1.1c1,0.3,1.6,0.7,1.6,0.7
					s-0.7,0-1.7-0.1c-1-0.1-2.4-0.3-3.8-0.6c-1.3-0.3-2.7-0.7-3.7-1.1C-246.7,191-247.3,190.7-247.3,190.7z"/>
			</g>
			<g class="st68">
				<line class="st73" x1="-241.9" y1="178.5" x2="-233.2" y2="185.3"/>
				<path class="st5" d="M-241.9,178.5c0,0,0.6,0.3,1.5,0.8c0.9,0.5,2,1.3,3.1,2.2s2.1,1.8,2.9,2.5c0.7,0.7,1.2,1.3,1.2,1.3
					s-0.6-0.3-1.5-0.8c-0.9-0.5-2-1.3-3.1-2.2c-1.1-0.9-2.1-1.8-2.9-2.5C-241.4,179.1-241.9,178.5-241.9,178.5z"/>
			</g>
		</g>
	</g>
	<g class="st0">
		<g class="st68">
			<g>
				<rect x="38.4" y="334.7" class="st4" width="53.5" height="23.3"/>
				<rect x="31.5" y="352.5" class="st5" width="67.3" height="5.5"/>
				<path class="st5" d="M157.3,333.3c0,3-2.5,5.5-5.5,5.5H-21.5c-3,0-5.5-2.5-5.5-5.5V209.9c0-3,2.5-5.5,5.5-5.5h173.3
					c3,0,5.5,2.5,5.5,5.5V333.3z"/>
				<path d="M157.3,321.4V209.9c0-3-2.5-5.5-5.5-5.5H-21.5c-3,0-5.5,2.5-5.5,5.5v111.5H157.3z"/>
				<polygon class="st17" points="-19.2,212.3 -19.2,221 -19.2,316.8 -1.7,316.8 132,316.8 149.5,316.8 149.5,221 149.5,212.3 				
					"/>
				<circle cx="65.1" cy="330.9" r="4.3"/>
			</g>
			<rect x="-13.7" y="218.6" class="st74" width="16" height="1.8"/>
			<rect x="-5.7" y="221.7" class="st74" width="16" height="1.8"/>
			<rect x="-5.7" y="247" class="st74" width="16" height="1.8"/>
			<rect x="-5.7" y="225.1" class="st74" width="37.2" height="1.8"/>
			<rect x="-5.7" y="228.6" class="st74" width="29.3" height="1.8"/>
			<rect x="-13.7" y="233.8" class="st74" width="31.6" height="1.8"/>
			<rect x="-5.7" y="236.9" class="st74" width="57.9" height="1.8"/>
			<rect x="-5.7" y="240.3" class="st74" width="37.2" height="1.8"/>
			<rect x="-13.7" y="251.5" class="st74" width="31.6" height="1.8"/>
			<rect x="-5.7" y="254.7" class="st74" width="57.9" height="1.8"/>
			<rect x="-5.7" y="258" class="st74" width="37.2" height="1.8"/>
			<rect x="-5.7" y="243.8" class="st74" width="49.9" height="1.8"/>
			<rect x="-13.7" y="262.9" class="st74" width="16" height="1.8"/>
			<rect x="-5.7" y="266.1" class="st74" width="16" height="1.8"/>
			<rect x="-5.7" y="291.4" class="st75" width="16" height="1.8"/>
			<rect x="-5.7" y="269.4" class="st74" width="37.2" height="1.8"/>
			<rect x="-5.7" y="273" class="st74" width="29.3" height="1.8"/>
			<rect x="-13.7" y="278.1" class="st74" width="31.6" height="1.8"/>
			<rect x="-5.7" y="281.3" class="st74" width="57.9" height="1.8"/>
			<rect x="-5.7" y="284.6" class="st74" width="37.2" height="1.8"/>
			<rect x="-13.7" y="295.9" class="st74" width="31.6" height="1.8"/>
			<rect x="-5.7" y="299" class="st74" width="57.9" height="1.8"/>
			<rect x="-5.7" y="302.4" class="st74" width="37.2" height="1.8"/>
			<rect x="-5.7" y="288.2" class="st74" width="49.9" height="1.8"/>
		</g>
		<g class="st68">
			<path class="st76" d="M59.2,230.8l0.2-2.7c0.1-0.9,0.8-1.5,1.7-1.5l0.9,0.1v-0.1l-0.8-0.5c-0.7-0.5-0.9-1.5-0.4-2.2l1.5-2.3
				c0.5-0.7,1.5-0.9,2.2-0.4l0.8,0.5c0.1,0,0.1-0.1,0.2-0.1l-0.4-0.9c-0.4-0.8,0-1.8,0.7-2.1l2.5-1.2c0.4-0.2,0.8-0.2,1.2-0.1
				c0.4,0.1,0.7,0.4,0.9,0.8l0.4,0.8c0.1,0,0.1,0,0.2,0l0.1-0.9c0.1-0.9,0.8-1.5,1.7-1.5l2.7,0.2c0.9,0.1,1.5,0.8,1.5,1.7l-0.1,0.9
				H77l0.5-0.8c0.5-0.7,1.5-0.9,2.2-0.4l2.3,1.5c0.7,0.5,0.9,1.5,0.4,2.2l-0.5,0.8c0,0.1,0.1,0.1,0.1,0.2l0.9-0.4
				c0.8-0.4,1.8-0.1,2.1,0.7l1.2,2.5c0.4,0.8,0,1.8-0.7,2.1l-0.8,0.4c0,0.1,0,0.1,0,0.2l0.9,0.1c0.9,0.1,1.5,0.8,1.5,1.7l-0.2,2.7
				c-0.1,0.9-0.8,1.5-1.7,1.5l-0.9-0.1v0.1l0.8,0.5c0.7,0.5,0.9,1.5,0.4,2.2l-1.5,2.3c-0.5,0.7-1.5,0.9-2.2,0.4l-0.8-0.5
				c-0.1,0-0.1,0.1-0.2,0.1l0.4,0.9c0.4,0.8,0,1.8-0.7,2.1l-2.5,1.2c-0.8,0.4-1.8,0.1-2.1-0.7l-0.4-0.8c-0.1,0-0.1,0-0.2,0l-0.1,0.9
				c-0.1,0.9-0.8,1.5-1.7,1.5l-2.7-0.2c-0.9-0.1-1.5-0.8-1.5-1.7l0.1-0.9h-0.1l-0.5,0.8c-0.5,0.7-1.5,0.9-2.2,0.4l-2.3-1.5
				c-0.7-0.5-0.9-1.5-0.4-2.2l0.5-0.8c0-0.1-0.1-0.1-0.1-0.2l-0.9,0.4c-0.4,0.2-0.8,0.2-1.2,0.1c-0.4-0.1-0.7-0.4-0.9-0.8l-1.2-2.5
				c-0.4-0.8,0-1.8,0.7-2.1l0.8-0.4c0-0.1,0-0.1,0-0.2l-0.9-0.1C59.9,232.5,59.2,231.7,59.2,230.8z M63.3,226.1l-0.1,0.4
				c-0.1,0.3-0.2,0.6-0.3,0.8l-0.1,0.4l-1.7-0.1c-0.3,0-0.6,0.2-0.6,0.6l-0.2,2.7c0,0.3,0.2,0.6,0.6,0.6l1.7,0.1l0.1,0.4
				c0,0.3,0.1,0.6,0.2,0.9l0.1,0.4l-1.6,0.8c-0.3,0.1-0.4,0.5-0.3,0.8l1.2,2.5c0.1,0.1,0.2,0.3,0.3,0.3c0.2,0.1,0.3,0,0.5,0l1.6-0.8
				l0.3,0.3c0.2,0.2,0.4,0.5,0.6,0.7l0.3,0.3l-1,1.4c-0.2,0.3-0.1,0.7,0.2,0.8l2.3,1.5c0.3,0.2,0.7,0.1,0.8-0.2l1-1.4l0.4,0.1
				c0.3,0.1,0.6,0.2,0.8,0.3l0.4,0.1l-0.1,1.7c0,0.3,0.2,0.6,0.6,0.6l2.7,0.2c0.3,0,0.6-0.2,0.6-0.6l0.1-1.7l0.4-0.1
				c0.3,0,0.6-0.1,0.9-0.2l0.4-0.1l0.8,1.6c0.1,0.3,0.5,0.4,0.8,0.3l2.5-1.2c0.3-0.1,0.4-0.5,0.3-0.8l-0.8-1.6l0.3-0.3
				c0.2-0.2,0.5-0.4,0.7-0.6l0.3-0.3l1.4,1c0.3,0.2,0.7,0.1,0.8-0.2l1.5-2c0.2-0.3,0.1-0.7-0.2-0.8l-1.4-1l0.1-0.4
				c0.1-0.3,0.2-0.6,0.3-0.8l0.1-0.4l1.7,0.1c0.3,0,0.6-0.2,0.6-0.6l0.2-2.7c0-0.3-0.2-0.6-0.6-0.6l-1.7-0.1l-0.1-0.4
				c0-0.3-0.1-0.6-0.2-0.9l-0.1-0.4l1.6-0.8c0.3-0.1,0.4-0.5,0.3-0.8l-1.2-2.5c-0.1-0.3-0.5-0.4-0.8-0.3l-1.6,0.8l-0.3-0.3
				c-0.2-0.2-0.4-0.5-0.6-0.7l-0.3-0.3l1-1.4c0.2-0.3,0.1-0.7-0.2-0.8l-2.3-1.5c-0.3-0.2-0.7-0.1-0.8,0.2l-1,1.4l-0.4-0.1
				c-0.3-0.1-0.5-0.2-0.8-0.3l-0.4-0.1l0.1-1.7c0-0.3-0.2-0.6-0.6-0.6l-2.7-0.2c-0.3,0-0.6,0.2-0.6,0.6l-0.1,1.7l-0.4,0.1
				c-0.3,0-0.6,0.1-0.9,0.2l-0.4,0.1l-0.8-1.6c-0.1-0.1-0.2-0.3-0.3-0.3c-0.2-0.1-0.3,0-0.5,0l-2.5,1.2c-0.3,0.1-0.4,0.5-0.3,0.8
				l0.8,1.6l-0.3,0.3c-0.2,0.2-0.5,0.4-0.7,0.6l-0.3,0.3l-1.4-1c-0.3-0.2-0.7-0.1-0.8,0.2l-1.5,2.3c-0.2,0.3-0.1,0.7,0.2,0.8
				L63.3,226.1z M65.3,229.9c0.3-4.5,4.2-7.9,8.7-7.5c4.5,0.3,7.9,4.2,7.5,8.7c-0.3,4.5-4.2,7.9-8.7,7.5
				C68.3,238.2,64.9,234.3,65.3,229.9z M80.5,230.9c0.3-3.9-2.7-7.3-6.6-7.6s-7.3,2.7-7.6,6.6c-0.3,3.9,2.7,7.3,6.6,7.6
				C76.8,237.8,80.2,234.9,80.5,230.9z"/>
		</g>
		<path class="st77" d="M83.7,251.1l5.8,0.4l0.2-2.9c0.7-0.1,1.3-0.4,1.9-0.6l1.9,2.2l4.4-3.8l-1.9-2.2c0.4-0.6,0.7-1.2,0.9-1.8
			l2.9,0.2l0.4-5.8l-2.9-0.2c-0.1-0.7-0.4-1.3-0.6-1.9l2.2-1.9l-3.8-4.4l-2.2,1.9c-0.6-0.4-1.2-0.7-1.8-0.9l0.2-2.9l-5.8-0.4
			l-0.2,2.9c-0.7,0.1-1.3,0.4-1.9,0.6l-1.9-2.2l-4.4,3.8l1.9,2.2c-0.4,0.6-0.7,1.2-0.9,1.8l-2.9-0.2l-0.4,5.8l2.9,0.2
			c0.1,0.7,0.4,1.3,0.6,1.9l-2.2,1.9l3.8,4.4l2.2-1.9c0.6,0.4,1.2,0.7,1.8,0.9L83.7,251.1z M81.8,238.4c0.2-3.1,2.9-5.5,6.1-5.3
			c3.1,0.2,5.5,2.9,5.3,6.1c-0.2,3.1-2.9,5.5-6.1,5.3C83.9,244.2,81.6,241.5,81.8,238.4z"/>
		<g class="st68">
			
				<rect x="69.6" y="262.8" transform="matrix(-0.9999 1.016507e-02 -1.016507e-02 -0.9999 157.6348 526.5899)" class="st74" width="15.8" height="1.8"/>
			
				<rect x="77.5" y="265.8" transform="matrix(-0.9999 1.020495e-02 -1.020495e-02 -0.9999 173.4748 532.5062)" class="st74" width="15.8" height="1.8"/>
			
				<rect x="77.8" y="290.8" transform="matrix(-0.9999 1.020894e-02 -1.020894e-02 -0.9999 174.3327 582.498)" class="st74" width="15.8" height="1.8"/>
			
				<rect x="77.6" y="269" transform="matrix(-0.9999 1.021768e-02 -1.021768e-02 -0.9999 194.6094 538.7954)" class="st74" width="36.7" height="1.8"/>
			
				<rect x="77.6" y="272.6" transform="matrix(-0.9999 1.023728e-02 -1.023728e-02 -0.9999 186.854 546.0335)" class="st74" width="28.9" height="1.8"/>
			
				<rect x="69.8" y="277.7" transform="matrix(-0.9999 1.022617e-02 -1.022617e-02 -0.9999 173.5027 556.3016)" class="st74" width="31.1" height="1.8"/>
			
				<rect x="77.7" y="280.6" transform="matrix(-0.9999 1.022171e-02 -1.022171e-02 -0.9999 215.2282 561.889)" class="st74" width="57" height="1.8"/>
			
				<rect x="77.7" y="284" transform="matrix(-0.9999 1.022458e-02 -1.022458e-02 -0.9999 194.9651 568.7925)" class="st74" width="36.7" height="1.8"/>
			
				<rect x="69.9" y="295.2" transform="matrix(-0.9999 1.019813e-02 -1.019813e-02 -0.9999 173.8737 591.3019)" class="st74" width="31.1" height="1.8"/>
			
				<rect x="77.9" y="298.1" transform="matrix(-0.9999 1.023701e-02 -1.023701e-02 -0.9999 215.8126 596.8823)" class="st74" width="57" height="1.8"/>
			
				<rect x="77.9" y="301.5" transform="matrix(-0.9999 1.021772e-02 -1.021772e-02 -0.9999 195.5425 603.7882)" class="st74" width="36.7" height="1.8"/>
			
				<rect x="77.7" y="287.4" transform="matrix(-0.9999 1.021695e-02 -1.021695e-02 -0.9999 207.3965 575.5308)" class="st74" width="49.1" height="1.8"/>
		</g>
		<path class="st78" d="M134.2,259.6c-2.3,0.4-4.2,1.9-5.2,3.9l-10.7-3.5c0.1-0.8,0.2-1.7,0-2.5c-0.2-0.9-0.5-1.6-0.9-2.4l8.7-7.2
			c1.7,1.5,3.9,2.2,6.3,1.8c4-0.8,6.7-4.7,6-8.7c-0.8-4-4.7-6.7-8.7-6c-4,0.8-6.7,4.7-6,8.7c0.2,0.9,0.5,1.6,0.9,2.4l-8.7,7.2
			c-1.7-1.5-3.9-2.2-6.3-1.8c-4,0.8-6.7,4.7-6,8.7c0.8,4,4.7,6.7,8.7,6c2.3-0.4,4.2-1.9,5.2-3.9l10.7,3.5c-0.1,0.8-0.2,1.7,0,2.5
			c0.8,4,4.7,6.7,8.7,6c4-0.8,6.7-4.7,6-8.7S138.3,258.9,134.2,259.6z M130.1,237.4c2.7-0.5,5.4,1.3,5.9,4c0.5,2.7-1.3,5.4-4,5.9
			s-5.4-1.3-5.9-4C125.5,240.5,127.3,237.9,130.1,237.4z M111.9,263.8c-2.7,0.5-5.4-1.3-5.9-4c-0.5-2.7,1.3-5.4,4-5.9s5.4,1.3,5.9,4
			C116.4,260.6,114.6,263.3,111.9,263.8z M136.5,271.9c-2.7,0.5-5.4-1.3-5.9-4c-0.5-2.7,1.3-5.4,4-5.9s5.4,1.3,5.9,4
			C141.1,268.8,139.3,271.4,136.5,271.9z"/>
		<g class="st68">
			<path class="st79" d="M55.9,327.9c1.3,1.3,1.3,3.3,0,4.6l0,0c-1.3,1.3-3.3,1.3-4.6,0L35,316.2c-1.3-1.3-1.3-3.3,0-4.6l0,0
				c1.3-1.3,3.3-1.3,4.6,0L55.9,327.9z"/>
			
				<rect x="29.4" y="303" transform="matrix(-0.7071 0.7071 -0.7071 -0.7071 273.581 504.4965)" class="st80" width="5.8" height="11.8"/>
			<path class="st81" d="M4.3,280.9c6.3-6.3,16.6-6.3,23,0c6.3,6.3,6.3,16.6,0,23c-6.3,6.3-16.6,6.3-23,0
				C-2,297.6-2,287.3,4.3,280.9 M2.2,278.8c-7.5,7.5-7.5,19.7,0,27.2s19.7,7.5,27.2,0s7.5-19.7,0-27.2
				C21.9,271.3,9.7,271.3,2.2,278.8L2.2,278.8z"/>
			<path class="st82" d="M32.4,303.8c0.3,0.3,0.3,0.8,0,1l-4.1,4.1c-0.3,0.3-0.8,0.3-1,0l0,0c-0.3-0.3-0.3-0.8,0-1l4.1-4.1
				C31.6,303.5,32.1,303.5,32.4,303.8L32.4,303.8z"/>
			<path class="st83" d="M39.1,310.5c0.3,0.3,0.3,0.8,0,1l-4.1,4.1c-0.3,0.3-0.8,0.3-1,0l0,0c-0.3-0.3-0.3-0.8,0-1l4.1-4.1
				C38.3,310.2,38.8,310.2,39.1,310.5L39.1,310.5z"/>
		</g>
	</g>
</g>
</svg>
