<?xml version="1.0" encoding="utf-8"?>
<!-- Generator: Adobe Illustrator 19.0.0, SVG Export Plug-In . SVG Version: 6.00 Build 0)  -->
<svg version="1.1" id="Capa_1" xmlns="http://www.w3.org/2000/svg" xmlns:xlink="http://www.w3.org/1999/xlink" x="0px" y="0px"
	 viewBox="-223 25 512 512" style="enable-background:new -223 25 512 512;" xml:space="preserve">
<style type="text/css">
	.st0{display:none;fill:#3EA08A;}
	.st1{fill:#46A18A;}
	.st2{fill:none;stroke:#3EA08A;stroke-width:30;stroke-miterlimit:10;}
	.st3{fill:#3EA08A;}
</style>
<path id="LinkedIn" class="st0" d="M289,336.3v189.3H179.3V349c0-44.4-15.9-74.6-55.6-74.6c-30.3,0-48.4,20.4-56.3,40.1
	c-2.9,7.1-3.6,16.9-3.6,26.8v184.4H-46.1c0,0,1.5-299.1,0-330.1H63.7v46.8c-0.2,0.3-0.5,0.7-0.7,1.1h0.7v-1.1
	c14.6-22.5,40.6-54.5,98.9-54.5C234.9,187.8,289,234.9,289,336.3z M-160.9,36.4c-37.6,0-62.1,24.6-62.1,57
	c0,31.7,23.9,57.1,60.7,57.1h0.7c38.3,0,62.1-25.4,62.1-57.1C-100.2,61-123.3,36.4-160.9,36.4z M-216.5,525.6h109.7V195.5h-109.7
	V525.6z"/>
<g>
	<path class="st1" d="M-153.7,67.7c11.5,0,21.8,3.5,29,9.9c6.8,6,10.2,14,10.2,23.7c0,9.8-3.6,18.3-10.5,24.5
		c-7.2,6.6-17.4,10.2-28.7,10.2s-21.5-3.6-28.7-10.2c-6.8-6.2-10.5-14.7-10.5-24.5c0-9.7,3.4-17.7,10.2-23.7
		C-175.5,71.2-165.2,67.7-153.7,67.7 M-153.7,37.7c-38.2,0-69.2,25.4-69.2,63.6c0,38.2,31,64.7,69.2,64.7s69.2-26.5,69.2-64.7
		C-84.5,63.1-115.5,37.7-153.7,37.7L-153.7,37.7z"/>
</g>
<rect x="-206.5" y="192.5" class="st2" width="109.7" height="330.1"/>
<g>
	<path class="st3" d="M140.8,200.7c1.2,0,2.5,0,3.8,0.1c63.4,1.8,113.4,54.6,113.4,118v187.6h-99.2V331.8c0-27.9-21.6-51.5-49.5-53
		c-0.9,0-1.9-0.1-2.8-0.1c-28.8,0-52.2,23.4-52.2,52.2c0,3.1-0.1,175.4-0.1,175.4h-99.3V207.8h99.3v39
		C72.3,217.8,102.5,200.7,140.8,200.7 M140.8,170.7c-20.4,0-39.4,3.9-56.6,11.6v-4.5h-30h-99.3h-30v30v298.6v30h30h99.3h30l0-30
		c0,0,0.1-172.4,0.1-175.4c0-12.3,10-22.2,22.2-22.2c0.4,0,0.8,0,1.2,0c5.6,0.3,10.8,2.8,14.7,7c4,4.4,6.3,10.1,6.3,16v174.6v30h30
		H258h30v-30V318.8c0-38.5-14.7-75-41.3-102.8c-26.8-28-62.8-44-101.3-45.1C143.9,170.8,142.4,170.7,140.8,170.7L140.8,170.7z"/>
</g>
</svg>
