<?xml version="1.0" encoding="utf-8"?>
<!-- Generator: Adobe Illustrator 19.0.0, SVG Export Plug-In . SVG Version: 6.00 Build 0)  -->
<svg version="1.1" id="Layer_1" xmlns="http://www.w3.org/2000/svg" xmlns:xlink="http://www.w3.org/1999/xlink" x="0px" y="0px"
	 viewBox="-354 156 250 250" style="enable-background:new -354 156 250 250;" xml:space="preserve">
<style type="text/css">
	.st0{fill:#EAF4F1;}
	.st1{fill:url(#XMLID_16_);}
	.st2{fill:#B27812;}
	.st3{opacity:0.7;}
	.st4{fill:url(#XMLID_17_);}
	.st5{fill:url(#XMLID_18_);}
	.st6{fill:url(#XMLID_19_);}
	.st7{fill:url(#XMLID_20_);}
	.st8{fill:#800A0A;}
	.st9{fill:#FFFFFF;}
	.st10{opacity:0.3;fill:url(#XMLID_21_);enable-background:new    ;}
	.st11{fill:url(#XMLID_22_);}
	.st12{fill:#1B334D;}
	.st13{fill:#5B3C06;}
	.st14{opacity:0.3;fill:url(#XMLID_23_);enable-background:new    ;}
	.st15{fill:url(#XMLID_24_);}
	.st16{fill:#8E6109;}
	.st17{opacity:0.15;fill:#D3AF93;enable-background:new    ;}
	.st18{fill:url(#XMLID_25_);}
	.st19{fill:url(#XMLID_26_);}
	.st20{fill:url(#XMLID_27_);}
	.st21{fill:url(#XMLID_28_);}
	.st22{fill:url(#XMLID_29_);}
	.st23{fill:url(#XMLID_30_);}
	.st24{fill:url(#XMLID_31_);}
	.st25{opacity:0.2;fill:url(#XMLID_32_);enable-background:new    ;}
	.st26{opacity:0.2;fill:url(#XMLID_33_);enable-background:new    ;}
	.st27{opacity:0.2;fill:url(#XMLID_34_);enable-background:new    ;}
	.st28{fill:url(#XMLID_35_);}
	.st29{opacity:0.41;fill:#E39E68;enable-background:new    ;}
	.st30{fill:#288E73;}
	.st31{display:none;}
	.st32{display:inline;fill:url(#XMLID_36_);}
	.st33{display:inline;fill:#FFFFFF;}
	.st34{display:inline;fill:#070707;}
	.st35{display:inline;opacity:0.7;}
	.st36{display:none;fill:url(#XMLID_37_);}
	.st37{display:none;fill:url(#XMLID_38_);}
	.st38{display:inline;}
	.st39{fill:#4D4D4D;}
	.st40{fill:#070707;}
	.st41{opacity:0.3;fill:#B3B3B3;enable-background:new    ;}
	.st42{fill:#808080;}
	.st43{fill:#020202;}
	.st44{display:inline;fill:url(#XMLID_39_);}
	.st45{display:inline;fill:url(#XMLID_40_);}
	.st46{opacity:0.2;fill:#666666;enable-background:new    ;}
	.st47{fill:#FFFFFF;stroke:#070707;stroke-width:0.5;stroke-miterlimit:10;}
	.st48{fill:none;stroke:#C49630;stroke-miterlimit:10;}
	.st49{display:inline;fill:#DDB566;}
	.st50{display:inline;fill:#C49630;}
	.st51{fill:url(#XMLID_41_);}
	.st52{fill:url(#XMLID_42_);}
	.st53{fill:url(#XMLID_43_);}
	.st54{fill:url(#XMLID_44_);}
	.st55{fill:url(#XMLID_45_);}
	.st56{fill:url(#XMLID_46_);}
	.st57{opacity:0.3;fill:url(#XMLID_47_);enable-background:new    ;}
	.st58{fill:url(#XMLID_49_);}
	.st59{display:inline;opacity:0.3;fill:url(#XMLID_50_);enable-background:new    ;}
	.st60{display:inline;fill:url(#XMLID_51_);}
	.st61{display:inline;fill:#1B334D;}
	.st62{fill:url(#XMLID_52_);}
	.st63{display:none;fill:url(#XMLID_53_);}
	.st64{fill:url(#XMLID_54_);stroke:url(#XMLID_55_);stroke-miterlimit:10;}
	.st65{fill:url(#XMLID_56_);}
	.st66{fill:url(#XMLID_57_);}
	.st67{fill:url(#XMLID_58_);}
	.st68{fill:url(#XMLID_59_);}
	.st69{fill:url(#XMLID_60_);}
	.st70{fill:url(#XMLID_61_);}
	.st71{opacity:0.2;fill:url(#XMLID_101_);enable-background:new    ;}
	.st72{opacity:0.2;fill:url(#XMLID_102_);enable-background:new    ;}
	.st73{opacity:0.2;fill:url(#XMLID_110_);enable-background:new    ;}
	.st74{fill:url(#XMLID_117_);}
	.st75{opacity:0.63;fill:#EFA874;enable-background:new    ;}
	.st76{display:inline;fill:url(#SVGID_1_);}
	.st77{display:inline;opacity:0.3;fill:url(#SVGID_2_);enable-background:new    ;}
</style>
<g id="Layer_1_1_">
	<g id="Layer_1_2_">
		<g id="Layer_4">
			<circle id="XMLID_48_" class="st0" cx="-230" cy="281.8" r="108.7"/>
		</g>
		<g id="Layer_3">
			<g id="XMLID_62_">
				<g id="XMLID_90_">
					
						<radialGradient id="XMLID_16_" cx="-229.4937" cy="984.7384" r="689.7972" gradientTransform="matrix(1 0 0 -1 0 576)" gradientUnits="userSpaceOnUse">
						<stop  offset="0" style="stop-color:#F2B68B"/>
						<stop  offset="1" style="stop-color:#E5BD9F"/>
					</radialGradient>
					<path id="XMLID_172_" class="st1" d="M-176.6,247.4c-3.4-4.9-9.4,0-9.4,0s0-2.8,0-5.5c0,0-3.2-36.3-43.5-36.3
						s-42.7,36.6-42.7,33.8c0-0.9-0.2,2.3-0.3,7.8c-1.4-0.8-5.1-5.1-9.1,0.2c-2.8,3.7-6.9,12.6-1.8,21.1c2.9,4.9,7.8,9.5,10.8,11.5
						c0.2,4,1.4,5.5,1.5,8.6c1.2,13.2,13.5,28,26.9,34.9c4.8,2.5,9.8,4,14.5,4c5.2,0,10.5-1.7,15.4-4.6
						c12.8-7.4,23.1-22.3,25.4-32.1c1.1-4.8,1.5-8.3,1.5-9.5l0,0c0,0,9.4-5.4,12.8-12.8C-171.5,261-174,251.2-176.6,247.4z"/>
					<path id="XMLID_171_" class="st2" d="M-241.8,291.6c0,0,1.5-0.9,3.4,0c3.7,1.8,9.1,2.2,12.6,0.8c3.4-1.4,4.2-1.7,5.8-1.1
						c0,0-1.7-0.2-3.2,0.8c-1.5,0.9-3.4,3.5-6.2,3.8C-236.1,296.7-237.6,290.9-241.8,291.6z"/>
					<g id="XMLID_138_" class="st3">
						
							<radialGradient id="XMLID_17_" cx="-1165.3405" cy="766.9182" r="12.7282" gradientTransform="matrix(1.1889 6.027944e-02 2.088199e-02 -0.7643 1116.5198 941.4047)" gradientUnits="userSpaceOnUse">
							<stop  offset="0" style="stop-color:#E96565"/>
							<stop  offset="3.418660e-02" style="stop-color:#E96968;stop-opacity:0.9727"/>
							<stop  offset="0.4696" style="stop-color:#E79686;stop-opacity:0.6243"/>
							<stop  offset="0.8058" style="stop-color:#E5B298;stop-opacity:0.3554"/>
							<stop  offset="1" style="stop-color:#E5BD9F;stop-opacity:0.2"/>
						</radialGradient>
						<ellipse id="XMLID_158_" class="st4" cx="-253" cy="285" rx="15.4" ry="10.1"/>
						
							<radialGradient id="XMLID_18_" cx="-1127.1571" cy="767.974" r="12.7343" gradientTransform="matrix(1.1889 6.027944e-02 2.088199e-02 -0.7643 1116.5403 939.9069)" gradientUnits="userSpaceOnUse">
							<stop  offset="0" style="stop-color:#E96565"/>
							<stop  offset="3.418660e-02" style="stop-color:#E96968;stop-opacity:0.9727"/>
							<stop  offset="0.4696" style="stop-color:#E79686;stop-opacity:0.6243"/>
							<stop  offset="0.8058" style="stop-color:#E5B298;stop-opacity:0.3554"/>
							<stop  offset="1" style="stop-color:#E5BD9F;stop-opacity:0.2"/>
						</radialGradient>
						<ellipse id="XMLID_139_" class="st5" cx="-207.5" cy="285" rx="15.4" ry="10.1"/>
					</g>
					<g id="XMLID_131_">
						
							<linearGradient id="XMLID_19_" gradientUnits="userSpaceOnUse" x1="-230.25" y1="270.5089" x2="-230.25" y2="273.9655" gradientTransform="matrix(1 0 0 -1 0 576)">
							<stop  offset="0" style="stop-color:#B12323"/>
							<stop  offset="1" style="stop-color:#E96565"/>
						</linearGradient>
						<path id="XMLID_137_" class="st6" d="M-243.1,305.5c0,0,4-2.9,7.5-3.4c1.5-0.2,2.2,0.8,4.3,0.8c3.1,0,3.8-1.4,6.2-0.8
							c0.5,0.2,7.7,3.4,7.7,3.4H-243.1z"/>
						
							<linearGradient id="XMLID_20_" gradientUnits="userSpaceOnUse" x1="-11501.8262" y1="1788.219" x2="-11501.8252" y2="1796.3271" gradientTransform="matrix(-1 0 0 1 -11732.4258 -1482.7383)">
							<stop  offset="0" style="stop-color:#B12323"/>
							<stop  offset="1" style="stop-color:#E96565"/>
						</linearGradient>
						<path id="XMLID_136_" class="st7" d="M-218.7,305.5c0,0-1.4,5.5-5.1,7.1c-4,1.7-11.2,1.8-15.5-0.9c-2.5-1.7-3.2-6-3.2-6h23.8
							V305.5L-218.7,305.5z"/>
						<path id="XMLID_134_" class="st8" d="M-245.8,304.1c0,0,1.4,1.4,5.2,1.4s21.4,0,21.4,0s1.7-0.5,3.7-1.4c0,0-1.7,2.3-6.5,2.3
							s-17.8,0-17.8,0S-243.6,306.6-245.8,304.1z"/>
						<path id="XMLID_133_" class="st8" d="M-239.8,306.4c0,0,8.5,8.5,17.8,0H-239.8z"/>
						<path id="XMLID_132_" class="st9" d="M-238.4,305.9h16.1C-222.2,305.9-230.9,311.2-238.4,305.9z"/>
					</g>
					<g id="XMLID_96_">
						<g id="XMLID_125_">
							
								<radialGradient id="XMLID_21_" cx="-249.9536" cy="306.5399" r="9.4965" gradientTransform="matrix(1 0 0 -1 0 576)" gradientUnits="userSpaceOnUse">
								<stop  offset="0" style="stop-color:#D3AF93"/>
								<stop  offset="1" style="stop-color:#F2B68B"/>
							</radialGradient>
							<path id="XMLID_130_" class="st10" d="M-261.7,267.4c0,0,2.5,6.2,7.2,7.7c4.8,1.5,16.3,0,16.3,0s0.9-3.7-4.2-8.5
								C-247.1,261.7-258.4,262.3-261.7,267.4z"/>
							<path id="XMLID_129_" class="st9" d="M-260.2,266.6c0,0,1.2,6.8,5.8,8s15.5,0,15.5,0s0.3-4.3-7.7-8
								C-254.5,262.9-260.2,266.6-260.2,266.6z"/>
							
								<radialGradient id="XMLID_22_" cx="-247.8467" cy="305.2858" r="4.5582" gradientTransform="matrix(1 0 0 -1 0 576)" gradientUnits="userSpaceOnUse">
								<stop  offset="0" style="stop-color:#29ABE2"/>
								<stop  offset="1" style="stop-color:#007E9A"/>
							</radialGradient>
							<path id="XMLID_128_" class="st11" d="M-247.9,266.1c0.5,0,0.9,0,1.4,0.2c-0.8,0.3-1.4,1.2-1.4,2.2c0,1.2,0.9,2.3,2.3,2.3
								c0.9,0,1.7-0.6,2-1.4c0.2,0.5,0.2,0.9,0.2,1.4c0,2.6-2,4.6-4.5,4.6s-4.5-2.2-4.5-4.6C-252.4,268.1-250.4,266.1-247.9,266.1z"
								/>
							<circle id="XMLID_127_" class="st12" cx="-247.4" cy="270.6" r="2"/>
							<path id="XMLID_126_" class="st13" d="M-238.1,271.8c0,0-3.5-5.2-11.7-6.9c-8.1-1.8-13.7,0-13.7,0l2.9,3.8
								c0,0,0.5-1.5,3.4-2.3C-254.2,265.7-245.1,265.5-238.1,271.8z"/>
						</g>
						<g id="XMLID_116_">
							
								<radialGradient id="XMLID_23_" cx="-11491.4609" cy="306.5399" r="9.4755" gradientTransform="matrix(-1 0 0 -1 -11702.4414 576)" gradientUnits="userSpaceOnUse">
								<stop  offset="0" style="stop-color:#D3AF93"/>
								<stop  offset="1" style="stop-color:#F2B68B"/>
							</radialGradient>
							<path id="XMLID_121_" class="st14" d="M-199.2,267.4c0,0-2.5,6.2-7.2,7.7c-4.8,1.5-16.3,0-16.3,0s-0.9-3.7,4.2-8.5
								C-213.6,261.7-202.4,262.3-199.2,267.4z"/>
							<path id="XMLID_120_" class="st9" d="M-200.7,266.6c0,0-1.2,6.8-5.8,8s-15.5,0-15.5,0s-0.3-4.3,7.7-8
								C-206.4,262.9-200.7,266.6-200.7,266.6z"/>
							
								<radialGradient id="XMLID_24_" cx="-11489.3867" cy="305.2858" r="4.5573" gradientTransform="matrix(-1 0 0 -1 -11702.4414 576)" gradientUnits="userSpaceOnUse">
								<stop  offset="0" style="stop-color:#29ABE2"/>
								<stop  offset="1" style="stop-color:#007E9A"/>
							</radialGradient>
							<path id="XMLID_119_" class="st15" d="M-213,266.1c-0.5,0-0.9,0-1.4,0.2c0.8,0.3,1.4,1.2,1.4,2.2c0,1.2-0.9,2.3-2.3,2.3
								c-0.9,0-1.7-0.6-2-1.4c-0.2,0.5-0.2,0.9-0.2,1.4c0,2.6,2,4.6,4.5,4.6s4.5-2.2,4.5-4.6C-208.6,268.1-210.5,266.1-213,266.1z"
								/>
							<circle id="XMLID_118_" class="st12" cx="-213.5" cy="270.6" r="2"/>
							<path id="XMLID_15_" class="st13" d="M-203.5,266.4c2.9,0.8,3.4,2.3,3.4,2.3l2.9-3.8c0,0-5.6-1.8-13.7,0
								c-8.2,1.7-11.7,6.9-11.7,6.9C-215.6,265.5-206.5,265.7-203.5,266.4z"/>
						</g>
						<g id="XMLID_111_">
							<g id="XMLID_114_">
								<path id="XMLID_115_" class="st16" d="M-240.4,262c0,0-1.2-3.5-6.3-4.6c-6.2-1.2-12.3,1.7-14.3,3.2
									C-261,260.7-250.1,254.4-240.4,262z"/>
							</g>
							<g id="XMLID_112_">
								<path id="XMLID_113_" class="st16" d="M-220.2,262.3c0,0,1.2-3.5,6.3-4.6c6.2-1.2,12.3,1.7,14.3,3.2
									C-199.8,261-210.7,254.7-220.2,262.3z"/>
							</g>
						</g>
					</g>
				</g>
				<g id="XMLID_86_">
					<path id="XMLID_1_" class="st17" d="M-188,245.1c0,0,0-2.8,0-5.5c0,0,1.5,36-10.3,58.1c-11.1,20.7-35.7,26.6-33.5,26.6
						c5.2,0,11.3,0.1,16.3-2.8c12.8-7.4,22.2-23.1,24.5-32.9c1.1-4.8,1.5-8.3,1.5-9.5l0,0L-188,245.1z"/>
					
						<linearGradient id="XMLID_25_" gradientUnits="userSpaceOnUse" x1="-306.1008" y1="259.5641" x2="-153.8618" y2="259.5641" gradientTransform="matrix(1 0 0 1 0 12)">
						<stop  offset="0" style="stop-color:#C4862E"/>
						<stop  offset="0" style="stop-color:#DDA700"/>
						<stop  offset="0.6736" style="stop-color:#DBAE3E"/>
						<stop  offset="0.8943" style="stop-color:#D9AB3A"/>
						<stop  offset="1" style="stop-color:#D09E2A"/>
						<stop  offset="1" style="stop-color:#E1B84A"/>
						<stop  offset="1" style="stop-color:#E2BE4B"/>
					</linearGradient>
					<path id="XMLID_89_" class="st18" d="M-156.9,319.9c-7.8-14.1,8.3-39.4,0.8-45c-7.4-5.8,3.8-17.4-5.7-26.1
						c-9.5-8.8-0.3-16.3-9.8-24.1s-4.3-18.9-31.1-33.5c-11.8-6.6-20.9-7.7-27.2-6.8l0,0c-6.3-0.8-15.4,0.2-27.4,6.8
						c-26.8,14.6-21.5,25.7-31.1,33.5s-0.3,15.4-9.8,24.1c-9.5,8.8,1.8,20.4-5.7,26.1c-7.5,5.8,8.6,31.1,0.8,45
						c-7.8,14.3,0.5,32.1,14.6,36.9c7.1,2.5,24.6,2.5,40.3,1.8c0.9-2.2,6-15.2,8.1-35.2c-16.6-5.8-28.9-26.3-29.8-50.9
						c0.6-5.4,1.5-10.8,3.8-14.1c6.3-9.5,16.1-7.7,22.4-24.9c0,0,0.5,16.5,18.1,19.5c17.5,3.1,23.8-2.3,32.3,10.9
						c1.5,2.3,2.6,4.9,3.2,7.4c-0.5,25.1-13.1,46-30.1,52c2,20,7.2,33.1,8.1,35.2c15.8,0.6,33.2,0.6,40.3-1.8
						C-157.4,352.1-149,334.2-156.9,319.9z"/>
					
						<linearGradient id="XMLID_26_" gradientUnits="userSpaceOnUse" x1="-299.7528" y1="216.3141" x2="-158.4289" y2="216.3141" gradientTransform="matrix(1 0 0 1 0 12)">
						<stop  offset="0" style="stop-color:#C4862E"/>
						<stop  offset="0" style="stop-color:#E6A011"/>
						<stop  offset="1" style="stop-color:#D09E2A"/>
						<stop  offset="1" style="stop-color:#E1B84A"/>
					</linearGradient>
					<path id="XMLID_88_" class="st19" d="M-162.3,248.1c-9.5-8.8-0.3-16.1-9.8-24c-9.5-7.7-4.3-18.8-31.1-33.2
						c-11.8-6.5-20.9-7.5-27.4-6.6l0,0c-6.3-0.8-15.4,0.2-27.4,6.6c-26.8,14.5-21.5,25.4-31.1,33.2c-9.5,7.7-0.3,15.2-9.8,24
						c-3.4,21.9,2.8,31.2,28.9,18.1c0.6-4,1.5-5.8,3.2-8.5c6.3-9.5,16.1-7.5,22.4-24.6c0,0,0.5,16.5,18.1,19.4
						c17.5,3.1,23.8-2.3,32.3,10.8c1.5,2.3,3.1,5.8,3.7,8.5C-157.2,277-154,255.8-162.3,248.1z"/>
					
						<linearGradient id="XMLID_27_" gradientUnits="userSpaceOnUse" x1="-299.7319" y1="207.1778" x2="-129.2916" y2="275.7573" gradientTransform="matrix(1 0 0 1 0 4)">
						<stop  offset="0" style="stop-color:#C4862E"/>
						<stop  offset="0" style="stop-color:#DDA700"/>
						<stop  offset="0.6736" style="stop-color:#DBAE3E"/>
						<stop  offset="0.8943" style="stop-color:#D9AB3A"/>
						<stop  offset="1" style="stop-color:#D09E2A"/>
						<stop  offset="1" style="stop-color:#E1B84A"/>
						<stop  offset="1" style="stop-color:#E2BE4B"/>
					</linearGradient>
					<path id="XMLID_87_" class="st20" d="M-153.9,269.5c-9.4-4.2,0.4-18.9-7.9-26.1c-9.5-8.1-0.3-15.2-9.8-22.4
						s-4.3-17.5-31.1-31.2c-11.8-6-20.9-7.1-27.4-6.3l0,0c-6.3-0.8-15.4,0.2-27.4,6.3c-26.8,13.5-21.5,23.8-31.1,31.2
						c-9.5,7.2-0.3,14.3-9.8,22.4s1.8,18.9-5.7,24.4c-0.6,0.5-1.1,1.1-1.4,1.8c13.2,1.5,26.1,0.6,35.7-7.2c0.6-3.8,1.7-7.2,3.5-9.7
						c6.3-8.9,16.1-7.1,22.4-23.2c0,0,0.5,15.4,18.1,18.3c17.5,2.9,23.8-2.2,32.3,10.1c1.5,2.2,2.3,4.6,3.1,6.9
						c0,0.9,2.5,3.6,2.5,4.7C-174.5,272.6-168.5,278.3-153.9,269.5z"/>
				</g>
				<g id="XMLID_63_">
					<g id="XMLID_68_">
						
							<radialGradient id="XMLID_28_" cx="-423.6257" cy="248.4549" r="49.1604" gradientTransform="matrix(1.0356 0 0 -1.0227 208.7947 585.5876)" gradientUnits="userSpaceOnUse">
							<stop  offset="0" style="stop-color:#F2B68B"/>
							<stop  offset="1" style="stop-color:#E5BD9F"/>
						</radialGradient>
						<path id="XMLID_85_" class="st21" d="M-170.9,360.5c-1.1-8.8-16.1-13.4-32.1-15.5c-16-2-22.6-1.1-30.4-9.5
							c-3.7-4-5.2-7.9-6-12.2c-1.7-0.6-3.4-1.2-4.9-2.2c0.6,6,1.1,13.3-0.8,15.1c-2.9,2.9-36.7,10.3-42.3,16.1
							c-5.5,6-3.4,18.5-3.5,19.1c7.7,6.2,29.7,18.9,61,18.9c35.5,0,59-17.4,59-17.4C-170.6,371.6-170,368.1-170.9,360.5z"/>
						
							<radialGradient id="XMLID_29_" cx="-423.764" cy="251.2541" r="44.5463" gradientTransform="matrix(1.0356 0 0 -1.0227 208.7947 585.5876)" gradientUnits="userSpaceOnUse">
							<stop  offset="0" style="stop-color:#F2B68B"/>
							<stop  offset="1" style="stop-color:#E5BD9F"/>
						</radialGradient>
						<path id="XMLID_84_" class="st22" d="M-210.9,338.1c3.1,1.7,33.7,10.3,39.2,15.7c2.9,2.9,3.8,9.4,3.8,14.6
							c-0.2-5.2-0.9-11.7-3.8-14.9c-5.5-6-39.4-14.3-42.4-17.2c-0.8-0.8-1.4-3.1-1.4-5.7l0,0C-215.3,337.3-213.9,336.4-210.9,338.1z
							"/>
						
							<radialGradient id="XMLID_30_" cx="-363.6488" cy="211.8501" r="0.1818" gradientTransform="matrix(1.0356 0 0 -1.0227 208.7947 585.5876)" gradientUnits="userSpaceOnUse">
							<stop  offset="0" style="stop-color:#F2B68B"/>
							<stop  offset="1" style="stop-color:#E5BD9F"/>
						</radialGradient>
						<path id="XMLID_75_" class="st23" d="M-167.8,368.7c0,0.2,0,0.3,0,0.6C-167.8,369-167.8,368.8-167.8,368.7z"/>
						
							<radialGradient id="XMLID_31_" cx="-423.6289" cy="251.2541" r="44.4839" gradientTransform="matrix(1.0356 0 0 -1.0227 208.7947 585.5876)" gradientUnits="userSpaceOnUse">
							<stop  offset="0" style="stop-color:#F2B68B"/>
							<stop  offset="1" style="stop-color:#E5BD9F"/>
						</radialGradient>
						<path id="XMLID_74_" class="st24" d="M-214.5,319.6c0,0-0.2,0-0.2,0.2c0,0.9-0.2,2-0.2,3.2
							C-214.9,321.8-214.7,320.5-214.5,319.6z"/>
						
							<radialGradient id="XMLID_32_" cx="-167.8" cy="212.2256" r="4.733380e-02" gradientTransform="matrix(1 0 0 -1.0227 0 585.5876)" gradientUnits="userSpaceOnUse">
							<stop  offset="0" style="stop-color:#F2B68B"/>
							<stop  offset="1" style="stop-color:#E5BD9F"/>
						</radialGradient>
						<path id="XMLID_73_" class="st25" d="M-167.8,368.5c0,0.2,0,0.2,0,0.2V368.5z"/>
						
							<radialGradient id="XMLID_33_" cx="-221.6386" cy="237.2311" r="43.9479" gradientTransform="matrix(1 0 0 -1.0227 0 585.5876)" gradientUnits="userSpaceOnUse">
							<stop  offset="0" style="stop-color:#F2B68B"/>
							<stop  offset="1" style="stop-color:#E5BD9F"/>
						</radialGradient>
						<path id="XMLID_72_" class="st26" d="M-167.8,367c0,4.2-0.3,7.7-0.3,7.7h-2.8l0,0h2.8C-168.1,374.7-167.7,371.4-167.8,367z"/>
						
							<radialGradient id="XMLID_34_" cx="-221.6387" cy="235.7184" r="44.2671" gradientTransform="matrix(1 0 0 -1.0227 0 585.5876)" gradientUnits="userSpaceOnUse">
							<stop  offset="0" style="stop-color:#F2B68B"/>
							<stop  offset="1" style="stop-color:#E5BD9F"/>
						</radialGradient>
						<path id="XMLID_71_" class="st27" d="M-215.2,330.7c0-2.3,0.2-5.1,0.3-7.8C-215.2,325.5-215.3,328.2-215.2,330.7z"/>
						
							<radialGradient id="XMLID_35_" cx="-221.6448" cy="236.6772" r="43.4666" gradientTransform="matrix(1 0 0 -1.0227 0 585.5876)" gradientUnits="userSpaceOnUse">
							<stop  offset="0" style="stop-color:#F2B68B"/>
							<stop  offset="1" style="stop-color:#E5BD9F"/>
						</radialGradient>
						<path id="XMLID_69_" class="st28" d="M-167.8,368.2C-167.8,368.1-167.8,368.4-167.8,368.2
							C-167.8,368.1-167.8,368.2-167.8,368.2c-0.2-5.4-0.9-11.7-3.8-14.6c-5.5-5.5-36.3-14.1-39.4-15.7c-3.1-1.7-4.5-0.8-4.5-7.2
							l0,0c0-2.3,0.2-5.2,0.3-7.8c0-1.1,0.2-1.2,0.2-2.2c-4.8,2.8-10,3.6-15.2,3.6c-3.1,0-6.3-0.6-9.5-1.8c0.6,4.3,2.3,9.2,6,13.2
							c7.8,8.5,14.5,7.8,30.4,9.8c16,2,31.1,6.3,32.1,15.1c0.9,7.4,0.3,11.1,0,12.6l2.8-1.5C-168.1,371.6-167.7,372.4-167.8,368.2z"
							/>
						<path id="XMLID_70_" class="st29" d="M-167.8,368.2C-167.8,368.1-167.8,368.4-167.8,368.2
							C-167.8,368.1-167.8,368.2-167.8,368.2c-0.2-5.4-0.9-11.7-3.8-14.6c-5.5-5.5-36.3-14.1-39.4-15.7c-3.1-1.7-4.5-0.8-4.5-7.2
							l0,0c0-2.3,0.2-5.2,0.3-7.8c0-1.1,0.2-1.2,0.2-2.2c-4.8,2.8-10,3.6-15.2,3.6c-3.1,0-6.3,0.4-9.5-0.8c0.6,4.3,2.3,8.2,6,12.2
							c7.8,8.5,14.5,7.8,30.4,9.8c16,2,30.4,6.5,31.5,15.2c0.9,7.4,0.9,10.9,0.6,12.5l2.8-1.5C-168.1,371.6-167.7,372.4-167.8,368.2
							z"/>
					</g>
					<g id="XMLID_64_">
						<path id="XMLID_67_" class="st30" d="M-275.6,346.7l9.8-2.9c0,0,41.8,11.7,68.9-0.5l9.8,2.3c0,0-0.5,28.6,2.8,35.1
							c0,0-18,10-49.4,10c-29.7-1.2-45.8-11.8-45.8-11.8S-271.1,361-275.6,346.7z"/>
						<polygon id="XMLID_66_" class="st9" points="-191.5,344.4 -209.5,338.2 -226.4,348.7 -215.6,360.8 						"/>
						<polygon id="XMLID_65_" class="st9" points="-266.8,344.1 -248.2,337.9 -231.3,348.5 -242.2,360.7 						"/>
					</g>
				</g>
			</g>
		</g>
		<g id="Layer_2" class="st31">
			
				<radialGradient id="XMLID_36_" cx="-1960.8271" cy="66.701" r="396.283" gradientTransform="matrix(1 0 0 -1 0 576)" gradientUnits="userSpaceOnUse">
				<stop  offset="0" style="stop-color:#000000"/>
				<stop  offset="1" style="stop-color:#333333"/>
			</radialGradient>
			<path id="XMLID_189_" class="st32" d="M-1930.4,886.2c-2-2.8-5.4,0-5.4,0s0-1.6,0-3.2c0,0-1.9-20.8-25-20.8s-24.6,21-24.6,19.4
				c0-0.5-0.1,1.3-0.2,4.5c-0.8-0.4-2.9-2.9-5.2,0.1c-1.6,2.1-4,7.2-1.1,12.1c1.7,2.9,4.5,5.4,6.1,6.6c0.1,2.3,0.8,3.2,0.9,5
				c0.7,7.6,7.7,16.1,15.4,20c2.8,1.4,5.6,2.3,8.3,2.3c3,0,6-1,8.8-2.6c7.4-4.3,13.4-12.8,14.7-18.4c0.6-2.7,1-4.8,1-5.5l0,0
				c0,0,5.3-3.1,7.2-7.3C-1927.3,894.1-1928.8,888.4-1930.4,886.2z"/>
			<ellipse id="XMLID_14_" class="st33" cx="-915.8" cy="267.3" rx="27" ry="28.4"/>
			<path id="XMLID_187_" class="st34" d="M-921.9,275.9c0,0,0.9-0.5,1.9,0c2.1,1,5.2,1.3,7.2,0.4c1.9-0.8,2.4-1,3.4-0.6
				c0,0-1-0.1-1.9,0.4c-0.9,0.6-1.9,2-3.5,2.2C-918.6,278.8-919.5,275.5-921.9,275.9z"/>
			<g id="XMLID_184_" class="st35">
				
					<radialGradient id="XMLID_37_" cx="-2714.8416" cy="-154.5215" r="7.3199" gradientTransform="matrix(1.2396 6.027944e-02 2.177326e-02 -0.7643 1393.7811 951.3704)" gradientUnits="userSpaceOnUse">
					<stop  offset="0" style="stop-color:#999999"/>
					<stop  offset="0.4063" style="stop-color:#BEAB9C;stop-opacity:0.675"/>
					<stop  offset="0.7826" style="stop-color:#DAB89E;stop-opacity:0.3739"/>
					<stop  offset="1" style="stop-color:#E5BD9F;stop-opacity:0.2"/>
				</radialGradient>
				<ellipse id="XMLID_186_" class="st36" cx="-1974.9" cy="905.8" rx="9.2" ry="5.9"/>
				
					<radialGradient id="XMLID_38_" cx="-2692.8948" cy="-154.5215" r="7.3195" gradientTransform="matrix(1.2396 6.027944e-02 2.177326e-02 -0.7643 1393.8002 950.0477)" gradientUnits="userSpaceOnUse">
					<stop  offset="0" style="stop-color:#999999"/>
					<stop  offset="0.1886" style="stop-color:#A6A6A6;stop-opacity:0.8491"/>
					<stop  offset="0.5384" style="stop-color:#C9C9C9;stop-opacity:0.5693"/>
					<stop  offset="1" style="stop-color:#FFFFFF;stop-opacity:0.2"/>
				</radialGradient>
				<ellipse id="XMLID_185_" class="st37" cx="-1947.7" cy="905.8" rx="9.2" ry="5.9"/>
			</g>
			<g id="XMLID_166_" class="st38">
				<path id="XMLID_182_" class="st39" d="M-922.7,283.9c0,0,2.3-1.7,4.3-1.9c0.9-0.1,1.2,0.4,2.5,0.4c1.7,0,2.2-0.8,3.5-0.4
					c0.3,0.1,4.4,1.9,4.4,1.9H-922.7z"/>
				<path id="XMLID_170_" class="st39" d="M-908.6,283.9c0,0-0.8,3.2-2.9,4.1c-2.3,1-6.4,1.1-8.9-0.6c-1.4-1-1.9-3.5-1.9-3.5H-908.6
					z"/>
				<path id="XMLID_169_" class="st40" d="M-924.2,283.1c0,0,0.8,0.8,3,0.8s12.2,0,12.2,0s1-0.3,2.2-0.8c0,0-0.9,1.3-3.7,1.3
					s-10.3,0-10.3,0S-923,284.5-924.2,283.1z"/>
				<path id="XMLID_168_" d="M-920.8,284.4c0,0,4.9,4.9,10.3,0H-920.8z"/>
				<path id="XMLID_167_" class="st9" d="M-920,284.1h9.3C-910.6,284.1-916.9,285.3-920,284.1z"/>
			</g>
			<g id="XMLID_97_" class="st38">
				<g id="XMLID_159_">
					<path id="XMLID_165_" class="st41" d="M-933.4,262c0,0,1.4,3.5,4.2,4.4s9.4,0,9.4,0s0.5-2.1-2.4-4.9
						C-925,258.7-931.5,259.1-933.4,262z"/>
					<path id="XMLID_164_" class="st9" d="M-932.5,261.5c0,0,0.7,3.9,3.4,4.6s8.9,0,8.9,0s0.2-2.5-4.4-4.6S-932.5,261.5-932.5,261.5
						z"/>
					<path id="XMLID_163_" class="st39" d="M-925.4,261.3c0.3,0,0.5,0,0.8,0.1c-0.4,0.2-0.8,0.7-0.8,1.2c0,0.7,0.6,1.3,1.3,1.3
						c0.5,0,1-0.3,1.2-0.8c0.1,0.2,0.1,0.5,0.1,0.8c0,1.5-1.1,2.7-2.6,2.7c-1.4,0-2.6-1.2-2.6-2.7
						C-928,262.5-926.8,261.3-925.4,261.3z"/>
					<circle id="XMLID_162_" class="st42" cx="-925.2" cy="263.9" r="1.1"/>
					<path id="XMLID_161_" d="M-919.8,264.6c0,0-2-3-6.7-4s-7.9,0-7.9,0l1.6,2.2c0,0,0.3-0.9,1.9-1.3
						C-929.2,261.1-923.8,260.9-919.8,264.6z"/>
				</g>
				<g id="XMLID_108_">
					<path id="XMLID_152_" class="st41" d="M-897.4,262c0,0-1.4,3.5-4.2,4.4s-9.4,0-9.4,0s-0.5-2.1,2.4-4.9
						C-905.8,258.7-899.3,259.1-897.4,262z"/>
					<path id="XMLID_124_" class="st9" d="M-898.3,261.5c0,0-0.7,3.9-3.4,4.6s-8.9,0-8.9,0s-0.2-2.5,4.4-4.6
						S-898.3,261.5-898.3,261.5z"/>
					<path id="XMLID_123_" class="st39" d="M-905.4,261.3c-0.3,0-0.5,0-0.8,0.1c0.4,0.2,0.8,0.7,0.8,1.2c0,0.7-0.6,1.3-1.3,1.3
						c-0.5,0-1-0.3-1.2-0.8c-0.1,0.2-0.1,0.5-0.1,0.8c0,1.5,1.1,2.7,2.6,2.7c1.4,0,2.6-1.2,2.6-2.7
						C-902.8,262.5-904,261.3-905.4,261.3z"/>
					<circle id="XMLID_122_" class="st42" cx="-905.6" cy="263.9" r="1.1"/>
					<path id="XMLID_109_" d="M-911,264.6c0,0,2-3,6.7-4s7.9,0,7.9,0l-1.6,2.2c0,0-0.3-0.9-1.9-1.3
						C-901.5,261.1-907,260.9-911,264.6z"/>
				</g>
				<g id="XMLID_103_">
					<g id="XMLID_106_">
						<path id="XMLID_107_" class="st43" d="M-921.1,257.8c0,0-0.7-2.1-3.6-2.6c-3.5-0.7-7.1,1-8.2,1.9
							C-932.9,257-926.7,253.4-921.1,257.8z"/>
					</g>
					<g id="XMLID_104_">
						<path id="XMLID_105_" class="st43" d="M-909.6,257.9c0,0,0.7-2.1,3.6-2.6c3.5-0.7,7.1,1,8.2,1.9
							C-897.8,257.2-904,253.6-909.6,257.9z"/>
					</g>
				</g>
				<g id="XMLID_98_" class="st31">
					
						<radialGradient id="XMLID_39_" cx="-1937.2117" cy="-571.3258" r="7.9545" gradientTransform="matrix(0.9988 4.857015e-02 2.994641e-02 -0.6158 -21.094 638.4716)" gradientUnits="userSpaceOnUse">
						<stop  offset="0" style="stop-color:#070707"/>
						<stop  offset="9.737217e-02" style="stop-color:#0C0C0C;stop-opacity:0.9221"/>
						<stop  offset="0.6689" style="stop-color:#292929;stop-opacity:0.4649"/>
						<stop  offset="1" style="stop-color:#333333;stop-opacity:0.2"/>
					</radialGradient>
					<path id="XMLID_100_" class="st44" d="M-1965.9,901.6c0,0-1.3-6-1.3-7.6s-4.6-4.2-8.8-2.8c-4.2,1.4-4.3,5.2-4.3,5.2
						s7.8-0.7,10.7,1.2C-1966.6,899.5-1965.9,901.6-1965.9,901.6z"/>
					
						<radialGradient id="XMLID_40_" cx="-9712.8418" cy="-1081.0435" r="7.9545" gradientTransform="matrix(-0.9988 4.857015e-02 -2.994641e-02 -0.6158 -11683.3643 702.2509)" gradientUnits="userSpaceOnUse">
						<stop  offset="0" style="stop-color:#070707"/>
						<stop  offset="9.737217e-02" style="stop-color:#0C0C0C;stop-opacity:0.9221"/>
						<stop  offset="0.6689" style="stop-color:#292929;stop-opacity:0.4649"/>
						<stop  offset="1" style="stop-color:#333333;stop-opacity:0.2"/>
					</radialGradient>
					<path id="XMLID_99_" class="st45" d="M-1957,901.6c0,0,1.3-6,1.3-7.6s4.6-4.2,8.8-2.8c4.2,1.4,4.3,5.2,4.3,5.2
						s-7.8-0.7-10.7,1.2C-1956.2,899.5-1957,901.6-1957,901.6z"/>
				</g>
			</g>
			<g id="XMLID_92_" class="st38">
				<path id="XMLID_95_" class="st40" d="M-872.8,292.6c-4.6-8.3,4.8-23.2,0.5-26.6c-4.4-3.4,2.3-10.2-3.3-15.4
					c-5.6-5.2-0.2-9.6-5.7-14.2s-2.5-11.1-18.2-19.7c-6.9-3.8-12.2-4.5-16-4l0,0c-3.7-0.5-9,0.1-15.9,4
					c-15.6,8.6-12.6,15.1-18.2,19.7s-0.2,9-5.7,14.2c-5.6,5.2,1,12-3.3,15.4c-4.4,3.4,5.1,18.3,0.5,26.6c-4.6,8.4,0.3,19,8.5,21.8
					c4.1,1.4,14.3,1.4,23.5,1.1c0.5-1.3,3.5-9,4.7-20.8c-9.8-3.5-17-15.5-17.5-30c0.3-3.2,0.9-6.3,2.2-8.3
					c3.7-5.6,9.4-4.5,13.1-14.7c0,0,0.3,9.7,10.6,11.5s13.9-1.4,18.9,6.4c0.9,1.4,1.5,2.9,1.9,4.3c-0.3,14.8-7.6,27.1-17.6,30.7
					c1.2,11.8,4.2,19.5,4.7,20.8c9.2,0.4,19.4,0.4,23.5-1.1C-873,311.6-868.2,301-872.8,292.6z"/>
				<path id="XMLID_94_" class="st39" d="M-875.9,250.2c-5.6-4.9-0.2-9.1-5.7-13.4c-5.6-4.3-2.5-10.5-18.2-18.6
					c-6.9-3.6-12.2-4.2-16-3.7l0,0c-3.7-0.5-9,0.1-15.9,3.7c-15.6,8.1-12.6,14.2-18.2,18.6c-5.6,4.3-0.2,8.5-5.7,13.4
					c-5.6,4.9,11.2,14.9,16.9,10.1c0.4-2.3,0.9-3.3,1.9-4.7c3.7-5.3,9.4-4.2,13.1-13.8c0,0,0.3,9.2,10.6,10.9s13.9-1.3,18.9,6
					c0.9,1.3,1.8,3.3,2.2,4.7C-892.1,264-871.1,254.5-875.9,250.2z"/>
				<path id="XMLID_93_" class="st40" d="M-873.5,259.9c-1.8-3.3,2.7-8.5-2.2-12.5c-5.6-4.6-0.2-8.6-5.7-12.7
					c-5.6-4.1-2.5-9.9-18.2-17.6c-7-3.4-12.2-4-16-3.5l0,0c-3.7-0.4-9,0.1-15.9,3.5c-15.6,7.7-12.6,13.5-18.2,17.6
					s-0.2,8.1-5.7,12.7c-5.6,4.6,1,10.7-3.3,13.8c-0.4,0.3-0.6,0.6-0.8,1c7.7,0.9,15.2,0.4,20.8-4.1c0.4-2.1,1-4.1,2-5.5
					c3.7-5,9.4-4,13.1-13.1c0,0,0.3,8.7,10.6,10.3s13.9-1.3,18.9,5.7c0.9,1.3,1.4,2.6,1.8,3.9c0,0.5,0.1,1,0.1,1.5
					C-886,261.4-879.7,261-873.5,259.9z"/>
			</g>
			<g id="XMLID_76_" class="st38">
				<g id="XMLID_81_">
					<path id="XMLID_91_" class="st9" d="M-880.1,316.8c-0.6-5-10.1-7.7-19.3-8.9c-9.2-1.2-13-0.8-17.5-5.6c-2.1-2.3-3-5.2-3.4-7.6
						c-1-0.3-1.9-0.8-2.8-1.3c0.3,3.4,0.6,8.2-0.4,9.3c-1.7,1.7-21.1,6.5-24.3,9.9s-2,13.3-2,13.3h33.4h3.7h31.9
						C-880.8,324.8-879.6,321.1-880.1,316.8z"/>
					<path id="XMLID_83_" class="st9" d="M-879.2,321.5c0-0.1,0-0.2,0-0.3v-0.1c-0.1-3.1-0.5-6.8-2.2-8.4
						c-3.2-3.2-20.8-8.1-22.5-9.1c-1.8-0.9-2.5-0.4-2.5-4.2l0,0c0-1.4,0-3,0.1-4.5c0-0.6,0-1.3,0.1-1.8c-2.8,1.6-5.7,2.6-8.7,2.6
						c-1.8,0-3.6-0.4-5.4-1c0.4,2.4,1.3,5.3,3.4,7.6c4.5,4.9,8.3,4.5,17.5,5.6c9.2,1.2,17.8,4.2,18.5,9.2c0.5,4.3,0.2,7.7,0,8.7h1.6
						C-879.4,325.8-879.2,323.9-879.2,321.5z"/>
					<path id="XMLID_82_" class="st46" d="M-879.2,321.5c0-0.1,0-0.2,0-0.3v-0.1c-0.1-3.1-0.5-6.8-2.2-8.4
						c-3.2-3.2-20.8-8.1-22.5-9.1c-1.8-0.9-2.5-0.4-2.5-4.2l0,0c0-1.4,0-3,0.1-4.5c0-0.6,0-1.3,0.1-1.8c-2.8,1.6-5.7,2.6-8.7,2.6
						c-1.8,0-3.6-0.4-5.4-1c0.4,2.4,1.3,5.3,3.4,7.6c4.5,4.9,8.3,4.5,17.5,5.6c9.2,1.2,17.8,4.2,18.5,9.2c0.5,4.3,0.2,7.7,0,8.7h1.6
						C-879.4,325.8-879.2,323.9-879.2,321.5z"/>
				</g>
				<g id="XMLID_77_">
					<path id="XMLID_80_" class="st40" d="M-940.8,308.1l5.9-1.2c0,0,24,6.7,39.5-0.3l5.7,1.3c0,0-1.8,14.4,0,18.1h-52.5
						C-942.2,326-938.2,316.3-940.8,308.1z"/>
					<path id="XMLID_79_" class="st47" d="M-893,307.3l-10.3-3.6l-9.7,6.1c0,0,1.8,5,6.2,7C-902.4,318.7-893,307.3-893,307.3z"/>
					<path id="XMLID_78_" class="st47" d="M-936,306.6l10.3-2.9l9.7,6.1c0,0-1.8,5-6.2,7C-926.6,318.7-936,306.6-936,306.6z"/>
				</g>
			</g>
		</g>
		<path class="st48" d="M-807.7,272.5"/>
	</g>
	<g id="Layer_2_1_">
	</g>
</g>
<g id="Layer_2_2_" class="st31">
	<g id="Layer_1_3_" class="st38">
		<g id="XMLID_10_">
			<g id="XMLID_8_" class="st31">
				<path id="XMLID_9_" class="st49" d="M-1325.5,592.2c-9.3-16.8,10-46.9,1-53.8c-8.9-6.9,4.6-20.8-6.6-31.1
					c-11.4-10.6-0.2-19.5-11.6-28.9c-11.4-9.4-5.2-22.4-37.2-39.9c-14.1-7.7-24.9-8.9-32.6-8.1l0,0c-7.7-1-18.5,0.2-32.6,8.1
					c-32,17.4-25.7,30.5-37.2,39.9s-0.2,18.3-11.6,28.9s2.1,24.3-6.6,31.1c-8.9,6.9,10.4,37,1,53.8c-9.3,17,0.6,38.4,17.4,44
					c8.5,2.9,29.3,2.9,48.2,2.1c1-2.7,7.3-18.1,9.8-41.9c-19.9-7.1-34.7-31.4-35.7-60.6c0.6-6.4,1.9-12.9,4.6-16.8
					c7.5-11.4,19.3-9.1,26.8-29.7c0,0,0.6,19.7,21.6,23.5c21,3.7,28.4-2.9,38.6,13.1c1.9,2.9,3.1,5.8,3.9,8.7
					c-0.6,29.9-15.6,55-35.9,62.1c2.5,23.9,8.5,39.5,9.8,41.9c18.9,0.6,39.7,0.6,48.2-2.1C-1325.9,630.6-1316,609.3-1325.5,592.2z"
					/>
				<path id="XMLID_5_" class="st50" d="M-1270,527c-11.4-10.4-0.2-19.3-11.6-28.7c-11.4-9.1-5.2-22.2-37.2-39.7
					c-14.1-7.7-24.9-8.9-32.6-7.9l0,0c-7.7-1-18.5,0.2-32.6,7.9c-32,17.2-25.7,30.3-37.2,39.7c-11.4,9.1-0.2,18.1-11.6,28.7
					c-11.4,10.4,23,31.8,34.5,21.6c0.8-4.8,1.7-6.9,3.7-10c7.5-11.2,19.3-9.1,26.8-29.5c0,0,0.6,19.5,21.6,23.3
					c21,3.5,28.4-2.9,38.6,12.9c1.9,2.9,3.7,7.1,4.6,10C-1303,556.5-1260,536.1-1270,527z"/>
				<path id="XMLID_6_" class="st49" d="M-1285.3,549.1c-3.7-6.9,5.6-17.9-4.4-26.4c-11.4-9.8-0.2-18.3-11.6-26.8
					c-11.4-8.7-5.2-21-37.2-37.2c-14.1-7.3-24.9-8.3-32.6-7.5l0,0c-7.7-0.8-18.5,0.2-32.6,7.5c-32,16.2-25.7,28.4-37.2,37.2
					c-11.4,8.7-0.2,17-11.6,26.8s2.1,22.6-6.6,29.1c-0.8,0.6-1.2,1.2-1.7,2.1c15.8,1.9,31.1,0.8,42.6-8.7c0.8-4.6,2.1-8.7,4.2-11.6
					c7.5-10.6,19.3-8.5,26.8-27.6c0,0,0.6,18.3,21.6,21.8c21,3.3,28.4-2.7,38.6,12c1.9,2.7,2.9,5.6,3.7,8.3c0,1,0.2,2.1,0.2,3.1
					C-1310.7,552.2-1298,551.4-1285.3,549.1z"/>
			</g>
			<g>
				<g id="XMLID_135_">
					
						<radialGradient id="XMLID_41_" cx="-1181.077" cy="-6.45" r="70.0393" gradientTransform="matrix(1 0 0 -1 0 572)" gradientUnits="userSpaceOnUse">
						<stop  offset="0" style="stop-color:#F2B68B"/>
						<stop  offset="1" style="stop-color:#E5BD9F"/>
					</radialGradient>
					<path id="XMLID_3_" class="st51" d="M-1117.9,555.6c-4.2-5.8-11.2,0-11.2,0s0-3.3,0-6.6c0,0-3.9-43.2-51.9-43.2
						s-51.1,43.6-51.1,40.3c0-1-0.2,2.7-0.4,9.3c-1.7-0.8-6-6-10.8,0.2c-3.3,4.4-8.3,14.9-2.3,25.1c3.5,6,9.3,11.2,12.7,13.7
						c0.2,4.8,1.7,6.6,1.9,10.4c1.5,15.8,16,33.4,32,41.5c5.8,2.9,11.6,4.8,17.2,4.8c6.2,0,12.5-2.1,18.3-5.4
						c15.4-8.9,27.8-26.6,30.5-38.2c1.2-5.6,2.1-10,2.1-11.4l0,0c0,0,11-6.4,14.9-15.2C-1111.5,572-1114.6,560.2-1117.9,555.6z"/>
					
						<linearGradient id="XMLID_42_" gradientUnits="userSpaceOnUse" x1="-1195.655" y1="-34.4259" x2="-1169.6139" y2="-34.4259" gradientTransform="matrix(1 0 0 -1 0 576)">
						<stop  offset="0" style="stop-color:#E28C47"/>
						<stop  offset="3.763440e-02" style="stop-color:#E48D48"/>
						<stop  offset="1" style="stop-color:#E39E68"/>
					</linearGradient>
					<path id="XMLID_177_" class="st52" d="M-1195.6,608.3c0,0,1.9-1,3.9,0c4.4,2.1,10.8,2.7,14.9,0.8c3.9-1.7,5-2.1,7.1-1.2
						c0,0-2.1-0.2-3.9,0.8c-1.9,1.2-3.9,4.2-7.3,4.6C-1188.7,614.4-1190.6,607.5-1195.6,608.3z"/>
					<g id="XMLID_265_" class="st3">
						
							<radialGradient id="XMLID_43_" cx="-1961.3029" cy="319.5168" r="15.1776" gradientTransform="matrix(1.1889 6.027944e-02 2.088199e-02 -0.7643 1116.2188 962.9069)" gradientUnits="userSpaceOnUse">
							<stop  offset="0" style="stop-color:#E96565"/>
							<stop  offset="3.418660e-02" style="stop-color:#E96968;stop-opacity:0.9727"/>
							<stop  offset="0.4696" style="stop-color:#E79686;stop-opacity:0.6243"/>
							<stop  offset="0.8058" style="stop-color:#E5B298;stop-opacity:0.3554"/>
							<stop  offset="1" style="stop-color:#E5BD9F;stop-opacity:0.2"/>
						</radialGradient>
						<ellipse id="XMLID_176_" class="st53" cx="-1208.9" cy="600.4" rx="18.5" ry="12.3"/>
						
							<radialGradient id="XMLID_44_" cx="-1915.7622" cy="321.3772" r="15.1833" gradientTransform="matrix(1.1889 6.027944e-02 2.088199e-02 -0.7643 1116.2366 961.5839)" gradientUnits="userSpaceOnUse">
							<stop  offset="0" style="stop-color:#E96565"/>
							<stop  offset="3.418660e-02" style="stop-color:#E96968;stop-opacity:0.9727"/>
							<stop  offset="0.4696" style="stop-color:#E79686;stop-opacity:0.6243"/>
							<stop  offset="0.8058" style="stop-color:#E5B298;stop-opacity:0.3554"/>
							<stop  offset="1" style="stop-color:#E5BD9F;stop-opacity:0.2"/>
						</radialGradient>
						<ellipse id="XMLID_175_" class="st54" cx="-1154.7" cy="600.4" rx="18.5" ry="12.3"/>
					</g>
					<g id="XMLID_238_">
						
							<linearGradient id="XMLID_45_" gradientUnits="userSpaceOnUse" x1="-1181.95" y1="-48.9449" x2="-1181.95" y2="-44.0731" gradientTransform="matrix(1 0 0 -1 0 576)">
							<stop  offset="0" style="stop-color:#B12323"/>
							<stop  offset="1" style="stop-color:#E96565"/>
						</linearGradient>
						<path id="XMLID_157_" class="st55" d="M-1197.2,625c0,0,4.8-3.5,8.9-3.9c1.9-0.2,2.5,0.8,5.2,0.8c3.5,0,5-2.5,7.7-1.6
							c0.6,0.2,8.7,2.1,8.7,2.1L-1197.2,625z"/>
						
							<linearGradient id="XMLID_46_" gradientUnits="userSpaceOnUse" x1="-10550.5762" y1="2104.9426" x2="-10550.5762" y2="2117.2344" gradientTransform="matrix(-1 0 0 1 -11732.4258 -1482.7383)">
							<stop  offset="0" style="stop-color:#B12323"/>
							<stop  offset="1" style="stop-color:#E96565"/>
						</linearGradient>
						<path id="XMLID_156_" class="st56" d="M-1167.4,622.3c0,0-2.2,9.3-6.5,11.2c-4.8,2.1-13.3,2.3-18.5-1.2
							c-2.9-2.1-3.9-7.3-3.9-7.3L-1167.4,622.3z"/>
						<path id="XMLID_155_" class="st8" d="M-1200.7,623.3c0,0,1.7,1.7,6.2,1.7s24.6-2.1,24.6-2.1s0.6,0,4.9-1.5
							c0,0,0.6-0.2-4.9,2.5c-5.2,2.5-23.7,2-23.7,2S-1198.2,626.2-1200.7,623.3z"/>
						<path id="XMLID_154_" class="st8" d="M-1193.3,626c0,0,11.2,8.1,22.4-2.1L-1193.3,626z"/>
						<path id="XMLID_153_" class="st9" d="M-1192.9,625.3l22-2.2C-1170.9,623.1-1178.4,629.8-1192.9,625.3z"/>
					</g>
					<g id="XMLID_4_">
						<g id="XMLID_232_">
							
								<radialGradient id="XMLID_47_" cx="-1205.3688" cy="-5.9918" r="11.3317" gradientTransform="matrix(1 0 0 -1 0 576)" gradientUnits="userSpaceOnUse">
								<stop  offset="0" style="stop-color:#D3AF93"/>
								<stop  offset="1" style="stop-color:#F2B68B"/>
							</radialGradient>
							<path id="XMLID_151_" class="st57" d="M-1219.5,579.5c0,0,2.9,7.3,8.7,9.1c5.8,1.9,19.5,0,19.5,0s1-4.4-5-10.2
								C-1202,572.6-1215.5,573.5-1219.5,579.5z"/>
							<path id="XMLID_150_" class="st9" d="M-1217.6,578.4c0,0,1.5,8.1,7.1,9.6s18.5,0,18.5,0s0.4-5.2-9.1-9.6
								C-1210.7,574.1-1217.6,578.4-1217.6,578.4z"/>
							
								<radialGradient id="XMLID_49_" cx="-1202.8563" cy="-7.4782" r="5.4423" gradientTransform="matrix(1 0 0 -1 0 576)" gradientUnits="userSpaceOnUse">
								<stop  offset="0" style="stop-color:#29ABE2"/>
								<stop  offset="1" style="stop-color:#007E9A"/>
							</radialGradient>
							<path id="XMLID_149_" class="st58" d="M-1202.9,577.8c0.6,0,1,0,1.7,0.2c-0.8,0.4-1.7,1.5-1.7,2.5c0,1.5,1.2,2.7,2.7,2.7
								c1,0,2.1-0.6,2.5-1.7c0.2,0.4,0.2,1,0.2,1.7c0,3.1-2.3,5.6-5.4,5.6c-2.9,0-5.4-2.5-5.4-5.6
								C-1208.3,580.3-1205.8,577.8-1202.9,577.8z"/>
							<circle id="XMLID_148_" class="st12" cx="-1202.4" cy="583.2" r="2.3"/>
							<path id="XMLID_147_" class="st12" d="M-1191.2,584.9c0,0-4.2-6.2-13.9-8.3c-9.8-2.1-16.4,0-16.4,0l3.3,4.6
								c0,0,0.6-1.9,3.9-2.7C-1210.7,577.6-1199.5,577.2-1191.2,584.9z"/>
						</g>
						<g id="XMLID_226_" class="st31">
							
								<radialGradient id="XMLID_50_" cx="-10543.5762" cy="-5.9918" r="11.3283" gradientTransform="matrix(-1 0 0 -1 -11702.4414 576)" gradientUnits="userSpaceOnUse">
								<stop  offset="0" style="stop-color:#D3AF93"/>
								<stop  offset="1" style="stop-color:#F2B68B"/>
							</radialGradient>
							<path id="XMLID_146_" class="st59" d="M-1144.7,579.5c0,0-2.9,7.3-8.7,9.1c-5.8,1.9-19.5,0-19.5,0s-1-4.4,5-10.2
								C-1162.2,572.6-1148.7,573.5-1144.7,579.5z"/>
							<path id="XMLID_145_" class="st33" d="M-1146.6,578.4c0,0-1.5,8.1-7.1,9.6s-18.5,0-18.5,0s-0.4-5.2,9.1-9.6
								C-1153.4,574.1-1146.6,578.4-1146.6,578.4z"/>
							
								<radialGradient id="XMLID_51_" cx="-10541.0967" cy="-7.4782" r="5.4368" gradientTransform="matrix(-1 0 0 -1 -11702.4414 576)" gradientUnits="userSpaceOnUse">
								<stop  offset="0" style="stop-color:#29ABE2"/>
								<stop  offset="1" style="stop-color:#007E9A"/>
							</radialGradient>
							<path id="XMLID_144_" class="st60" d="M-1161.3,577.8c-0.6,0-1,0-1.7,0.2c0.8,0.4,1.7,1.5,1.7,2.5c0,1.5-1.2,2.7-2.7,2.7
								c-1,0-2.1-0.6-2.5-1.7c-0.2,0.4-0.2,1-0.2,1.7c0,3.1,2.3,5.6,5.4,5.6c2.9,0,5.4-2.5,5.4-5.6
								C-1155.9,580.3-1158.4,577.8-1161.3,577.8z"/>
							<circle id="XMLID_143_" class="st61" cx="-1161.7" cy="583.2" r="2.3"/>
							<path id="XMLID_142_" class="st61" d="M-1173,584.9c0,0,4.2-6.2,13.9-8.3c9.8-2.1,16.4,0,16.4,0l-3.3,4.6
								c0,0-0.6-1.9-3.9-2.7C-1153.4,577.6-1164.6,577.2-1173,584.9z"/>
						</g>
						<g id="XMLID_221_">
							<g id="XMLID_224_">
								<path id="XMLID_141_" class="st16" d="M-1193.9,570.5c0,0-1.5-4.4-7.5-5.4c-7.3-1.5-14.7,2.1-17,3.9
									C-1218.4,569.1-1205.6,561.6-1193.9,570.5z"/>
							</g>
							<g id="XMLID_222_">
								<path id="XMLID_140_" class="st16" d="M-1170,571c0,0,1.5-4.4,7.5-5.4c7.3-1.5,14.7,2.1,17,3.9
									C-1145.5,569.5-1158.4,562-1170,571z"/>
							</g>
						</g>
						<g id="XMLID_271_">
							
								<radialGradient id="XMLID_52_" cx="-1186.9515" cy="24.1644" r="16.5166" gradientTransform="matrix(0.9988 4.857015e-02 2.994641e-02 -0.6158 -21.3479 648.8994)" gradientUnits="userSpaceOnUse">
								<stop  offset="0" style="stop-color:#E96565"/>
								<stop  offset="3.418660e-02" style="stop-color:#E96968;stop-opacity:0.9727"/>
								<stop  offset="0.4696" style="stop-color:#E79686;stop-opacity:0.6243"/>
								<stop  offset="0.8058" style="stop-color:#E5B298;stop-opacity:0.3554"/>
								<stop  offset="1" style="stop-color:#E5BD9F;stop-opacity:0.2"/>
							</radialGradient>
							<path id="XMLID_181_" class="st62" d="M-1191.2,587.6c0,0-2.7-12.5-2.7-15.8c0-3.3-9.6-8.7-18.3-5.8
								c-8.7,2.9-8.9,10.8-8.9,10.8s16.2-1.5,22.2,2.5C-1192.9,583.2-1191.2,587.6-1191.2,587.6z"/>
							
								<radialGradient id="XMLID_53_" cx="-10519.2051" cy="-642.2138" r="16.5166" gradientTransform="matrix(-0.9988 4.857015e-02 -2.994641e-02 -0.6158 -11683.6172 691.8127)" gradientUnits="userSpaceOnUse">
								<stop  offset="0" style="stop-color:#E96565"/>
								<stop  offset="3.418660e-02" style="stop-color:#E96968;stop-opacity:0.9727"/>
								<stop  offset="0.4696" style="stop-color:#E79686;stop-opacity:0.6243"/>
								<stop  offset="0.8058" style="stop-color:#E5B298;stop-opacity:0.3554"/>
								<stop  offset="1" style="stop-color:#E5BD9F;stop-opacity:0.2"/>
							</radialGradient>
							<path id="XMLID_180_" class="st63" d="M-1172.7,587.6c0,0,2.7-12.5,2.7-15.8c0-3.3,9.6-8.7,18.3-5.8
								c8.7,2.9,8.9,10.8,8.9,10.8s-16.2-1.5-22.2,2.5C-1171.1,583.2-1172.7,587.6-1172.7,587.6z"/>
						</g>
					</g>
				</g>
				<g id="XMLID_2_">
					
						<radialGradient id="XMLID_54_" cx="-1081.541" cy="577.3478" r="136.9026" fx="-1114.9651" fy="504.6945" gradientTransform="matrix(0.9622 0 0 0.9628 -138.8001 26.3213)" gradientUnits="userSpaceOnUse">
						<stop  offset="0" style="stop-color:#C4862E"/>
						<stop  offset="0.1879" style="stop-color:#CE9938"/>
						<stop  offset="0.465" style="stop-color:#D9AD42"/>
						<stop  offset="0.7381" style="stop-color:#E0BA49"/>
						<stop  offset="1" style="stop-color:#E2BE4B"/>
					</radialGradient>
					
						<linearGradient id="XMLID_55_" gradientUnits="userSpaceOnUse" x1="-1273.895" y1="578.1918" x2="-1085.0227" y2="578.1918" gradientTransform="matrix(1 0 0 1 0 4)">
						<stop  offset="0" style="stop-color:#E3AF00"/>
						<stop  offset="0.465" style="stop-color:#D9AD42"/>
						<stop  offset="0.7381" style="stop-color:#E0BA49"/>
						<stop  offset="0.8721" style="stop-color:#CE9938"/>
						<stop  offset="1" style="stop-color:#E2BE4B"/>
					</linearGradient>
					<path id="XMLID_12_" class="st64" d="M-1089.3,641.9c-9.6-17.4,10.2-48.7,1-55.6c-9.1-7.2,4.7-21.5-7-32.2
						c-11.7-10.9-0.4-20.1-12.1-29.8c-11.7-9.6-5.3-23.3-38.4-41.4c-14.6-8.2-25.8-9.5-33.6-8.4l0,0c-7.8-1-19,0.2-33.8,8.4
						c-33.1,18-26.5,31.7-38.4,41.4c-11.9,9.6-0.4,19-12.1,29.8c-11.7,10.9,2.2,25.2-7,32.2c-9.3,7.2,10.6,38.4,1,55.6
						c-9.6,17.7,0.6,39.7,18,45.6c8.8,3.1,30.4,3.1,49.8,2.2c1.1-2.7,7.4-18.8,10-43.5c-20.5-7.2-35.7-32.5-36.8-62.9
						c0.7-6.7,1.9-13.3,4.7-17.4c7.8-11.7,19.9-9.5,27.7-30.8c0,0,0.6,20.4,22.3,24.1c21.6,3.8,29.4-2.8,39.9,13.5
						c1.9,2.8,3.2,6.1,4,9.1c-0.6,31-16.2,56.8-37.2,64.2c2.5,24.7,8.9,40.9,10,43.5c19.5,0.7,41,0.7,49.8-2.2
						C-1089.9,681.7-1079.5,659.5-1089.3,641.9z"/>
					
						<radialGradient id="XMLID_56_" cx="-1078.5835" cy="550.8027" r="112.5631" gradientTransform="matrix(0.9622 0 0 0.9628 -138.8001 26.3213)" gradientUnits="userSpaceOnUse">
						<stop  offset="0" style="stop-color:#C4862E"/>
						<stop  offset="0.4068" style="stop-color:#CE9738"/>
						<stop  offset="1" style="stop-color:#E1B84A"/>
						<stop  offset="1" style="stop-color:#E2BE4B"/>
					</radialGradient>
					<path id="XMLID_11_" class="st65" d="M-1095.9,554.2c-11.7-10.9-0.4-19.9-12.1-29.6c-11.7-9.5-5.3-23.2-38.4-41
						c-14.6-8-25.8-9.3-33.8-8.2l0,0c-7.8-1-19,0.2-33.8,8.2c-33.1,17.9-26.5,31.4-38.4,41c-11.7,9.5-0.4,18.8-12.1,29.6
						c-4.2,27.1,3.5,38.5,35.7,22.4c0.7-4.9,1.9-7.2,4-10.5c7.8-11.7,19.9-9.3,27.7-30.4c0,0,0.6,20.4,22.3,24
						c21.6,3.8,29.4-2.8,39.9,13.3c1.9,2.8,3.8,7.2,4.6,10.5C-1130,584.6-1085.7,563.7-1095.9,554.2z"/>
					
						<radialGradient id="XMLID_57_" cx="-1076.4098" cy="508.9695" r="94.7541" fx="-1076.4177" fy="474.4083" gradientTransform="matrix(0.9622 0 0 0.9628 -138.8001 26.3213)" gradientUnits="userSpaceOnUse">
						<stop  offset="0" style="stop-color:#C4862E"/>
						<stop  offset="0" style="stop-color:#C68830"/>
						<stop  offset="0" style="stop-color:#D09E2A"/>
						<stop  offset="0.6685" style="stop-color:#DBAE3E"/>
						<stop  offset="1" style="stop-color:#E1B84A"/>
						<stop  offset="1" style="stop-color:#E2BE4B"/>
					</radialGradient>
					<path id="XMLID_7_" class="st66" d="M-1087.4,580.3c-3.8-7.2,2.3-23-8-31.9c-11.7-10-0.4-18.8-12.1-27.7
						c-11.7-8.9-5.3-21.6-38.4-38.5c-14.6-7.4-25.8-8.8-33.8-7.8l0,0c-7.8-1-19,0.2-33.8,7.8c-33.1,16.7-26.5,29.4-38.4,38.5
						c-11.7,8.9-0.4,17.7-12.1,27.7s2.2,23.3-7,30.1c-0.7,0.6-1.4,1.4-1.7,2.2c16.3,1.9,32.2,0.7,44.1-8.9c0.7-4.7,2.1-8.9,4.3-12
						c7.8-11,19.9-8.8,27.7-28.7c0,0,0.6,19,22.3,22.6c21.6,3.6,29.4-2.7,39.9,12.5c1.9,2.7,2.8,5.7,3.8,8.5c0,1.1,0.2,2.1,0.2,3.5
						C-1117.2,578.9-1099.4,570.5-1087.4,580.3z"/>
				</g>
				<g id="XMLID_173_">
					<g id="XMLID_183_">
						
							<radialGradient id="XMLID_58_" cx="-1341.677" cy="-65.4941" r="53.6562" gradientTransform="matrix(1.0356 0 0 -1.0227 208.7947 585.5876)" gradientUnits="userSpaceOnUse">
							<stop  offset="0" style="stop-color:#F2B68B"/>
							<stop  offset="1" style="stop-color:#E5BD9F"/>
						</radialGradient>
						<path id="XMLID_188_" class="st67" d="M-1109.1,691.5c-1.2-10.4-21.1-16.3-40.4-18.8c-19.1-2.5-27-1.7-36.3-11.8
							c-4.4-4.8-6.2-10.8-7.1-15.8c-2.1-0.6-3.9-1.7-5.8-2.7c0.6,7.1,1.2,17-0.8,19.3c-3.5,3.5-43.8,13.5-50.5,20.6
							c-6.6,7.1-4.2,27.6-4.2,27.6h69.4h7.7h66.2C-1110.7,707.8-1107.8,700.4-1109.1,691.5z"/>
						
							<radialGradient id="XMLID_59_" cx="-1342.3429" cy="-65.4836" r="53.0052" gradientTransform="matrix(1.0356 0 0 -1.0227 208.7947 585.5876)" gradientUnits="userSpaceOnUse">
							<stop  offset="0" style="stop-color:#F2B68B"/>
							<stop  offset="1" style="stop-color:#E5BD9F"/>
						</radialGradient>
						<path id="XMLID_246_" class="st68" d="M-1158.6,663.8c3.7,1.9,40.1,12.3,46.7,18.9c3.5,3.5,4.6,11,4.6,17.4
							c0-6.2-1-13.9-4.6-17.6c-6.6-7.1-46.9-17-50.5-20.6c-1-1-1.5-3.5-1.5-6.9l0,0C-1163.8,662.7-1162.4,661.7-1158.6,663.8z"/>
						
							<radialGradient id="XMLID_60_" cx="-1270.8524" cy="-112.4855" r="0.2137" gradientTransform="matrix(1.0356 0 0 -1.0227 208.7947 585.5876)" gradientUnits="userSpaceOnUse">
							<stop  offset="0" style="stop-color:#F2B68B"/>
							<stop  offset="1" style="stop-color:#E5BD9F"/>
						</radialGradient>
						<path id="XMLID_247_" class="st69" d="M-1107.3,700.3c0,0.2,0,0.4,0,0.6C-1107.3,700.7-1107.3,700.5-1107.3,700.3z"/>
						
							<radialGradient id="XMLID_61_" cx="-1342.4598" cy="-65.4836" r="53.0612" gradientTransform="matrix(1.0356 0 0 -1.0227 208.7947 585.5876)" gradientUnits="userSpaceOnUse">
							<stop  offset="0" style="stop-color:#F2B68B"/>
							<stop  offset="1" style="stop-color:#E5BD9F"/>
						</radialGradient>
						<path id="XMLID_248_" class="st70" d="M-1163.2,641.8c0,0-0.2,0-0.2,0.2c0,1.2-0.2,2.5-0.2,3.7
							C-1163.4,644.3-1163.4,643-1163.2,641.8z"/>
						
							<radialGradient id="XMLID_101_" cx="-1107.3" cy="-112.0378" r="8.492501e-02" gradientTransform="matrix(1 0 0 -1.0227 0 585.5876)" gradientUnits="userSpaceOnUse">
							<stop  offset="0" style="stop-color:#F2B68B"/>
							<stop  offset="1" style="stop-color:#E5BD9F"/>
						</radialGradient>
						<path id="XMLID_252_" class="st71" d="M-1107.3,699.9L-1107.3,699.9C-1107.3,700.1-1107.3,700.1-1107.3,699.9z"/>
						
							<radialGradient id="XMLID_102_" cx="-1171.5842" cy="-84.6049" r="52.3954" gradientTransform="matrix(1 0 0 -1.0227 0 585.5876)" gradientUnits="userSpaceOnUse">
							<stop  offset="0" style="stop-color:#F2B68B"/>
							<stop  offset="1" style="stop-color:#E5BD9F"/>
						</radialGradient>
						<path id="XMLID_254_" class="st72" d="M-1107.3,700.7c0,5-0.4,9.1-0.4,9.1h-3.3l0,0h3.3
							C-1107.8,709.9-1107.3,705.9-1107.3,700.7z"/>
						
							<radialGradient id="XMLID_110_" cx="-1171.5842" cy="-84.015" r="52.8027" gradientTransform="matrix(1 0 0 -1.0227 0 585.5876)" gradientUnits="userSpaceOnUse">
							<stop  offset="0" style="stop-color:#F2B68B"/>
							<stop  offset="1" style="stop-color:#E5BD9F"/>
						</radialGradient>
						<path id="XMLID_255_" class="st73" d="M-1163.8,654.9c0-2.9,0.2-6.2,0.4-9.3C-1163.8,648.8-1164,652.2-1163.8,654.9z"/>
						
							<radialGradient id="XMLID_117_" cx="-1342.4559" cy="-65.493" r="53.0772" gradientTransform="matrix(1.0356 0 0 -1.0227 208.7947 585.5876)" gradientUnits="userSpaceOnUse">
							<stop  offset="0" style="stop-color:#F2B68B"/>
							<stop  offset="1" style="stop-color:#E5BD9F"/>
						</radialGradient>
						<path id="XMLID_257_" class="st74" d="M-1107.3,700.9c0-0.2,0-0.4,0-0.6v-0.2c-0.2-6.4-1-14.1-4.6-17.4
							c-6.6-6.6-43.2-16.8-46.7-18.9c-3.7-1.9-5.2-0.8-5.2-8.7l0,0c0-2.9,0-6.2,0.2-9.3c0-1.2,0-2.7,0.2-3.7
							c-5.8,3.3-11.8,5.4-18.1,5.4c-3.7,0-7.5-0.8-11.2-2.1c0.8,5,2.7,11,7.1,15.8c9.3,10.2,17.2,9.3,36.3,11.6
							c19.1,2.5,37,8.7,38.4,19.1c1,8.9,0.4,16,0,18.1h3.3C-1107.8,709.9-1107.3,705.9-1107.3,700.9z"/>
						<path id="XMLID_256_" class="st75" d="M-1107.3,700.9c0-0.2,0-0.4,0-0.6v-0.2c-0.2-6.4-1-14.1-4.6-17.4
							c-6.6-6.6-43.2-16.8-46.7-18.9c-3.7-1.9-5.2-0.8-5.2-8.7l0,0c0-2.9,0-6.2,0.2-9.3c0-1.2,0-1.7,0.2-2.7
							c-5.8,3.3-11.8,4.4-18.1,4.4c-3.7,0-7.5-0.8-11.2-2.1c0.8,5,2.7,11,7.1,15.8c9.3,10.2,17.2,9.3,36.3,11.6
							c19.1,2.5,37,8.7,38.4,19.1c1,8.9,0.4,16,0,18.1h3.3C-1107.8,709.9-1107.3,705.9-1107.3,700.9z"/>
					</g>
					<g id="XMLID_174_">
						<path id="XMLID_244_" class="st12" d="M-1234,674.6l11.4-3.9c0,0,49.8,13.9,82-0.6l11.8,2.7c0,0-3.7,29.9,0,37.6h-109
							C-1237.7,710.3-1228.6,691.6-1234,674.6z"/>
						<path id="XMLID_179_" class="st9" d="M-1135.6,671.3l-21.4-7.5l-20.1,12.7c0,0,3.7,10.4,12.9,14.5
							C-1155.1,695.1-1135.6,671.3-1135.6,671.3z"/>
						<path id="XMLID_178_" class="st9" d="M-1224.9,671.3l21.4-7.5l20.1,12.7c0,0-3.7,10.4-12.9,14.5
							C-1205.3,695.1-1224.9,671.3-1224.9,671.3z"/>
					</g>
				</g>
			</g>
		</g>
	</g>
	<path class="st61" d="M-1144.2,581.6"/>
	<path class="st61" d="M-1160.4,581.6"/>
	
		<radialGradient id="SVGID_1_" cx="-2711.7749" cy="819.2757" r="16.3364" gradientTransform="matrix(-0.9988 4.857015e-02 2.994641e-02 0.6158 -3890.5176 203.7086)" gradientUnits="userSpaceOnUse">
		<stop  offset="0" style="stop-color:#E96565"/>
		<stop  offset="3.418660e-02" style="stop-color:#E96968;stop-opacity:0.9727"/>
		<stop  offset="0.4696" style="stop-color:#E79686;stop-opacity:0.6243"/>
		<stop  offset="0.8058" style="stop-color:#E5B298;stop-opacity:0.3554"/>
		<stop  offset="1" style="stop-color:#E5BD9F;stop-opacity:0.2"/>
	</radialGradient>
	<path class="st76" d="M-1172.3,587.6c0,0,2.7-12.3,2.7-15.6c0-3.3,9.4-8.6,18-5.7s8.9,10.6,8.9,10.6s-16-1.4-22,2.5
		C-1170.7,583.3-1172.3,587.6-1172.3,587.6z"/>
	<g class="st38">
		<path class="st16" d="M-1169.6,571.2c0,0,1.5-4.2,7.5-5.4c7.3-1.5,14.5,2,16.8,3.9C-1145.3,569.7-1158.2,562.3-1169.6,571.2z"/>
	</g>
	<path class="st61" d="M-1144,578.2"/>
	<path class="st61" d="M-1172.8,587.6"/>
	
		<radialGradient id="SVGID_2_" cx="-1160.0793" cy="582.2" r="6.1357" gradientTransform="matrix(1 0 0 1 0 4)" gradientUnits="userSpaceOnUse">
		<stop  offset="0" style="stop-color:#D3AF93"/>
		<stop  offset="1" style="stop-color:#F2B68B"/>
	</radialGradient>
	<path class="st77" d="M-1168.6,587.8c0,0,11.3-5.5,17.1-2.1L-1168.6,587.8z"/>
	<path class="st61" d="M-1171.9,586.6c0,0,2.9-7.3,12.6-9.4s16.2,0,16.2,0l-3.4,4.6c0,0-0.5-2.4-4-2.7
		C-1160.1,578.4-1163.6,579.1-1171.9,586.6z"/>
</g>
</svg>
