<?xml version="1.0" encoding="utf-8"?>
<!-- Generator: Adobe Illustrator 19.0.0, SVG Export Plug-In . SVG Version: 6.00 Build 0)  -->
<svg version="1.1" xmlns="http://www.w3.org/2000/svg" xmlns:xlink="http://www.w3.org/1999/xlink" x="0px" y="0px"
	 viewBox="-624 376 250 250" style="enable-background:new -624 376 250 250;" xml:space="preserve">
<style type="text/css">
	.st0{fill:url(#XMLID_5_);}
	.st1{fill:url(#XMLID_6_);}
	.st2{opacity:0.7;}
	.st3{fill:url(#XMLID_8_);}
	.st4{fill:url(#XMLID_9_);}
	.st5{display:none;}
	.st6{display:inline;fill:url(#XMLID_13_);}
	.st7{display:inline;fill:url(#XMLID_14_);}
	.st8{display:inline;fill:#800A0A;}
	.st9{display:inline;fill:#FFFFFF;stroke:#FFFFFF;stroke-miterlimit:10;}
	.st10{opacity:0.3;fill:url(#XMLID_15_);enable-background:new    ;}
	.st11{fill:#FFFFFF;}
	.st12{fill:url(#XMLID_16_);}
	.st13{fill:#1B334D;}
	.st14{opacity:0.3;fill:url(#XMLID_17_);enable-background:new    ;}
	.st15{display:none;fill:#FFFFFF;}
	.st16{display:none;fill:url(#XMLID_18_);}
	.st17{display:none;fill:#1B334D;}
	.st18{fill:#8E6109;}
	.st19{fill:url(#XMLID_19_);}
	.st20{fill:url(#XMLID_20_);}
	.st21{fill:url(#XMLID_21_);}
	.st22{fill:url(#XMLID_22_);}
	.st23{fill:url(#XMLID_23_);}
	.st24{fill:url(#XMLID_24_);}
	.st25{fill:url(#XMLID_25_);}
	.st26{fill:url(#XMLID_26_);}
	.st27{fill:url(#XMLID_30_);}
	.st28{opacity:0.2;fill:url(#XMLID_31_);enable-background:new    ;}
	.st29{opacity:0.2;fill:url(#XMLID_32_);enable-background:new    ;}
	.st30{opacity:0.2;fill:url(#XMLID_33_);enable-background:new    ;}
	.st31{fill:url(#XMLID_34_);}
	.st32{opacity:0.63;fill:#EFA874;enable-background:new    ;}
	.st33{fill:url(#XMLID_35_);}
	.st34{fill:url(#XMLID_36_);}
	.st35{fill:#800A0A;}
	.st36{opacity:0.15;fill:#5B3C06;enable-background:new    ;}
</style>
<g id="Layer_1">
	<g id="Layer_2_2_">
		<g id="Layer_1_3_">
			<g id="XMLID_10_">
				<g>
					<g id="XMLID_135_">
						
							<radialGradient id="XMLID_5_" cx="-500.618" cy="513.95" r="70.0393" gradientTransform="matrix(1 0 0 -1 0 1008)" gradientUnits="userSpaceOnUse">
							<stop  offset="0" style="stop-color:#F2B68B"/>
							<stop  offset="1" style="stop-color:#E5BD9F"/>
						</radialGradient>
						<path id="XMLID_3_" class="st0" d="M-437.4,471.2c-4.2-5.8-11.2,0-11.2,0s0-3.3,0-6.6c0,0-3.9-43.2-51.9-43.2
							s-51.1,43.6-51.1,40.3c0-1-0.2,2.7-0.4,9.3c-1.7-0.8-6-6-10.8,0.2c-3.3,4.4-8.3,14.9-2.3,25.1c3.5,6,9.3,11.2,12.7,13.7
							c0.2,4.8,1.7,6.6,1.9,10.4c1.5,15.8,16,33.4,32,41.5c5.8,2.9,11.6,4.8,17.2,4.8c6.2,0,12.5-2.1,18.3-5.4
							c15.4-8.9,27.8-26.6,30.5-38.2c1.2-5.6,2.1-10,2.1-11.4l0,0c0,0,11-6.4,14.9-15.2C-431,487.6-434.1,475.8-437.4,471.2z"/>
						
							<linearGradient id="XMLID_6_" gradientUnits="userSpaceOnUse" x1="-515.2398" y1="485.9741" x2="-489.1987" y2="485.9741" gradientTransform="matrix(1 0 0 -1 0 1012)">
							<stop  offset="0" style="stop-color:#E28C47"/>
							<stop  offset="3.763440e-02" style="stop-color:#E48D48"/>
							<stop  offset="1" style="stop-color:#E39E68"/>
						</linearGradient>
						<path id="XMLID_177_" class="st1" d="M-515.1,523.9c0,0,1.9-1,3.9,0c4.4,2.1,10.8,2.7,14.9,0.8c3.9-1.7,5-2.1,7.1-1.2
							c0,0-2.1-0.2-3.9,0.8c-1.9,1.2-3.9,4.2-7.3,4.6C-508.2,530-510.1,523.1-515.1,523.9z"/>
						<g id="XMLID_265_" class="st2">
							
								<radialGradient id="XMLID_8_" cx="-1251.4271" cy="851.6389" r="15.1763" gradientTransform="matrix(1.1889 6.027944e-02 2.088199e-02 -0.7643 941.5542 1242.3943)" gradientUnits="userSpaceOnUse">
								<stop  offset="0" style="stop-color:#E96565"/>
								<stop  offset="3.418660e-02" style="stop-color:#E96968;stop-opacity:0.9727"/>
								<stop  offset="0.4696" style="stop-color:#E79686;stop-opacity:0.6243"/>
								<stop  offset="0.8058" style="stop-color:#E5B298;stop-opacity:0.3554"/>
								<stop  offset="1" style="stop-color:#E5BD9F;stop-opacity:0.2"/>
							</radialGradient>
							<ellipse id="XMLID_176_" class="st3" cx="-528.4" cy="516" rx="18.5" ry="12.3"/>
							
								<radialGradient id="XMLID_9_" cx="-1205.8866" cy="853.4993" r="15.182" gradientTransform="matrix(1.1889 6.027944e-02 2.088199e-02 -0.7643 941.5722 1241.0712)" gradientUnits="userSpaceOnUse">
								<stop  offset="0" style="stop-color:#E96565"/>
								<stop  offset="3.418660e-02" style="stop-color:#E96968;stop-opacity:0.9727"/>
								<stop  offset="0.4696" style="stop-color:#E79686;stop-opacity:0.6243"/>
								<stop  offset="0.8058" style="stop-color:#E5B298;stop-opacity:0.3554"/>
								<stop  offset="1" style="stop-color:#E5BD9F;stop-opacity:0.2"/>
							</radialGradient>
							<ellipse id="XMLID_175_" class="st4" cx="-474.2" cy="516" rx="18.5" ry="12.3"/>
						</g>
						<g id="XMLID_238_" class="st5">
							
								<linearGradient id="XMLID_13_" gradientUnits="userSpaceOnUse" x1="-501.4911" y1="471.466" x2="-501.4911" y2="475.589" gradientTransform="matrix(1 0 0 -1 0 1012)">
								<stop  offset="0" style="stop-color:#B12323"/>
								<stop  offset="1" style="stop-color:#E96565"/>
							</linearGradient>
							<path id="XMLID_157_" class="st6" d="M-516.7,540.6c0,0,4.8-3.5,8.9-3.9c1.9-0.2,2.5,0.8,5.2,0.8c3.5,0,4.6-1.7,7.3-0.8
								c0.6,0.2,9.1,3.9,9.1,3.9H-516.7z"/>
							
								<linearGradient id="XMLID_14_" gradientUnits="userSpaceOnUse" x1="-9478.6846" y1="2467.2561" x2="-9478.6846" y2="2476.9275" gradientTransform="matrix(-1 0 0 1 -9980.4258 -1926.7383)">
								<stop  offset="0" style="stop-color:#B12323"/>
								<stop  offset="1" style="stop-color:#E96565"/>
							</linearGradient>
							<path id="XMLID_156_" class="st7" d="M-487.5,540.6c0,0-1.7,6.6-6,8.5c-4.8,2.1-13.3,2.3-18.5-1.2c-2.9-2.1-3.9-7.3-3.9-7.3
								H-487.5z"/>
							<path id="XMLID_155_" class="st8" d="M-519.9,538.9c0,0,1.7,1.7,6.2,1.7s25.3,0,25.3,0s2.1-0.6,4.6-1.7c0,0-1.9,2.7-7.7,2.7
								c-5.8,0-21.4,0-21.4,0S-517.4,541.8-519.9,538.9z"/>
							<path id="XMLID_154_" class="st8" d="M-512.8,541.6c0,0,10.2,10.2,21.4,0H-512.8z"/>
							<path id="XMLID_153_" class="st9" d="M-511.1,541h19.3C-491.8,541-504.7,543.5-511.1,541z"/>
						</g>
						<g id="XMLID_4_">
							<g id="XMLID_232_">
								
									<radialGradient id="XMLID_15_" cx="-524.9509" cy="514.4312" r="11.33" gradientTransform="matrix(1 0 0 -1 0 1012)" gradientUnits="userSpaceOnUse">
									<stop  offset="0" style="stop-color:#D3AF93"/>
									<stop  offset="1" style="stop-color:#F2B68B"/>
								</radialGradient>
								<path id="XMLID_151_" class="st10" d="M-539,495.1c0,0,2.9,7.3,8.7,9.1c5.8,1.9,19.5,0,19.5,0s1-4.4-5-10.2
									C-521.5,488.2-535,489.1-539,495.1z"/>
								<path id="XMLID_150_" class="st11" d="M-537.1,494c0,0,1.5,8.1,7.1,9.6c5.6,1.5,18.5,0,18.5,0s0.4-5.2-9.1-9.6
									C-530.2,489.7-537.1,494-537.1,494z"/>
								
									<radialGradient id="XMLID_16_" cx="-522.4411" cy="512.9447" r="5.4423" gradientTransform="matrix(1 0 0 -1 0 1012)" gradientUnits="userSpaceOnUse">
									<stop  offset="0" style="stop-color:#29ABE2"/>
									<stop  offset="1" style="stop-color:#007E9A"/>
								</radialGradient>
								<path id="XMLID_149_" class="st12" d="M-522.4,493.4c0.6,0,1,0,1.7,0.2c-0.8,0.4-1.7,1.5-1.7,2.5c0,1.5,1.2,2.7,2.7,2.7
									c1,0,2.1-0.6,2.5-1.7c0.2,0.4,0.2,1,0.2,1.7c0,3.1-2.3,5.6-5.4,5.6c-2.9,0-5.4-2.5-5.4-5.6
									C-527.8,495.9-525.3,493.4-522.4,493.4z"/>
								<circle id="XMLID_148_" class="st13" cx="-521.9" cy="498.8" r="2.3"/>
								<path id="XMLID_147_" class="st13" d="M-510.7,500.5c0,0-4.2-6.2-13.9-8.3c-9.8-2.1-16.4,0-16.4,0l3.3,4.6
									c0,0,0.6-1.9,3.9-2.7C-530.2,493.2-519,492.8-510.7,500.5z"/>
							</g>
							<g id="XMLID_226_">
								
									<radialGradient id="XMLID_17_" cx="-9471.9912" cy="514.4312" r="11.3283" gradientTransform="matrix(-1 0 0 -1 -9950.4414 1012)" gradientUnits="userSpaceOnUse">
									<stop  offset="0" style="stop-color:#D3AF93"/>
									<stop  offset="1" style="stop-color:#F2B68B"/>
								</radialGradient>
								<path id="XMLID_146_" class="st14" d="M-464.2,495.1c0,0-2.9,7.3-8.7,9.1c-5.8,1.9-19.5,0-19.5,0s-1-4.4,5-10.2
									C-481.7,488.2-468.2,489.1-464.2,495.1z"/>
								<path id="XMLID_145_" class="st15" d="M-466.1,494c0,0-1.5,8.1-7.1,9.6s-18.5,0-18.5,0s-0.4-5.2,9.1-9.6
									C-472.9,489.7-466.1,494-466.1,494z"/>
								
									<radialGradient id="XMLID_18_" cx="-9469.5117" cy="512.9447" r="5.4368" gradientTransform="matrix(-1 0 0 -1 -9950.4414 1012)" gradientUnits="userSpaceOnUse">
									<stop  offset="0" style="stop-color:#29ABE2"/>
									<stop  offset="1" style="stop-color:#007E9A"/>
								</radialGradient>
								<path id="XMLID_144_" class="st16" d="M-480.8,493.4c-0.6,0-1,0-1.7,0.2c0.8,0.4,1.7,1.5,1.7,2.5c0,1.5-1.2,2.7-2.7,2.7
									c-1,0-2.1-0.6-2.5-1.7c-0.2,0.4-0.2,1-0.2,1.7c0,3.1,2.3,5.6,5.4,5.6c2.9,0,5.4-2.5,5.4-5.6
									C-475.4,495.9-477.9,493.4-480.8,493.4z"/>
								<circle id="XMLID_143_" class="st17" cx="-481.2" cy="498.8" r="2.3"/>
								<path id="XMLID_142_" class="st13" d="M-492.5,500.5c0,0,4.2-6.2,13.9-8.3c9.8-2.1,16.4,0,16.4,0l-3.3,4.6
									c0,0-0.6-1.9-3.9-2.7C-472.9,493.2-484.1,492.8-492.5,500.5z"/>
							</g>
							<g id="XMLID_221_">
								<g id="XMLID_224_">
									<path id="XMLID_141_" class="st18" d="M-513.4,486.1c0,0-1.5-4.4-7.5-5.4c-7.3-1.5-14.7,2.1-17,3.9
										C-537.9,484.7-525.1,477.2-513.4,486.1z"/>
								</g>
								<g id="XMLID_222_">
									<path id="XMLID_140_" class="st18" d="M-489.5,486.6c0,0,1.5-4.4,7.5-5.4c7.3-1.5,14.7,2.1,17,3.9
										C-465,485.1-477.9,477.6-489.5,486.6z"/>
								</g>
							</g>
							<g id="XMLID_271_">
								
									<radialGradient id="XMLID_19_" cx="-510.2157" cy="579.0468" r="16.5166" gradientTransform="matrix(0.9988 4.857015e-02 2.994641e-02 -0.6158 -33.4731 873.304)" gradientUnits="userSpaceOnUse">
									<stop  offset="0" style="stop-color:#E96565"/>
									<stop  offset="3.418660e-02" style="stop-color:#E96968;stop-opacity:0.9727"/>
									<stop  offset="0.4696" style="stop-color:#E79686;stop-opacity:0.6243"/>
									<stop  offset="0.8058" style="stop-color:#E5B298;stop-opacity:0.3554"/>
									<stop  offset="1" style="stop-color:#E5BD9F;stop-opacity:0.2"/>
								</radialGradient>
								<path id="XMLID_181_" class="st19" d="M-510.7,503.2c0,0-2.7-12.5-2.7-15.8s-9.6-8.7-18.3-5.8c-8.7,2.9-8.9,10.8-8.9,10.8
									s16.2-1.5,22.2,2.5C-512.4,498.8-510.7,503.2-510.7,503.2z"/>
								
									<radialGradient id="XMLID_20_" cx="-9451.7549" cy="-56.5144" r="16.5166" gradientTransform="matrix(-0.9988 4.857015e-02 -2.994641e-02 -0.6158 -9919.4922 916.2173)" gradientUnits="userSpaceOnUse">
									<stop  offset="0" style="stop-color:#E96565"/>
									<stop  offset="3.418660e-02" style="stop-color:#E96968;stop-opacity:0.9727"/>
									<stop  offset="0.4696" style="stop-color:#E79686;stop-opacity:0.6243"/>
									<stop  offset="0.8058" style="stop-color:#E5B298;stop-opacity:0.3554"/>
									<stop  offset="1" style="stop-color:#E5BD9F;stop-opacity:0.2"/>
								</radialGradient>
								<path id="XMLID_180_" class="st20" d="M-492.2,503.2c0,0,2.7-12.5,2.7-15.8s9.6-8.7,18.3-5.8c8.7,2.9,8.9,10.8,8.9,10.8
									s-16.2-1.5-22.2,2.5C-490.6,498.8-492.2,503.2-492.2,503.2z"/>
							</g>
						</g>
					</g>
					<g id="XMLID_2_">
						
							<radialGradient id="XMLID_21_" cx="-408.764" cy="933.8414" r="136.8916" fx="-442.1853" fy="861.1938" gradientTransform="matrix(0.9622 0 0 0.9628 -105.6873 -401.3107)" gradientUnits="userSpaceOnUse">
							<stop  offset="0" style="stop-color:#C4862E"/>
							<stop  offset="0.1879" style="stop-color:#CE9938"/>
							<stop  offset="0.465" style="stop-color:#D9AD42"/>
							<stop  offset="0.7381" style="stop-color:#E0BA49"/>
							<stop  offset="1" style="stop-color:#E2BE4B"/>
						</radialGradient>
						<path id="XMLID_12_" class="st21" d="M-408.8,557.5c-9.6-17.4,10.2-48.7,1-55.6c-9.1-7.2,4.7-21.5-7-32.2
							c-11.7-10.9-0.4-20.1-12.1-29.8c-11.7-9.6-5.3-23.3-38.4-41.4c-14.6-8.2-25.8-9.5-33.6-8.4l0,0c-7.8-1-19,0.2-33.8,8.4
							c-33.1,18-26.5,31.7-38.4,41.4c-11.9,9.6-0.4,19-12.1,29.8c-11.7,10.9,2.2,25.2-7,32.2c-9.3,7.2,10.6,38.4,1,55.6
							c-9.6,17.7,0.6,39.7,18,45.6c8.8,3.1,30.4,3.1,49.8,2.2c1.1-2.7,7.4-18.8,10-43.5c-20.5-7.2-35.7-32.5-36.8-62.9
							c0.7-6.7,1.9-13.3,4.7-17.4c7.8-11.7,19.9-9.5,27.7-30.8c0,0,0.6,20.4,22.3,24.1c21.6,3.8,29.4-2.8,39.9,13.5
							c1.9,2.8,3.2,6.1,4,9.1c-0.6,31-16.2,56.8-37.2,64.2c2.5,24.7,8.9,40.9,10,43.5c19.5,0.7,41,0.7,49.8-2.2
							C-409.4,597.3-399,575.1-408.8,557.5z"/>
						
							<radialGradient id="XMLID_22_" cx="-405.8519" cy="907.2726" r="112.5631" gradientTransform="matrix(0.9622 0 0 0.9628 -105.6873 -401.3107)" gradientUnits="userSpaceOnUse">
							<stop  offset="0" style="stop-color:#C4862E"/>
							<stop  offset="0.4068" style="stop-color:#CE9738"/>
							<stop  offset="1" style="stop-color:#E1B84A"/>
							<stop  offset="1" style="stop-color:#E2BE4B"/>
						</radialGradient>
						<path id="XMLID_11_" class="st22" d="M-415.4,469.8c-11.7-10.9-0.4-19.9-12.1-29.6c-11.7-9.5-5.3-23.2-38.4-41
							c-14.6-8-25.8-9.3-33.8-8.2l0,0c-7.8-1-19,0.2-33.8,8.2c-33.1,17.9-26.5,31.4-38.4,41c-11.7,9.5-0.4,18.8-12.1,29.6
							c-4.2,27.1,3.5,38.5,35.7,22.4c0.7-4.9,1.9-7.2,4-10.5c7.8-11.7,19.9-9.3,27.7-30.4c0,0,0.6,20.4,22.3,24
							c21.6,3.8,29.4-2.8,39.9,13.3c1.9,2.8,3.8,7.2,4.6,10.5C-449.5,500.2-405.2,479.3-415.4,469.8z"/>
						
							<radialGradient id="XMLID_23_" cx="-403.9615" cy="865.4394" r="94.5852" fx="-403.9696" fy="830.9398" gradientTransform="matrix(0.9622 0 0 0.9628 -105.6873 -401.3107)" gradientUnits="userSpaceOnUse">
							<stop  offset="0" style="stop-color:#C4862E"/>
							<stop  offset="0" style="stop-color:#C68830"/>
							<stop  offset="0" style="stop-color:#D09E2A"/>
							<stop  offset="0.6685" style="stop-color:#DBAE3E"/>
							<stop  offset="1" style="stop-color:#E1B84A"/>
							<stop  offset="1" style="stop-color:#E2BE4B"/>
						</radialGradient>
						<path id="XMLID_7_" class="st23" d="M-407.5,493.4c-3.8-7.2,2.9-20.5-7.4-29.4c-11.7-10-0.4-18.8-12.1-27.7
							c-11.7-8.9-5.3-21.6-38.4-38.5c-14.6-7.4-25.8-8.8-33.8-7.8l0,0c-7.8-1-19,0.2-33.8,7.8c-33.1,16.7-26.5,29.4-38.4,38.5
							c-11.7,8.9-0.4,17.7-12.1,27.7s2.2,23.3-7,30.1c-0.7,0.6-1.4,1.4-1.7,2.2c16.3,1.9,32.2,0.7,44.1-8.9c0.7-4.7,2.1-8.9,4.3-12
							c7.8-11,19.9-8.8,27.7-28.7c0,0,0.6,19,22.3,22.6c21.6,3.6,29.4-2.7,39.9,12.5c1.9,2.7,2.8,5.7,3.8,8.5c0,1.1,0.2,2.1,0.2,3.5
							C-435,503.2-425.5,486.6-407.5,493.4z"/>
					</g>
					<g id="XMLID_173_">
						<g id="XMLID_183_">
							
								<radialGradient id="XMLID_24_" cx="-655.3212" cy="453.1437" r="53.0797" gradientTransform="matrix(1.0356 0 0 -1.0227 177.609 1031.5756)" gradientUnits="userSpaceOnUse">
								<stop  offset="0" style="stop-color:#F2B68B"/>
								<stop  offset="1" style="stop-color:#E5BD9F"/>
							</radialGradient>
							<path id="XMLID_188_" class="st24" d="M-430.6,607.4c-1.2-10.4-19.1-16.6-38.4-19.1c-19.1-2.5-27-1.7-36.3-11.8
								c-4.4-4.8-6.2-10.8-7.1-15.8c-2.1-0.6-3.9-1.7-5.8-2.7c0.6,7.1,1.2,17-0.8,19.3c-3.5,3.5-43.8,13.5-50.5,20.6
								c-6.6,7.1-4.2,27.6-4.2,27.6h69.4h7.7h66.2C-430.2,623.4-429.3,616.3-430.6,607.4z"/>
							
								<radialGradient id="XMLID_25_" cx="-655.2042" cy="453.1542" r="53.0052" gradientTransform="matrix(1.0356 0 0 -1.0227 177.609 1031.5756)" gradientUnits="userSpaceOnUse">
								<stop  offset="0" style="stop-color:#F2B68B"/>
								<stop  offset="1" style="stop-color:#E5BD9F"/>
							</radialGradient>
							<path id="XMLID_246_" class="st25" d="M-478.1,579.4c3.7,1.9,40.1,12.3,46.7,18.9c3.5,3.5,4.6,11,4.6,17.4
								c0-6.2-1-13.9-4.6-17.6c-6.6-7.1-46.9-17-50.5-20.6c-1-1-1.5-3.5-1.5-6.9l0,0C-483.3,578.3-481.9,577.3-478.1,579.4z"/>
							
								<radialGradient id="XMLID_26_" cx="-583.6714" cy="406.1523" r="0.2163" gradientTransform="matrix(1.0356 0 0 -1.0227 177.609 1031.5756)" gradientUnits="userSpaceOnUse">
								<stop  offset="0" style="stop-color:#F2B68B"/>
								<stop  offset="1" style="stop-color:#E5BD9F"/>
							</radialGradient>
							<path id="XMLID_247_" class="st26" d="M-426.8,615.9c0,0.2,0,0.4,0,0.6C-426.8,616.3-426.8,616.1-426.8,615.9z"/>
							
								<radialGradient id="XMLID_30_" cx="-655.3212" cy="453.1542" r="53.0612" gradientTransform="matrix(1.0356 0 0 -1.0227 177.609 1031.5756)" gradientUnits="userSpaceOnUse">
								<stop  offset="0" style="stop-color:#F2B68B"/>
								<stop  offset="1" style="stop-color:#E5BD9F"/>
							</radialGradient>
							<path id="XMLID_248_" class="st27" d="M-482.7,557.4c0,0-0.2,0-0.2,0.2c0,1.2-0.2,2.5-0.2,3.7
								C-482.9,559.9-482.9,558.6-482.7,557.4z"/>
							
								<radialGradient id="XMLID_31_" cx="-426.8411" cy="406.6" r="9.075089e-02" gradientTransform="matrix(1 0 0 -1.0227 0 1031.5756)" gradientUnits="userSpaceOnUse">
								<stop  offset="0" style="stop-color:#F2B68B"/>
								<stop  offset="1" style="stop-color:#E5BD9F"/>
							</radialGradient>
							<path id="XMLID_252_" class="st28" d="M-426.8,615.5L-426.8,615.5C-426.8,615.7-426.8,615.7-426.8,615.5z"/>
							
								<radialGradient id="XMLID_32_" cx="-491.169" cy="434.0329" r="52.4059" gradientTransform="matrix(1 0 0 -1.0227 0 1031.5756)" gradientUnits="userSpaceOnUse">
								<stop  offset="0" style="stop-color:#F2B68B"/>
								<stop  offset="1" style="stop-color:#E5BD9F"/>
							</radialGradient>
							<path id="XMLID_254_" class="st29" d="M-426.8,616.3c0,5-0.4,9.1-0.4,9.1h-3.3l0,0h3.3C-427.3,625.5-426.8,621.5-426.8,616.3
								z"/>
							
								<radialGradient id="XMLID_33_" cx="-491.169" cy="434.6228" r="52.8027" gradientTransform="matrix(1 0 0 -1.0227 0 1031.5756)" gradientUnits="userSpaceOnUse">
								<stop  offset="0" style="stop-color:#F2B68B"/>
								<stop  offset="1" style="stop-color:#E5BD9F"/>
							</radialGradient>
							<path id="XMLID_255_" class="st30" d="M-483.3,570.5c0-2.9,0.2-6.2,0.4-9.3C-483.3,564.4-483.5,567.8-483.3,570.5z"/>
							
								<radialGradient id="XMLID_34_" cx="-655.3173" cy="453.1448" r="53.0772" gradientTransform="matrix(1.0356 0 0 -1.0227 177.609 1031.5756)" gradientUnits="userSpaceOnUse">
								<stop  offset="0" style="stop-color:#F2B68B"/>
								<stop  offset="1" style="stop-color:#E5BD9F"/>
							</radialGradient>
							<path id="XMLID_257_" class="st31" d="M-426.8,616.5c0-0.2,0-0.4,0-0.6v-0.2c-0.2-6.4-1-14.1-4.6-17.4
								c-6.6-6.6-43.2-16.8-46.7-18.9c-3.7-1.9-5.2-0.8-5.2-8.7l0,0c0-2.9,0-6.2,0.2-9.3c0-1.2,0-2.7,0.2-3.7
								c-5.8,3.3-11.8,5.4-18.1,5.4c-3.7,0-7.5-0.8-11.2-2.1c0.8,5,2.7,11,7.1,15.8c9.3,10.2,17.2,9.3,36.3,11.6
								c19.1,2.5,37,8.7,38.4,19.1c1,8.9,0.4,16,0,18.1h3.3C-427.3,625.5-426.8,621.5-426.8,616.5z"/>
							<path id="XMLID_256_" class="st32" d="M-426.8,616.5c0-0.2,0-0.4,0-0.6v-0.2c-0.2-6.4-1-14.1-4.6-17.4
								c-6.6-6.6-43.2-16.8-46.7-18.9c-3.7-1.9-5.2-0.8-5.2-8.7l0,0c0-2.9,0-6.2,0.2-9.3c0-1.2,0-1.7,0.2-2.7
								c-5.8,3.3-11.8,4.4-18.1,4.4c-3.7,0-7.5-0.8-11.2-2.1c0.8,5,2.7,11,7.1,15.8c9.3,10.2,17.2,9.3,36.3,11.6
								c19.1,2.5,37,8.7,38.4,19.1c1,8.9,0.4,16,0,18.1h3.3C-427.3,625.5-426.8,621.5-426.8,616.5z"/>
						</g>
						<g id="XMLID_174_">
							<path id="XMLID_244_" class="st13" d="M-553.5,590.2l11.4-3.9c0,0,49.8,13.9,82-0.6l11.8,2.7c0,0-3.7,29.9,0,37.6h-109
								C-557.2,625.9-548.1,607.2-553.5,590.2z"/>
							<path id="XMLID_179_" class="st11" d="M-455.1,586.9l-21.4-7.5l-20.1,12.7c0,0,3.7,10.4,12.9,14.5
								C-474.6,610.7-455.1,586.9-455.1,586.9z"/>
							<path id="XMLID_178_" class="st11" d="M-544.4,586.9l21.4-7.5l20.1,12.7c0,0-3.7,10.4-12.9,14.5
								C-524.8,610.7-544.4,586.9-544.4,586.9z"/>
						</g>
					</g>
				</g>
			</g>
		</g>
	</g>
</g>
<g id="wink">
	<g>
		<g id="XMLID_27_">
			<g id="XMLID_49_">
				
					<linearGradient id="XMLID_35_" gradientUnits="userSpaceOnUse" x1="-498.4411" y1="268.2388" x2="-498.4411" y2="273.088" gradientTransform="matrix(1 0 0 -1 0 808)">
					<stop  offset="0" style="stop-color:#B12323"/>
					<stop  offset="1" style="stop-color:#E96565"/>
				</linearGradient>
				<path id="XMLID_54_" class="st33" d="M-515.1,539.8c0,0,6-3.5,10.1-3.9c1.9-0.2,2.5,0.8,5.2,0.8c3.5,0,5-2.5,7.7-1.6
					c0.6,0.2,10.4,1.1,10.4,1.1l-17,2.7L-515.1,539.8z"/>
				
					<linearGradient id="XMLID_36_" gradientUnits="userSpaceOnUse" x1="-12442.8848" y1="2250.873" x2="-12442.8848" y2="2264.0347" gradientTransform="matrix(-1 0 0 1 -12940.4258 -1714.7383)">
					<stop  offset="0" style="stop-color:#B12323"/>
					<stop  offset="1" style="stop-color:#E96565"/>
				</linearGradient>
				<path id="XMLID_53_" class="st34" d="M-481.8,536.3c0,0-4.7,10.2-9,12.1c-4.8,2.1-13.3,2.3-18.5-1.2c-2.9-2.1-3.9-7.3-3.9-7.3
					L-481.8,536.3z"/>
				<path id="XMLID_52_" class="st35" d="M-517.5,538.2c0,0,1.7,1.7,6.2,1.7c4.5,0,24.6-2.1,24.6-2.1s2.6-0.7,6.9-2.2
					c0,0-1.4-0.5-6.9,2.2c-5.2,2.5-23.7,3-23.7,3S-515,541.1-517.5,538.2z"/>
				<path id="XMLID_51_" class="st35" d="M-510.1,540.9c0,0,12.2,7.1,23.4-3.1L-510.1,540.9z"/>
				<path id="XMLID_50_" class="st11" d="M-509.8,540.2l22-2.2C-487.7,538-495.2,544.7-509.8,540.2z"/>
			</g>
			<g id="XMLID_28_">
				<g id="XMLID_29_">
					<path class="st36" d="M-487.2,502.4c0,0,6.5-3.7,12.3-1.3L-487.2,502.4z"/>
				</g>
			</g>
		</g>
	</g>
</g>
</svg>
