<?xml version="1.0" encoding="utf-8"?>
<!-- Generator: Adobe Illustrator 19.0.0, SVG Export Plug-In . SVG Version: 6.00 Build 0)  -->
<svg version="1.1" id="Layer_1" xmlns="http://www.w3.org/2000/svg" xmlns:xlink="http://www.w3.org/1999/xlink" x="0px" y="0px"
	 viewBox="-354 156 250 250" style="enable-background:new -354 156 250 250;" xml:space="preserve">
<style type="text/css">
	.st0{display:none;}
	.st1{display:inline;}
	.st2{fill:#E6EAEF;}
	.st3{fill:url(#XMLID_15_);}
	.st4{fill:url(#XMLID_16_);}
	.st5{opacity:0.7;}
	.st6{fill:url(#XMLID_17_);}
	.st7{fill:url(#XMLID_18_);}
	.st8{fill:url(#XMLID_19_);}
	.st9{fill:url(#XMLID_20_);}
	.st10{fill:#800A0A;}
	.st11{fill:#FFFFFF;}
	.st12{opacity:0.3;fill:url(#XMLID_21_);enable-background:new    ;}
	.st13{fill:url(#XMLID_22_);}
	.st14{fill:#1B334D;}
	.st15{opacity:0.3;fill:url(#XMLID_23_);enable-background:new    ;}
	.st16{fill:url(#XMLID_24_);}
	.st17{fill:#8E6109;}
	.st18{fill:url(#XMLID_25_);}
	.st19{fill:url(#XMLID_26_);}
	.st20{opacity:0.15;fill:#D3AF93;enable-background:new    ;}
	.st21{fill:url(#XMLID_27_);}
	.st22{fill:url(#XMLID_28_);}
	.st23{fill:url(#XMLID_29_);}
	.st24{fill:url(#XMLID_30_);}
	.st25{fill:url(#XMLID_31_);}
	.st26{fill:url(#XMLID_32_);}
	.st27{fill:url(#XMLID_33_);}
	.st28{opacity:0.2;fill:url(#XMLID_34_);enable-background:new    ;}
	.st29{opacity:0.2;fill:url(#XMLID_35_);enable-background:new    ;}
	.st30{opacity:0.2;fill:url(#XMLID_36_);enable-background:new    ;}
	.st31{fill:url(#XMLID_37_);}
	.st32{opacity:0.41;fill:#E39E68;enable-background:new    ;}
	.st33{display:none;fill:url(#XMLID_38_);}
	.st34{fill:#070707;}
	.st35{display:none;fill:url(#XMLID_39_);}
	.st36{display:none;fill:url(#XMLID_40_);}
	.st37{fill:#4D4D4D;}
	.st38{opacity:0.3;fill:#B3B3B3;enable-background:new    ;}
	.st39{fill:#808080;}
	.st40{fill:#020202;}
	.st41{display:inline;fill:url(#XMLID_41_);}
	.st42{display:inline;fill:url(#XMLID_42_);}
	.st43{opacity:0.2;fill:#666666;enable-background:new    ;}
	.st44{fill:#FFFFFF;stroke:#070707;stroke-width:0.5;stroke-miterlimit:10;}
	.st45{fill:none;stroke:#C49630;stroke-miterlimit:10;}
	.st46{display:inline;fill:#DDB566;}
	.st47{display:inline;fill:#C49630;}
	.st48{fill:url(#XMLID_43_);}
	.st49{fill:url(#XMLID_44_);}
	.st50{fill:url(#XMLID_45_);}
	.st51{fill:url(#XMLID_46_);}
	.st52{fill:url(#XMLID_47_);}
	.st53{fill:url(#XMLID_49_);}
	.st54{fill:#FFFFFF;stroke:#FFFFFF;stroke-miterlimit:10;}
	.st55{opacity:0.3;fill:url(#XMLID_50_);enable-background:new    ;}
	.st56{fill:url(#XMLID_51_);}
	.st57{opacity:0.3;fill:url(#XMLID_52_);enable-background:new    ;}
	.st58{fill:url(#XMLID_53_);}
	.st59{fill:url(#XMLID_54_);}
	.st60{fill:url(#XMLID_55_);}
	.st61{fill:url(#XMLID_56_);}
	.st62{fill:url(#XMLID_57_);}
	.st63{fill:url(#XMLID_58_);}
	.st64{fill:url(#XMLID_59_);}
	.st65{fill:url(#XMLID_60_);}
	.st66{fill:url(#XMLID_61_);}
	.st67{fill:url(#XMLID_160_);}
	.st68{opacity:0.2;fill:url(#XMLID_190_);enable-background:new    ;}
	.st69{opacity:0.2;fill:url(#XMLID_191_);enable-background:new    ;}
	.st70{opacity:0.2;fill:url(#XMLID_192_);enable-background:new    ;}
	.st71{fill:url(#XMLID_193_);}
	.st72{opacity:0.63;fill:#EFA874;enable-background:new    ;}
</style>
<g id="Layer_1_1_" class="st0">
	<g id="Layer_1_2_" class="st1">
		<g id="Layer_4">
			<circle id="XMLID_48_" class="st2" cx="-1391" cy="749.7" r="108.7"/>
		</g>
		<g id="Layer_3">
			<g id="XMLID_62_">
				<g id="XMLID_90_">
					
						<radialGradient id="XMLID_15_" cx="-1390.4938" cy="51.1802" r="689.7972" gradientTransform="matrix(1 0 0 1 0 8)" gradientUnits="userSpaceOnUse">
						<stop  offset="0" style="stop-color:#F2B68B"/>
						<stop  offset="1" style="stop-color:#E5BD9F"/>
					</radialGradient>
					<path id="XMLID_172_" class="st3" d="M-1337.6,715.3c-3.4-4.9-9.4,0-9.4,0s0-2.8,0-5.5c0,0-3.2-36.3-43.5-36.3
						s-42.7,36.6-42.7,33.8c0-0.9-0.2,2.3-0.3,7.8c-1.4-0.8-5.1-5.1-9.1,0.2c-2.8,3.7-6.9,12.6-1.8,21.1c2.9,4.9,7.8,9.5,10.8,11.5
						c0.2,4,1.4,5.5,1.5,8.6c1.2,13.2,13.5,28,26.9,34.9c4.8,2.5,9.8,4,14.5,4c5.2,0,10.5-1.7,15.4-4.6
						c12.8-7.4,23.1-22.3,25.4-32.1c1.1-4.8,1.5-8.3,1.5-9.5l0,0c0,0,9.4-5.4,12.8-12.8C-1332.5,728.9-1335,719.1-1337.6,715.3z"/>
					
						<linearGradient id="XMLID_16_" gradientUnits="userSpaceOnUse" x1="-1402.8" y1="753.3915" x2="-1380.967" y2="753.3915" gradientTransform="matrix(1 0 0 1 0 8)">
						<stop  offset="0" style="stop-color:#E28C47"/>
						<stop  offset="3.763440e-02" style="stop-color:#E48D48"/>
						<stop  offset="1" style="stop-color:#E39E68"/>
					</linearGradient>
					<path id="XMLID_171_" class="st4" d="M-1402.8,759.5c0,0,1.5-0.9,3.4,0c3.7,1.8,9.1,2.2,12.6,0.8c3.4-1.4,4.2-1.7,5.8-1.1
						c0,0-1.7-0.2-3.2,0.8c-1.5,0.9-3.4,3.5-6.2,3.8C-1397.1,764.6-1398.6,758.8-1402.8,759.5z"/>
					<g id="XMLID_138_" class="st5">
						
							<radialGradient id="XMLID_17_" cx="-1789.7007" cy="631.8862" r="12.7403" gradientTransform="matrix(1.1889 6.027944e-02 -2.088199e-02 0.7643 727.0319 377.8347)" gradientUnits="userSpaceOnUse">
							<stop  offset="0" style="stop-color:#E96565"/>
							<stop  offset="3.418660e-02" style="stop-color:#E96968;stop-opacity:0.9727"/>
							<stop  offset="0.4696" style="stop-color:#E79686;stop-opacity:0.6243"/>
							<stop  offset="0.8058" style="stop-color:#E5B298;stop-opacity:0.3554"/>
							<stop  offset="1" style="stop-color:#E5BD9F;stop-opacity:0.2"/>
						</radialGradient>
						<ellipse id="XMLID_158_" class="st6" cx="-1414" cy="752.9" rx="15.4" ry="10.1"/>
						
							<radialGradient id="XMLID_18_" cx="-1751.5177" cy="630.8303" r="12.7465" gradientTransform="matrix(1.1889 6.027944e-02 -2.088199e-02 0.7643 727.0524 376.3369)" gradientUnits="userSpaceOnUse">
							<stop  offset="0" style="stop-color:#E96565"/>
							<stop  offset="3.418660e-02" style="stop-color:#E96968;stop-opacity:0.9727"/>
							<stop  offset="0.4696" style="stop-color:#E79686;stop-opacity:0.6243"/>
							<stop  offset="0.8058" style="stop-color:#E5B298;stop-opacity:0.3554"/>
							<stop  offset="1" style="stop-color:#E5BD9F;stop-opacity:0.2"/>
						</radialGradient>
						<ellipse id="XMLID_139_" class="st7" cx="-1368.5" cy="752.9" rx="15.4" ry="10.1"/>
					</g>
					<g id="XMLID_131_">
						
							<linearGradient id="XMLID_19_" gradientUnits="userSpaceOnUse" x1="-1391.25" y1="765.4098" x2="-1391.25" y2="761.9532" gradientTransform="matrix(1 0 0 1 0 8)">
							<stop  offset="0" style="stop-color:#B12323"/>
							<stop  offset="1" style="stop-color:#E96565"/>
						</linearGradient>
						<path id="XMLID_137_" class="st8" d="M-1404.1,773.4c0,0,4-2.9,7.5-3.4c1.5-0.2,2.2,0.8,4.3,0.8c3.1,0,3.8-1.4,6.2-0.8
							c0.5,0.2,7.7,3.4,7.7,3.4H-1404.1z"/>
						
							<linearGradient id="XMLID_20_" gradientUnits="userSpaceOnUse" x1="-6092.8262" y1="-1700.1383" x2="-6092.8257" y2="-1708.2465" gradientTransform="matrix(-1 0 0 -1 -7484.4258 -926.7383)">
							<stop  offset="0" style="stop-color:#B12323"/>
							<stop  offset="1" style="stop-color:#E96565"/>
						</linearGradient>
						<path id="XMLID_136_" class="st9" d="M-1379.7,773.4c0,0-1.4,5.5-5.1,7.1c-4,1.7-11.2,1.8-15.5-0.9c-2.5-1.7-3.2-6-3.2-6h23.8
							L-1379.7,773.4L-1379.7,773.4z"/>
						<path id="XMLID_134_" class="st10" d="M-1406.8,772c0,0,1.4,1.4,5.2,1.4s21.4,0,21.4,0s1.7-0.5,3.7-1.4c0,0-1.7,2.3-6.5,2.3
							c-4.8,0-17.8,0-17.8,0S-1404.6,774.5-1406.8,772z"/>
						<path id="XMLID_133_" class="st10" d="M-1400.8,774.3c0,0,8.5,8.5,17.8,0H-1400.8z"/>
						<path id="XMLID_132_" class="st11" d="M-1399.4,773.8h16.1C-1383.2,773.8-1394,775.8-1399.4,773.8z"/>
					</g>
					<g id="XMLID_96_">
						<g id="XMLID_125_">
							
								<radialGradient id="XMLID_21_" cx="-1410.9536" cy="729.3788" r="9.4965" gradientTransform="matrix(1 0 0 1 0 8)" gradientUnits="userSpaceOnUse">
								<stop  offset="0" style="stop-color:#D3AF93"/>
								<stop  offset="1" style="stop-color:#F2B68B"/>
							</radialGradient>
							<path id="XMLID_130_" class="st12" d="M-1422.7,735.3c0,0,2.5,6.2,7.2,7.7c4.8,1.5,16.3,0,16.3,0s0.9-3.7-4.2-8.5
								C-1408.1,729.6-1419.4,730.2-1422.7,735.3z"/>
							<path id="XMLID_129_" class="st11" d="M-1421.2,734.5c0,0,1.2,6.8,5.8,8s15.5,0,15.5,0s0.3-4.3-7.7-8
								C-1415.5,730.8-1421.2,734.5-1421.2,734.5z"/>
							
								<radialGradient id="XMLID_22_" cx="-1408.8467" cy="730.6329" r="4.5582" gradientTransform="matrix(1 0 0 1 0 8)" gradientUnits="userSpaceOnUse">
								<stop  offset="0" style="stop-color:#29ABE2"/>
								<stop  offset="1" style="stop-color:#007E9A"/>
							</radialGradient>
							<path id="XMLID_128_" class="st13" d="M-1408.9,734c0.5,0,0.9,0,1.4,0.2c-0.8,0.3-1.4,1.2-1.4,2.2c0,1.2,0.9,2.3,2.3,2.3
								c0.9,0,1.7-0.6,2-1.4c0.2,0.5,0.2,0.9,0.2,1.4c0,2.6-2,4.6-4.5,4.6s-4.5-2.2-4.5-4.6C-1413.4,736-1411.4,734-1408.9,734z"/>
							<circle id="XMLID_127_" class="st14" cx="-1408.4" cy="738.5" r="2"/>
							<path id="XMLID_126_" class="st14" d="M-1399.1,739.7c0,0-3.5-5.2-11.7-6.9c-8.1-1.8-13.7,0-13.7,0l2.9,3.8
								c0,0,0.5-1.5,3.4-2.3C-1415.2,733.6-1406.1,733.4-1399.1,739.7z"/>
						</g>
						<g id="XMLID_116_">
							
								<radialGradient id="XMLID_23_" cx="-6082.4609" cy="729.3788" r="9.4758" gradientTransform="matrix(-1 0 0 1 -7454.4414 8)" gradientUnits="userSpaceOnUse">
								<stop  offset="0" style="stop-color:#D3AF93"/>
								<stop  offset="1" style="stop-color:#F2B68B"/>
							</radialGradient>
							<path id="XMLID_121_" class="st15" d="M-1360.2,735.3c0,0-2.5,6.2-7.2,7.7c-4.8,1.5-16.3,0-16.3,0s-0.9-3.7,4.2-8.5
								C-1374.6,729.6-1363.4,730.2-1360.2,735.3z"/>
							<path id="XMLID_120_" class="st11" d="M-1361.7,734.5c0,0-1.2,6.8-5.8,8s-15.5,0-15.5,0s-0.3-4.3,7.7-8
								C-1367.4,730.8-1361.7,734.5-1361.7,734.5z"/>
							
								<radialGradient id="XMLID_24_" cx="-6080.3862" cy="730.6329" r="4.5573" gradientTransform="matrix(-1 0 0 1 -7454.4414 8)" gradientUnits="userSpaceOnUse">
								<stop  offset="0" style="stop-color:#29ABE2"/>
								<stop  offset="1" style="stop-color:#007E9A"/>
							</radialGradient>
							<path id="XMLID_119_" class="st16" d="M-1374,734c-0.5,0-0.9,0-1.4,0.2c0.8,0.3,1.4,1.2,1.4,2.2c0,1.2-0.9,2.3-2.3,2.3
								c-0.9,0-1.7-0.6-2-1.4c-0.2,0.5-0.2,0.9-0.2,1.4c0,2.6,2,4.6,4.5,4.6s4.5-2.2,4.5-4.6C-1369.6,736-1371.5,734-1374,734z"/>
							<circle id="XMLID_118_" class="st14" cx="-1374.5" cy="738.5" r="2"/>
							<path id="XMLID_117_" class="st14" d="M-1383.7,739.7c0,0,3.5-5.2,11.7-6.9c8.1-1.8,13.7,0,13.7,0l-2.9,3.8
								c0,0-0.5-1.5-3.4-2.3C-1367.6,733.6-1376.8,733.4-1383.7,739.7z"/>
						</g>
						<g id="XMLID_111_">
							<g id="XMLID_114_">
								<path id="XMLID_115_" class="st17" d="M-1401.4,727.9c0,0-1.2-3.5-6.3-4.6c-6.2-1.2-12.3,1.7-14.3,3.2
									C-1422,726.6-1411.1,720.3-1401.4,727.9z"/>
							</g>
							<g id="XMLID_112_">
								<path id="XMLID_113_" class="st17" d="M-1381.2,728.2c0,0,1.2-3.5,6.3-4.6c6.2-1.2,12.3,1.7,14.3,3.2
									C-1360.8,726.9-1371.7,720.6-1381.2,728.2z"/>
							</g>
						</g>
						<g id="XMLID_101_">
							
								<radialGradient id="XMLID_25_" cx="-1381.283" cy="1018.7798" r="13.8467" gradientTransform="matrix(0.9988 4.857015e-02 -2.994641e-02 0.6158 -1.4984 172.4009)" gradientUnits="userSpaceOnUse">
								<stop  offset="0" style="stop-color:#E96565"/>
								<stop  offset="3.418660e-02" style="stop-color:#E96968;stop-opacity:0.9727"/>
								<stop  offset="0.4696" style="stop-color:#E79686;stop-opacity:0.6243"/>
								<stop  offset="0.8058" style="stop-color:#E5B298;stop-opacity:0.3554"/>
								<stop  offset="1" style="stop-color:#E5BD9F;stop-opacity:0.2"/>
							</radialGradient>
							<path id="XMLID_110_" class="st18" d="M-1399.1,742c0,0-2.3-10.5-2.3-13.2c0-2.8-8-7.4-15.2-4.8c-7.2,2.5-7.5,9.1-7.5,9.1
								s13.5-1.2,18.6,2.2C-1400.5,738.5-1399.1,742-1399.1,742z"/>
							
								<radialGradient id="XMLID_26_" cx="-6053.1973" cy="1249.7557" r="13.8467" gradientTransform="matrix(-0.9988 4.857015e-02 2.994641e-02 0.6158 -7454.4517 257.0814)" gradientUnits="userSpaceOnUse">
								<stop  offset="0" style="stop-color:#E96565"/>
								<stop  offset="3.418660e-02" style="stop-color:#E96968;stop-opacity:0.9727"/>
								<stop  offset="0.4696" style="stop-color:#E79686;stop-opacity:0.6243"/>
								<stop  offset="0.8058" style="stop-color:#E5B298;stop-opacity:0.3554"/>
								<stop  offset="1" style="stop-color:#E5BD9F;stop-opacity:0.2"/>
							</radialGradient>
							<path id="XMLID_102_" class="st19" d="M-1383.5,742c0,0,2.3-10.5,2.3-13.2c0-2.8,8-7.4,15.2-4.8c7.2,2.5,7.5,9.1,7.5,9.1
								s-13.5-1.2-18.6,2.2C-1382.3,738.5-1383.5,742-1383.5,742z"/>
						</g>
					</g>
				</g>
				<g id="XMLID_86_">
					<path id="XMLID_1_" class="st20" d="M-1349,713c0,0,0-2.8,0-5.5c0,0,1.5,36-10.3,58.1c-11.1,20.7-35.7,26.6-33.5,26.6
						c5.2,0,11.3,0.1,16.3-2.8c12.8-7.4,22.2-23.1,24.5-32.9c1.1-4.8,1.5-8.3,1.5-9.5l0,0L-1349,713z"/>
					
						<radialGradient id="XMLID_27_" cx="-1390.9813" cy="-171.4641" r="106.7437" fx="-1417.0422" fy="-228.1123" gradientTransform="matrix(1 0 0 -1 0 568)" gradientUnits="userSpaceOnUse">
						<stop  offset="0" style="stop-color:#C4862E"/>
						<stop  offset="0.1879" style="stop-color:#CE9938"/>
						<stop  offset="0.465" style="stop-color:#D9AD42"/>
						<stop  offset="0.7381" style="stop-color:#E0BA49"/>
						<stop  offset="1" style="stop-color:#E2BE4B"/>
					</radialGradient>
					<path id="XMLID_89_" class="st21" d="M-1317.9,787.8c-7.8-14.1,8.3-39.4,0.8-45c-7.4-5.8,3.8-17.4-5.7-26.1
						c-9.5-8.8-0.3-16.3-9.8-24.1s-4.3-18.9-31.1-33.5c-11.8-6.6-20.9-7.7-27.2-6.8l0,0c-6.3-0.8-15.4,0.2-27.4,6.8
						c-26.8,14.6-21.5,25.7-31.1,33.5s-0.3,15.4-9.8,24.1c-9.5,8.8,1.8,20.4-5.7,26.1c-7.5,5.8,8.6,31.1,0.8,45
						c-7.8,14.3,0.5,32.1,14.6,36.9c7.1,2.5,24.6,2.5,40.3,1.8c0.9-2.2,6-15.2,8.1-35.2c-16.6-5.8-28.9-26.3-29.8-50.9
						c0.6-5.4,1.5-10.8,3.8-14.1c6.3-9.5,16.1-7.7,22.4-24.9c0,0,0.5,16.5,18.1,19.5c17.5,3.1,23.8-2.3,32.3,10.9
						c1.5,2.3,2.6,4.9,3.2,7.4c-0.5,25.1-13.1,46-30.1,52c2,20,7.2,33.1,8.1,35.2c15.8,0.6,33.2,0.6,40.3-1.8
						C-1318.4,820-1310,802.1-1317.9,787.8z"/>
					
						<radialGradient id="XMLID_28_" cx="-1388.6487" cy="-149.9627" r="87.7326" gradientTransform="matrix(1 0 0 -1 0 568)" gradientUnits="userSpaceOnUse">
						<stop  offset="0" style="stop-color:#C4862E"/>
						<stop  offset="0.4068" style="stop-color:#CE9738"/>
						<stop  offset="1" style="stop-color:#E1B84A"/>
						<stop  offset="1" style="stop-color:#E2BE4B"/>
					</radialGradient>
					<path id="XMLID_88_" class="st22" d="M-1323.3,716c-9.5-8.8-0.3-16.1-9.8-24c-9.5-7.7-4.3-18.8-31.1-33.2
						c-11.8-6.5-20.9-7.5-27.4-6.6l0,0c-6.3-0.8-15.4,0.2-27.4,6.6c-26.8,14.5-21.5,25.4-31.1,33.2c-9.5,7.7-0.3,15.2-9.8,24
						c-3.4,21.9,2.8,31.2,28.9,18.1c0.6-4,1.5-5.8,3.2-8.5c6.3-9.5,16.1-7.5,22.4-24.6c0,0,0.5,16.5,18.1,19.4
						c17.5,3.1,23.8-2.3,32.3,10.8c1.5,2.3,3.1,5.8,3.7,8.5C-1350.9,740.6-1315,723.7-1323.3,716z"/>
					
						<radialGradient id="XMLID_29_" cx="-1388.231" cy="-117.3576" r="73.0932" fx="-1388.2371" fy="-144.018" gradientTransform="matrix(1 0 0 -1 0 568)" gradientUnits="userSpaceOnUse">
						<stop  offset="0" style="stop-color:#C4862E"/>
						<stop  offset="0" style="stop-color:#C68830"/>
						<stop  offset="0" style="stop-color:#D09E2A"/>
						<stop  offset="0.6685" style="stop-color:#DBAE3E"/>
						<stop  offset="1" style="stop-color:#E1B84A"/>
						<stop  offset="1" style="stop-color:#E2BE4B"/>
					</radialGradient>
					<path id="XMLID_87_" class="st23" d="M-1319.1,733.4c-3.1-5.8,4.6-14.9-3.7-22.1c-9.5-8.1-0.3-15.2-9.8-22.4
						s-4.3-17.5-31.1-31.2c-11.8-6-20.9-7.1-27.4-6.3l0,0c-6.3-0.8-15.4,0.2-27.4,6.3c-26.8,13.5-21.5,23.8-31.1,31.2
						c-9.5,7.2-0.3,14.3-9.8,22.4s1.8,18.9-5.7,24.4c-0.6,0.5-1.1,1.1-1.4,1.8c13.2,1.5,26.1,0.6,35.7-7.2c0.6-3.8,1.7-7.2,3.5-9.7
						c6.3-8.9,16.1-7.1,22.4-23.2c0,0,0.5,15.4,18.1,18.3c17.5,2.9,23.8-2.2,32.3,10.1c1.5,2.2,2.3,4.6,3.1,6.9
						c0,0.9,0.2,1.7,0.2,2.8C-1340.5,736-1329.7,735.3-1319.1,733.4z"/>
				</g>
				<g id="XMLID_63_">
					<g id="XMLID_68_">
						
							<radialGradient id="XMLID_30_" cx="-1471.7" cy="776.9446" r="49.1604" gradientTransform="matrix(1.0356 0 0 1.0227 133.1803 4.8302)" gradientUnits="userSpaceOnUse">
							<stop  offset="0" style="stop-color:#F2B68B"/>
							<stop  offset="1" style="stop-color:#E5BD9F"/>
						</radialGradient>
						<path id="XMLID_85_" class="st24" d="M-1331.9,828.4c-1.1-8.8-16.1-13.4-32.1-15.5c-16-2-22.6-1.1-30.4-9.5
							c-3.7-4-5.2-7.9-6-12.2c-1.7-0.6-3.4-1.2-4.9-2.2c0.6,6,1.1,13.3-0.8,15.1c-2.9,2.9-36.7,10.3-42.3,16.1
							c-5.5,6-3.4,18.5-3.5,19.1c7.7,6.2,29.7,18.9,61,18.9c35.5,0,59-17.4,59-17.4C-1331.6,839.5-1331,836-1331.9,828.4z"/>
						
							<radialGradient id="XMLID_31_" cx="-1471.8383" cy="774.1454" r="44.5463" gradientTransform="matrix(1.0356 0 0 1.0227 133.1803 4.8302)" gradientUnits="userSpaceOnUse">
							<stop  offset="0" style="stop-color:#F2B68B"/>
							<stop  offset="1" style="stop-color:#E5BD9F"/>
						</radialGradient>
						<path id="XMLID_84_" class="st25" d="M-1371.9,806c3.1,1.7,33.7,10.3,39.2,15.7c2.9,2.9,3.8,9.4,3.8,14.6
							c-0.2-5.2-0.9-11.7-3.8-14.9c-5.5-6-39.4-14.3-42.4-17.2c-0.8-0.8-1.4-3.1-1.4-5.7l0,0C-1376.3,805.2-1374.9,804.3-1371.9,806
							z"/>
						
							<radialGradient id="XMLID_32_" cx="-1411.723" cy="813.5493" r="0.1818" gradientTransform="matrix(1.0356 0 0 1.0227 133.1803 4.8302)" gradientUnits="userSpaceOnUse">
							<stop  offset="0" style="stop-color:#F2B68B"/>
							<stop  offset="1" style="stop-color:#E5BD9F"/>
						</radialGradient>
						<path id="XMLID_75_" class="st26" d="M-1328.8,836.6c0,0.2,0,0.3,0,0.6C-1328.8,836.9-1328.8,836.7-1328.8,836.6z"/>
						
							<radialGradient id="XMLID_33_" cx="-1471.7032" cy="774.1454" r="44.4839" gradientTransform="matrix(1.0356 0 0 1.0227 133.1803 4.8302)" gradientUnits="userSpaceOnUse">
							<stop  offset="0" style="stop-color:#F2B68B"/>
							<stop  offset="1" style="stop-color:#E5BD9F"/>
						</radialGradient>
						<path id="XMLID_74_" class="st27" d="M-1375.5,787.5c0,0-0.2,0-0.2,0.2c0,0.9-0.2,2-0.2,3.2
							C-1375.9,789.7-1375.7,788.4-1375.5,787.5z"/>
						
							<radialGradient id="XMLID_34_" cx="-1328.8" cy="813.1738" r="4.733380e-02" gradientTransform="matrix(1 0 0 1.0227 0 4.8302)" gradientUnits="userSpaceOnUse">
							<stop  offset="0" style="stop-color:#F2B68B"/>
							<stop  offset="1" style="stop-color:#E5BD9F"/>
						</radialGradient>
						<path id="XMLID_73_" class="st28" d="M-1328.8,836.4c0,0.2,0,0.2,0,0.2V836.4z"/>
						
							<radialGradient id="XMLID_35_" cx="-1382.6387" cy="788.1684" r="43.9415" gradientTransform="matrix(1 0 0 1.0227 0 4.8302)" gradientUnits="userSpaceOnUse">
							<stop  offset="0" style="stop-color:#F2B68B"/>
							<stop  offset="1" style="stop-color:#E5BD9F"/>
						</radialGradient>
						<path id="XMLID_72_" class="st29" d="M-1328.8,834.9c0,4.2-0.3,7.7-0.3,7.7h-2.8l0,0h2.8
							C-1329.1,842.6-1328.7,839.3-1328.8,834.9z"/>
						
							<radialGradient id="XMLID_36_" cx="-1382.6387" cy="789.6811" r="44.2671" gradientTransform="matrix(1 0 0 1.0227 0 4.8302)" gradientUnits="userSpaceOnUse">
							<stop  offset="0" style="stop-color:#F2B68B"/>
							<stop  offset="1" style="stop-color:#E5BD9F"/>
						</radialGradient>
						<path id="XMLID_71_" class="st30" d="M-1376.2,798.6c0-2.3,0.2-5.1,0.3-7.8C-1376.2,793.4-1376.3,796.1-1376.2,798.6z"/>
						
							<radialGradient id="XMLID_37_" cx="-1382.6448" cy="788.7223" r="43.4666" gradientTransform="matrix(1 0 0 1.0227 0 4.8302)" gradientUnits="userSpaceOnUse">
							<stop  offset="0" style="stop-color:#F2B68B"/>
							<stop  offset="1" style="stop-color:#E5BD9F"/>
						</radialGradient>
						<path id="XMLID_69_" class="st31" d="M-1328.8,836.1C-1328.8,836-1328.8,836.3-1328.8,836.1
							C-1328.8,836-1328.8,836.1-1328.8,836.1c-0.2-5.4-0.9-11.7-3.8-14.6c-5.5-5.5-36.3-14.1-39.4-15.7c-3.1-1.7-4.5-0.8-4.5-7.2
							l0,0c0-2.3,0.2-5.2,0.3-7.8c0-1.1,0.2-1.2,0.2-2.2c-4.8,2.8-10,3.6-15.2,3.6c-3.1,0-6.3-0.6-9.5-1.8c0.6,4.3,2.3,9.2,6,13.2
							c7.8,8.5,14.5,7.8,30.4,9.8c16,2,31.1,6.3,32.1,15.1c0.9,7.4,0.3,11.1,0,12.6l2.8-1.5
							C-1329.1,839.5-1328.7,840.3-1328.8,836.1z"/>
						<path id="XMLID_70_" class="st32" d="M-1328.8,836.1C-1328.8,836-1328.8,836.3-1328.8,836.1
							C-1328.8,836-1328.8,836.1-1328.8,836.1c-0.2-5.4-0.9-11.7-3.8-14.6c-5.5-5.5-36.3-14.1-39.4-15.7c-3.1-1.7-4.5-0.8-4.5-7.2
							l0,0c0-2.3,0.2-5.2,0.3-7.8c0-1.1,0.2-1.2,0.2-2.2c-4.8,2.8-10,3.6-15.2,3.6c-3.1,0-6.3,0.4-9.5-0.8c0.6,4.3,2.3,8.2,6,12.2
							c7.8,8.5,14.5,7.8,30.4,9.8c16,2,30.4,6.5,31.5,15.2c0.9,7.4,0.9,10.9,0.6,12.5l2.8-1.5
							C-1329.1,839.5-1328.7,840.3-1328.8,836.1z"/>
					</g>
					<g id="XMLID_64_">
						<path id="XMLID_67_" class="st14" d="M-1436.6,814.6l9.8-2.9c0,0,41.8,11.7,68.9-0.5l9.8,2.3c0,0-0.5,28.6,2.8,35.1
							c0,0-18,10-49.4,10c-29.7-1.2-45.8-11.8-45.8-11.8S-1432.1,828.9-1436.6,814.6z"/>
						<polygon id="XMLID_66_" class="st11" points="-1352.5,812.3 -1370.5,806.1 -1387.4,816.6 -1376.6,828.7 						"/>
						<polygon id="XMLID_65_" class="st11" points="-1427.8,812 -1409.2,805.8 -1392.3,816.4 -1403.2,828.6 						"/>
					</g>
				</g>
			</g>
		</g>
		<g id="Layer_2">
			
				<radialGradient id="XMLID_38_" cx="-1605.8271" cy="345.299" r="396.283" gradientTransform="matrix(1 0 0 1 0 8)" gradientUnits="userSpaceOnUse">
				<stop  offset="0" style="stop-color:#000000"/>
				<stop  offset="1" style="stop-color:#333333"/>
			</radialGradient>
			<path id="XMLID_189_" class="st33" d="M-1575.4,730.2c-2-2.8-5.4,0-5.4,0s0-1.6,0-3.2c0,0-1.9-20.8-25-20.8s-24.6,21-24.6,19.4
				c0-0.5-0.1,1.3-0.2,4.5c-0.8-0.4-2.9-2.9-5.2,0.1c-1.6,2.1-4,7.2-1.1,12.1c1.7,2.9,4.5,5.4,6.1,6.6c0.1,2.3,0.8,3.2,0.9,5
				c0.7,7.6,7.7,16.1,15.4,20c2.8,1.4,5.6,2.3,8.3,2.3c3,0,6-1,8.8-2.6c7.4-4.3,13.4-12.8,14.7-18.4c0.6-2.7,1-4.8,1-5.5l0,0
				c0,0,5.3-3.1,7.2-7.3C-1572.3,738.1-1573.8,732.4-1575.4,730.2z"/>
			<ellipse id="XMLID_14_" class="st11" cx="-1606.9" cy="747" rx="27" ry="28.4"/>
			<path id="XMLID_187_" class="st34" d="M-1613,755.6c0,0,0.9-0.5,1.9,0c2.1,1,5.2,1.3,7.2,0.4c1.9-0.8,2.4-1,3.4-0.6
				c0,0-1-0.1-1.9,0.4c-0.9,0.6-1.9,2-3.5,2.2C-1609.7,758.5-1610.6,755.2-1613,755.6z"/>
			<g id="XMLID_184_" class="st5">
				
					<radialGradient id="XMLID_39_" cx="-2019.3832" cy="632.9309" r="7.3199" gradientTransform="matrix(1.2396 6.027944e-02 -2.177326e-02 0.7643 897.1075 387.8004)" gradientUnits="userSpaceOnUse">
					<stop  offset="0" style="stop-color:#999999"/>
					<stop  offset="0.4063" style="stop-color:#BEAB9C;stop-opacity:0.675"/>
					<stop  offset="0.7826" style="stop-color:#DAB89E;stop-opacity:0.3739"/>
					<stop  offset="1" style="stop-color:#E5BD9F;stop-opacity:0.2"/>
				</radialGradient>
				<ellipse id="XMLID_186_" class="st35" cx="-1619.9" cy="749.8" rx="9.2" ry="5.9"/>
				
					<radialGradient id="XMLID_40_" cx="-1997.4363" cy="632.9309" r="7.3195" gradientTransform="matrix(1.2396 6.027944e-02 -2.177326e-02 0.7643 897.1265 386.4777)" gradientUnits="userSpaceOnUse">
					<stop  offset="0" style="stop-color:#999999"/>
					<stop  offset="0.1886" style="stop-color:#A6A6A6;stop-opacity:0.8491"/>
					<stop  offset="0.5384" style="stop-color:#C9C9C9;stop-opacity:0.5693"/>
					<stop  offset="1" style="stop-color:#FFFFFF;stop-opacity:0.2"/>
				</radialGradient>
				<ellipse id="XMLID_185_" class="st36" cx="-1592.7" cy="749.8" rx="9.2" ry="5.9"/>
			</g>
			<g id="XMLID_166_">
				<path id="XMLID_182_" class="st37" d="M-1613.8,763.6c0,0,2.3-1.7,4.3-1.9c0.9-0.1,1.2,0.4,2.5,0.4c1.7,0,2.2-0.8,3.5-0.4
					c0.3,0.1,4.4,1.9,4.4,1.9H-1613.8z"/>
				<path id="XMLID_170_" class="st37" d="M-1599.7,763.6c0,0-0.8,3.2-2.9,4.1c-2.3,1-6.4,1.1-8.9-0.6c-1.4-1-1.9-3.5-1.9-3.5
					H-1599.7z"/>
				<path id="XMLID_169_" class="st34" d="M-1615.3,762.8c0,0,0.8,0.8,3,0.8s12.2,0,12.2,0s1-0.3,2.2-0.8c0,0-0.9,1.3-3.7,1.3
					s-10.3,0-10.3,0S-1614.1,764.2-1615.3,762.8z"/>
				<path id="XMLID_168_" d="M-1611.9,764.1c0,0,4.9,4.9,10.3,0H-1611.9z"/>
				<path id="XMLID_167_" class="st11" d="M-1611.1,763.8h9.3C-1601.7,763.8-1608,765-1611.1,763.8z"/>
			</g>
			<g id="XMLID_97_">
				<g id="XMLID_159_">
					<path id="XMLID_165_" class="st38" d="M-1624.5,741.7c0,0,1.4,3.5,4.2,4.4c2.8,0.9,9.4,0,9.4,0s0.5-2.1-2.4-4.9
						C-1616.1,738.4-1622.6,738.8-1624.5,741.7z"/>
					<path id="XMLID_164_" class="st11" d="M-1623.6,741.2c0,0,0.7,3.9,3.4,4.6c2.7,0.7,8.9,0,8.9,0s0.2-2.5-4.4-4.6
						S-1623.6,741.2-1623.6,741.2z"/>
					<path id="XMLID_163_" class="st37" d="M-1616.5,741c0.3,0,0.5,0,0.8,0.1c-0.4,0.2-0.8,0.7-0.8,1.2c0,0.7,0.6,1.3,1.3,1.3
						c0.5,0,1-0.3,1.2-0.8c0.1,0.2,0.1,0.5,0.1,0.8c0,1.5-1.1,2.7-2.6,2.7c-1.4,0-2.6-1.2-2.6-2.7
						C-1619.1,742.2-1617.9,741-1616.5,741z"/>
					<circle id="XMLID_162_" class="st39" cx="-1616.3" cy="743.6" r="1.1"/>
					<path id="XMLID_161_" d="M-1610.9,744.3c0,0-2-3-6.7-4s-7.9,0-7.9,0l1.6,2.2c0,0,0.3-0.9,1.9-1.3
						C-1620.3,740.8-1614.9,740.6-1610.9,744.3z"/>
				</g>
				<g id="XMLID_108_">
					<path id="XMLID_152_" class="st38" d="M-1588.5,741.7c0,0-1.4,3.5-4.2,4.4c-2.8,0.9-9.4,0-9.4,0s-0.5-2.1,2.4-4.9
						C-1596.9,738.4-1590.4,738.8-1588.5,741.7z"/>
					<path id="XMLID_124_" class="st11" d="M-1589.4,741.2c0,0-0.7,3.9-3.4,4.6c-2.7,0.7-8.9,0-8.9,0s-0.2-2.5,4.4-4.6
						S-1589.4,741.2-1589.4,741.2z"/>
					<path id="XMLID_123_" class="st37" d="M-1596.5,741c-0.3,0-0.5,0-0.8,0.1c0.4,0.2,0.8,0.7,0.8,1.2c0,0.7-0.6,1.3-1.3,1.3
						c-0.5,0-1-0.3-1.2-0.8c-0.1,0.2-0.1,0.5-0.1,0.8c0,1.5,1.1,2.7,2.6,2.7c1.4,0,2.6-1.2,2.6-2.7
						C-1593.9,742.2-1595.1,741-1596.5,741z"/>
					<circle id="XMLID_122_" class="st39" cx="-1596.7" cy="743.6" r="1.1"/>
					<path id="XMLID_109_" d="M-1602.1,744.3c0,0,2-3,6.7-4s7.9,0,7.9,0l-1.6,2.2c0,0-0.3-0.9-1.9-1.3
						C-1592.6,740.8-1598.1,740.6-1602.1,744.3z"/>
				</g>
				<g id="XMLID_103_">
					<g id="XMLID_106_">
						<path id="XMLID_107_" class="st40" d="M-1612.2,737.5c0,0-0.7-2.1-3.6-2.6c-3.5-0.7-7.1,1-8.2,1.9
							C-1624,736.7-1617.8,733.1-1612.2,737.5z"/>
					</g>
					<g id="XMLID_104_">
						<path id="XMLID_105_" class="st40" d="M-1600.7,737.6c0,0,0.7-2.1,3.6-2.6c3.5-0.7,7.1,1,8.2,1.9
							C-1588.9,736.9-1595.1,733.3-1600.7,737.6z"/>
					</g>
				</g>
				<g id="XMLID_98_" class="st0">
					
						<radialGradient id="XMLID_41_" cx="-1587.4446" cy="1029.6798" r="7.9545" gradientTransform="matrix(0.9988 4.857015e-02 -2.994641e-02 0.6158 -1.7153 183.229)" gradientUnits="userSpaceOnUse">
						<stop  offset="0" style="stop-color:#070707"/>
						<stop  offset="9.737217e-02" style="stop-color:#0C0C0C;stop-opacity:0.9221"/>
						<stop  offset="0.6689" style="stop-color:#292929;stop-opacity:0.4649"/>
						<stop  offset="1" style="stop-color:#333333;stop-opacity:0.2"/>
					</radialGradient>
					<path id="XMLID_100_" class="st41" d="M-1610.9,745.6c0,0-1.3-6-1.3-7.6s-4.6-4.2-8.8-2.8c-4.2,1.4-4.3,5.2-4.3,5.2
						s7.8-0.7,10.7,1.2C-1611.6,743.5-1610.9,745.6-1610.9,745.6z"/>
					
						<radialGradient id="XMLID_42_" cx="-5829.1807" cy="1260.6677" r="7.9545" gradientTransform="matrix(-0.9988 4.857015e-02 2.994641e-02 0.6158 -7454.7427 247.0083)" gradientUnits="userSpaceOnUse">
						<stop  offset="0" style="stop-color:#070707"/>
						<stop  offset="9.737217e-02" style="stop-color:#0C0C0C;stop-opacity:0.9221"/>
						<stop  offset="0.6689" style="stop-color:#292929;stop-opacity:0.4649"/>
						<stop  offset="1" style="stop-color:#333333;stop-opacity:0.2"/>
					</radialGradient>
					<path id="XMLID_99_" class="st42" d="M-1602,745.6c0,0,1.3-6,1.3-7.6s4.6-4.2,8.8-2.8c4.2,1.4,4.3,5.2,4.3,5.2
						s-7.8-0.7-10.7,1.2C-1601.2,743.5-1602,745.6-1602,745.6z"/>
				</g>
			</g>
			<g id="XMLID_92_">
				<path id="XMLID_95_" class="st34" d="M-1563.9,772.3c-4.6-8.3,4.8-23.2,0.5-26.6c-4.4-3.4,2.3-10.2-3.3-15.4
					c-5.6-5.2-0.2-9.6-5.7-14.2s-2.5-11.1-18.2-19.7c-6.9-3.8-12.2-4.5-16-4l0,0c-3.7-0.5-9,0.1-15.9,4
					c-15.6,8.6-12.6,15.1-18.2,19.7s-0.2,9-5.7,14.2c-5.6,5.2,1,12-3.3,15.4c-4.4,3.4,5.1,18.3,0.5,26.6c-4.6,8.4,0.3,19,8.5,21.8
					c4.1,1.4,14.3,1.4,23.5,1.1c0.5-1.3,3.5-9,4.7-20.8c-9.8-3.5-17-15.5-17.5-30c0.3-3.2,0.9-6.3,2.2-8.3
					c3.7-5.6,9.4-4.5,13.1-14.7c0,0,0.3,9.7,10.6,11.5c10.3,1.8,13.9-1.4,18.9,6.4c0.9,1.4,1.5,2.9,1.9,4.3
					c-0.3,14.8-7.6,27.1-17.6,30.7c1.2,11.8,4.2,19.5,4.7,20.8c9.2,0.4,19.4,0.4,23.5-1.1C-1564.1,791.3-1559.3,780.7-1563.9,772.3z
					"/>
				<path id="XMLID_94_" class="st37" d="M-1567,729.9c-5.6-4.9-0.2-9.1-5.7-13.4c-5.6-4.3-2.5-10.5-18.2-18.6
					c-6.9-3.6-12.2-4.2-16-3.7l0,0c-3.7-0.5-9,0.1-15.9,3.7c-15.6,8.1-12.6,14.2-18.2,18.6c-5.6,4.3-0.2,8.5-5.7,13.4
					c-5.6,4.9,11.2,14.9,16.9,10.1c0.4-2.3,0.9-3.3,1.9-4.7c3.7-5.3,9.4-4.2,13.1-13.8c0,0,0.3,9.2,10.6,10.9
					c10.3,1.7,13.9-1.3,18.9,6c0.9,1.3,1.8,3.3,2.2,4.7C-1583.2,743.7-1562.2,734.2-1567,729.9z"/>
				<path id="XMLID_93_" class="st34" d="M-1564.6,739.6c-1.8-3.3,2.7-8.5-2.2-12.5c-5.6-4.6-0.2-8.6-5.7-12.7
					c-5.6-4.1-2.5-9.9-18.2-17.6c-7-3.4-12.2-4-16-3.5l0,0c-3.7-0.4-9,0.1-15.9,3.5c-15.6,7.7-12.6,13.5-18.2,17.6
					s-0.2,8.1-5.7,12.7c-5.6,4.6,1,10.7-3.3,13.8c-0.4,0.3-0.6,0.6-0.8,1c7.7,0.9,15.2,0.4,20.8-4.1c0.4-2.1,1-4.1,2-5.5
					c3.7-5,9.4-4,13.1-13.1c0,0,0.3,8.7,10.6,10.3s13.9-1.3,18.9,5.7c0.9,1.3,1.4,2.6,1.8,3.9c0,0.5,0.1,1,0.1,1.5
					C-1577.1,741.1-1570.8,740.7-1564.6,739.6z"/>
			</g>
			<g id="XMLID_76_">
				<g id="XMLID_81_">
					<path id="XMLID_91_" class="st11" d="M-1571.2,796.5c-0.6-5-10.1-7.7-19.3-8.9c-9.2-1.2-13-0.8-17.5-5.6
						c-2.1-2.3-3-5.2-3.4-7.6c-1-0.3-1.9-0.8-2.8-1.3c0.3,3.4,0.6,8.2-0.4,9.3c-1.7,1.7-21.1,6.5-24.3,9.9s-2,13.3-2,13.3h33.4h3.7
						h31.9C-1571.9,804.5-1570.7,800.8-1571.2,796.5z"/>
					<path id="XMLID_83_" class="st11" d="M-1570.3,801.2c0-0.1,0-0.2,0-0.3v-0.1c-0.1-3.1-0.5-6.8-2.2-8.4
						c-3.2-3.2-20.8-8.1-22.5-9.1c-1.8-0.9-2.5-0.4-2.5-4.2l0,0c0-1.4,0-3,0.1-4.5c0-0.6,0-1.3,0.1-1.8c-2.8,1.6-5.7,2.6-8.7,2.6
						c-1.8,0-3.6-0.4-5.4-1c0.4,2.4,1.3,5.3,3.4,7.6c4.5,4.9,8.3,4.5,17.5,5.6c9.2,1.2,17.8,4.2,18.5,9.2c0.5,4.3,0.2,7.7,0,8.7h1.6
						C-1570.5,805.5-1570.3,803.6-1570.3,801.2z"/>
					<path id="XMLID_82_" class="st43" d="M-1570.3,801.2c0-0.1,0-0.2,0-0.3v-0.1c-0.1-3.1-0.5-6.8-2.2-8.4
						c-3.2-3.2-20.8-8.1-22.5-9.1c-1.8-0.9-2.5-0.4-2.5-4.2l0,0c0-1.4,0-3,0.1-4.5c0-0.6,0-1.3,0.1-1.8c-2.8,1.6-5.7,2.6-8.7,2.6
						c-1.8,0-3.6-0.4-5.4-1c0.4,2.4,1.3,5.3,3.4,7.6c4.5,4.9,8.3,4.5,17.5,5.6c9.2,1.2,17.8,4.2,18.5,9.2c0.5,4.3,0.2,7.7,0,8.7h1.6
						C-1570.5,805.5-1570.3,803.6-1570.3,801.2z"/>
				</g>
				<g id="XMLID_77_">
					<path id="XMLID_80_" class="st34" d="M-1631.9,787.8l5.9-1.2c0,0,24,6.7,39.5-0.3l5.7,1.3c0,0-1.8,14.4,0,18.1h-52.5
						C-1633.3,805.7-1629.3,796-1631.9,787.8z"/>
					<path id="XMLID_79_" class="st44" d="M-1584.1,787l-10.3-3.6l-9.7,6.1c0,0,1.8,5,6.2,7C-1593.5,798.4-1584.1,787-1584.1,787z"
						/>
					<path id="XMLID_78_" class="st44" d="M-1627.1,786.3l10.3-2.9l9.7,6.1c0,0-1.8,5-6.2,7
						C-1617.7,798.4-1627.1,786.3-1627.1,786.3z"/>
				</g>
			</g>
		</g>
		<path class="st45" d="M-1498.8,752.2"/>
	</g>
	<g id="Layer_2_1_" class="st1">
	</g>
</g>
<g id="Layer_2_2_">
	<g id="Layer_1_3_">
		<g id="XMLID_10_">
			<g id="XMLID_8_" class="st0">
				<path id="XMLID_9_" class="st46" d="M-375,289.1c-9.3-16.8,10-46.9,1-53.8c-8.9-6.9,4.6-20.8-6.6-31.1
					c-11.4-10.6-0.2-19.5-11.6-28.9c-11.4-9.4-5.2-22.4-37.2-39.9c-14.1-7.7-24.9-8.9-32.6-8.1l0,0c-7.7-1-18.5,0.2-32.6,8.1
					c-32,17.4-25.7,30.5-37.2,39.9s-0.2,18.3-11.6,28.9c-11.4,10.6,2.1,24.3-6.6,31.1c-8.9,6.9,10.4,37,1,53.8
					c-9.3,17,0.6,38.4,17.4,44c8.5,2.9,29.3,2.9,48.2,2.1c1-2.7,7.3-18.1,9.8-41.9c-19.9-7.1-34.7-31.4-35.7-60.6
					c0.6-6.4,1.9-12.9,4.6-16.8c7.5-11.4,19.3-9.1,26.8-29.7c0,0,0.6,19.7,21.6,23.5c21,3.7,28.4-2.9,38.6,13.1
					c1.9,2.9,3.1,5.8,3.9,8.7c-0.6,29.9-15.6,55-35.9,62.1c2.5,23.9,8.5,39.5,9.8,41.9c18.9,0.6,39.7,0.6,48.2-2.1
					C-375.4,327.5-365.5,306.2-375,289.1z"/>
				<path id="XMLID_5_" class="st47" d="M-319.5,223.9c-11.4-10.4-0.2-19.3-11.6-28.7c-11.4-9.1-5.2-22.2-37.2-39.7
					c-14.1-7.7-24.9-8.9-32.6-7.9l0,0c-7.7-1-18.5,0.2-32.6,7.9c-32,17.2-25.7,30.3-37.2,39.7c-11.4,9.1-0.2,18.1-11.6,28.7
					c-11.4,10.4,23,31.8,34.5,21.6c0.8-4.8,1.7-6.9,3.7-10c7.5-11.2,19.3-9.1,26.8-29.5c0,0,0.6,19.5,21.6,23.3
					c21,3.5,28.4-2.9,38.6,12.9c1.9,2.9,3.7,7.1,4.6,10C-352.5,253.4-309.5,233-319.5,223.9z"/>
				<path id="XMLID_6_" class="st46" d="M-334.8,246c-3.7-6.9,5.6-17.9-4.4-26.4c-11.4-9.8-0.2-18.3-11.6-26.8
					c-11.4-8.7-5.2-21-37.2-37.2c-14.1-7.3-24.9-8.3-32.6-7.5l0,0c-7.7-0.8-18.5,0.2-32.6,7.5c-32,16.2-25.7,28.4-37.2,37.2
					c-11.4,8.7-0.2,17-11.6,26.8c-11.4,9.8,2.1,22.6-6.6,29.1c-0.8,0.6-1.2,1.2-1.7,2.1c15.8,1.9,31.1,0.8,42.6-8.7
					c0.8-4.6,2.1-8.7,4.2-11.6c7.5-10.6,19.3-8.5,26.8-27.6c0,0,0.6,18.3,21.6,21.8c21,3.3,28.4-2.7,38.6,12
					c1.9,2.7,2.9,5.6,3.7,8.3c0,1,0.2,2.1,0.2,3.1C-360.2,249.1-347.5,248.3-334.8,246z"/>
			</g>
			<g>
				<g id="XMLID_135_">
					
						<radialGradient id="XMLID_43_" cx="-230.6181" cy="271.3529" r="70.0393" gradientTransform="matrix(1 0 0 1 0 4)" gradientUnits="userSpaceOnUse">
						<stop  offset="0" style="stop-color:#F2B68B"/>
						<stop  offset="1" style="stop-color:#E5BD9F"/>
					</radialGradient>
					<path id="XMLID_3_" class="st48" d="M-167.4,252.5c-4.2-5.8-11.2,0-11.2,0s0-3.3,0-6.6c0,0-3.9-43.2-51.9-43.2
						s-51.1,43.6-51.1,40.3c0-1-0.2,2.7-0.4,9.3c-1.7-0.8-6-6-10.8,0.2c-3.3,4.4-8.3,14.9-2.3,25.1c3.5,6,9.3,11.2,12.7,13.7
						c0.2,4.8,1.7,6.6,1.9,10.4c1.5,15.8,16,33.4,32,41.5c5.8,2.9,11.6,4.8,17.2,4.8c6.2,0,12.5-2.1,18.3-5.4
						c15.4-8.9,27.8-26.6,30.5-38.2c1.2-5.6,2.1-10,2.1-11.4l0,0c0,0,11-6.4,14.9-15.2C-161,268.9-164.1,257.1-167.4,252.5z"/>
					
						<linearGradient id="XMLID_44_" gradientUnits="userSpaceOnUse" x1="-245.1987" y1="299.3289" x2="-219.1576" y2="299.3289" gradientTransform="matrix(1 0 0 1 0 8)">
						<stop  offset="0" style="stop-color:#E28C47"/>
						<stop  offset="3.763440e-02" style="stop-color:#E48D48"/>
						<stop  offset="1" style="stop-color:#E39E68"/>
					</linearGradient>
					<path id="XMLID_177_" class="st49" d="M-245.1,305.2c0,0,1.9-1,3.9,0c4.4,2.1,10.8,2.7,14.9,0.8c3.9-1.7,5-2.1,7.1-1.2
						c0,0-2.1-0.2-3.9,0.8c-1.9,1.2-3.9,4.2-7.3,4.6C-238.2,311.3-240.1,304.4-245.1,305.2z"/>
					<g id="XMLID_265_" class="st5">
						
							<radialGradient id="XMLID_45_" cx="-829.8368" cy="-67.9883" r="15.1763" gradientTransform="matrix(1.1889 6.027944e-02 -2.088199e-02 0.7643 726.7308 399.3369)" gradientUnits="userSpaceOnUse">
							<stop  offset="0" style="stop-color:#E96565"/>
							<stop  offset="3.418660e-02" style="stop-color:#E96968;stop-opacity:0.9727"/>
							<stop  offset="0.4696" style="stop-color:#E79686;stop-opacity:0.6243"/>
							<stop  offset="0.8058" style="stop-color:#E5B298;stop-opacity:0.3554"/>
							<stop  offset="1" style="stop-color:#E5BD9F;stop-opacity:0.2"/>
						</radialGradient>
						<ellipse id="XMLID_176_" class="st50" cx="-258.4" cy="297.3" rx="18.5" ry="12.3"/>
						
							<radialGradient id="XMLID_46_" cx="-784.2963" cy="-69.8487" r="15.182" gradientTransform="matrix(1.1889 6.027944e-02 -2.088199e-02 0.7643 726.7488 398.0139)" gradientUnits="userSpaceOnUse">
							<stop  offset="0" style="stop-color:#E96565"/>
							<stop  offset="3.418660e-02" style="stop-color:#E96968;stop-opacity:0.9727"/>
							<stop  offset="0.4696" style="stop-color:#E79686;stop-opacity:0.6243"/>
							<stop  offset="0.8058" style="stop-color:#E5B298;stop-opacity:0.3554"/>
							<stop  offset="1" style="stop-color:#E5BD9F;stop-opacity:0.2"/>
						</radialGradient>
						<ellipse id="XMLID_175_" class="st51" cx="-204.2" cy="297.3" rx="18.5" ry="12.3"/>
					</g>
					<g id="XMLID_238_">
						
							<linearGradient id="XMLID_47_" gradientUnits="userSpaceOnUse" x1="-231.4911" y1="313.834" x2="-231.4911" y2="309.711" gradientTransform="matrix(1 0 0 1 0 8)">
							<stop  offset="0" style="stop-color:#B12323"/>
							<stop  offset="1" style="stop-color:#E96565"/>
						</linearGradient>
						<path id="XMLID_157_" class="st52" d="M-246.7,321.9c0,0,4.8-3.5,8.9-3.9c1.9-0.2,2.5,0.8,5.2,0.8c3.5,0,4.6-1.7,7.3-0.8
							c0.6,0.2,9.1,3.9,9.1,3.9H-246.7z"/>
						
							<linearGradient id="XMLID_49_" gradientUnits="userSpaceOnUse" x1="-7252.6846" y1="-1248.5562" x2="-7252.6846" y2="-1258.2275" gradientTransform="matrix(-1 0 0 -1 -7484.4258 -926.7383)">
							<stop  offset="0" style="stop-color:#B12323"/>
							<stop  offset="1" style="stop-color:#E96565"/>
						</linearGradient>
						<path id="XMLID_156_" class="st53" d="M-217.5,321.9c0,0-1.7,6.6-6,8.5c-4.8,2.1-13.3,2.3-18.5-1.2c-2.9-2.1-3.9-7.3-3.9-7.3
							H-217.5z"/>
						<path id="XMLID_155_" class="st10" d="M-249.9,320.2c0,0,1.7,1.7,6.2,1.7s25.3,0,25.3,0s2.1-0.6,4.6-1.7c0,0-1.9,2.7-7.7,2.7
							s-21.4,0-21.4,0S-247.4,323.1-249.9,320.2z"/>
						<path id="XMLID_154_" class="st10" d="M-242.8,322.9c0,0,10.2,10.2,21.4,0H-242.8z"/>
						<path id="XMLID_153_" class="st54" d="M-241.1,322.3h19.3C-221.8,322.3-234.7,324.8-241.1,322.3z"/>
					</g>
					<g id="XMLID_4_">
						<g id="XMLID_232_">
							
								<radialGradient id="XMLID_50_" cx="-254.9098" cy="270.8555" r="11.3322" gradientTransform="matrix(1 0 0 1 0 8)" gradientUnits="userSpaceOnUse">
								<stop  offset="0" style="stop-color:#D3AF93"/>
								<stop  offset="1" style="stop-color:#F2B68B"/>
							</radialGradient>
							<path id="XMLID_151_" class="st55" d="M-269,276.4c0,0,2.9,7.3,8.7,9.1c5.8,1.9,19.5,0,19.5,0s1-4.4-5-10.2
								C-251.5,269.5-265,270.4-269,276.4z"/>
							<path id="XMLID_150_" class="st11" d="M-267.1,275.3c0,0,1.5,8.1,7.1,9.6s18.5,0,18.5,0s0.4-5.2-9.1-9.6
								C-260.2,271-267.1,275.3-267.1,275.3z"/>
							
								<radialGradient id="XMLID_51_" cx="-252.3946" cy="272.3553" r="5.4397" gradientTransform="matrix(1 0 0 1 0 8)" gradientUnits="userSpaceOnUse">
								<stop  offset="0" style="stop-color:#29ABE2"/>
								<stop  offset="1" style="stop-color:#007E9A"/>
							</radialGradient>
							<path id="XMLID_149_" class="st56" d="M-252.4,274.7c0.6,0,1,0,1.7,0.2c-0.8,0.4-1.7,1.5-1.7,2.5c0,1.5,1.2,2.7,2.7,2.7
								c1,0,2.1-0.6,2.5-1.7c0.2,0.4,0.2,1,0.2,1.7c0,3.1-2.3,5.6-5.4,5.6c-2.9,0-5.4-2.5-5.4-5.6
								C-257.8,277.2-255.3,274.7-252.4,274.7z"/>
							<circle id="XMLID_148_" class="st14" cx="-251.9" cy="280.1" r="2.3"/>
							<path id="XMLID_147_" class="st14" d="M-240.7,281.8c0,0-4.2-6.2-13.9-8.3c-9.8-2.1-16.4,0-16.4,0l3.3,4.6
								c0,0,0.6-1.9,3.9-2.7C-260.2,274.5-249,274.1-240.7,281.8z"/>
						</g>
						<g id="XMLID_226_">
							
								<radialGradient id="XMLID_52_" cx="-7246.0322" cy="270.8555" r="11.3238" gradientTransform="matrix(-1 0 0 1 -7454.4414 8)" gradientUnits="userSpaceOnUse">
								<stop  offset="0" style="stop-color:#D3AF93"/>
								<stop  offset="1" style="stop-color:#F2B68B"/>
							</radialGradient>
							<path id="XMLID_146_" class="st57" d="M-194.2,276.4c0,0-2.9,7.3-8.7,9.1c-5.8,1.9-19.5,0-19.5,0s-1-4.4,5-10.2
								C-211.7,269.5-198.2,270.4-194.2,276.4z"/>
							<path id="XMLID_145_" class="st11" d="M-196.1,275.3c0,0-1.5,8.1-7.1,9.6s-18.5,0-18.5,0s-0.4-5.2,9.1-9.6
								C-202.9,271-196.1,275.3-196.1,275.3z"/>
							
								<radialGradient id="XMLID_53_" cx="-7243.5527" cy="272.3553" r="5.4368" gradientTransform="matrix(-1 0 0 1 -7454.4414 8)" gradientUnits="userSpaceOnUse">
								<stop  offset="0" style="stop-color:#29ABE2"/>
								<stop  offset="1" style="stop-color:#007E9A"/>
							</radialGradient>
							<path id="XMLID_144_" class="st58" d="M-210.8,274.7c-0.6,0-1,0-1.7,0.2c0.8,0.4,1.7,1.5,1.7,2.5c0,1.5-1.2,2.7-2.7,2.7
								c-1,0-2.1-0.6-2.5-1.7c-0.2,0.4-0.2,1-0.2,1.7c0,3.1,2.3,5.6,5.4,5.6c2.9,0,5.4-2.5,5.4-5.6
								C-205.4,277.2-207.9,274.7-210.8,274.7z"/>
							<circle id="XMLID_143_" class="st14" cx="-211.2" cy="280.1" r="2.3"/>
							<path id="XMLID_142_" class="st14" d="M-222.5,281.8c0,0,4.2-6.2,13.9-8.3c9.8-2.1,16.4,0,16.4,0l-3.3,4.6
								c0,0-0.6-1.9-3.9-2.7C-202.9,274.5-214.1,274.1-222.5,281.8z"/>
						</g>
						<g id="XMLID_221_">
							<g id="XMLID_224_">
								<path id="XMLID_141_" class="st17" d="M-243.4,267.4c0,0-1.5-4.4-7.5-5.4c-7.3-1.5-14.7,2.1-17,3.9
									C-267.9,266-255.1,258.5-243.4,267.4z"/>
							</g>
							<g id="XMLID_222_">
								<path id="XMLID_140_" class="st17" d="M-219.5,267.9c0,0,1.5-4.4,7.5-5.4c7.3-1.5,14.7,2.1,17,3.9
									C-195,266.4-207.9,258.9-219.5,267.9z"/>
							</g>
						</g>
						<g id="XMLID_271_">
							
								<radialGradient id="XMLID_54_" cx="-249.5655" cy="148.9288" r="16.5166" gradientTransform="matrix(0.9988 4.857015e-02 -2.994641e-02 0.6158 -1.9692 193.6568)" gradientUnits="userSpaceOnUse">
								<stop  offset="0" style="stop-color:#E96565"/>
								<stop  offset="3.418660e-02" style="stop-color:#E96968;stop-opacity:0.9727"/>
								<stop  offset="0.4696" style="stop-color:#E79686;stop-opacity:0.6243"/>
								<stop  offset="0.8058" style="stop-color:#E5B298;stop-opacity:0.3554"/>
								<stop  offset="1" style="stop-color:#E5BD9F;stop-opacity:0.2"/>
							</radialGradient>
							<path id="XMLID_181_" class="st59" d="M-240.7,284.5c0,0-2.7-12.5-2.7-15.8s-9.6-8.7-18.3-5.8c-8.7,2.9-8.9,10.8-8.9,10.8
								s16.2-1.5,22.2,2.5C-242.4,280.1-240.7,284.5-240.7,284.5z"/>
							
								<radialGradient id="XMLID_55_" cx="-7237.457" cy="630.3994" r="16.5166" gradientTransform="matrix(-0.9988 4.857015e-02 2.994641e-02 0.6158 -7454.9961 236.5701)" gradientUnits="userSpaceOnUse">
								<stop  offset="0" style="stop-color:#E96565"/>
								<stop  offset="3.418660e-02" style="stop-color:#E96968;stop-opacity:0.9727"/>
								<stop  offset="0.4696" style="stop-color:#E79686;stop-opacity:0.6243"/>
								<stop  offset="0.8058" style="stop-color:#E5B298;stop-opacity:0.3554"/>
								<stop  offset="1" style="stop-color:#E5BD9F;stop-opacity:0.2"/>
							</radialGradient>
							<path id="XMLID_180_" class="st60" d="M-222.2,284.5c0,0,2.7-12.5,2.7-15.8s9.6-8.7,18.3-5.8c8.7,2.9,8.9,10.8,8.9,10.8
								s-16.2-1.5-22.2,2.5C-220.6,280.1-222.2,284.5-222.2,284.5z"/>
						</g>
					</g>
				</g>
				<g id="XMLID_2_">
					
						<radialGradient id="XMLID_56_" cx="-177.1847" cy="293.2283" r="136.9153" fx="-210.6118" fy="220.5682" gradientTransform="matrix(0.9622 0 0 -0.9628 -58.5129 561.4149)" gradientUnits="userSpaceOnUse">
						<stop  offset="0" style="stop-color:#C4862E"/>
						<stop  offset="0.1879" style="stop-color:#CE9938"/>
						<stop  offset="0.465" style="stop-color:#D9AD42"/>
						<stop  offset="0.7381" style="stop-color:#E0BA49"/>
						<stop  offset="1" style="stop-color:#E2BE4B"/>
					</radialGradient>
					<path id="XMLID_12_" class="st61" d="M-138.8,338.8c-9.6-17.4,10.2-48.7,1-55.6c-9.1-7.2,4.7-21.5-7-32.2
						c-11.7-10.9-0.4-20.1-12.1-29.8c-11.7-9.6-5.3-23.3-38.4-41.4c-14.6-8.2-25.8-9.5-33.6-8.4l0,0c-7.8-1-19,0.2-33.8,8.4
						c-33.1,18-26.5,31.7-38.4,41.4c-11.9,9.6-0.4,19-12.1,29.8c-11.7,10.9,2.2,25.2-7,32.2c-9.3,7.2,10.6,38.4,1,55.6
						c-9.6,17.7,0.6,39.7,18,45.6c8.8,3.1,30.4,3.1,49.8,2.2c1.1-2.7,7.4-18.8,10-43.5c-20.5-7.2-35.7-32.5-36.8-62.9
						c0.7-6.7,1.9-13.3,4.7-17.4c7.8-11.7,19.9-9.5,27.7-30.8c0,0,0.6,20.4,22.3,24.1c21.6,3.8,29.4-2.8,39.9,13.5
						c1.9,2.8,3.2,6.1,4,9.1c-0.6,31-16.2,56.8-37.2,64.2c2.5,24.7,8.9,40.9,10,43.5c19.5,0.7,41,0.7,49.8-2.2
						C-139.4,378.6-129,356.4-138.8,338.8z"/>
					
						<radialGradient id="XMLID_57_" cx="-174.2299" cy="319.8001" r="112.5631" gradientTransform="matrix(0.9622 0 0 -0.9628 -58.5129 561.4149)" gradientUnits="userSpaceOnUse">
						<stop  offset="0" style="stop-color:#C4862E"/>
						<stop  offset="0.4068" style="stop-color:#CE9738"/>
						<stop  offset="1" style="stop-color:#E1B84A"/>
						<stop  offset="1" style="stop-color:#E2BE4B"/>
					</radialGradient>
					<path id="XMLID_11_" class="st62" d="M-145.4,251.1c-11.7-10.9-0.4-19.9-12.1-29.6c-11.7-9.5-5.3-23.2-38.4-41
						c-14.6-8-25.8-9.3-33.8-8.2l0,0c-7.8-1-19,0.2-33.8,8.2c-33.1,17.9-26.5,31.4-38.4,41c-11.7,9.5-0.4,18.8-12.1,29.6
						c-4.2,27.1,3.5,38.5,35.7,22.4c0.7-4.9,1.9-7.2,4-10.5c7.8-11.7,19.9-9.3,27.7-30.4c0,0,0.6,20.4,22.3,24
						c21.6,3.8,29.4-2.8,39.9,13.3c1.9,2.8,3.8,7.2,4.6,10.5C-179.5,281.5-135.2,260.6-145.4,251.1z"/>
					
						<radialGradient id="XMLID_58_" cx="-173.6939" cy="361.6333" r="93.7804" fx="-173.7019" fy="327.4273" gradientTransform="matrix(0.9622 0 0 -0.9628 -58.5129 561.4149)" gradientUnits="userSpaceOnUse">
						<stop  offset="0" style="stop-color:#C4862E"/>
						<stop  offset="0" style="stop-color:#C68830"/>
						<stop  offset="0" style="stop-color:#D09E2A"/>
						<stop  offset="0.6685" style="stop-color:#DBAE3E"/>
						<stop  offset="1" style="stop-color:#E1B84A"/>
						<stop  offset="1" style="stop-color:#E2BE4B"/>
					</radialGradient>
					<path id="XMLID_7_" class="st63" d="M-140.3,272.6c-3.8-7.2,5.7-18.4-4.6-27.3c-11.7-10-0.4-18.8-12.1-27.7
						c-11.7-8.9-5.3-21.6-38.4-38.5c-14.6-7.4-25.8-8.8-33.8-7.8l0,0c-7.8-1-19,0.2-33.8,7.8c-33.1,16.7-26.5,29.4-38.4,38.5
						c-11.7,8.9-0.4,17.7-12.1,27.7c-11.7,10,2.2,23.3-7,30.1c-0.7,0.6-1.4,1.4-1.7,2.2c16.3,1.9,32.2,0.7,44.1-8.9
						c0.7-4.7,2.1-8.9,4.3-12c7.8-11,19.9-8.8,27.7-28.7c0,0,0.6,19,22.3,22.6c21.6,3.6,29.4-2.7,39.9,12.5c1.9,2.7,2.8,5.7,3.8,8.5
						c0,1.1,0.2,2.1,0.2,3.5C-166.7,275.8-153.3,274.9-140.3,272.6z"/>
				</g>
				<g id="XMLID_173_">
					<g id="XMLID_183_">
						
							<radialGradient id="XMLID_59_" cx="-351.6616" cy="336.9662" r="53.0797" gradientTransform="matrix(1.0356 0 0 1.0227 133.1803 4.8302)" gradientUnits="userSpaceOnUse">
							<stop  offset="0" style="stop-color:#F2B68B"/>
							<stop  offset="1" style="stop-color:#E5BD9F"/>
						</radialGradient>
						<path id="XMLID_188_" class="st64" d="M-160.6,388.7c-1.2-10.4-19.1-16.6-38.4-19.1c-19.1-2.5-27-1.7-36.3-11.8
							c-4.4-4.8-6.2-10.8-7.1-15.8c-2.1-0.6-3.9-1.7-5.8-2.7c0.6,7.1,1.2,17-0.8,19.3c-3.5,3.5-43.8,13.5-50.5,20.6
							c-6.6,7.1-4.2,27.6-4.2,27.6h69.4h7.7h66.2C-160.2,404.7-159.3,397.6-160.6,388.7z"/>
						
							<radialGradient id="XMLID_60_" cx="-351.5446" cy="336.9557" r="53.0052" gradientTransform="matrix(1.0356 0 0 1.0227 133.1803 4.8302)" gradientUnits="userSpaceOnUse">
							<stop  offset="0" style="stop-color:#F2B68B"/>
							<stop  offset="1" style="stop-color:#E5BD9F"/>
						</radialGradient>
						<path id="XMLID_246_" class="st65" d="M-208.1,360.7c3.7,1.9,40.1,12.3,46.7,18.9c3.5,3.5,4.6,11,4.6,17.4
							c0-6.2-1-13.9-4.6-17.6c-6.6-7.1-46.9-17-50.5-20.6c-1-1-1.5-3.5-1.5-6.9l0,0C-213.3,359.6-211.9,358.6-208.1,360.7z"/>
						
							<radialGradient id="XMLID_61_" cx="-280.0515" cy="383.9576" r="0.2182" gradientTransform="matrix(1.0356 0 0 1.0227 133.1803 4.8302)" gradientUnits="userSpaceOnUse">
							<stop  offset="0" style="stop-color:#F2B68B"/>
							<stop  offset="1" style="stop-color:#E5BD9F"/>
						</radialGradient>
						<path id="XMLID_247_" class="st66" d="M-156.8,397.2c0,0.2,0,0.4,0,0.6C-156.8,397.6-156.8,397.4-156.8,397.2z"/>
						
							<radialGradient id="XMLID_160_" cx="-351.6616" cy="336.9557" r="53.0612" gradientTransform="matrix(1.0356 0 0 1.0227 133.1803 4.8302)" gradientUnits="userSpaceOnUse">
							<stop  offset="0" style="stop-color:#F2B68B"/>
							<stop  offset="1" style="stop-color:#E5BD9F"/>
						</radialGradient>
						<path id="XMLID_248_" class="st67" d="M-212.7,338.7c0,0-0.2,0-0.2,0.2c0,1.2-0.2,2.5-0.2,3.7
							C-212.9,341.2-212.9,339.9-212.7,338.7z"/>
						
							<radialGradient id="XMLID_190_" cx="-156.8411" cy="383.5099" r="9.206817e-02" gradientTransform="matrix(1 0 0 1.0227 0 4.8302)" gradientUnits="userSpaceOnUse">
							<stop  offset="0" style="stop-color:#F2B68B"/>
							<stop  offset="1" style="stop-color:#E5BD9F"/>
						</radialGradient>
						<path id="XMLID_252_" class="st68" d="M-156.8,396.8L-156.8,396.8C-156.8,397-156.8,397-156.8,396.8z"/>
						
							<radialGradient id="XMLID_191_" cx="-221.1279" cy="356.077" r="52.4059" gradientTransform="matrix(1 0 0 1.0227 0 4.8302)" gradientUnits="userSpaceOnUse">
							<stop  offset="0" style="stop-color:#F2B68B"/>
							<stop  offset="1" style="stop-color:#E5BD9F"/>
						</radialGradient>
						<path id="XMLID_254_" class="st69" d="M-156.8,397.6c0,5-0.4,9.1-0.4,9.1h-3.3l0,0h3.3C-157.3,406.8-156.8,402.8-156.8,397.6z
							"/>
						
							<radialGradient id="XMLID_192_" cx="-221.1279" cy="355.4871" r="52.8027" gradientTransform="matrix(1 0 0 1.0227 0 4.8302)" gradientUnits="userSpaceOnUse">
							<stop  offset="0" style="stop-color:#F2B68B"/>
							<stop  offset="1" style="stop-color:#E5BD9F"/>
						</radialGradient>
						<path id="XMLID_255_" class="st70" d="M-213.3,351.8c0-2.9,0.2-6.2,0.4-9.3C-213.3,345.7-213.5,349.1-213.3,351.8z"/>
						
							<radialGradient id="XMLID_193_" cx="-351.6577" cy="336.9651" r="53.0772" gradientTransform="matrix(1.0356 0 0 1.0227 133.1803 4.8302)" gradientUnits="userSpaceOnUse">
							<stop  offset="0" style="stop-color:#F2B68B"/>
							<stop  offset="1" style="stop-color:#E5BD9F"/>
						</radialGradient>
						<path id="XMLID_257_" class="st71" d="M-156.8,397.8c0-0.2,0-0.4,0-0.6V397c-0.2-6.4-1-14.1-4.6-17.4
							c-6.6-6.6-43.2-16.8-46.7-18.9c-3.7-1.9-5.2-0.8-5.2-8.7l0,0c0-2.9,0-6.2,0.2-9.3c0-1.2,0-2.7,0.2-3.7
							c-5.8,3.3-11.8,5.4-18.1,5.4c-3.7,0-7.5-0.8-11.2-2.1c0.8,5,2.7,11,7.1,15.8c9.3,10.2,17.2,9.3,36.3,11.6
							c19.1,2.5,37,8.7,38.4,19.1c1,8.9,0.4,16,0,18.1h3.3C-157.3,406.8-156.8,402.8-156.8,397.8z"/>
						<path id="XMLID_256_" class="st72" d="M-156.8,397.8c0-0.2,0-0.4,0-0.6V397c-0.2-6.4-1-14.1-4.6-17.4
							c-6.6-6.6-43.2-16.8-46.7-18.9c-3.7-1.9-5.2-0.8-5.2-8.7l0,0c0-2.9,0-6.2,0.2-9.3c0-1.2,0-1.7,0.2-2.7
							c-5.8,3.3-11.8,4.4-18.1,4.4c-3.7,0-7.5-0.8-11.2-2.1c0.8,5,2.7,11,7.1,15.8c9.3,10.2,17.2,9.3,36.3,11.6
							c19.1,2.5,37,8.7,38.4,19.1c1,8.9,0.4,16,0,18.1h3.3C-157.3,406.8-156.8,402.8-156.8,397.8z"/>
					</g>
					<g id="XMLID_174_">
						<path id="XMLID_244_" class="st14" d="M-283.5,371.5l11.4-3.9c0,0,49.8,13.9,82-0.6l11.8,2.7c0,0-3.7,29.9,0,37.6h-109
							C-287.2,407.2-278.1,388.5-283.5,371.5z"/>
						<path id="XMLID_179_" class="st11" d="M-185.1,368.2l-21.4-7.5l-20.1,12.7c0,0,3.7,10.4,12.9,14.5
							C-204.6,392-185.1,368.2-185.1,368.2z"/>
						<path id="XMLID_178_" class="st11" d="M-274.4,368.2l21.4-7.5l20.1,12.7c0,0-3.7,10.4-12.9,14.5
							C-254.8,392-274.4,368.2-274.4,368.2z"/>
					</g>
				</g>
			</g>
		</g>
	</g>
</g>
</svg>
