<?xml version="1.0" encoding="utf-8"?>
<!-- Generator: Adobe Illustrator 19.0.0, SVG Export Plug-In . SVG Version: 6.00 Build 0)  -->
<svg version="1.1" id="Objects" xmlns="http://www.w3.org/2000/svg" xmlns:xlink="http://www.w3.org/1999/xlink" x="0px" y="0px"
	 viewBox="0 0 800 800" style="enable-background:new 0 0 800 800;" xml:space="preserve">
<style type="text/css">
	.st0{opacity:0.32;fill:#3D3D3D;}
	.st1{fill:#A4DB2F;}
	.st2{fill:#7EB111;}
	.st3{fill:#D2FC6B;}
	.st4{fill:#C83458;}
	.st5{fill:#B74255;}
	.st6{fill:#3D3D3D;}
	.st7{fill:#9B1E27;}
	.st8{fill:#FFFFFF;}
	.st9{fill:#D3F5FF;}
	.st10{fill:#D63225;}
	.st11{fill:#B72B30;}
	.st12{fill:#D86461;}
	.st13{fill:#A4DB2F;stroke:#99C923;stroke-width:1.8617;stroke-miterlimit:10;}
	.st14{fill:#6F960F;}
	.st15{fill:#38CCE4;}
	.st16{fill:#10A0C1;}
</style>
<g>
	<g>
		<g>
			<g>
				<path class="st0" d="M612.9,636.4c0-19.1-91.3-34.6-204-34.6s-204,15.5-204,34.6c0,6.3,9.9,12.1,27,17.2
					c-5.5,4.2-8.6,8.8-8.6,13.7c0,19.1,47.3,34.6,105.7,34.6c54.8,0,99.9-13.7,105.1-31.2C534.8,668.6,612.9,654.1,612.9,636.4z"/>
				<g>
					<g>
						<path class="st1" d="M194.8,424.7c-56.8,48.5-65,124.3-11.2,112.6c31.7-6.9,82.8-79.8,98.3-121.6
							C297.4,373.8,251.6,376.3,194.8,424.7z"/>
						<path class="st2" d="M211.6,520c28.1-25.7,58.9-73.4,70.3-104.3c10.2-27.5-6.1-35.9-34.7-24.6c0,19.6-0.7,62.7-6.5,77.9
							C235.6,482.3,220.8,505.8,211.6,520z"/>
						<path class="st1" d="M496.5,629.9c-53.3-12.9-130.4-13.7-185.8,2.8c-21.1,7.2-90.4,22.4-83.4-42.4
							c20.4-106,32.9-206.9,26.8-296c0-21,17.2-38.3,38.3-38.3l214.3-24.2c21,0,38.3,17.2,38.3,38.3c-7.4,94,8.7,204.7,30.6,320.2
							C585.1,652.2,520.5,636.2,496.5,629.9z"/>
						<path class="st3" d="M270.9,281.4c14.5-16.4,85.1-24,99-29.8c2.3-1,4.8-2.8,7.3-5.1l-84.8,9.6c-21,0-38.3,17.2-38.3,38.3
							c1.3,19.2,1.8,39,1.5,59.3C258.7,322.8,263.6,289.7,270.9,281.4z"/>
						<path class="st2" d="M543.9,287.5c0,0-9.7,43.9-8.8,60.5c0.9,16.6,6,139.3,6.8,175c0.8,35.8,16.4,48.4-22.5,66.5
							c-38.9,18.1-204.2,42.6-230.1,35.1c-17-4.9-41.1,2.5-60.5-10.7c10.8,37,64,25,81.9,18.9c55.4-16.6,132.5-15.7,185.8-2.8
							c24,6.3,88.7,22.3,79.1-39.5C555,481.9,539.6,377.6,543.9,287.5L543.9,287.5z"/>
						<path class="st1" d="M609.5,424.7c56.8,48.5,65,124.3,11.2,112.6c-31.7-6.9-82.8-79.8-98.3-121.6
							C506.9,373.8,552.7,376.3,609.5,424.7z"/>
						<path class="st2" d="M653.4,488.3c-2.6,13.4-8.8,25.2-21.7,28.1c-22.3,5.1-67.4-28.4-67.4-28.4c19,25,40.3,45.8,56.5,49.3
							C653.2,544.4,663,519.7,653.4,488.3z"/>
					</g>
					<g>
						<g>
							<path class="st4" d="M457.7,626.7c-35.1-8.5-86-9-122.4,1.9c-13.9,4.7-59.6,14.7-54.9-27.8c13.5-69.7,21.7-136,17.7-194.4
								c0-13.8,11.3-25.1,25.2-25.1l141.2-15.9c13.9,0,25.2,11.3,25.2,25.1c-4.9,61.7,5.8,134.5,20.2,210.4
								C516.1,641.4,473.5,630.8,457.7,626.7z"/>
							<path class="st5" d="M461.1,630.2c-34.6-8.5-84.9-9-120.9,1.9c-13.7,4.7-58.8,14.7-54.2-27.8c13.3-69.7,21.4-136,17.4-194.4
								c0-13.8,11.2-25.1,24.9-25.1l139.4-15.9c13.7,0,24.9,11.3,24.9,25.1c-4.8,61.7,5.7,134.5,19.9,210.4
								C518.8,644.9,476.7,634.3,461.1,630.2z"/>
							<circle class="st6" cx="404.3" cy="551.3" r="45.4"/>
							<path class="st7" d="M340.3,632.1c36-10.9,86.2-10.3,120.9-1.9c15.6,4.1,57.7,14.7,51.5-26c-8.8-46.9-16.1-92.6-19.4-135.2
								c-2.8,24-0.5,55.8-10.5,59.8c-29.3,11.8-106,30.6-112.9,27.4c-7.2-3.4-45.6-12.7-56.1-7.3c-6.5,3.3-9.5-33-12.1-50.4
								c-3.1,33.9-8.6,69.3-15.6,105.7C281.5,646.8,326.6,636.8,340.3,632.1z"/>
							<polygon class="st8" points="328.3,384.7 342.1,411.1 349.3,403.1 442.7,400.4 453.3,416.3 465.7,369 							"/>
							<path class="st9" d="M330,387.9c21.8-2.2,107.1-9.7,133.8-12.1l1.8-6.8l-137.3,15.7L330,387.9z"/>
							<polygon class="st9" points="344.7,408.3 349.3,396.6 357.2,402.9 349.3,403.1 							"/>
							<polygon class="st9" points="408.3,401.4 444.6,398.1 451,412.9 442.7,400.4 							"/>
							<path class="st9" d="M459.9,391c0-0.1,5.8-22.1,5.8-22.1l-6.4,0.7C459.3,369.7,459.9,391.1,459.9,391z"/>
						</g>
						<g>
							<path class="st10" d="M505.7,565.7c0,0-23.3-21.2-56.4-21.2s-63.8,21.2-63.8,21.2s-44.6-23-74-10.6
								c-29.3,12.4-77.2,74.9-60.3,102.9c16.9,28.1,80.7,26.8,117.7,16.6c37-10.2,80.4-17.9,95.7-15.3c15.3,2.6,54.9-0.5,54.8-39.2
								C519.4,609.6,515.1,572.6,505.7,565.7z"/>
							<path class="st11" d="M519.4,620c0-9.6-3.6-41.5-11.5-52c1.8,17.2,4.1,46.6-0.1,57.8c-6.2,16.3-47,0.7-58.2,2
								c-11.2,1.3-92,38.6-126,40.1c-21.9,0.9-51.8-5.6-74.3-13.9c0.5,1.4,1.1,2.7,1.8,4c16.9,28.1,80.7,26.8,117.7,16.6
								c37-10.2,80.4-17.9,95.7-15.3C479.9,661.8,519.5,658.8,519.4,620z"/>
							<path class="st7" d="M508.8,643c-9.8,11.6-28.7,11-35.9,10.5c-7.2-0.5-33-2.5-44,0.2c-9.2,2.2-65.3,19.8-83.9,25.6
								c8.6-1.2,16.8-2.8,24-4.8c37-10.2,80.4-17.9,95.7-15.3c15.3,2.6,54.9-0.5,54.8-39.2c0-4.4-0.8-13.6-2.4-23.3
								C517,596.9,518.5,631.5,508.8,643z"/>
							<path class="st11" d="M373,560.2c-4.6,5.6-11.1,14.7-14.2,24.4c-4.9,15.8-4.7,33.5-4.7,33.5s0-10.5,8.1-23.4
								c8.1-12.9,23.1-29,23.1-29S380.6,563.2,373,560.2z"/>
							<path class="st12" d="M344.9,552.5c-11.3-1.8-23.3-1.7-33.4,2.6c-19.3,8.1-46.5,37.9-58.2,65.3c13.1-18.3,31.9-42.7,45-52.4
								C320.2,551.8,344.9,552.5,344.9,552.5z"/>
						</g>
					</g>
				</g>
			</g>
		</g>
	</g>
	<g>
		<path class="st13" d="M505.2,205.8c0,0-37.3,56.7-34.5,98.2c0,0-5.7,7.9-14,2.2c-8.3-5.7,1.7-90.8,6.9-105.3
			C468.9,186.4,510.7,196.8,505.2,205.8z"/>
		<circle class="st1" cx="498.2" cy="171.4" r="51.8"/>
		<g>
			<ellipse class="st14" cx="497.8" cy="171.4" rx="38.7" ry="41"/>
			<circle class="st8" cx="497.8" cy="169.1" r="38.7"/>
			<path class="st9" d="M472,140.3c-4,6.1-6.3,13.3-6.3,21.1c0,21.4,17.3,38.7,38.7,38.7c9.9,0,19-3.7,25.8-9.9
				c-6.9,10.6-18.9,17.6-32.4,17.6c-21.4,0-38.7-17.3-38.7-38.7C459.1,157.7,464.1,147.4,472,140.3z"/>
			<circle class="st6" cx="497.8" cy="177" r="7.9"/>
		</g>
		<path class="st2" d="M492.2,228.6l-5.3-6.6l8.2,1l0,0C494.2,224.8,493.2,226.6,492.2,228.6z"/>
		<path class="st2" d="M469,214.2h-8.4c0.4-2.3,0.8-4.5,1.2-6.4L469,214.2z"/>
		<path class="st2" d="M454.5,264.1l10.9,4h-11.2C454.2,268.1,454.5,264.5,454.5,264.1z"/>
	</g>
	<g>
		<path class="st13" d="M292.1,223.8c0,0,37.3,56.7,34.5,98.2c0,0,5.7,7.9,14,2.2c8.3-5.7-1.7-90.8-6.9-105.3
			C328.4,204.4,286.6,214.8,292.1,223.8z"/>
		<circle class="st1" cx="299.1" cy="189.4" r="51.8"/>
		<g>
			<ellipse class="st14" cx="299.5" cy="189.4" rx="38.7" ry="41"/>
			<circle class="st8" cx="299.5" cy="187.2" r="38.7"/>
			<path class="st9" d="M325.3,158.3c4,6.1,6.3,13.3,6.3,21.1c0,21.4-17.3,38.7-38.7,38.7c-9.9,0-19-3.7-25.8-9.9
				c6.9,10.6,18.9,17.6,32.4,17.6c21.4,0,38.7-17.3,38.7-38.7C338.2,175.7,333.2,165.4,325.3,158.3z"/>
			<circle class="st6" cx="299.5" cy="195.1" r="7.9"/>
		</g>
		<path class="st2" d="M305.1,246.6l5.3-6.6l-8.2,1l0,0C303.1,242.8,304.1,244.6,305.1,246.6z"/>
		<path class="st2" d="M328.3,232.2h8.4c-0.4-2.3-0.8-4.5-1.2-6.4L328.3,232.2z"/>
		<path class="st2" d="M342.8,282.1l-10.9,4h11.2C343.1,286.1,342.8,282.5,342.8,282.1z"/>
	</g>
	<g>
		<path class="st15" d="M534.5,259.4c0,0,28.2,14.2,50.1,2.1c21.9-12.1,11.7-40.5,43.7-39.8c32.1,0.8,51.5,10.8,44.8,14.8
			c-6.7,4-36,7.6-42,18.3c-6,10.7-12.3,30.5-19.2,40.5c-14.6,21.3-74.2,12.6-74.2,12.6L534.5,259.4z"/>
		<path class="st16" d="M563.3,266.4c-1.4,0-2.8-0.1-4.2-0.2c0.4,4.2,1,9.7,2,16.9c2.2,16,8.1,23.3,11.9,26.4
			c2.1-0.1,4.2-0.3,6.3-0.5C568.4,301.8,564.6,280.1,563.3,266.4z"/>
		<path class="st16" d="M601.4,293.1c3.3,1.7,6.3,3,9.1,4c0.5-0.6,1-1.2,1.4-1.8c0.5-0.8,1.1-1.6,1.6-2.5c-1-0.3-1.9-0.7-2.8-1.1
			c-9-4.1-26.3-19.3-26.1-30.2c-0.7,0.4-1.5,0.8-2.2,1.1C583.5,270.9,587.6,286.1,601.4,293.1z"/>
		<path class="st16" d="M596.2,249.9c-0.2,0.3-0.4,0.6-0.6,0.9c5.6,4.7,17.3,12.2,32.5,10c0.5-1.1,1-2.1,1.5-3.1
			C623.9,258,610.1,257.5,596.2,249.9z"/>
		<path class="st16" d="M640,247.7c-2.7-2-6.6-5.6-11.7-11.9c-5-6.2-8.1-10.3-10.1-13c-1.1,0.3-2.1,0.6-3.1,1
			c4.5,6.8,13.3,18.8,22.3,25.3C638.2,248.6,639.1,248.1,640,247.7z"/>
		<path class="st16" d="M649.1,223.7c-1.1-0.2-2.3-0.4-3.5-0.5c0.1,0.8,0.2,1.7,0.3,2.7c0.5,4.7,5.6,12.8,8.2,16.7
			c1-0.3,2.1-0.6,3.1-0.9C652.1,236.1,650,228.5,649.1,223.7z"/>
		<path class="st0" d="M670.2,230.3c-3.4,2.2-8.3,4.4-15.1,5.6c-16,2.7-25.3,0.1-30.2,12.7c-4.9,12.6-20.3,41.4-44.5,44.8
			c-12.8,1.8-30.3-0.8-43.9-3.6l1.2,18.2c0,0,59.6,8.7,74.2-12.6c6.9-10,13.2-29.8,19.2-40.5c6-10.7,35.2-14.3,42-18.3
			C675.7,235.1,674.4,232.7,670.2,230.3z"/>
	</g>
	<g>
		<path class="st15" d="M266.9,286.4c0,0-27.2,16.2-49.8,5.7c-22.7-10.5-14.5-39.6-46.5-36.5c-32,3.1-50.6,14.5-43.6,18
			c7,3.5,36.4,5,43.2,15.3c6.7,10.2,14.4,29.5,22,39c16.1,20.2,75,7.2,75,7.2L266.9,286.4z"/>
		<path class="st16" d="M238.7,295.4c1.4-0.1,2.8-0.3,4.2-0.5c-0.1,4.2-0.3,9.7-0.8,17c-1.1,16.1-6.4,23.8-10,27.2
			c-2.1,0-4.2,0-6.3,0C236.2,331.1,238.4,309.1,238.7,295.4z"/>
		<path class="st16" d="M202.6,324.8c-3.2,1.9-6.1,3.4-8.8,4.7c-0.6-0.5-1.1-1.1-1.6-1.7c-0.6-0.7-1.2-1.5-1.7-2.4
			c0.9-0.4,1.8-0.8,2.7-1.3c8.7-4.7,24.8-21.1,23.9-32c0.8,0.4,1.5,0.7,2.3,1C218.8,301.3,215.9,316.8,202.6,324.8z"/>
		<path class="st16" d="M204.7,281.3c0.2,0.3,0.4,0.6,0.6,0.9c-5.2,5-16.4,13.4-31.7,12.3c-0.6-1-1.1-2-1.7-3
			C177.6,291.3,191.3,289.8,204.7,281.3z"/>
		<path class="st16" d="M160.8,282.2c2.6-2.2,6.2-6,10.8-12.7c4.6-6.5,7.4-10.9,9.1-13.7c1.1,0.2,2.2,0.5,3.2,0.8
			c-4,7.1-11.9,19.7-20.4,26.9C162.7,283,161.8,282.6,160.8,282.2z"/>
		<path class="st16" d="M150,259c1.1-0.3,2.2-0.5,3.4-0.8c0,0.8-0.1,1.7-0.1,2.7c-0.2,4.8-4.6,13.2-7,17.2c-1.1-0.2-2.1-0.4-3.1-0.7
			C147.9,271.5,149.5,263.8,150,259z"/>
		<path class="st0" d="M129.5,267c3.5,1.9,8.6,3.8,15.4,4.5c16.1,1.6,25.2-1.7,31,10.5c5.8,12.2,23.2,39.9,47.6,41.5
			c12.9,0.8,30.1-2.9,43.5-6.7l0.1,18.2c0,0-58.8,13-75-7.2c-7.6-9.5-15.3-28.8-22-39c-6.7-10.2-36.2-11.8-43.2-15.3
			C124.4,272.1,125.4,269.7,129.5,267z"/>
	</g>
</g>
</svg>
