<?xml version="1.0" encoding="utf-8"?>
<!-- Generator: Adobe Illustrator 19.0.0, SVG Export Plug-In . SVG Version: 6.00 Build 0)  -->
<svg version="1.1" id="OBJECTS" xmlns="http://www.w3.org/2000/svg" xmlns:xlink="http://www.w3.org/1999/xlink" x="0px" y="0px"
	 viewBox="0 0 800 800" style="enable-background:new 0 0 800 800;" xml:space="preserve">
<style type="text/css">
	.st0{fill-rule:evenodd;clip-rule:evenodd;fill:#FFCA05;}
	.st1{fill-rule:evenodd;clip-rule:evenodd;fill:#56C4CF;}
	.st2{fill-rule:evenodd;clip-rule:evenodd;fill:#D5CB70;}
	.st3{fill-rule:evenodd;clip-rule:evenodd;fill:#A5CD39;}
	.st4{fill-rule:evenodd;clip-rule:evenodd;fill:#FFFFFF;}
	.st5{fill-rule:evenodd;clip-rule:evenodd;fill:#43525A;}
	.st6{fill-rule:evenodd;clip-rule:evenodd;fill:#929497;}
	.st7{fill-rule:evenodd;clip-rule:evenodd;fill:#F48245;}
	.st8{fill-rule:evenodd;clip-rule:evenodd;fill:#6C8BC6;}
	.st9{fill:#C7C8CA;}
	.st10{fill:#808285;}
	.st11{fill:#E6E7E8;}
	.st12{fill:#231F20;}
	.st13{fill:#4D4D4F;}
	.st14{fill:#B1B3B6;}
	.st15{display:none;fill-rule:evenodd;clip-rule:evenodd;fill:#FFFFFF;}
</style>
<g id="XMLID_21_">
	<g id="XMLID_1_">
		<g id="XMLID_390_">
			<rect id="XMLID_8_" x="317.1" y="205.9" class="st0" width="196.7" height="14.4"/>
			<rect id="XMLID_28_" x="357.3" y="224.7" class="st0" width="116.4" height="14.4"/>
		</g>
		<rect id="XMLID_393_" x="177.9" y="468.3" class="st1" width="475.1" height="26.5"/>
		<rect id="XMLID_29_" x="243.8" y="345.2" class="st2" width="59.8" height="110.4"/>
		<g id="XMLID_2_">
			<rect id="XMLID_31_" x="245.1" y="252.3" class="st3" width="204.9" height="84.6"/>
			<g id="XMLID_32_">
				<path id="XMLID_5_" class="st4" d="M436.3,288.6c-0.3-0.4-0.2-1.1,0.2-1.4c0.4-0.3,0.9-0.3,1.2,0.2l4.4,6.6c0,0,0,0.1,0.1,0.1
					l0,0l0,0l0,0c0,0,0,0,0,0.1l0,0l0,0l0,0.1l0,0.1c0,0,0,0.1,0,0.1v0l0,0l0,0v0v0v0l0,0l0,0v0c0,0,0,0.1,0,0.1l0,0.1l0,0.1l0,0
					l0,0c0,0,0,0.1,0,0.1l0,0l0,0l0,0c0,0,0,0.1-0.1,0.1l-4.4,6.6c-0.3,0.4-0.8,0.5-1.2,0.2c-0.4-0.3-0.5-1-0.2-1.4l4-6L436.3,288.6
					z"/>
				<path id="XMLID_34_" class="st4" d="M257.4,287.4c0.3-0.4,0.8-0.5,1.2-0.2c0.4,0.3,0.5,1,0.2,1.4l-4,6l4,6
					c0.3,0.4,0.2,1.1-0.2,1.4c-0.4,0.3-0.9,0.3-1.2-0.2l-4.4-6.6c0,0,0-0.1-0.1-0.1l0,0l0,0l0,0c0,0,0-0.1,0-0.1l0,0l0,0l0-0.1
					l0-0.1c0,0,0-0.1,0-0.1v0l0,0l0,0v0v0v0l0,0l0,0v0c0,0,0-0.1,0-0.1l0-0.1l0-0.1l0,0l0,0l0-0.1l0,0l0,0l0,0c0,0,0-0.1,0.1-0.1
					L257.4,287.4z"/>
			</g>
		</g>
		<rect id="XMLID_35_" x="319.1" y="345.2" class="st0" width="59.8" height="54.5"/>
		<rect id="XMLID_36_" x="456.2" y="345.2" class="st5" width="130.9" height="54.5"/>
		<rect id="XMLID_37_" x="456.2" y="252.3" class="st1" width="130.9" height="84.6"/>
		<g id="XMLID_38_">
			<rect id="XMLID_39_" x="319.1" y="405.2" class="st6" width="128.1" height="4.4"/>
			<rect id="XMLID_40_" x="319.1" y="413.3" class="st6" width="128.1" height="4.4"/>
			<rect id="XMLID_41_" x="319.1" y="421.3" class="st6" width="128.1" height="4.4"/>
			<rect id="XMLID_42_" x="319.1" y="429.3" class="st6" width="128.1" height="4.4"/>
			<rect id="XMLID_43_" x="319.1" y="437.3" class="st6" width="128.1" height="4.4"/>
			<rect id="XMLID_44_" x="319.1" y="445.3" class="st6" width="128.1" height="4.4"/>
			<rect id="XMLID_45_" x="319.1" y="453.4" class="st6" width="128.1" height="4.4"/>
		</g>
		<g id="XMLID_46_">
			<rect id="XMLID_47_" x="384.3" y="347.2" class="st6" width="62.8" height="4.4"/>
			<rect id="XMLID_48_" x="384.3" y="355.2" class="st6" width="62.8" height="4.4"/>
			<rect id="XMLID_49_" x="384.3" y="363.2" class="st6" width="62.8" height="4.4"/>
			<rect id="XMLID_50_" x="384.3" y="371.2" class="st6" width="62.8" height="4.4"/>
			<rect id="XMLID_51_" x="384.3" y="379.3" class="st6" width="62.8" height="4.4"/>
			<rect id="XMLID_52_" x="384.3" y="387.3" class="st6" width="62.8" height="4.4"/>
			<rect id="XMLID_53_" x="384.3" y="395.3" class="st6" width="62.8" height="4.4"/>
		</g>
		<rect id="XMLID_54_" x="456.2" y="405.1" class="st7" width="63.4" height="55"/>
		<rect id="XMLID_55_" x="523.8" y="405.1" class="st8" width="63.4" height="55"/>
	</g>
	<path id="XMLID_7_" d="M643.2,181H182c-16.1,0-29.1,13-29.1,29.1v303.6c0,16.1,13,29.1,29.1,29.1h461.2c16.1,0,29.1-13,29.1-29.1
		V210.1C672.3,194,659.3,181,643.2,181z M647.8,441.6v44.3c0,4.9-4,8.9-8.9,8.9H442.5H186.8c-4.9,0-8.9-4-8.9-8.9V230.2v-18.4
		c0-4.9,4-8.9,8.9-8.9h222.3h229.8c4.9,0,8.9,4,8.9,8.9V441.6z"/>
	<rect id="XMLID_19_" x="59" y="503.3" class="st9" width="707.7" height="28.9"/>
	<polygon id="XMLID_18_" points="731.9,544 93.3,544 58.7,532.2 766.5,532.2 	"/>
	<path id="XMLID_17_" class="st10" d="M484.7,519.4H341.1c-8.9,0-16.1-7.2-16.1-16.1l0,0h175.8l0,0
		C500.7,512.2,493.5,519.4,484.7,519.4z"/>
	<path id="XMLID_16_" class="st11" d="M480.7,519.4H345c-8.9,0-16.1-7.2-16.1-16.1l0,0h167.9l0,0
		C496.8,512.2,489.6,519.4,480.7,519.4z"/>
	<g id="XMLID_33_">
		<path id="XMLID_15_" class="st12" d="M99.2,519.4H76.6c-3.2,0-5.8-2.6-5.8-5.8l0,0c0-3.2,2.6-5.8,5.8-5.8h22.6
			c3.2,0,5.8,2.6,5.8,5.8l0,0C104.9,516.8,102.4,519.4,99.2,519.4z"/>
		<path id="XMLID_14_" class="st13" d="M95.9,519.4h-16c-3.2,0-5.8-2.6-5.8-5.8l0,0c0-3.2,2.6-5.8,5.8-5.8h16c3.2,0,5.8,2.6,5.8,5.8
			l0,0C101.7,516.8,99.1,519.4,95.9,519.4z"/>
	</g>
	<g id="XMLID_30_">
		<path id="XMLID_13_" class="st12" d="M136.4,519.4h-22.6c-3.2,0-5.8-2.6-5.8-5.8l0,0c0-3.2,2.6-5.8,5.8-5.8h22.6
			c3.2,0,5.8,2.6,5.8,5.8l0,0C142.1,516.8,139.6,519.4,136.4,519.4z"/>
		<path id="XMLID_12_" class="st13" d="M133.1,519.4h-16c-3.2,0-5.8-2.6-5.8-5.8l0,0c0-3.2,2.6-5.8,5.8-5.8h16
			c3.2,0,5.8,2.6,5.8,5.8l0,0C138.8,516.8,136.3,519.4,133.1,519.4z"/>
	</g>
	<g id="XMLID_27_">
		<path id="XMLID_11_" class="st12" d="M174.1,519.4h-22.6c-3.2,0-5.8-2.6-5.8-5.8l0,0c0-3.2,2.6-5.8,5.8-5.8h22.6
			c3.2,0,5.8,2.6,5.8,5.8l0,0C179.9,516.8,177.3,519.4,174.1,519.4z"/>
		<path id="XMLID_10_" class="st13" d="M170.9,519.4h-16c-3.2,0-5.8-2.6-5.8-5.8l0,0c0-3.2,2.6-5.8,5.8-5.8h16
			c3.2,0,5.8,2.6,5.8,5.8l0,0C176.6,516.8,174,519.4,170.9,519.4z"/>
	</g>
	<rect id="XMLID_9_" x="622.6" y="503.3" class="st14" width="140.8" height="21.2"/>
</g>
<rect id="XMLID_394_" x="177.9" y="196.8" class="st15" width="475.1" height="298"/>
</svg>
