<?xml version="1.0" encoding="utf-8"?>
<!-- Generator: Adobe Illustrator 19.0.0, SVG Export Plug-In . SVG Version: 6.00 Build 0)  -->
<svg version="1.1" id="Layer_1" xmlns="http://www.w3.org/2000/svg" xmlns:xlink="http://www.w3.org/1999/xlink" x="0px" y="0px"
	 viewBox="221 97.4 1466.3 574.6" style="enable-background:new 221 97.4 1466.3 574.6;" xml:space="preserve">
<style type="text/css">
	.st0{display:none;}
	.st1{display:inline;fill:#3F5B7A;}
	.st2{fill:#FFFFFF;}
	.st3{opacity:0.26;fill:#61BFDB;enable-background:new    ;}
	.st4{opacity:0.3;fill:#61BFDB;enable-background:new    ;}
	.st5{opacity:0.5;fill:#61BFDB;enable-background:new    ;}
	.st6{opacity:0.53;fill:#FFFFFF;}
	.st7{opacity:0.5;enable-background:new    ;}
	.st8{opacity:0.63;fill:#FFFFFF;enable-background:new    ;}
	.st9{fill:#CE4F44;}
	.st10{fill:#FAB600;}
	.st11{fill:#FFD047;}
	.st12{fill:#D36259;}
	.st13{fill:#92B5CC;}
	.st14{fill:#849499;}
	.st15{fill:#FFB366;}
	.st16{fill:#FFD480;}
	.st17{fill:#F4E9DC;stroke:#F4E9DC;stroke-miterlimit:10;}
	.st18{fill:#EFDABD;}
	.st19{fill:#009479;}
	.st20{opacity:0.47;fill:#FFFFFF;enable-background:new    ;}
</style>
<g id="Layer_3" class="st0">
	<rect x="256.4" y="94" class="st1" width="1385" height="576"/>
</g>
<g id="Layer_2">
	<g>
		<g>
			<g>
				<g>
					<ellipse class="st2" cx="1289" cy="504.7" rx="1.4" ry="1.3"/>
				</g>
				<g>
					<ellipse class="st2" cx="1180.1" cy="542" rx="0.7" ry="0.7"/>
				</g>
				<g>
					<ellipse class="st2" cx="1186.4" cy="505.3" rx="1.6" ry="1.5"/>
				</g>
				<g>
					<ellipse class="st2" cx="1171.9" cy="546.1" rx="0.4" ry="0.4"/>
				</g>
				<g>
					<ellipse class="st2" cx="1165.9" cy="549.6" rx="1.3" ry="1.1"/>
				</g>
				<g>
					<path class="st2" d="M1159.1,475.9c0-0.5,0.5-0.9,1-0.9c0.6,0,1,0.4,1,0.9s-0.5,0.9-1,0.9
						C1159.5,476.8,1159.1,476.4,1159.1,475.9z"/>
				</g>
				<g>
					<ellipse class="st2" cx="1138" cy="548" rx="1" ry="0.9"/>
				</g>
				<g>
					<ellipse class="st2" cx="1140.6" cy="509.6" rx="1.3" ry="1.2"/>
				</g>
				<g>
					<path class="st2" d="M1126,541.9c0-0.7,0.6-1.2,1.3-1.2c0.7,0,1.3,0.6,1.3,1.2c0,0.7-0.6,1.2-1.3,1.2
						C1126.6,543.1,1126,542.6,1126,541.9z"/>
				</g>
				<g>
					<path class="st2" d="M1116.9,490.3c0-0.8,0.7-1.5,1.7-1.5c0.9,0,1.7,0.7,1.7,1.5s-0.7,1.5-1.7,1.5
						C1117.6,491.8,1116.9,491.1,1116.9,490.3z"/>
				</g>
				<g>
					<ellipse class="st2" cx="1099.7" cy="504.9" rx="0.5" ry="0.5"/>
				</g>
				<g>
					<path class="st2" d="M1095.3,499.8c0-0.9,0.8-1.6,1.8-1.6s1.7,0.7,1.7,1.6s-0.8,1.6-1.7,1.6
						C1096.1,501.4,1095.3,500.7,1095.3,499.8z"/>
				</g>
				<g>
					<path class="st2" d="M1083.3,512.1c0-0.4,0.4-0.7,0.8-0.7s0.8,0.3,0.8,0.7c0,0.4-0.4,0.7-0.8,0.7
						C1083.6,512.8,1083.3,512.5,1083.3,512.1z"/>
				</g>
				<g>
					<ellipse class="st2" cx="1080.5" cy="483.9" rx="0.8" ry="0.8"/>
				</g>
				<g>
					<ellipse class="st2" cx="1068" cy="521.4" rx="1.6" ry="1.4"/>
				</g>
				<g>
					<ellipse class="st2" cx="1054.7" cy="499.5" rx="1.2" ry="1.1"/>
				</g>
				<g>
					<ellipse class="st2" cx="1040.4" cy="487.8" rx="1.8" ry="1.6"/>
				</g>
				<g>
					<path class="st2" d="M1023.3,522.1c0-0.5,0.5-0.9,1-0.9c0.6,0,1,0.4,1,0.9s-0.5,0.9-1,0.9
						C1023.8,523,1023.3,522.6,1023.3,522.1z"/>
				</g>
				<g>
					<path class="st2" d="M1011.5,546.5c0-0.7,0.7-1.3,1.5-1.3s1.5,0.6,1.5,1.3c0,0.7-0.7,1.3-1.5,1.3
						C1012.2,547.9,1011.5,547.3,1011.5,546.5z"/>
				</g>
				<g>
					<path class="st2" d="M973.4,480.4c0-0.4,0.4-0.8,0.9-0.8s0.9,0.3,0.9,0.8c0,0.4-0.4,0.8-0.9,0.8
						C973.8,481.2,973.4,480.8,973.4,480.4z"/>
				</g>
				<g>
					<ellipse class="st2" cx="971.1" cy="525.8" rx="1.3" ry="1.2"/>
				</g>
				<g>
					<ellipse class="st2" cx="946.7" cy="526.6" rx="0.7" ry="0.6"/>
				</g>
				<g>
					<ellipse class="st2" cx="938.9" cy="536.9" rx="1.5" ry="1.4"/>
				</g>
				<g>
					<ellipse class="st2" cx="929.4" cy="511.9" rx="0.5" ry="0.4"/>
				</g>
				<g>
					<path class="st2" d="M914.9,539.3c0-0.2,0.1-0.3,0.3-0.3s0.3,0.1,0.3,0.3c0,0.2-0.1,0.3-0.3,0.3
						C915,539.6,914.9,539.5,914.9,539.3z"/>
				</g>
				<g>
					<ellipse class="st2" cx="912.7" cy="548.6" rx="0.5" ry="0.5"/>
				</g>
				<g>
					<ellipse class="st2" cx="901.4" cy="546.4" rx="0.6" ry="0.6"/>
				</g>
				<g>
					<ellipse class="st2" cx="885.5" cy="517.9" rx="1.7" ry="1.6"/>
				</g>
				<g>
					<path class="st2" d="M789,554.9c0-0.7,0.6-1.3,1.4-1.3c0.8,0,1.4,0.6,1.4,1.3c0,0.7-0.6,1.3-1.4,1.3S789,555.6,789,554.9z"/>
				</g>
				<g>
					<ellipse class="st2" cx="739.7" cy="497.1" rx="1.6" ry="1.5"/>
				</g>
				<g>
					<ellipse class="st2" cx="715.8" cy="541" rx="0.6" ry="0.5"/>
				</g>
				<g>
					<path class="st2" d="M695.8,546.4c0-0.4,0.4-0.8,0.9-0.8s0.9,0.4,0.9,0.8s-0.4,0.8-0.9,0.8S695.8,546.9,695.8,546.4z"/>
				</g>
				<g>
					<ellipse class="st2" cx="691.6" cy="572.2" rx="1.2" ry="1.1"/>
				</g>
				<g>
					<ellipse class="st2" cx="679.7" cy="566.5" rx="1.1" ry="1"/>
				</g>
				<g>
					<ellipse class="st2" cx="661.9" cy="539" rx="1.6" ry="1.5"/>
				</g>
				<g>
					<ellipse class="st2" cx="650.4" cy="563.8" rx="0.3" ry="0.3"/>
				</g>
				<g>
					<ellipse class="st2" cx="644.6" cy="521.8" rx="1.3" ry="1.1"/>
				</g>
				<g>
					<path class="st2" d="M633.5,540.3c0-0.2,0.2-0.4,0.4-0.4c0.2,0,0.4,0.2,0.4,0.4c0,0.2-0.2,0.4-0.4,0.4
						C633.7,540.7,633.5,540.5,633.5,540.3z"/>
				</g>
				<g>
					<ellipse class="st2" cx="615" cy="533.3" rx="0.7" ry="0.6"/>
				</g>
				<g>
					<ellipse class="st2" cx="607.6" cy="527.5" rx="1.3" ry="1.2"/>
				</g>
				<g>
					<ellipse class="st2" cx="606.7" cy="523.8" rx="0.4" ry="0.4"/>
				</g>
				<g>
					<ellipse class="st2" cx="605" cy="525" rx="1.5" ry="1.4"/>
				</g>
				<g>
					<path class="st2" d="M590.5,512.6c0-0.3,0.3-0.6,0.6-0.6c0.4,0,0.6,0.3,0.6,0.6s-0.3,0.6-0.6,0.6
						C590.8,513.2,590.5,512.9,590.5,512.6z"/>
				</g>
				<g>
					<ellipse class="st2" cx="579.3" cy="539.7" rx="1.4" ry="1.3"/>
				</g>
				<g>
					<ellipse class="st2" cx="561.7" cy="538.7" rx="0.3" ry="0.3"/>
				</g>
				<g>
					<path class="st2" d="M547.6,521.4c0-0.3,0.3-0.6,0.7-0.6c0.4,0,0.7,0.3,0.7,0.6c0,0.3-0.3,0.6-0.7,0.6S547.6,521.7,547.6,521.4
						z"/>
				</g>
				<g>
					<ellipse class="st2" cx="539.6" cy="501.5" rx="1.8" ry="1.7"/>
				</g>
			</g>
			<g>
				<g>
					<path class="st2" d="M1159.1,564.2c0-0.5,0.5-0.9,1-0.9c0.6,0,1,0.4,1,0.9s-0.5,0.9-1,0.9
						C1159.5,565.1,1159.1,564.7,1159.1,564.2z"/>
				</g>
				<g>
					<path class="st2" d="M1126,630.2c0-0.7,0.6-1.2,1.3-1.2c0.7,0,1.3,0.6,1.3,1.2c0,0.7-0.6,1.2-1.3,1.2
						C1126.6,631.4,1126,630.9,1126,630.2z"/>
				</g>
				<g>
					<path class="st2" d="M1116.9,578.6c0-0.8,0.7-1.5,1.7-1.5c0.9,0,1.7,0.7,1.7,1.5s-0.7,1.5-1.7,1.5
						C1117.6,580.1,1116.9,579.4,1116.9,578.6z"/>
				</g>
				<g>
					<path class="st2" d="M1095.3,588.1c0-0.9,0.8-1.6,1.8-1.6s1.7,0.7,1.7,1.6s-0.8,1.6-1.7,1.6
						C1096.1,589.8,1095.3,589,1095.3,588.1z"/>
				</g>
				<g>
					<ellipse class="st2" cx="1080.5" cy="572.2" rx="0.8" ry="0.8"/>
				</g>
				<g>
					<ellipse class="st2" cx="1054.7" cy="587.8" rx="1.2" ry="1.1"/>
				</g>
				<g>
					<ellipse class="st2" cx="1040.4" cy="576.1" rx="1.8" ry="1.6"/>
				</g>
				<g>
					<path class="st2" d="M1023.3,610.4c0-0.5,0.5-0.9,1-0.9c0.6,0,1,0.4,1,0.9s-0.5,0.9-1,0.9
						C1023.8,611.3,1023.3,610.9,1023.3,610.4z"/>
				</g>
				<g>
					<ellipse class="st2" cx="1013" cy="634.9" rx="1.5" ry="1.3"/>
				</g>
				<g>
					<path class="st2" d="M973.4,568.7c0-0.4,0.4-0.8,0.9-0.8s0.9,0.3,0.9,0.8c0,0.4-0.4,0.8-0.9,0.8
						C973.8,569.5,973.4,569.2,973.4,568.7z"/>
				</g>
				<g>
					<ellipse class="st2" cx="961.8" cy="585.9" rx="1.8" ry="1.7"/>
				</g>
				<g>
					<ellipse class="st2" cx="946.7" cy="614.9" rx="0.7" ry="0.6"/>
				</g>
				<g>
					<ellipse class="st2" cx="938.9" cy="625.3" rx="1.5" ry="1.4"/>
				</g>
				<g>
					<ellipse class="st2" cx="929.4" cy="600.2" rx="0.5" ry="0.4"/>
				</g>
				<g>
					<path class="st2" d="M914.9,627.6c0-0.2,0.1-0.3,0.3-0.3s0.3,0.1,0.3,0.3s-0.1,0.3-0.3,0.3S914.9,627.8,914.9,627.6z"/>
				</g>
				<g>
					<ellipse class="st2" cx="912.7" cy="636.9" rx="0.5" ry="0.5"/>
				</g>
				<g>
					<ellipse class="st2" cx="901.4" cy="634.8" rx="0.6" ry="0.6"/>
				</g>
				<g>
					<ellipse class="st2" cx="885.5" cy="606.3" rx="1.7" ry="1.6"/>
				</g>
				<g>
					<ellipse class="st2" cx="868.2" cy="575.1" rx="1.1" ry="1"/>
				</g>
				<g>
					<path class="st2" d="M851.1,581.2c0-0.9,0.8-1.6,1.7-1.6c1,0,1.7,0.7,1.7,1.6s-0.8,1.6-1.7,1.6
						C851.8,582.8,851.1,582.1,851.1,581.2z"/>
				</g>
				<g>
					<ellipse class="st2" cx="837.7" cy="575.2" rx="1.4" ry="1.3"/>
				</g>
				<g>
					<ellipse class="st2" cx="836.2" cy="576.7" rx="0.7" ry="0.7"/>
				</g>
				<g>
					<ellipse class="st2" cx="839" cy="609.9" rx="1.1" ry="1"/>
				</g>
				<g>
					<ellipse class="st2" cx="834.2" cy="626.8" rx="1.8" ry="1.7"/>
				</g>
				<g>
					<ellipse class="st2" cx="817.7" cy="615.3" rx="1.1" ry="1"/>
				</g>
				<g>
					<path class="st2" d="M800.8,608.2c0-0.2,0.2-0.4,0.4-0.4c0.3,0,0.5,0.2,0.5,0.4s-0.2,0.4-0.5,0.4
						C801,608.6,800.8,608.4,800.8,608.2z"/>
				</g>
				<g>
					<ellipse class="st2" cx="796.3" cy="585.4" rx="0.6" ry="0.5"/>
				</g>
				<g>
					<ellipse class="st2" cx="790.4" cy="604.1" rx="1.2" ry="1.1"/>
				</g>
				<g>
					<path class="st2" d="M784.3,582.4c0-0.3,0.3-0.5,0.6-0.5s0.6,0.2,0.6,0.5s-0.3,0.6-0.6,0.6C784.5,583,784.3,582.7,784.3,582.4z
						"/>
				</g>
				<g>
					<path class="st2" d="M789,643.3c0-0.7,0.6-1.3,1.4-1.3c0.8,0,1.4,0.6,1.4,1.3s-0.6,1.3-1.4,1.3C789.6,644.5,789,644,789,643.3z
						"/>
				</g>
				<g>
					<ellipse class="st2" cx="764.3" cy="655.7" rx="1" ry="0.9"/>
				</g>
				<g>
					<path class="st2" d="M755.1,657.1c0-0.7,0.6-1.2,1.3-1.2s1.3,0.5,1.3,1.2s-0.6,1.2-1.3,1.2
						C755.7,658.3,755.1,657.8,755.1,657.1z"/>
				</g>
				<g>
					<ellipse class="st2" cx="728.7" cy="638" rx="1" ry="0.9"/>
				</g>
				<g>
					<ellipse class="st2" cx="715.8" cy="629.3" rx="0.6" ry="0.5"/>
				</g>
				<g>
					<ellipse class="st2" cx="705.9" cy="646.2" rx="0.8" ry="0.8"/>
				</g>
				<g>
					<path class="st2" d="M695.8,634.8c0-0.4,0.4-0.8,0.9-0.8s0.9,0.4,0.9,0.8c0,0.4-0.4,0.8-0.9,0.8S695.8,635.2,695.8,634.8z"/>
				</g>
				<g>
					<ellipse class="st2" cx="691.6" cy="660.5" rx="1.2" ry="1.1"/>
				</g>
				<g>
					<ellipse class="st2" cx="679.7" cy="654.8" rx="1.1" ry="1"/>
				</g>
				<g>
					<ellipse class="st2" cx="661.9" cy="627.3" rx="1.6" ry="1.5"/>
				</g>
				<g>
					<ellipse class="st2" cx="650.4" cy="652.2" rx="0.3" ry="0.3"/>
				</g>
				<g>
					<ellipse class="st2" cx="644.6" cy="610.1" rx="1.3" ry="1.1"/>
				</g>
				<g>
					<ellipse class="st2" cx="579.3" cy="628" rx="1.4" ry="1.3"/>
				</g>
				<g>
					<ellipse class="st2" cx="561.7" cy="627" rx="0.3" ry="0.3"/>
				</g>
				<g>
					<path class="st2" d="M547.6,609.7c0-0.3,0.3-0.6,0.7-0.6c0.4,0,0.7,0.3,0.7,0.6s-0.3,0.6-0.7,0.6
						C547.9,610.3,547.6,610,547.6,609.7z"/>
				</g>
				<g>
					<ellipse class="st2" cx="539.6" cy="589.8" rx="1.8" ry="1.7"/>
				</g>
			</g>
			<g>
				<g>
					<ellipse class="st2" cx="1358.3" cy="380.6" rx="1.6" ry="1.4"/>
				</g>
				<g>
					<ellipse class="st2" cx="1324.2" cy="415.8" rx="1.6" ry="1.4"/>
				</g>
				<g>
					<path class="st2" d="M1322.6,415c0-0.6,0.5-1.1,1.2-1.1c0.6,0,1.2,0.5,1.2,1.1s-0.5,1.1-1.2,1.1
						C1323.2,416.1,1322.6,415.6,1322.6,415z"/>
				</g>
				<g>
					<ellipse class="st2" cx="1318.9" cy="397.8" rx="1.4" ry="1.3"/>
				</g>
				<g>
					<ellipse class="st2" cx="1332.1" cy="350.4" rx="0.7" ry="0.7"/>
				</g>
				<g>
					<path class="st2" d="M1308.9,410c0-0.5,0.5-1,1-1c0.6,0,1,0.4,1,1c0,0.5-0.5,1-1,1C1309.3,411,1308.9,410.5,1308.9,410z"/>
				</g>
				<g>
					<ellipse class="st2" cx="1323.1" cy="366.5" rx="0.3" ry="0.2"/>
				</g>
				<g>
					<ellipse class="st2" cx="1307" cy="399.5" rx="1.4" ry="1.2"/>
				</g>
				<g>
					<ellipse class="st2" cx="1300.6" cy="373" rx="0.3" ry="0.2"/>
				</g>
				<g>
					<ellipse class="st2" cx="1289.8" cy="400.4" rx="0.9" ry="0.8"/>
				</g>
				<g>
					<ellipse class="st2" cx="1290.4" cy="349.9" rx="1.6" ry="1.5"/>
				</g>
				<g>
					<ellipse class="st2" cx="1289" cy="343.8" rx="1.4" ry="1.3"/>
				</g>
				<g>
					<ellipse class="st2" cx="1264.4" cy="367.9" rx="0.2" ry="0.2"/>
				</g>
				<g>
					<ellipse class="st2" cx="1244.9" cy="383.7" rx="0.6" ry="0.5"/>
				</g>
				<g>
					<path class="st2" d="M1224,398c0-0.3,0.3-0.5,0.6-0.5s0.6,0.2,0.6,0.5s-0.3,0.5-0.6,0.5S1224,398.3,1224,398z"/>
				</g>
				<g>
					<path class="st2" d="M1204.3,385.2c0-0.6,0.5-1.1,1.2-1.1s1.2,0.5,1.2,1.1s-0.5,1.1-1.2,1.1
						C1204.9,386.3,1204.3,385.8,1204.3,385.2z"/>
				</g>
				<g>
					<ellipse class="st2" cx="1180.1" cy="381.1" rx="0.7" ry="0.7"/>
				</g>
				<g>
					<ellipse class="st2" cx="1171.9" cy="385.3" rx="0.4" ry="0.4"/>
				</g>
				<g>
					<ellipse class="st2" cx="1165.9" cy="388.8" rx="1.3" ry="1.1"/>
				</g>
				<g>
					<ellipse class="st2" cx="1138" cy="387.2" rx="1" ry="0.9"/>
				</g>
				<g>
					<ellipse class="st2" cx="1140.6" cy="348.8" rx="1.3" ry="1.2"/>
				</g>
				<g>
					<path class="st2" d="M1126,381.1c0-0.7,0.6-1.2,1.3-1.2c0.7,0,1.3,0.6,1.3,1.2c0,0.7-0.6,1.2-1.3,1.2
						C1126.6,382.3,1126,381.7,1126,381.1z"/>
				</g>
				<g>
					<path class="st2" d="M1116.9,329.4c0-0.8,0.7-1.5,1.7-1.5c0.9,0,1.7,0.7,1.7,1.5s-0.7,1.5-1.7,1.5
						C1117.6,331,1116.9,330.3,1116.9,329.4z"/>
				</g>
				<g>
					<ellipse class="st2" cx="1099.7" cy="344.1" rx="0.5" ry="0.5"/>
				</g>
				<g>
					<path class="st2" d="M1095.3,339c0-0.9,0.8-1.6,1.8-1.6s1.7,0.7,1.7,1.6s-0.8,1.6-1.7,1.6
						C1096.1,340.6,1095.3,339.9,1095.3,339z"/>
				</g>
				<g>
					<path class="st2" d="M1083.3,351.2c0-0.4,0.4-0.7,0.8-0.7s0.8,0.3,0.8,0.7c0,0.4-0.4,0.7-0.8,0.7
						C1083.6,352,1083.3,351.6,1083.3,351.2z"/>
				</g>
				<g>
					<ellipse class="st2" cx="1080.5" cy="323.1" rx="0.8" ry="0.8"/>
				</g>
				<g>
					<ellipse class="st2" cx="1068" cy="360.5" rx="1.6" ry="1.4"/>
				</g>
				<g>
					<ellipse class="st2" cx="1054.7" cy="338.6" rx="1.2" ry="1.1"/>
				</g>
				<g>
					<ellipse class="st2" cx="1040.4" cy="327" rx="1.8" ry="1.6"/>
				</g>
				<g>
					<path class="st2" d="M1023.3,361.3c0-0.5,0.5-0.9,1-0.9c0.6,0,1,0.4,1,0.9s-0.5,0.9-1,0.9
						C1023.8,362.2,1023.3,361.8,1023.3,361.3z"/>
				</g>
				<g>
					<path class="st2" d="M1011.5,385.7c0-0.7,0.7-1.3,1.5-1.3s1.5,0.6,1.5,1.3c0,0.7-0.7,1.3-1.5,1.3
						C1012.2,387,1011.5,386.4,1011.5,385.7z"/>
				</g>
				<g>
					<ellipse class="st2" cx="1001.1" cy="344.6" rx="1.1" ry="1"/>
				</g>
				<g>
					<path class="st2" d="M991.4,343.3c0-0.3,0.2-0.5,0.5-0.5s0.5,0.2,0.5,0.5s-0.2,0.5-0.5,0.5
						C991.7,343.8,991.4,343.6,991.4,343.3z"/>
				</g>
				<g>
					<ellipse class="st2" cx="985.1" cy="345.2" rx="0.6" ry="0.5"/>
				</g>
				<g>
					<path class="st2" d="M973.4,319.6c0-0.4,0.4-0.8,0.9-0.8s0.9,0.3,0.9,0.8c0,0.4-0.4,0.8-0.9,0.8
						C973.8,320.4,973.4,320,973.4,319.6z"/>
				</g>
				<g>
					<path class="st2" d="M969.7,365c0-0.7,0.6-1.2,1.3-1.2s1.3,0.5,1.3,1.2s-0.6,1.2-1.3,1.2C970.3,366.2,969.7,365.6,969.7,365z"
						/>
				</g>
				<g>
					<ellipse class="st2" cx="961.8" cy="336.8" rx="1.8" ry="1.7"/>
				</g>
				<g>
					<ellipse class="st2" cx="946.7" cy="365.8" rx="0.7" ry="0.6"/>
				</g>
				<g>
					<ellipse class="st2" cx="938.9" cy="376.1" rx="1.5" ry="1.4"/>
				</g>
				<g>
					<ellipse class="st2" cx="929.4" cy="351.1" rx="0.5" ry="0.4"/>
				</g>
				<g>
					<path class="st2" d="M914.9,378.5c0-0.2,0.1-0.3,0.3-0.3s0.3,0.1,0.3,0.3c0,0.2-0.1,0.3-0.3,0.3S914.9,378.7,914.9,378.5z"/>
				</g>
				<g>
					<ellipse class="st2" cx="912.7" cy="387.7" rx="0.5" ry="0.5"/>
				</g>
				<g>
					<ellipse class="st2" cx="901.4" cy="385.6" rx="0.6" ry="0.6"/>
				</g>
				<g>
					<ellipse class="st2" cx="885.5" cy="357.1" rx="1.7" ry="1.6"/>
				</g>
				<g>
					<ellipse class="st2" cx="868.2" cy="326" rx="1.1" ry="1"/>
				</g>
				<g>
					<path class="st2" d="M851.1,332.1c0-0.9,0.8-1.6,1.7-1.6c1,0,1.7,0.7,1.7,1.6c0,0.9-0.8,1.6-1.7,1.6
						C851.8,333.7,851.1,333,851.1,332.1z"/>
				</g>
				<g>
					<ellipse class="st2" cx="837.7" cy="326.1" rx="1.4" ry="1.3"/>
				</g>
				<g>
					<ellipse class="st2" cx="836.2" cy="327.6" rx="0.7" ry="0.7"/>
				</g>
				<g>
					<ellipse class="st2" cx="839" cy="360.7" rx="1.1" ry="1"/>
				</g>
				<g>
					<ellipse class="st2" cx="834.2" cy="377.6" rx="1.8" ry="1.7"/>
				</g>
				<g>
					<ellipse class="st2" cx="817.7" cy="366.2" rx="1.1" ry="1"/>
				</g>
				<g>
					<path class="st2" d="M800.8,359c0-0.2,0.2-0.4,0.4-0.4c0.3,0,0.5,0.2,0.5,0.4c0,0.2-0.2,0.4-0.5,0.4
						C801,359.5,800.8,359.3,800.8,359z"/>
				</g>
				<g>
					<ellipse class="st2" cx="796.3" cy="336.2" rx="0.6" ry="0.5"/>
				</g>
				<g>
					<ellipse class="st2" cx="790.4" cy="354.9" rx="1.2" ry="1.1"/>
				</g>
				<g>
					<path class="st2" d="M784.3,333.3c0-0.3,0.3-0.5,0.6-0.5s0.6,0.2,0.6,0.5s-0.3,0.5-0.6,0.5
						C784.5,333.8,784.3,333.6,784.3,333.3z"/>
				</g>
				<g>
					<ellipse class="st2" cx="773.4" cy="346.4" rx="1.8" ry="1.6"/>
				</g>
				<g>
					<ellipse class="st2" cx="739.7" cy="336.3" rx="1.6" ry="1.5"/>
				</g>
				<g>
					<ellipse class="st2" cx="728.7" cy="388.9" rx="1" ry="0.9"/>
				</g>
				<g>
					<ellipse class="st2" cx="715.8" cy="380.2" rx="0.6" ry="0.5"/>
				</g>
				<g>
					<ellipse class="st2" cx="705.9" cy="397.1" rx="0.8" ry="0.8"/>
				</g>
				<g>
					<ellipse class="st2" cx="691.6" cy="411.4" rx="1.2" ry="1.1"/>
				</g>
				<g>
					<ellipse class="st2" cx="679.7" cy="405.7" rx="1.1" ry="1"/>
				</g>
				<g>
					<ellipse class="st2" cx="661.9" cy="378.2" rx="1.6" ry="1.5"/>
				</g>
				<g>
					<ellipse class="st2" cx="650.4" cy="403" rx="0.3" ry="0.3"/>
				</g>
				<g>
					<path class="st2" d="M633.5,379.5c0-0.2,0.2-0.4,0.4-0.4c0.2,0,0.4,0.2,0.4,0.4c0,0.2-0.2,0.4-0.4,0.4
						C633.7,379.8,633.5,379.7,633.5,379.5z"/>
				</g>
				<g>
					<ellipse class="st2" cx="615" cy="372.5" rx="0.7" ry="0.6"/>
				</g>
				<g>
					<ellipse class="st2" cx="607.6" cy="366.7" rx="1.3" ry="1.2"/>
				</g>
				<g>
					<ellipse class="st2" cx="606.7" cy="363" rx="0.4" ry="0.4"/>
				</g>
				<g>
					<ellipse class="st2" cx="605" cy="364.2" rx="1.5" ry="1.4"/>
				</g>
				<g>
					<ellipse class="st2" cx="579.3" cy="378.8" rx="1.4" ry="1.3"/>
				</g>
				<g>
					<ellipse class="st2" cx="561.7" cy="377.9" rx="0.3" ry="0.3"/>
				</g>
				<g>
					<path class="st2" d="M547.6,360.5c0-0.3,0.3-0.6,0.7-0.6c0.4,0,0.7,0.3,0.7,0.6c0,0.3-0.3,0.6-0.7,0.6
						C547.9,361.2,547.6,360.9,547.6,360.5z"/>
				</g>
				<g>
					<ellipse class="st2" cx="539.6" cy="340.7" rx="1.8" ry="1.7"/>
				</g>
			</g>
			<g>
				<g>
					<ellipse class="st2" cx="1289.8" cy="488.7" rx="0.9" ry="0.8"/>
				</g>
				<g>
					<ellipse class="st2" cx="1290.4" cy="438.3" rx="1.6" ry="1.5"/>
				</g>
				<g>
					<ellipse class="st2" cx="1289" cy="432.1" rx="1.4" ry="1.3"/>
				</g>
				<g>
					<path class="st2" d="M1224,486.3c0-0.3,0.3-0.5,0.6-0.5s0.6,0.2,0.6,0.5s-0.3,0.5-0.6,0.5S1224,486.6,1224,486.3z"/>
				</g>
				<g>
					<path class="st2" d="M1201.3,437.3c0-0.8,0.7-1.4,1.6-1.4c0.9,0,1.6,0.6,1.6,1.4s-0.7,1.4-1.6,1.4
						C1202,438.7,1201.3,438.1,1201.3,437.3z"/>
				</g>
				<g>
					<ellipse class="st2" cx="1180.1" cy="469.5" rx="0.7" ry="0.7"/>
				</g>
				<g>
					<ellipse class="st2" cx="1186.4" cy="432.8" rx="1.6" ry="1.5"/>
				</g>
				<g>
					<ellipse class="st2" cx="1171.9" cy="473.6" rx="0.4" ry="0.4"/>
				</g>
				<g>
					<ellipse class="st2" cx="1165.9" cy="477.1" rx="1.3" ry="1.1"/>
				</g>
				<g>
					<path class="st2" d="M1159.1,403.4c0-0.5,0.5-0.9,1-0.9c0.6,0,1,0.4,1,0.9s-0.5,0.9-1,0.9
						C1159.5,404.3,1159.1,403.9,1159.1,403.4z"/>
				</g>
				<g>
					<ellipse class="st2" cx="1138" cy="475.5" rx="1" ry="0.9"/>
				</g>
				<g>
					<ellipse class="st2" cx="1140.6" cy="437.1" rx="1.3" ry="1.2"/>
				</g>
				<g>
					<path class="st2" d="M1126,469.4c0-0.7,0.6-1.2,1.3-1.2c0.7,0,1.3,0.6,1.3,1.2c0,0.7-0.6,1.2-1.3,1.2
						C1126.6,470.6,1126,470.1,1126,469.4z"/>
				</g>
				<g>
					<path class="st2" d="M1116.9,417.8c0-0.8,0.7-1.5,1.7-1.5c0.9,0,1.7,0.7,1.7,1.5s-0.7,1.5-1.7,1.5
						C1117.6,419.3,1116.9,418.6,1116.9,417.8z"/>
				</g>
				<g>
					<ellipse class="st2" cx="1099.7" cy="432.4" rx="0.5" ry="0.5"/>
				</g>
				<g>
					<path class="st2" d="M1083.3,439.6c0-0.4,0.4-0.7,0.8-0.7s0.8,0.3,0.8,0.7c0,0.4-0.4,0.7-0.8,0.7
						C1083.6,440.3,1083.3,440,1083.3,439.6z"/>
				</g>
				<g>
					<ellipse class="st2" cx="1080.5" cy="411.4" rx="0.8" ry="0.8"/>
				</g>
				<g>
					<ellipse class="st2" cx="1068" cy="448.9" rx="1.6" ry="1.4"/>
				</g>
				<g>
					<path class="st2" d="M1011.5,474c0-0.7,0.7-1.3,1.5-1.3s1.5,0.6,1.5,1.3c0,0.7-0.7,1.3-1.5,1.3
						C1012.2,475.4,1011.5,474.8,1011.5,474z"/>
				</g>
				<g>
					<ellipse class="st2" cx="1001.1" cy="432.9" rx="1.1" ry="1"/>
				</g>
				<g>
					<path class="st2" d="M991.4,431.6c0-0.3,0.2-0.5,0.5-0.5s0.5,0.2,0.5,0.5s-0.2,0.5-0.5,0.5
						C991.7,432.1,991.4,431.9,991.4,431.6z"/>
				</g>
				<g>
					<ellipse class="st2" cx="985.1" cy="433.5" rx="0.6" ry="0.5"/>
				</g>
				<g>
					<path class="st2" d="M973.4,407.9c0-0.4,0.4-0.8,0.9-0.8s0.9,0.3,0.9,0.8c0,0.4-0.4,0.8-0.9,0.8
						C973.8,408.7,973.4,408.3,973.4,407.9z"/>
				</g>
				<g>
					<ellipse class="st2" cx="971.1" cy="453.3" rx="1.3" ry="1.2"/>
				</g>
				<g>
					<ellipse class="st2" cx="961.8" cy="425.1" rx="1.8" ry="1.7"/>
				</g>
				<g>
					<ellipse class="st2" cx="946.7" cy="454.1" rx="0.7" ry="0.6"/>
				</g>
				<g>
					<ellipse class="st2" cx="938.9" cy="464.4" rx="1.5" ry="1.4"/>
				</g>
				<g>
					<ellipse class="st2" cx="929.4" cy="439.4" rx="0.5" ry="0.4"/>
				</g>
				<g>
					<ellipse class="st2" cx="912.7" cy="476.1" rx="0.5" ry="0.5"/>
				</g>
				<g>
					<ellipse class="st2" cx="901.4" cy="473.9" rx="0.6" ry="0.6"/>
				</g>
				<g>
					<ellipse class="st2" cx="885.5" cy="445.4" rx="1.7" ry="1.6"/>
				</g>
				<g>
					<ellipse class="st2" cx="868.2" cy="414.3" rx="1.1" ry="1"/>
				</g>
				<g>
					<path class="st2" d="M851.1,420.4c0-0.9,0.8-1.6,1.7-1.6c1,0,1.7,0.7,1.7,1.6s-0.8,1.6-1.7,1.6
						C851.8,422,851.1,421.3,851.1,420.4z"/>
				</g>
				<g>
					<ellipse class="st2" cx="837.7" cy="414.4" rx="1.4" ry="1.3"/>
				</g>
				<g>
					<ellipse class="st2" cx="836.2" cy="415.9" rx="0.7" ry="0.7"/>
				</g>
				<g>
					<ellipse class="st2" cx="839" cy="449.1" rx="1.1" ry="1"/>
				</g>
				<g>
					<ellipse class="st2" cx="834.2" cy="466" rx="1.8" ry="1.7"/>
				</g>
				<g>
					<ellipse class="st2" cx="817.7" cy="454.5" rx="1.1" ry="1"/>
				</g>
				<g>
					<path class="st2" d="M800.8,447.4c0-0.2,0.2-0.4,0.4-0.4c0.3,0,0.5,0.2,0.5,0.4c0,0.2-0.2,0.4-0.5,0.4
						C801,447.8,800.8,447.6,800.8,447.4z"/>
				</g>
				<g>
					<ellipse class="st2" cx="764.3" cy="494.8" rx="1" ry="0.9"/>
				</g>
				<g>
					<path class="st2" d="M755.1,496.3c0-0.7,0.6-1.2,1.3-1.2s1.3,0.5,1.3,1.2s-0.6,1.2-1.3,1.2C755.7,497.5,755.1,497,755.1,496.3z
						"/>
				</g>
				<g>
					<ellipse class="st2" cx="728.7" cy="477.2" rx="1" ry="0.9"/>
				</g>
				<g>
					<ellipse class="st2" cx="715.8" cy="468.5" rx="0.6" ry="0.5"/>
				</g>
				<g>
					<ellipse class="st2" cx="705.9" cy="485.4" rx="0.8" ry="0.8"/>
				</g>
				<g>
					<path class="st2" d="M695.8,473.9c0-0.4,0.4-0.8,0.9-0.8s0.9,0.4,0.9,0.8s-0.4,0.8-0.9,0.8S695.8,474.4,695.8,473.9z"/>
				</g>
				<g>
					<ellipse class="st2" cx="691.6" cy="499.7" rx="1.2" ry="1.1"/>
				</g>
				<g>
					<ellipse class="st2" cx="679.7" cy="494" rx="1.1" ry="1"/>
				</g>
				<g>
					<ellipse class="st2" cx="661.9" cy="466.5" rx="1.6" ry="1.5"/>
				</g>
				<g>
					<ellipse class="st2" cx="650.4" cy="491.3" rx="0.3" ry="0.3"/>
				</g>
				<g>
					<ellipse class="st2" cx="644.6" cy="449.3" rx="1.3" ry="1.1"/>
				</g>
				<g>
					<path class="st2" d="M633.5,467.8c0-0.2,0.2-0.4,0.4-0.4c0.2,0,0.4,0.2,0.4,0.4c0,0.2-0.2,0.4-0.4,0.4
						C633.7,468.2,633.5,468,633.5,467.8z"/>
				</g>
				<g>
					<ellipse class="st2" cx="615" cy="460.8" rx="0.7" ry="0.6"/>
				</g>
				<g>
					<ellipse class="st2" cx="607.6" cy="455" rx="1.3" ry="1.2"/>
				</g>
				<g>
					<ellipse class="st2" cx="606.7" cy="451.3" rx="0.4" ry="0.4"/>
				</g>
				<g>
					<ellipse class="st2" cx="605" cy="452.5" rx="1.5" ry="1.4"/>
				</g>
				<g>
					<ellipse class="st2" cx="591.2" cy="440.1" rx="0.6" ry="0.6"/>
				</g>
				<g>
					<ellipse class="st2" cx="579.3" cy="467.2" rx="1.4" ry="1.3"/>
				</g>
				<g>
					<ellipse class="st2" cx="561.7" cy="466.2" rx="0.3" ry="0.3"/>
				</g>
				<g>
					<path class="st2" d="M547.6,448.9c0-0.3,0.3-0.6,0.7-0.6c0.4,0,0.7,0.3,0.7,0.6c0,0.3-0.3,0.6-0.7,0.6S547.6,449.2,547.6,448.9
						z"/>
				</g>
				<g>
					<ellipse class="st2" cx="539.6" cy="429" rx="1.8" ry="1.7"/>
				</g>
			</g>
			<g>
				<g>
					<ellipse class="st2" cx="538.8" cy="245.2" rx="1" ry="0.9"/>
				</g>
				<g>
					<path class="st2" d="M553.6,221.3c0-0.8-0.7-1.5-1.6-1.5s-1.6,0.7-1.6,1.5c0,0.8,0.7,1.5,1.6,1.5S553.6,222.1,553.6,221.3z"/>
				</g>
				<g>
					<path class="st2" d="M562.6,218.6c0-0.8-0.7-1.4-1.5-1.4c-0.8,0-1.5,0.6-1.5,1.4s0.7,1.4,1.5,1.4
						C561.9,220,562.6,219.4,562.6,218.6z"/>
				</g>
				<g>
					<path class="st2" d="M555.4,191c0-0.6-0.6-1.2-1.3-1.2c-0.7,0-1.3,0.5-1.3,1.2c0,0.6,0.6,1.2,1.3,1.2
						C554.8,192.2,555.4,191.7,555.4,191z"/>
				</g>
				<g>
					<ellipse class="st2" cx="569.4" cy="212.5" rx="0.8" ry="0.7"/>
				</g>
				<g>
					<ellipse class="st2" cx="571.8" cy="197.8" rx="0.6" ry="0.5"/>
				</g>
				<g>
					<path class="st2" d="M582.2,188c0-0.4-0.3-0.7-0.7-0.7s-0.7,0.3-0.7,0.7s0.3,0.7,0.7,0.7C581.8,188.7,582.2,188.4,582.2,188z"
						/>
				</g>
				<g>
					<ellipse class="st2" cx="602.2" cy="200.6" rx="1.6" ry="1.4"/>
				</g>
				<g>
					<ellipse class="st2" cx="618.6" cy="238.4" rx="1.2" ry="1.1"/>
				</g>
				<g>
					<ellipse class="st2" cx="636.2" cy="235.8" rx="1.6" ry="1.4"/>
				</g>
				<g>
					<path class="st2" d="M637.8,235c0-0.6-0.5-1.1-1.2-1.1c-0.6,0-1.2,0.5-1.2,1.1s0.5,1.1,1.2,1.1
						C637.3,236.1,637.8,235.6,637.8,235z"/>
				</g>
				<g>
					<ellipse class="st2" cx="641.5" cy="217.8" rx="1.4" ry="1.3"/>
				</g>
				<g>
					<ellipse class="st2" cx="628.3" cy="170.4" rx="0.7" ry="0.7"/>
				</g>
				<g>
					<path class="st2" d="M651.6,230c0-0.5-0.5-1-1-1c-0.6,0-1,0.4-1,1c0,0.5,0.5,1,1,1C651.1,230.9,651.6,230.5,651.6,230z"/>
				</g>
				<g>
					<ellipse class="st2" cx="637.3" cy="186.5" rx="0.3" ry="0.2"/>
				</g>
				<g>
					<ellipse class="st2" cx="653.5" cy="219.5" rx="1.4" ry="1.2"/>
				</g>
				<g>
					<ellipse class="st2" cx="659.8" cy="193" rx="0.3" ry="0.2"/>
				</g>
				<g>
					<ellipse class="st2" cx="670.6" cy="220.3" rx="0.9" ry="0.8"/>
				</g>
				<g>
					<ellipse class="st2" cx="670" cy="169.9" rx="1.6" ry="1.5"/>
				</g>
				<g>
					<ellipse class="st2" cx="671.5" cy="163.8" rx="1.4" ry="1.3"/>
				</g>
				<g>
					<ellipse class="st2" cx="696" cy="187.9" rx="0.2" ry="0.2"/>
				</g>
				<g>
					<ellipse class="st2" cx="715.5" cy="203.7" rx="0.6" ry="0.5"/>
				</g>
				<g>
					<path class="st2" d="M736.4,218c0-0.3-0.3-0.5-0.6-0.5s-0.6,0.2-0.6,0.5c0,0.3,0.3,0.5,0.6,0.5
						C736.2,218.5,736.4,218.3,736.4,218z"/>
				</g>
				<g>
					<ellipse class="st2" cx="733.9" cy="172.9" rx="1.4" ry="1.3"/>
				</g>
				<g>
					<ellipse class="st2" cx="754.9" cy="205.2" rx="1.2" ry="1.1"/>
				</g>
				<g>
					<path class="st2" d="M759.2,168.9c0-0.8-0.7-1.4-1.6-1.4c-0.9,0-1.6,0.6-1.6,1.4s0.7,1.4,1.6,1.4
						C758.4,170.4,759.2,169.7,759.2,168.9z"/>
				</g>
				<g>
					<ellipse class="st2" cx="780.3" cy="201.1" rx="0.7" ry="0.7"/>
				</g>
				<g>
					<ellipse class="st2" cx="774" cy="164.5" rx="1.6" ry="1.5"/>
				</g>
				<g>
					<ellipse class="st2" cx="788.5" cy="205.3" rx="0.4" ry="0.4"/>
				</g>
				<g>
					<ellipse class="st2" cx="794.5" cy="208.8" rx="1.3" ry="1.1"/>
				</g>
				<g>
					<ellipse class="st2" cx="822.5" cy="207.2" rx="1" ry="0.9"/>
				</g>
				<g>
					<ellipse class="st2" cx="819.9" cy="168.8" rx="1.3" ry="1.2"/>
				</g>
				<g>
					<path class="st2" d="M834.4,201c0-0.7-0.6-1.2-1.3-1.2s-1.3,0.6-1.3,1.2c0,0.7,0.6,1.2,1.3,1.2
						C833.8,202.3,834.4,201.7,834.4,201z"/>
				</g>
				<g>
					<path class="st2" d="M843.6,149.4c0-0.8-0.7-1.5-1.7-1.5c-0.9,0-1.7,0.7-1.7,1.5s0.7,1.5,1.7,1.5
						C842.8,150.9,843.6,150.3,843.6,149.4z"/>
				</g>
				<g>
					<ellipse class="st2" cx="860.8" cy="164.1" rx="0.5" ry="0.5"/>
				</g>
				<g>
					<path class="st2" d="M865.2,159c0-0.9-0.8-1.6-1.8-1.6s-1.7,0.7-1.7,1.6c0,0.9,0.8,1.6,1.7,1.6
						C864.4,160.6,865.2,159.9,865.2,159z"/>
				</g>
				<g>
					<path class="st2" d="M877.2,171.2c0-0.4-0.4-0.7-0.8-0.7c-0.4,0-0.8,0.3-0.8,0.7c0,0.4,0.4,0.7,0.8,0.7
						C876.8,172,877.2,171.6,877.2,171.2z"/>
				</g>
				<g>
					<ellipse class="st2" cx="879.9" cy="143.1" rx="0.8" ry="0.8"/>
				</g>
				<g>
					<ellipse class="st2" cx="892.4" cy="180.5" rx="1.6" ry="1.4"/>
				</g>
				<g>
					<ellipse class="st2" cx="905.8" cy="158.6" rx="1.2" ry="1.1"/>
				</g>
				<g>
					<ellipse class="st2" cx="920" cy="147" rx="1.8" ry="1.6"/>
				</g>
				<g>
					<path class="st2" d="M987.1,139.6c0-0.4-0.4-0.8-0.9-0.8s-0.9,0.3-0.9,0.8c0,0.4,0.4,0.8,0.9,0.8
						C986.7,140.4,987.1,140,987.1,139.6z"/>
				</g>
				<g>
					<ellipse class="st2" cx="1031" cy="171.1" rx="0.5" ry="0.4"/>
				</g>
				<g>
					<ellipse class="st2" cx="1047.8" cy="207.7" rx="0.5" ry="0.5"/>
				</g>
				<g>
					<ellipse class="st2" cx="1059" cy="205.6" rx="0.6" ry="0.6"/>
				</g>
				<g>
					<ellipse class="st2" cx="1074.9" cy="177.1" rx="1.7" ry="1.6"/>
				</g>
				<g>
					<ellipse class="st2" cx="1126.2" cy="197.6" rx="1.8" ry="1.7"/>
				</g>
				<g>
					<ellipse class="st2" cx="1142.7" cy="186.1" rx="1.1" ry="1"/>
				</g>
				<g>
					<path class="st2" d="M1159.6,179c0-0.2-0.2-0.4-0.4-0.4c-0.3,0-0.5,0.2-0.5,0.4c0,0.2,0.2,0.4,0.5,0.4
						C1159.4,179.4,1159.6,179.3,1159.6,179z"/>
				</g>
				<g>
					<ellipse class="st2" cx="1170" cy="174.9" rx="1.2" ry="1.1"/>
				</g>
				<g>
					<path class="st2" d="M1171.4,214.1c0-0.7-0.6-1.3-1.4-1.3s-1.4,0.6-1.4,1.3s0.6,1.3,1.4,1.3S1171.4,214.8,1171.4,214.1z"/>
				</g>
				<g>
					<ellipse class="st2" cx="1187.1" cy="166.3" rx="1.8" ry="1.6"/>
				</g>
				<g>
					<ellipse class="st2" cx="1196.1" cy="226.5" rx="1" ry="0.9"/>
				</g>
				<g>
					<path class="st2" d="M1205.3,228c0-0.7-0.6-1.2-1.3-1.2s-1.3,0.5-1.3,1.2s0.6,1.2,1.3,1.2
						C1204.8,229.2,1205.3,228.6,1205.3,228z"/>
				</g>
				<g>
					<ellipse class="st2" cx="1231.8" cy="208.8" rx="1" ry="0.9"/>
				</g>
				<g>
					<ellipse class="st2" cx="1244.6" cy="200.1" rx="0.6" ry="0.5"/>
				</g>
				<g>
					<ellipse class="st2" cx="1254.5" cy="217.1" rx="0.8" ry="0.8"/>
				</g>
				<g>
					<path class="st2" d="M1264.6,205.6c0-0.4-0.4-0.8-0.9-0.8s-0.9,0.4-0.9,0.8s0.4,0.8,0.9,0.8S1264.6,206,1264.6,205.6z"/>
				</g>
				<g>
					<ellipse class="st2" cx="1268.8" cy="231.4" rx="1.2" ry="1.1"/>
				</g>
				<g>
					<ellipse class="st2" cx="1280.8" cy="225.7" rx="1.1" ry="1"/>
				</g>
				<g>
					<ellipse class="st2" cx="1298.5" cy="198.1" rx="1.6" ry="1.5"/>
				</g>
				<g>
					<ellipse class="st2" cx="1310.1" cy="223" rx="0.3" ry="0.3"/>
				</g>
				<g>
					<ellipse class="st2" cx="1315.8" cy="180.9" rx="1.3" ry="1.1"/>
				</g>
				<g>
					<path class="st2" d="M1326.9,199.4c0-0.2-0.2-0.4-0.4-0.4c-0.2,0-0.4,0.2-0.4,0.4c0,0.2,0.2,0.4,0.4,0.4
						C1326.7,199.8,1326.9,199.7,1326.9,199.4z"/>
				</g>
				<g>
					<ellipse class="st2" cx="1345.5" cy="192.5" rx="0.7" ry="0.6"/>
				</g>
				<g>
					<ellipse class="st2" cx="1352.8" cy="186.7" rx="1.3" ry="1.2"/>
				</g>
				<g>
					<ellipse class="st2" cx="1353.8" cy="183" rx="0.4" ry="0.4"/>
				</g>
				<g>
					<ellipse class="st2" cx="1355.4" cy="184.1" rx="1.5" ry="1.4"/>
				</g>
				<g>
					<ellipse class="st2" cx="1369.3" cy="171.8" rx="0.6" ry="0.6"/>
				</g>
				<g>
					<ellipse class="st2" cx="1381.1" cy="198.8" rx="1.4" ry="1.3"/>
				</g>
				<g>
					<ellipse class="st2" cx="1398.8" cy="197.9" rx="0.3" ry="0.3"/>
				</g>
			</g>
			<g>
				<g>
					<ellipse class="st2" cx="538.8" cy="333.5" rx="1" ry="0.9"/>
				</g>
				<g>
					<ellipse class="st2" cx="560.1" cy="346.9" rx="0.5" ry="0.5"/>
				</g>
				<g>
					<ellipse class="st2" cx="628.3" cy="258.7" rx="0.7" ry="0.7"/>
				</g>
				<g>
					<path class="st2" d="M651.6,318.3c0-0.5-0.5-1-1-1c-0.6,0-1,0.4-1,1c0,0.5,0.5,1,1,1S651.6,318.8,651.6,318.3z"/>
				</g>
				<g>
					<ellipse class="st2" cx="637.3" cy="274.8" rx="0.3" ry="0.2"/>
				</g>
				<g>
					<ellipse class="st2" cx="653.5" cy="307.8" rx="1.4" ry="1.2"/>
				</g>
				<g>
					<ellipse class="st2" cx="659.8" cy="281.4" rx="0.3" ry="0.2"/>
				</g>
				<g>
					<ellipse class="st2" cx="670.6" cy="308.7" rx="0.9" ry="0.8"/>
				</g>
				<g>
					<ellipse class="st2" cx="670" cy="258.3" rx="1.6" ry="1.5"/>
				</g>
				<g>
					<ellipse class="st2" cx="671.5" cy="252.1" rx="1.4" ry="1.3"/>
				</g>
				<g>
					<ellipse class="st2" cx="696" cy="276.2" rx="0.2" ry="0.2"/>
				</g>
				<g>
					<ellipse class="st2" cx="715.5" cy="292" rx="0.6" ry="0.5"/>
				</g>
				<g>
					<path class="st2" d="M736.4,306.3c0-0.3-0.3-0.5-0.6-0.5s-0.6,0.2-0.6,0.5s0.3,0.5,0.6,0.5
						C736.2,306.8,736.4,306.6,736.4,306.3z"/>
				</g>
				<g>
					<path class="st2" d="M735.4,261.2c0-0.7-0.6-1.3-1.4-1.3c-0.8,0-1.4,0.6-1.4,1.3c0,0.7,0.6,1.3,1.4,1.3
						C734.7,262.5,735.4,261.9,735.4,261.2z"/>
				</g>
				<g>
					<ellipse class="st2" cx="754.9" cy="293.5" rx="1.2" ry="1.1"/>
				</g>
				<g>
					<path class="st2" d="M759.2,257.3c0-0.8-0.7-1.4-1.6-1.4c-0.9,0-1.6,0.6-1.6,1.4c0,0.8,0.7,1.4,1.6,1.4
						C758.4,258.7,759.2,258.1,759.2,257.3z"/>
				</g>
				<g>
					<ellipse class="st2" cx="780.3" cy="289.4" rx="0.7" ry="0.7"/>
				</g>
				<g>
					<ellipse class="st2" cx="774" cy="252.8" rx="1.6" ry="1.5"/>
				</g>
				<g>
					<ellipse class="st2" cx="788.5" cy="293.6" rx="0.4" ry="0.4"/>
				</g>
				<g>
					<path class="st2" d="M801.4,223.4c0-0.5-0.5-0.9-1-0.9c-0.6,0-1,0.4-1,0.9s0.5,0.9,1,0.9S801.4,223.9,801.4,223.4z"/>
				</g>
				<g>
					<ellipse class="st2" cx="819.9" cy="257.1" rx="1.3" ry="1.2"/>
				</g>
				<g>
					<path class="st2" d="M843.6,237.7c0-0.8-0.7-1.5-1.7-1.5c-0.9,0-1.7,0.7-1.7,1.5s0.7,1.5,1.7,1.5
						C842.8,239.3,843.6,238.6,843.6,237.7z"/>
				</g>
				<g>
					<ellipse class="st2" cx="860.8" cy="252.4" rx="0.5" ry="0.5"/>
				</g>
				<g>
					<path class="st2" d="M865.2,247.3c0-0.9-0.8-1.6-1.8-1.6s-1.7,0.7-1.7,1.6c0,0.9,0.8,1.6,1.7,1.6
						C864.4,248.9,865.2,248.2,865.2,247.3z"/>
				</g>
				<g>
					<path class="st2" d="M877.2,259.6c0-0.4-0.4-0.7-0.8-0.7c-0.4,0-0.8,0.3-0.8,0.7c0,0.4,0.4,0.7,0.8,0.7S877.2,260,877.2,259.6z
						"/>
				</g>
				<g>
					<ellipse class="st2" cx="879.9" cy="231.4" rx="0.8" ry="0.8"/>
				</g>
				<g>
					<ellipse class="st2" cx="892.4" cy="268.9" rx="1.6" ry="1.4"/>
				</g>
				<g>
					<ellipse class="st2" cx="905.8" cy="246.9" rx="1.2" ry="1.1"/>
				</g>
				<g>
					<ellipse class="st2" cx="920" cy="235.3" rx="1.8" ry="1.6"/>
				</g>
				<g>
					<path class="st2" d="M937.1,269.6c0-0.5-0.5-0.9-1-0.9c-0.6,0-1,0.4-1,0.9s0.5,0.9,1,0.9C936.7,270.5,937.1,270.1,937.1,269.6z
						"/>
				</g>
				<g>
					<path class="st2" d="M948.9,294c0-0.7-0.7-1.3-1.5-1.3s-1.5,0.6-1.5,1.3s0.7,1.3,1.5,1.3C948.2,295.4,948.9,294.8,948.9,294z"
						/>
				</g>
				<g>
					<ellipse class="st2" cx="959.4" cy="252.9" rx="1.1" ry="1"/>
				</g>
				<g>
					<ellipse class="st2" cx="968.5" cy="251.6" rx="0.5" ry="0.5"/>
				</g>
				<g>
					<ellipse class="st2" cx="975.3" cy="253.5" rx="0.6" ry="0.5"/>
				</g>
				<g>
					<ellipse class="st2" cx="989.4" cy="273.3" rx="1.3" ry="1.2"/>
				</g>
				<g>
					<ellipse class="st2" cx="998.6" cy="245.1" rx="1.8" ry="1.7"/>
				</g>
				<g>
					<ellipse class="st2" cx="1013.7" cy="274.1" rx="0.7" ry="0.6"/>
				</g>
				<g>
					<ellipse class="st2" cx="1021.5" cy="284.4" rx="1.5" ry="1.4"/>
				</g>
				<g>
					<ellipse class="st2" cx="1031" cy="259.4" rx="0.5" ry="0.4"/>
				</g>
				<g>
					<path class="st2" d="M1045.6,286.8c0-0.2-0.1-0.3-0.3-0.3c-0.2,0-0.3,0.1-0.3,0.3s0.1,0.3,0.3,0.3
						C1045.4,287.1,1045.6,287,1045.6,286.8z"/>
				</g>
				<g>
					<ellipse class="st2" cx="1047.8" cy="296" rx="0.5" ry="0.5"/>
				</g>
				<g>
					<ellipse class="st2" cx="1059" cy="293.9" rx="0.6" ry="0.6"/>
				</g>
				<g>
					<ellipse class="st2" cx="1074.9" cy="265.4" rx="1.7" ry="1.6"/>
				</g>
				<g>
					<ellipse class="st2" cx="1092.2" cy="234.3" rx="1.1" ry="1"/>
				</g>
				<g>
					<path class="st2" d="M1109.4,240.4c0-0.9-0.8-1.6-1.7-1.6c-1,0-1.7,0.7-1.7,1.6c0,0.9,0.8,1.6,1.7,1.6
						C1108.6,242,1109.4,241.3,1109.4,240.4z"/>
				</g>
				<g>
					<ellipse class="st2" cx="1122.7" cy="234.4" rx="1.4" ry="1.3"/>
				</g>
				<g>
					<ellipse class="st2" cx="1124.2" cy="235.9" rx="0.7" ry="0.7"/>
				</g>
				<g>
					<ellipse class="st2" cx="1121.4" cy="269" rx="1.1" ry="1"/>
				</g>
				<g>
					<ellipse class="st2" cx="1126.2" cy="285.9" rx="1.8" ry="1.7"/>
				</g>
				<g>
					<path class="st2" d="M1159.6,267.4c0-0.2-0.2-0.4-0.4-0.4c-0.3,0-0.5,0.2-0.5,0.4s0.2,0.4,0.5,0.4
						C1159.4,267.8,1159.6,267.6,1159.6,267.4z"/>
				</g>
				<g>
					<ellipse class="st2" cx="1164.2" cy="244.6" rx="0.6" ry="0.5"/>
				</g>
				<g>
					<ellipse class="st2" cx="1170" cy="263.3" rx="1.2" ry="1.1"/>
				</g>
				<g>
					<path class="st2" d="M1176.2,241.6c0-0.3-0.3-0.5-0.6-0.5c-0.3,0-0.6,0.2-0.6,0.5s0.3,0.5,0.6,0.5
						C1175.9,242.1,1176.2,241.9,1176.2,241.6z"/>
				</g>
				<g>
					<ellipse class="st2" cx="1187.1" cy="254.7" rx="1.8" ry="1.6"/>
				</g>
				<g>
					<ellipse class="st2" cx="1196.1" cy="314.8" rx="1" ry="0.9"/>
				</g>
				<g>
					<path class="st2" d="M1205.3,316.3c0-0.7-0.6-1.2-1.3-1.2s-1.3,0.5-1.3,1.2s0.6,1.2,1.3,1.2
						C1204.8,317.5,1205.3,316.9,1205.3,316.3z"/>
				</g>
				<g>
					<ellipse class="st2" cx="1220.7" cy="244.6" rx="1.6" ry="1.5"/>
				</g>
				<g>
					<ellipse class="st2" cx="1231.8" cy="297.2" rx="1" ry="0.9"/>
				</g>
				<g>
					<ellipse class="st2" cx="1244.6" cy="288.5" rx="0.6" ry="0.5"/>
				</g>
				<g>
					<ellipse class="st2" cx="1254.5" cy="305.4" rx="0.8" ry="0.8"/>
				</g>
				<g>
					<path class="st2" d="M1264.6,293.9c0-0.4-0.4-0.8-0.9-0.8s-0.9,0.4-0.9,0.8c0,0.4,0.4,0.8,0.9,0.8S1264.6,294.4,1264.6,293.9z"
						/>
				</g>
				<g>
					<ellipse class="st2" cx="1268.8" cy="319.7" rx="1.2" ry="1.1"/>
				</g>
				<g>
					<ellipse class="st2" cx="1280.8" cy="314" rx="1.1" ry="1"/>
				</g>
				<g>
					<ellipse class="st2" cx="1298.5" cy="286.5" rx="1.6" ry="1.5"/>
				</g>
				<g>
					<ellipse class="st2" cx="1310.1" cy="311.3" rx="0.3" ry="0.3"/>
				</g>
				<g>
					<ellipse class="st2" cx="1315.8" cy="269.3" rx="1.3" ry="1.1"/>
				</g>
				<g>
					<path class="st2" d="M1326.9,287.8c0-0.2-0.2-0.4-0.4-0.4c-0.2,0-0.4,0.2-0.4,0.4s0.2,0.4,0.4,0.4
						C1326.7,288.1,1326.9,288,1326.9,287.8z"/>
				</g>
				<g>
					<ellipse class="st2" cx="1345.5" cy="280.8" rx="0.7" ry="0.6"/>
				</g>
				<g>
					<ellipse class="st2" cx="1352.8" cy="275" rx="1.3" ry="1.2"/>
				</g>
				<g>
					<ellipse class="st2" cx="1353.8" cy="271.3" rx="0.4" ry="0.4"/>
				</g>
				<g>
					<ellipse class="st2" cx="1355.4" cy="272.5" rx="1.5" ry="1.4"/>
				</g>
				<g>
					<path class="st2" d="M1369.9,260.1c0-0.3-0.3-0.6-0.6-0.6c-0.4,0-0.6,0.3-0.6,0.6c0,0.3,0.3,0.6,0.6,0.6
						S1369.9,260.4,1369.9,260.1z"/>
				</g>
				<g>
					<ellipse class="st2" cx="1381.1" cy="287.1" rx="1.4" ry="1.3"/>
				</g>
				<g>
					<ellipse class="st2" cx="1398.8" cy="286.2" rx="0.3" ry="0.3"/>
				</g>
			</g>
			<g>
				<g>
					<ellipse class="st2" cx="560.1" cy="186" rx="0.5" ry="0.5"/>
				</g>
				<g>
					<ellipse class="st2" cx="618.6" cy="165.9" rx="1.2" ry="1.1"/>
				</g>
				<g>
					<ellipse class="st2" cx="636.2" cy="163.3" rx="1.6" ry="1.4"/>
				</g>
				<g>
					<path class="st2" d="M637.8,162.5c0-0.6-0.5-1.1-1.2-1.1c-0.6,0-1.2,0.5-1.2,1.1c0,0.6,0.5,1.1,1.2,1.1
						S637.8,163.1,637.8,162.5z"/>
				</g>
				<g>
					<ellipse class="st2" cx="641.5" cy="145.3" rx="1.4" ry="1.3"/>
				</g>
				<g>
					<path class="st2" d="M651.6,157.5c0-0.5-0.5-1-1-1c-0.6,0-1,0.4-1,1c0,0.5,0.5,1,1,1C651.1,158.4,651.6,158,651.6,157.5z"/>
				</g>
				<g>
					<ellipse class="st2" cx="653.5" cy="147" rx="1.4" ry="1.2"/>
				</g>
				<g>
					<ellipse class="st2" cx="659.8" cy="120.5" rx="0.3" ry="0.2"/>
				</g>
				<g>
					<ellipse class="st2" cx="670.6" cy="147.8" rx="0.9" ry="0.8"/>
				</g>
				<g>
					<ellipse class="st2" cx="696" cy="115.4" rx="0.2" ry="0.2"/>
				</g>
				<g>
					<ellipse class="st2" cx="715.5" cy="131.2" rx="0.6" ry="0.5"/>
				</g>
				<g>
					<path class="st2" d="M736.4,145.5c0-0.3-0.3-0.5-0.6-0.5s-0.6,0.2-0.6,0.5c0,0.3,0.3,0.5,0.6,0.5
						C736.2,146,736.4,145.8,736.4,145.5z"/>
				</g>
				<g>
					<ellipse class="st2" cx="892.4" cy="108" rx="1.6" ry="1.4"/>
				</g>
				<g>
					<path class="st2" d="M937.1,108.7c0-0.5-0.5-0.9-1-0.9c-0.6,0-1,0.4-1,0.9s0.5,0.9,1,0.9C936.7,109.7,937.1,109.3,937.1,108.7z
						"/>
				</g>
				<g>
					<path class="st2" d="M948.9,133.2c0-0.7-0.7-1.3-1.5-1.3s-1.5,0.6-1.5,1.3s0.7,1.3,1.5,1.3S948.9,133.9,948.9,133.2z"/>
				</g>
				<g>
					<ellipse class="st2" cx="989.4" cy="112.4" rx="1.3" ry="1.2"/>
				</g>
				<g>
					<ellipse class="st2" cx="1013.7" cy="113.2" rx="0.7" ry="0.6"/>
				</g>
				<g>
					<ellipse class="st2" cx="1021.5" cy="123.6" rx="1.5" ry="1.4"/>
				</g>
				<g>
					<ellipse class="st2" cx="1031" cy="98.6" rx="0.5" ry="0.4"/>
				</g>
				<g>
					<path class="st2" d="M1045.6,126c0-0.2-0.1-0.3-0.3-0.3c-0.2,0-0.3,0.1-0.3,0.3c0,0.2,0.1,0.3,0.3,0.3
						C1045.4,126.3,1045.6,126.1,1045.6,126z"/>
				</g>
				<g>
					<ellipse class="st2" cx="1047.8" cy="135.2" rx="0.5" ry="0.5"/>
				</g>
				<g>
					<ellipse class="st2" cx="1059" cy="133.1" rx="0.6" ry="0.6"/>
				</g>
				<g>
					<path class="st2" d="M1077.6,104.6c0-1.4-1.2-2.5-2.8-2.5c-1.5,0-2.8,1.1-2.8,2.5c0,1.4,1.2,2.5,2.8,2.5
						C1076.4,107.1,1077.6,106,1077.6,104.6z"/>
				</g>
				<g>
					<ellipse class="st2" cx="1121.4" cy="108.2" rx="1.1" ry="1"/>
				</g>
				<g>
					<ellipse class="st2" cx="1126.2" cy="125.1" rx="1.8" ry="1.7"/>
				</g>
				<g>
					<path class="st2" d="M1264.6,133.1c0-0.4-0.4-0.8-0.9-0.8s-0.9,0.4-0.9,0.8c0,0.4,0.4,0.8,0.9,0.8S1264.6,133.5,1264.6,133.1z"
						/>
				</g>
				<g>
					<ellipse class="st2" cx="1268.8" cy="158.9" rx="1.2" ry="1.1"/>
				</g>
				<g>
					<ellipse class="st2" cx="1280.8" cy="153.2" rx="1.1" ry="1"/>
				</g>
				<g>
					<ellipse class="st2" cx="1298.5" cy="125.6" rx="1.6" ry="1.5"/>
				</g>
				<g>
					<ellipse class="st2" cx="1310.1" cy="150.5" rx="0.3" ry="0.3"/>
				</g>
				<g>
					<ellipse class="st2" cx="1315.8" cy="108.4" rx="1.3" ry="1.1"/>
				</g>
				<g>
					<path class="st2" d="M1326.9,126.9c0-0.2-0.2-0.4-0.4-0.4c-0.2,0-0.4,0.2-0.4,0.4s0.2,0.4,0.4,0.4
						C1326.7,127.3,1326.9,127.1,1326.9,126.9z"/>
				</g>
				<g>
					<ellipse class="st2" cx="1345.5" cy="120" rx="0.7" ry="0.6"/>
				</g>
				<g>
					<ellipse class="st2" cx="1352.8" cy="114.2" rx="1.3" ry="1.2"/>
				</g>
				<g>
					<ellipse class="st2" cx="1353.8" cy="110.4" rx="0.4" ry="0.4"/>
				</g>
				<g>
					<path class="st2" d="M1369.9,99.3c0-0.3-0.3-0.6-0.6-0.6c-0.4,0-0.6,0.3-0.6,0.6c0,0.3,0.3,0.6,0.6,0.6
						S1369.9,99.6,1369.9,99.3z"/>
				</g>
			</g>
			<path class="st2" d="M1074.9,102.1c-1.5,0-2.8,1.1-2.8,2.5c0,1.4,1.2,2.5,2.8,2.5"/>
			<g>
				<path class="st2" d="M1077.6,104.6c0-1.4-1.2-2.5-2.8-2.5c-1.5,0-2.8,1.1-2.8,2.5c0,1.4,1.2,2.5,2.8,2.5
					C1076.4,107.1,1077.6,106,1077.6,104.6z"/>
			</g>
			<path class="st2" d="M1074.5,102.7c-1.1,0-2.1,0.8-2.1,1.9c0,1,0.9,1.9,2.1,1.9"/>
			<path class="st2" d="M701.5,231.4c-1.5,0-2.8,1.1-2.8,2.5s1.2,2.5,2.8,2.5"/>
			<path class="st2" d="M1260.5,258.7c-1.5,0-2.8,1.1-2.8,2.5c0,1.4,1.2,2.5,2.8,2.5"/>
			<path class="st2" d="M1274.7,387.4c-1.5,0-2.8,1.1-2.8,2.5s1.2,2.5,2.8,2.5"/>
			<path class="st2" d="M1176.4,450.9c-1.5,0-2.8,1.1-2.8,2.5s1.2,2.5,2.8,2.5"/>
			<path class="st2" d="M907.1,430.9c-1.5,0-2.8,1.1-2.8,2.5s1.2,2.5,2.8,2.5"/>
			<path class="st2" d="M656.2,420.9c-1.5,0-2.8,1.1-2.8,2.5s1.2,2.5,2.8,2.5"/>
			<path class="st2" d="M567.7,410.6c-1.5,0-2.8,1.1-2.8,2.5s1.2,2.5,2.8,2.5"/>
			<path class="st2" d="M1255.9,505.3c-1.5,0-2.8,1.1-2.8,2.5s1.2,2.5,2.8,2.5"/>
			<path class="st2" d="M1048.6,548.4"/>
			<path class="st2" d="M1377.3,322.4c-1.5,0-2.8,1.1-2.8,2.5s1.2,2.5,2.8,2.5"/>
		</g>
	</g>
	<path class="st2" d="M1413.3,312.3c0-0.4,0.4-0.8,0.8-0.8c0.5,0,0.8,0.3,0.8,0.8c0,0.4-0.4,0.8-0.8,0.8
		C1413.7,313.1,1413.3,312.7,1413.3,312.3"/>
	<g>
		<ellipse class="st2" cx="1647.2" cy="161.1" rx="0.3" ry="0.2"/>
	</g>
	<g>
		<ellipse class="st2" cx="1462.1" cy="181.8" rx="1" ry="0.9"/>
	</g>
	<g>
		<ellipse class="st2" cx="1464.7" cy="143.4" rx="1.3" ry="1.2"/>
	</g>
	<g>
		<path class="st2" d="M1450.1,175.7c0-0.7,0.6-1.2,1.3-1.2c0.7,0,1.3,0.6,1.3,1.2c0,0.7-0.6,1.2-1.3,1.2S1450.1,176.3,1450.1,175.7
			z"/>
	</g>
	<g>
		<path class="st2" d="M1441,124c0-0.8,0.7-1.5,1.7-1.5c0.9,0,1.7,0.7,1.7,1.5c0,0.8-0.7,1.5-1.7,1.5
			C1441.7,125.6,1441,124.9,1441,124z"/>
	</g>
	<g>
		<ellipse class="st2" cx="1423.8" cy="138.7" rx="0.5" ry="0.5"/>
	</g>
	<g>
		<path class="st2" d="M1419.4,133.6c0-0.9,0.8-1.6,1.8-1.6s1.7,0.7,1.7,1.6c0,0.9-0.8,1.6-1.7,1.6
			C1420.2,135.2,1419.4,134.5,1419.4,133.6z"/>
	</g>
	<g>
		<path class="st2" d="M1407.4,145.9c0-0.4,0.4-0.7,0.8-0.7s0.8,0.3,0.8,0.7s-0.4,0.7-0.8,0.7
			C1407.7,146.6,1407.4,146.3,1407.4,145.9z"/>
	</g>
	<path class="st2" d="M1403.8,117.7c0-0.4,0.4-0.8,0.8-0.8c0.5,0,0.8,0.3,0.8,0.8c0,0.4-0.4,0.8-0.8,0.8
		C1404.1,118.5,1403.8,118.1,1403.8,117.7"/>
	<g>
		<ellipse class="st2" cx="1464.7" cy="231.8" rx="1.3" ry="1.2"/>
	</g>
	<g>
		<path class="st2" d="M1450.1,264c0-0.7,0.6-1.2,1.3-1.2c0.7,0,1.3,0.6,1.3,1.2c0,0.7-0.6,1.2-1.3,1.2S1450.1,264.7,1450.1,264z"/>
	</g>
	<g>
		<path class="st2" d="M1441,212.4c0-0.8,0.7-1.5,1.7-1.5c0.9,0,1.7,0.7,1.7,1.5s-0.7,1.5-1.7,1.5S1441,213.2,1441,212.4z"/>
	</g>
	<g>
		<path class="st2" d="M1419.4,221.9c0-0.9,0.8-1.6,1.8-1.6s1.7,0.7,1.7,1.6s-0.8,1.6-1.7,1.6
			C1420.2,223.5,1419.4,222.8,1419.4,221.9z"/>
	</g>
	<path class="st2" d="M1403.8,206c0-0.4,0.4-0.8,0.8-0.8c0.5,0,0.8,0.3,0.8,0.8c0,0.4-0.4,0.8-0.8,0.8
		C1404.1,206.8,1403.8,206.5,1403.8,206"/>
	<g>
		<ellipse class="st2" cx="1462.1" cy="109.3" rx="1" ry="0.9"/>
	</g>
	<g>
		<path class="st2" d="M1450.1,103.2c0-0.7,0.6-1.2,1.3-1.2c0.7,0,1.3,0.6,1.3,1.2c0,0.7-0.6,1.2-1.3,1.2S1450.1,103.8,1450.1,103.2
			z"/>
	</g>
	<g>
		<ellipse class="st2" cx="531.5" cy="611.6" rx="0.5" ry="0.5"/>
	</g>
	<g>
		<ellipse class="st2" cx="530.6" cy="571.7" rx="1.5" ry="1.4"/>
	</g>
	<g>
		<path class="st2" d="M536.3,544.1c0-0.6,0.6-1.2,1.3-1.2c0.7,0,1.3,0.5,1.3,1.2c0,0.6-0.6,1.2-1.3,1.2
			C536.8,545.3,536.3,544.8,536.3,544.1z"/>
	</g>
	<g>
		<ellipse class="st2" cx="522.2" cy="565.6" rx="0.8" ry="0.7"/>
	</g>
	<g>
		<ellipse class="st2" cx="519.9" cy="550.9" rx="0.6" ry="0.5"/>
	</g>
	<g>
		<path class="st2" d="M509.5,541.1c0-0.4,0.3-0.7,0.7-0.7c0.4,0,0.7,0.3,0.7,0.7c0,0.4-0.3,0.7-0.7,0.7S509.5,541.5,509.5,541.1z"
			/>
	</g>
	<g>
		<ellipse class="st2" cx="489.5" cy="553.7" rx="1.6" ry="1.4"/>
	</g>
	<g>
		<ellipse class="st2" cx="473.1" cy="591.5" rx="1.2" ry="1.1"/>
	</g>
	<g>
		<ellipse class="st2" cx="455.4" cy="588.9" rx="1.6" ry="1.4"/>
	</g>
	<g>
		<path class="st2" d="M453.8,588.1c0-0.6,0.5-1.1,1.2-1.1c0.6,0,1.2,0.5,1.2,1.1s-0.5,1.1-1.2,1.1
			C454.3,589.2,453.8,588.7,453.8,588.1z"/>
	</g>
	<g>
		<ellipse class="st2" cx="450.1" cy="570.9" rx="1.4" ry="1.3"/>
	</g>
	<g>
		<ellipse class="st2" cx="463.3" cy="523.5" rx="0.7" ry="0.7"/>
	</g>
	<g>
		<path class="st2" d="M440,583.1c0-0.5,0.5-1,1-1c0.6,0,1,0.4,1,1c0,0.5-0.5,1-1,1C440.5,584,440,583.6,440,583.1z"/>
	</g>
	<g>
		<ellipse class="st2" cx="454.3" cy="539.6" rx="0.3" ry="0.2"/>
	</g>
	<g>
		<ellipse class="st2" cx="438.2" cy="572.6" rx="1.4" ry="1.2"/>
	</g>
	<g>
		<ellipse class="st2" cx="431.8" cy="546.1" rx="0.3" ry="0.2"/>
	</g>
	<g>
		<ellipse class="st2" cx="421" cy="573.4" rx="0.9" ry="0.8"/>
	</g>
	<g>
		<ellipse class="st2" cx="421.6" cy="523" rx="1.6" ry="1.5"/>
	</g>
	<g>
		<ellipse class="st2" cx="420.1" cy="516.9" rx="1.4" ry="1.3"/>
	</g>
	<g>
		<ellipse class="st2" cx="395.6" cy="541" rx="0.2" ry="0.2"/>
	</g>
	<g>
		<path class="st2" d="M531,683.8c0-0.3,0.2,0,0.5,0s0.5-0.3,0.5,0s-0.2,0-0.5,0S531,684.1,531,683.8z"/>
	</g>
	<g>
		<ellipse class="st2" cx="530.6" cy="660.1" rx="1.5" ry="1.4"/>
	</g>
	<g>
		<path class="st2" d="M536.3,632.4c0-0.6,0.6-1.2,1.3-1.2c0.7,0,1.3,0.5,1.3,1.2c0,0.6-0.6,1.2-1.3,1.2
			C536.8,633.6,536.3,633.1,536.3,632.4z"/>
	</g>
	<g>
		<ellipse class="st2" cx="522.2" cy="653.9" rx="0.8" ry="0.7"/>
	</g>
	<g>
		<ellipse class="st2" cx="519.9" cy="639.2" rx="0.6" ry="0.5"/>
	</g>
	<g>
		<path class="st2" d="M509.5,629.5c0-0.4,0.3-0.7,0.7-0.7c0.4,0,0.7,0.3,0.7,0.7s-0.3,0.7-0.7,0.7
			C509.8,630.1,509.5,629.8,509.5,629.5z"/>
	</g>
	<g>
		<ellipse class="st2" cx="489.5" cy="642" rx="1.6" ry="1.4"/>
	</g>
	<g>
		<ellipse class="st2" cx="463.3" cy="611.8" rx="0.7" ry="0.7"/>
	</g>
	<g>
		<ellipse class="st2" cx="454.3" cy="627.9" rx="0.3" ry="0.2"/>
	</g>
	<g>
		<ellipse class="st2" cx="531.5" cy="539.1" rx="0.5" ry="0.5"/>
	</g>
	<g>
		<ellipse class="st2" cx="530.6" cy="499.2" rx="1.5" ry="1.4"/>
	</g>
	<g>
		<ellipse class="st2" cx="522.2" cy="493.1" rx="0.8" ry="0.7"/>
	</g>
	<g>
		<ellipse class="st2" cx="519.9" cy="478.4" rx="0.6" ry="0.5"/>
	</g>
	<g>
		<ellipse class="st2" cx="489.5" cy="481.2" rx="1.6" ry="1.4"/>
	</g>
	<g>
		<ellipse class="st2" cx="473.1" cy="519" rx="1.2" ry="1.1"/>
	</g>
	<g>
		<ellipse class="st2" cx="455.4" cy="516.4" rx="1.6" ry="1.4"/>
	</g>
	<g>
		<path class="st2" d="M453.8,515.6c0-0.6,0.5-1.1,1.2-1.1c0.6,0,1.2,0.5,1.2,1.1s-0.5,1.1-1.2,1.1
			C454.3,516.7,453.8,516.2,453.8,515.6z"/>
	</g>
	<g>
		<ellipse class="st2" cx="450.1" cy="498.4" rx="1.4" ry="1.3"/>
	</g>
	<g>
		<path class="st2" d="M440,510.6c0-0.5,0.5-1,1-1c0.6,0,1,0.4,1,1c0,0.5-0.5,1-1,1C440.5,511.5,440,511.1,440,510.6z"/>
	</g>
	<g>
		<ellipse class="st2" cx="438.2" cy="500.1" rx="1.4" ry="1.2"/>
	</g>
	<g>
		<ellipse class="st2" cx="421" cy="500.9" rx="0.9" ry="0.8"/>
	</g>
	<path class="st2" d="M387.1,517.5c-1.5,0-2.8,1.1-2.8,2.5c0,1.4,1.2,2.5,2.8,2.5"/>
	<g>
		<ellipse class="st2" cx="532.2" cy="408" rx="0.5" ry="0.5"/>
	</g>
	<g>
		<ellipse class="st2" cx="531.3" cy="368.1" rx="1.5" ry="1.4"/>
	</g>
	<g>
		<path class="st2" d="M537,340.5c0-0.6,0.6-1.2,1.3-1.2s1.3,0.5,1.3,1.2c0,0.6-0.6,1.2-1.3,1.2C537.5,341.6,537,341.1,537,340.5z"
			/>
	</g>
	<g>
		<ellipse class="st2" cx="522.9" cy="361.9" rx="0.8" ry="0.7"/>
	</g>
	<g>
		<ellipse class="st2" cx="520.6" cy="347.3" rx="0.6" ry="0.5"/>
	</g>
	<g>
		<path class="st2" d="M510.2,337.5c0-0.4,0.3-0.7,0.7-0.7c0.4,0,0.7,0.3,0.7,0.7s-0.3,0.7-0.7,0.7
			C510.5,338.1,510.2,337.9,510.2,337.5z"/>
	</g>
	<g>
		<ellipse class="st2" cx="490.2" cy="350" rx="1.6" ry="1.4"/>
	</g>
	<g>
		<ellipse class="st2" cx="473.8" cy="387.8" rx="1.2" ry="1.1"/>
	</g>
	<g>
		<ellipse class="st2" cx="456.1" cy="385.2" rx="1.6" ry="1.4"/>
	</g>
	<g>
		<path class="st2" d="M454.5,384.5c0-0.6,0.5-1.1,1.2-1.1c0.6,0,1.2,0.5,1.2,1.1s-0.5,1.1-1.2,1.1C455,385.5,454.5,385,454.5,384.5
			z"/>
	</g>
	<g>
		<ellipse class="st2" cx="450.8" cy="367.2" rx="1.4" ry="1.3"/>
	</g>
	<g>
		<ellipse class="st2" cx="464" cy="319.9" rx="0.7" ry="0.7"/>
	</g>
	<g>
		<path class="st2" d="M440.7,379.4c0-0.5,0.5-1,1-1c0.6,0,1,0.4,1,1c0,0.5-0.5,1-1,1S440.7,380,440.7,379.4z"/>
	</g>
	<g>
		<ellipse class="st2" cx="455" cy="335.9" rx="0.3" ry="0.2"/>
	</g>
	<g>
		<ellipse class="st2" cx="438.9" cy="369" rx="1.4" ry="1.2"/>
	</g>
	<g>
		<path class="st2" d="M531.7,480.2c0-0.3,0.2,0,0.5,0s0.5-0.3,0.5,0s-0.2,0-0.5,0S531.7,480.4,531.7,480.2z"/>
	</g>
	<g>
		<ellipse class="st2" cx="531.3" cy="456.4" rx="1.5" ry="1.4"/>
	</g>
	<g>
		<path class="st2" d="M537,428.8c0-0.6,0.6-1.2,1.3-1.2s1.3,0.5,1.3,1.2c0,0.6-0.6,1.2-1.3,1.2C537.5,430,537,429.4,537,428.8z"/>
	</g>
	<g>
		<ellipse class="st2" cx="522.9" cy="450.3" rx="0.8" ry="0.7"/>
	</g>
	<g>
		<ellipse class="st2" cx="520.6" cy="435.6" rx="0.6" ry="0.5"/>
	</g>
	<g>
		<path class="st2" d="M510.2,425.8c0-0.4,0.3-0.7,0.7-0.7c0.4,0,0.7,0.3,0.7,0.7s-0.3,0.7-0.7,0.7S510.2,426.2,510.2,425.8z"/>
	</g>
	<g>
		<ellipse class="st2" cx="490.2" cy="438.3" rx="1.6" ry="1.4"/>
	</g>
	<g>
		<path class="st2" d="M472.6,480.2c0-0.6,0.5,0,1.2,0c0.7,0,1.2-0.6,1.2,0s-0.5,0-1.2,0C473.1,480.2,472.6,480.7,472.6,480.2z"/>
	</g>
	<g>
		<ellipse class="st2" cx="450.8" cy="455.6" rx="1.4" ry="1.3"/>
	</g>
	<g>
		<ellipse class="st2" cx="464" cy="408.2" rx="0.7" ry="0.7"/>
	</g>
	<g>
		<path class="st2" d="M440.7,467.8c0-0.5,0.5-1,1-1c0.6,0,1,0.4,1,1c0,0.5-0.5,1-1,1C441.2,468.7,440.7,468.3,440.7,467.8z"/>
	</g>
	<g>
		<ellipse class="st2" cx="455" cy="424.3" rx="0.3" ry="0.2"/>
	</g>
	<g>
		<ellipse class="st2" cx="438.9" cy="457.3" rx="1.4" ry="1.2"/>
	</g>
	<g>
		<ellipse class="st2" cx="421.7" cy="458.1" rx="0.9" ry="0.8"/>
	</g>
	<g>
		<ellipse class="st2" cx="532.2" cy="335.5" rx="0.5" ry="0.5"/>
	</g>
	<g>
		<ellipse class="st2" cx="531.3" cy="295.6" rx="1.5" ry="1.4"/>
	</g>
	<g>
		<ellipse class="st2" cx="522.9" cy="289.4" rx="0.8" ry="0.7"/>
	</g>
	<g>
		<ellipse class="st2" cx="520.6" cy="274.8" rx="0.6" ry="0.5"/>
	</g>
	<g>
		<ellipse class="st2" cx="490.2" cy="277.5" rx="1.6" ry="1.4"/>
	</g>
	<g>
		<ellipse class="st2" cx="473.8" cy="315.3" rx="1.2" ry="1.1"/>
	</g>
	<g>
		<path class="st2" d="M531.7,270.8c0-0.3,0.2,0,0.5,0s0.5-0.3,0.5,0s-0.2,0-0.5,0S531.7,271.1,531.7,270.8z"/>
	</g>
	<g>
		<ellipse class="st2" cx="531.3" cy="247.1" rx="1.5" ry="1.4"/>
	</g>
	<g>
		<path class="st2" d="M537,219.5c0-0.6,0.6-1.2,1.3-1.2s1.3,0.5,1.3,1.2c0,0.6-0.6,1.2-1.3,1.2C537.5,220.6,537,220.1,537,219.5z"
			/>
	</g>
	<g>
		<ellipse class="st2" cx="522.9" cy="240.9" rx="0.8" ry="0.7"/>
	</g>
	<g>
		<ellipse class="st2" cx="520.6" cy="226.3" rx="0.6" ry="0.5"/>
	</g>
	<g>
		<path class="st2" d="M1553.8,243.4c0-0.5,0.4-0.9,1-0.9c0.5,0,1,0.4,1,0.9s-0.4,0.9-1,0.9C1554.2,244.3,1553.8,243.9,1553.8,243.4
			z"/>
	</g>
	<g>
		<ellipse class="st2" cx="491.7" cy="149.4" rx="1.5" ry="1.3"/>
	</g>
	<g>
		<path class="st2" d="M329.4,238.4c0-0.5,0.5-0.9,1-0.9s1,0.4,1,0.9s-0.5,1-1,1S329.4,238.9,329.4,238.4z"/>
	</g>
	<g>
		<path class="st2" d="M302.5,648.7c0-0.6,0.6-1.2,1.3-1.2c0.7,0,1.3,0.5,1.3,1.2c0,0.6-0.6,1.2-1.3,1.2
			C303.1,649.9,302.5,649.4,302.5,648.7z"/>
	</g>
	<g>
		<ellipse class="st2" cx="291.6" cy="-273.9" rx="2.8" ry="2.6"/>
	</g>
	<g>
		<ellipse class="st2" cx="230.4" cy="-210.7" rx="2.8" ry="2.6"/>
	</g>
	<g>
		<path class="st2" d="M227.6-212.1c0-1.1,0.9-1.9,2.1-1.9s2.1,0.9,2.1,1.9s-0.9,1.9-2.1,1.9C228.6-210.1,227.6-211,227.6-212.1z"/>
	</g>
	<g>
		<path class="st2" d="M218.5-243c0-1.3,1.1-2.3,2.5-2.3s2.5,1,2.5,2.3s-1.1,2.3-2.5,2.3S218.5-241.7,218.5-243z"/>
	</g>
	<g>
		<path class="st2" d="M243.4-328c0-0.7,0.6-1.2,1.3-1.2s1.3,0.5,1.3,1.2s-0.6,1.2-1.3,1.2C244-326.8,243.4-327.4,243.4-328z"/>
	</g>
	<g>
		<path class="st2" d="M202.9-221.1c0-0.9,0.8-1.7,1.9-1.7c1,0,1.9,0.8,1.9,1.7c0,1-0.8,1.7-1.9,1.7
			C203.7-219.4,202.9-220.1,202.9-221.1z"/>
	</g>
	<g>
		<path class="st2" d="M304.6,427c0-0.2,0.2-0.4,0.5-0.4c0.3,0,0.5,0.2,0.5,0.4c0,0.3-0.2,0.4-0.5,0.4
			C304.8,427.4,304.6,427.3,304.6,427z"/>
	</g>
	<g>
		<ellipse class="st2" cx="199.5" cy="-239.9" rx="2.4" ry="2.2"/>
	</g>
	<g>
		<ellipse class="st2" cx="275.8" cy="123.6" rx="0.5" ry="0.4"/>
	</g>
	<g>
		<ellipse class="st2" cx="168.7" cy="-238.4" rx="1.6" ry="1.5"/>
	</g>
	<g>
		<path class="st2" d="M166.9-328.9c0-1.4,1.3-2.6,2.9-2.6c1.6,0,2.9,1.2,2.9,2.6c0,1.5-1.3,2.6-2.9,2.6
			C168.2-326.3,166.9-327.4,166.9-328.9z"/>
	</g>
	<g>
		<path class="st2" d="M164.7-339.9c0-1.2,1.1-2.2,2.5-2.2c1.4,0,2.5,1,2.5,2.2s-1.1,2.2-2.5,2.2
			C165.8-337.6,164.7-338.6,164.7-339.9z"/>
	</g>
	<g>
		<path class="st2" d="M1505.3,501.8c0-0.2,0.2-0.4,0.4-0.4c0.2,0,0.4,0.2,0.4,0.4c0,0.2-0.2,0.4-0.4,0.4S1505.3,502,1505.3,501.8z"
			/>
	</g>
	<g>
		<path class="st2" d="M263.2,343.3c0-0.5,0.5-0.9,1-0.9c0.6,0,1,0.4,1,0.9s-0.5,0.9-1,0.9C263.7,344.3,263.2,343.8,263.2,343.3z"/>
	</g>
	<g>
		<path class="st2" d="M431.1,213.3c0-0.5,0.4,0,1,0c0.5,0,1-0.5,1,0s-0.4,0-1,0C431.6,213.3,431.1,213.8,431.1,213.3z"/>
	</g>
	<g>
		<ellipse class="st2" cx="1281.9" cy="614.3" rx="1.5" ry="1.3"/>
	</g>
	<g>
		<path class="st2" d="M1585.7,405.7c0-0.5,0.5-0.9,1-0.9s1,0.4,1,0.9s-0.5,1-1,1S1585.7,406.2,1585.7,405.7z"/>
	</g>
	<g>
		<path class="st2" d="M1397.2,578.6c0-0.6,0.6-1.2,1.3-1.2c0.7,0,1.3,0.5,1.3,1.2c0,0.6-0.6,1.2-1.3,1.2
			C1397.8,579.8,1397.2,579.2,1397.2,578.6z"/>
	</g>
	<g>
		<path class="st2" d="M373.5,320.9c0-1.1,0.9,0,2.1,0c1.2,0,2.1-1.1,2.1,0s-0.9,0-2.1,0C374.5,320.9,373.5,322,373.5,320.9z"/>
	</g>
	<g>
		<path class="st2" d="M1536.5,623.9c0-0.7,0.6-1.2,1.3-1.2s1.3,0.5,1.3,1.2s-0.6,1.2-1.3,1.2S1536.5,624.6,1536.5,623.9z"/>
	</g>
	<g>
		<path class="st2" d="M1490.8,365.5c0-0.2,0.2-0.4,0.5-0.4s0.5,0.2,0.5,0.4c0,0.3-0.2,0.4-0.5,0.4S1490.8,365.7,1490.8,365.5z"/>
	</g>
	<g>
		<path class="st2" d="M1502.9,120.8c0-1.2,1.1-2.2,2.4-2.2s2.4,1,2.4,2.2c0,1.2-1.1,2.2-2.4,2.2S1502.9,122,1502.9,120.8z"/>
	</g>
	<g>
		<ellipse class="st2" cx="168.7" cy="-79.8" rx="1.6" ry="1.5"/>
	</g>
	<g>
		<path class="st2" d="M1443.2,428.8c0-0.5,0.5-0.9,1-0.9c0.6,0,1,0.4,1,0.9s-0.5,0.9-1,0.9S1443.2,429.3,1443.2,428.8z"/>
	</g>
	<g>
		<path class="st2" d="M1586.7,541.3c0-0.5,0.5-1,1-1c0.6,0,1,0.4,1,1c0,0.5-0.5,1-1,1S1586.7,541.8,1586.7,541.3z"/>
	</g>
	<g>
		<path class="st2" d="M52.5-165.1c0-1.3,1.2-2.4,2.6-2.4c1.4,0,2.6,1.1,2.6,2.4s-1.1,2.3-2.6,2.3C53.6-162.7,52.5-163.8,52.5-165.1
			z"/>
	</g>
	<g>
		<path class="st2" d="M15.2-107c0-1.1,1-2,2.1-2c1.2,0,2.1,0.9,2.1,2s-1,2-2.1,2S15.2-105.9,15.2-107z"/>
	</g>
	<g>
		<path class="st2" d="M9.8-172.1c0-1.4,1.3-2.6,2.8-2.6c1.6,0,2.8,1.2,2.8,2.6s-1.3,2.6-2.8,2.6C11-169.5,9.8-170.7,9.8-172.1z"/>
	</g>
	<g>
		<path class="st2" d="M1569.2,329.4c0-0.7,0.6-1.2,1.3-1.2c0.7,0,1.3,0.5,1.3,1.2s-0.6,1.2-1.3,1.2
			C1569.8,330.6,1569.2,330.1,1569.2,329.4z"/>
	</g>
	<g>
		<ellipse class="st2" cx="-42.9" cy="-106.8" rx="0.7" ry="0.7"/>
	</g>
	<g>
		<ellipse class="st2" cx="-53.7" cy="-100.6" rx="2.2" ry="2.1"/>
	</g>
	<g>
		<path class="st2" d="M-105.7-103.4c0-0.9,0.8-1.7,1.8-1.7s1.8,0.8,1.8,1.7s-0.8,1.7-1.8,1.7C-104.9-101.8-105.7-102.5-105.7-103.4
			z"/>
	</g>
	<g>
		<path class="st2" d="M-101.6-172.3c0-1.2,1.1-2.2,2.4-2.2s2.4,1,2.4,2.2s-1.1,2.2-2.4,2.2C-100.6-170.1-101.6-171.1-101.6-172.3z"
			/>
	</g>
	<g>
		<path class="st2" d="M393.4,616.3c0-1.2,1.1-2.2,2.4-2.2s2.4,1,2.4,2.2s-1.1,2.2-2.4,2.2C394.5,618.6,393.4,617.6,393.4,616.3z"/>
	</g>
	<g>
		<path class="st2" d="M-141.8-207.1c0-1.5,1.3-2.7,3-2.7c1.6,0,3,1.2,3,2.7s-1.3,2.7-3,2.7S-141.8-205.6-141.8-207.1z"/>
	</g>
	<g>
		<path class="st2" d="M-180.6-190c0-1.6,1.4-2.9,3.1-2.9s3.1,1.3,3.1,2.9s-1.4,2.9-3.1,2.9S-180.6-188.4-180.6-190z"/>
	</g>
	<g>
		<path class="st2" d="M261.9,585.4c0-0.5,0.4-0.9,1-0.9c0.5,0,1,0.4,1,0.9s-0.4,0.9-1,0.9S261.9,585.9,261.9,585.4z"/>
	</g>
	<g>
		<path class="st2" d="M362.7-371.6c0-1.4,1.2-2.5,2.7-2.5s2.7,1.1,2.7,2.5s-1.2,2.5-2.7,2.5S362.7-370.2,362.7-371.6z"/>
	</g>
	<g>
		<ellipse class="st2" cx="1382.5" cy="483.9" rx="1.5" ry="1.3"/>
	</g>
	<g>
		<path class="st2" d="M383.3,147c0-0.5,0.5-0.9,1-0.9s1,0.4,1,0.9s-0.5,1-1,1S383.3,147.5,383.3,147z"/>
	</g>
	<g>
		<ellipse class="st2" cx="291.6" cy="-404.1" rx="2.8" ry="2.6"/>
	</g>
	<g>
		<path class="st2" d="M260-336.2c0-1.1,0.9-1.9,2.1-1.9c1.2,0,2.1,0.9,2.1,1.9c0,1.1-0.9,1.9-2.1,1.9
			C261-334.2,260-335.1,260-336.2z"/>
	</g>
	<g>
		<ellipse class="st2" cx="230.4" cy="-340.9" rx="2.8" ry="2.6"/>
	</g>
	<g>
		<path class="st2" d="M227.6-342.2c0-1.1,0.9-1.9,2.1-1.9s2.1,0.9,2.1,1.9s-0.9,1.9-2.1,1.9C228.6-340.3,227.6-341.2,227.6-342.2z"
			/>
	</g>
	<g>
		<path class="st2" d="M218.5-373.1c0-1.3,1.1-2.3,2.5-2.3s2.5,1,2.5,2.3s-1.1,2.3-2.5,2.3S218.5-371.9,218.5-373.1z"/>
	</g>
	<g>
		<path class="st2" d="M202.9-351.3c0-0.9,0.8-1.7,1.9-1.7c1,0,1.9,0.8,1.9,1.7c0,1-0.8,1.7-1.9,1.7
			C203.7-349.5,202.9-350.3,202.9-351.3z"/>
	</g>
	<g>
		<path class="st2" d="M197.1-370.1c0-1.2,1.1-2.2,2.4-2.2s2.4,1,2.4,2.2s-1.1,2.2-2.4,2.2C198.2-367.8,197.1-368.8,197.1-370.1z"/>
	</g>
	<g>
		<ellipse class="st2" cx="168.7" cy="-368.6" rx="1.6" ry="1.5"/>
	</g>
	<g>
		<path class="st2" d="M1608.7,127.3c0-0.5,0.5-1,1-1c0.6,0,1,0.4,1,1c0,0.5-0.5,1-1,1S1608.7,127.8,1608.7,127.3z"/>
	</g>
</g>
<g id="Objects">
	<g>
		<g>
			<g>
				<path class="st3" d="M917.3,568.6c9.4-12.9,6.6-31-6.4-40.4c-2.9-2.1-6.2-3.6-9.5-4.5c5.6-11.2,6-24.7,0-36.8
					c0-0.1-0.1-0.1-0.1-0.2c-0.9-2.5-2-5.2-3.4-7.9c4.3-0.2,8.6-1.8,12.1-5c7.5-6.8,8.4-18.1,2.3-25.9c-1.5-2.6-3.6-4.8-6.3-6.6
					c-0.2-0.1-0.4-0.2-0.6-0.4l67.1-48.5l-22.7-45.1L849.2,379c4.4-13.1,1.8-28-8.1-38.9c-5.6-6.2-12.8-10.2-20.4-11.9
					c-0.2-0.1-0.4-0.1-0.5-0.2c-5.7-1.6-11.4-1.8-16.9-1c3.1-6.9,4.2-14.3,3.4-21.4c0.4-19-13.3-35.9-32.6-38.8
					c-2.3-0.9-4.6-1.5-7-2c-0.1,0.5-0.3,1.1-0.4,1.6c-3.9,0.2-7.6,0.9-11.2,2.2c-1.7,0.4-3.3,0.8-4.9,1.4c0-0.5,0-1-0.1-1.5
					c-1.6-25-23.2-44-48.2-42.4c-0.2,0-0.5,0-0.7,0.1c-1,0-2,0.1-2.9,0.1c-2.5,0.2-4.9,0.6-7.2,1.1c0.2-4.5-1.4-9-4.8-12.5
					c-4.3-4.4-10.5-5.9-16.1-4.6c-9.5,1.2-16.6,9.4-16.3,19.1c0.2,6.9,4.1,12.7,9.8,15.8c-3.8,5-6.6,10.6-8.3,16.8
					c-6.3-1.5-13-1.7-19.8-0.4c-26,5-42.9,30.1-37.9,56.1c3,15.7,13.4,28.1,26.9,34.4c-7,1.8-13.4,6.1-17.7,12.7
					c-9.1,13.9-5.2,32.6,8.7,41.7c1.3,0.9,2.7,1.6,4.2,2.3c-18,21.8-17.1,54,3,74.8c5.5,5.6,11.8,9.9,18.6,12.7l0,0
					c-8.4,35,13.2,70.1,48.1,78.5c3.5,0.8,7,1.4,10.5,1.6c0.6,9.7,5.7,19,14.5,24.6c12.8,8.1,29.3,5.7,39.3-4.9
					c2.9,7,7.2,13.6,12.9,19.3c18.9,18.9,47.4,22.3,69.8,10.4c3.4,8,9.1,15.1,16.9,20.2c21,13.7,49.1,7.8,62.8-13.2
					c12-18.4,9-42.2-6.1-57C912.9,573.7,915.3,571.4,917.3,568.6z"/>
				<path class="st4" d="M874.7,596.8c0.6-6.1-0.4-12-2.5-17.3c11.2-13.3,16.5-31.4,12.6-49.7c-6.6-31.3-37.4-51.3-68.7-44.7
					c-1.3,0.2-2.6,0.6-3.8,0.9c3.2-10.5,1.7-22.2-5.2-31.7c-4.3-5.9-10-10.1-16.3-12.5c-1-7.6-4.6-14.8-10.6-20.4
					c-7.5-7-17.3-9.9-26.7-8.9c0.4-1.6,0.8-3.3,1.1-5c5-28.1-13.7-55-41.8-60c-14.5-2.6-28.6,1.2-39.6,9.2c-1.9-3-4.3-5.7-7.2-8.1
					c-15-12.4-37.3-10.3-49.7,4.8c-1.6,2-3,4.1-4.1,6.3c-9.3,6.7-13.7,18.9-10.1,30.5c2.5,8,8.3,14,15.4,17c-15,18.7-14,45,2.8,59.7
					c5.3,4.6,11.4,7.5,17.9,8.8c-0.3,0.3-0.5,0.6-0.8,0.9c-16.7,19-16.1,47,1.5,62.4c0.4,0.3,0.7,0.6,1.1,0.9c0.8,2.9,2.5,5.7,5,7.9
					c2,1.9,4.5,3.1,7,3.7c-0.2,0.9-0.4,1.8-0.5,2.7c-1.8-0.6-3.7-0.9-5.7-0.9c-9.3,0.1-16.8,7.8-16.8,17.1c0.1,9.3,7.7,16.8,17,16.7
					c5.9,0,11-3.1,14-7.6c5.6,5.6,13.3,9.1,21.9,9h0.1c-0.1,0.7-0.1,1.4-0.1,2.1c0.1,11.4,9.4,20.6,20.9,20.5
					c11.4-0.1,18.1-11.8,18.1-11.8c0.9,10.6-0.4,22.1,13.4,34.2c14.2,12.4,35.1,12.1,49.6,0.2c0.8,1.8,2,3.4,3.6,4.8
					c6.9,6,17.8,4.9,24.4-2.6c2.9-3.3,4.4-7.3,4.7-11.2c6.5,3,12.5,4.5,18,4.8c-0.1,0-0.1,0,0,0
					C854.7,631.5,872.6,616.8,874.7,596.8z"/>
				<path class="st5" d="M696.2,289.3c-7.4,2.6-11.3,10.7-8.7,18.2c0.2,0.7,0.6,1.4,0.9,2c-5.8,2.9-13.5,9.4-12.4,23.5
					c-1.9-0.7-4.1-0.8-6.2,0c-4.8,1.7-7.2,6.9-5.6,11.6c0.4,1,1,2,1.6,2.8c-8.3,4.7-12.1,15.1-8.7,24.7c3.4,9.5,12.6,15.1,21.7,13.9
					c-4.2,4.9-5.7,11.8-3.4,18.4c2.3,6.6,8.1,11.1,14.7,12.2c-5.5,6.1-7.6,14.9-4.7,23.2c4.3,12,17.6,18.2,29.6,14
					c0.2-0.1,0.4-0.2,0.5-0.2c-0.5,3.5-0.3,7.2,1,10.7c4.2,11.8,17.2,17.9,29.1,13.7c0.5-0.2,1.1-0.4,1.6-0.6
					c-0.2,2.7,0.1,5.5,1,8.2c3.7,10.3,14.9,15.6,25.3,11.9c3.7-1.3,6.7-3.6,8.9-6.4c12.1-0.7,21.5-11.1,20.9-23.3
					c-0.6-10.5-8.4-18.9-18.4-20.5c0.9-4.8-0.2-10.1-3.5-14.4c-2.9-3.7-7-6-11.2-6.7l0,0c1.4-5.7-2.1-11.4-7.7-12.7
					c-2.5-0.6-5.1-0.3-7.3,0.9l-0.5-1.3c12.4-2.5,21.7-13.7,21.2-26.8c-0.4-14.7-12.7-26.3-27.3-25.8c-0.1,0-0.4,0.1-0.5,0
					c5.9-8.2,6.4-19.7,0.3-28.6c-2.9-4.3-7-7.3-11.5-9.1c4-3.8,6.5-9.2,6.5-15.2c0.1-11.8-9.4-21.4-21.2-21.5
					c-5.3-0.1-10.2,1.9-13.9,5.1C705.1,288.4,700.6,287.8,696.2,289.3z"/>
				<path class="st6" d="M900.4,588.2c16.5-30.8,5-68.7-25.3-84.8c-8.8-4.6-18.3-6.8-27.5-7.1c4.6-19.9-1.6-41.5-18.3-55.3
					c-4.3-3.6-8.9-6.4-13.8-8.4c2.3-6.3,3.4-13,3.2-20c-0.7-24.4-17.6-44.2-40.1-49.6c14.1-17.2,16.4-41.9,4.2-61.6
					c-12.4-20-36.3-28.4-58-22.2l-5.8-13.4c0,0-19.6-14.4-51.9,7c-38.2,25.2-28.6,46.4-18.7,65.8c-6.8-4.3-12.5-4.6-17.1-3
					c-16.3,5.5-21.2,22.4-16,31.5c2.7,4.8,6.5,7.7,6.5,7.7c-5,3-9.1,7.3-11.5,12.9c-3.1,7.2-3.3,15.2-1.8,22.7
					c3.1,13.9,12.3,28.4,26.3,32.7l7.8-0.1c-9.2,11.5-12.1,26.8-6.3,40.1c7.2,16.6,25.4,25.1,43.6,21.9c-0.5,4.3,0.1,8.7,1.8,12.8
					c5.3,12.3,19.7,18,33.2,13.6c1.5,2.4,3.1,4.7,4.7,7.1c-3.8,10.7-3.6,22.4,0.9,33.2c10.4,24,39.7,34.1,65.8,22.5
					c1.1-0.5,2.3-1.2,3.5-1.8c-0.3,5.8,0.7,11.6,3.1,17.1c9.1,21,34.7,29.7,57.3,19.6c6.3-2.8,11.7-6.7,15.9-11.4
					C880.3,613,892.7,602.6,900.4,588.2z"/>
				<g class="st7">
					<path class="st4" d="M780.6,338.2c2.3-2.9,3.6-6.5,3.6-10.5c0-9.4-7.5-17-16.8-17s-16.8,7.6-16.8,17c0,5.4,2.5,10.3,6.5,13.4
						c-1,1.3-1.5,2.9-1.5,4.6c0,4.3,3.4,7.8,7.7,7.8c2.8,0,5.2-1.5,6.6-3.7c1.1,3.9,4.6,6.7,8.8,6.7c5.1,0,9.2-4.1,9.2-9.2
						C787.7,342.8,784.7,339.1,780.6,338.2z"/>
					<path class="st5" d="M702,401.7c1.5-1.9,2.4-4.3,2.4-7c0-6.2-5-11.3-11.2-11.3c-6.2,0-11.2,5-11.2,11.3c0,3.6,1.7,6.8,4.3,8.9
						c-0.6,0.9-1,1.9-1,3.1c0,2.8,2.3,5.2,5.1,5.2c1.8,0,3.5-1,4.4-2.5c0.7,2.6,3.1,4.5,5.9,4.5c3.4,0,6.1-2.8,6.1-6.1
						C706.7,404.8,704.7,402.3,702,401.7z"/>
					<path class="st5" d="M769.7,539.9c-0.1-5.7-4.7-10.3-10.4-10.3c-5.8,0-10.4,4.7-10.4,10.5c0,0.5,0,1,0.1,1.5
						c-3.2,1.2-5.5,4.3-5.5,8c0,4.7,3.8,8.5,8.4,8.5c0.9,0,1.7-0.1,2.6-0.4c1.6,6.1,7.1,10.6,13.6,10.6c7.8,0,14.1-6.4,14.1-14.2
						C782.1,546.7,776.7,540.7,769.7,539.9z"/>
					<path class="st4" d="M736.4,442.7c-0.1-5.7-4.7-10.3-10.4-10.3c-5.8,0-10.4,4.7-10.4,10.5c0,0.5,0,1,0.1,1.5
						c-3.2,1.2-5.5,4.3-5.5,8c0,4.7,3.8,8.5,8.4,8.5c0.9,0,1.7-0.1,2.6-0.4c1.6,6.1,7.1,10.6,13.6,10.6c7.8,0,14.1-6.4,14.1-14.2
						C748.9,449.5,743.4,443.5,736.4,442.7z"/>
					<path class="st5" d="M829.4,344.4c1.9,4.2-2.1,7.3-7.2,7.2c-4-0.1-7.2-3.2-7.2-7.2s3.2-7.2,7.2-7.2S827.7,340.8,829.4,344.4z"
						/>
					<ellipse class="st5" cx="695.6" cy="262.4" rx="4.2" ry="4.3"/>
					<path class="st5" d="M921.6,484.5c-1.6,0-3.2,0.3-4.6,0.8c-1.6-12.3-12.1-21.8-24.8-21.8c-13.8,0-25,11.3-25,25.2
						c0,3.8,0.9,7.5,2.4,10.7c-6.6,2.3-11.4,8.7-11.4,16.2c0,9.5,7.6,17.1,17,17.1s17-7.7,17-17.1c0-0.6,0-1.2-0.1-1.7h0.1
						c7,0,13.4-2.9,17.9-7.6c2.5,3.7,6.7,6.2,11.5,6.2c7.6,0,13.8-6.2,13.8-13.9C935.4,490.8,929.2,484.5,921.6,484.5z"/>
				</g>
				<path class="st8" d="M883.6,560.2c0.1-5.5-1.9-10.6-5.2-14.5c1.9-1.7,3.9-3.7,5.9-6c14-13.4,16.1-35.5,4-51.3
					c-2.2-2.9-4.7-5.3-7.4-7.4c-1.9-2-3.7-3.9-5.4-5.5c3.5-0.3,12.9-2.8,15.8-5.4c6.6-6,7.5-15.8,1.9-21.9c-1.6-1.8-9.5-2-11.7-2.8
					l119.1-79.1l-9.8-18L853,396.7c4-10.7,2.3-22.8-5.6-31.4c-9.6-10.6-25.5-12.5-38.5-5.6c-0.7-3.3-2.2-6.4-4.6-9
					c-7.2-7.9-19.5-8.6-28.5-2c3.4-14.4-5.5-28.8-19.9-32.2c-14.4-3.4-28.8,5.5-32.2,19.9c-2.1,8.8,0.4,17.6,6,23.9
					c-9.6,5-17.8,13.1-22.8,23.7c-12.2,25.8-1.2,56.6,24.6,68.8c5.5,2.6,11.3,4.2,17.1,4.7c-14.1,13-20.5,33.4-14.7,53.1
					c8.1,27.7,37.1,43.5,64.8,35.4c10-2.9,18.4-8.6,24.7-15.9c1,1.8,2.1,3.5,3.3,5.2c3.8,5,8.6,8.8,13.9,11.4l2.8,3.1
					c-1.5,2.9-2.4,6.1-2.5,9.6c-0.3,11.7,9,21.5,20.8,21.8C873.6,581.2,883.3,572,883.6,560.2z"/>
				<g>
					<path class="st4" d="M965.9,489.7c4.4-0.3,8.7-2,12.2-5.2c8.3-7.5,9-20.3,1.5-28.5s-20.3-8.8-28.6-1.3
						c-4.8,4.4-7.1,10.5-6.6,16.5c-1.9,0.2-3.8,1-5.3,2.4c-3.8,3.4-4.1,9.3-0.7,13c2.2,2.5,5.5,3.4,8.6,2.8
						c-2.6,4.1-2.2,9.5,1.1,13.2c4.1,4.5,11.1,4.8,15.6,0.7C967.6,499.7,968.4,494.1,965.9,489.7z"/>
					<path class="st4" d="M878.6,311.8c5-4.7,5.4-12.5,0.8-17.5c-4.6-5.1-12.6-5.5-17.7-0.8c-0.5,0.4-0.9,0.8-1.2,1.3
						c-3.7-1.9-8.3-1.5-11.5,1.5c-4.2,3.8-4.5,10.1-0.8,14.3c0.7,0.8,1.5,1.4,2.4,1.9c-4.2,6.3-3.7,14.8,1.5,20.6
						c6.3,6.9,17,7.4,24,1.1C882.6,328.3,883.5,318.7,878.6,311.8z"/>
					<path class="st4" d="M921.3,310.3c-3.5,3.2-9,2.9-12.2-0.6s-2.9-9,0.6-12.1c3.5-3.2,9-2.9,12.2,0.6S924.8,307.1,921.3,310.3z"
						/>
					<path class="st4" d="M1010.1,458.5c-3.5,3.2-9,2.9-12.2-0.6s-2.9-9,0.6-12.1c3.5-3.2,9-2.9,12.2,0.6
						C1013.9,449.8,1013.6,455.3,1010.1,458.5z"/>
					<path class="st4" d="M898.9,301.6c-2.1,1.9-5.3,1.7-7.2-0.3c-1.9-2.1-1.7-5.3,0.4-7.2c2.1-1.9,5.3-1.7,7.2,0.3
						C901.1,296.5,901,299.7,898.9,301.6z"/>
					<path class="st4" d="M1007.7,475.6c-2.1,1.9-5.3,1.7-7.2-0.3c-1.9-2.1-1.7-5.3,0.4-7.2c2.1-1.9,5.3-1.7,7.2,0.3
						C1009.9,470.5,1009.8,473.7,1007.7,475.6z"/>
					<path class="st4" d="M843.2,448c-0.6-0.7-1.3-1.3-2-1.9l145.4-80.4l-3.4-6.7l-138.8,56.7c-1.3-3.8-3.3-7.5-6.2-10.6
						c-11.1-12.2-30.2-13.1-42.5-2c-3.4,3.1-6,6.8-7.6,10.7c-7.4-4-16.9-3.2-23.6,2.9c-8.4,7.6-9.1,20.5-1.5,28.8s20.5,8.9,29,1.3
						c0.5-0.5,1-1,1.5-1.5c0,0,0,0.1,0.1,0.1c5.7,6.2,13.4,9.5,21.2,9.8c-1.3,5.2-0.1,10.9,3.8,15.1c6.2,6.8,16.7,7.3,23.5,1.1
						C848.8,465.3,849.3,454.8,843.2,448z"/>
				</g>
			</g>
		</g>
		<g>
			
				<rect x="1043.8" y="272.8" transform="matrix(-0.4503 -0.8929 0.8929 -0.4503 1257.8032 1360.826)" class="st9" width="8" height="40.8"/>
			
				<rect x="1071.4" y="328.3" transform="matrix(-0.4503 -0.8929 0.8929 -0.4503 1248.3196 1466.0212)" class="st9" width="8" height="40.8"/>
			<g>
				<g>
					<path class="st10" d="M1000,373.3L984,341c-0.1,0-0.2,0-0.2,0c-63.6-8.9-90.8,59.9-90.8,59.9l9.8,2.5l-17.7,8.8
						c0,0,78.3,18.1,114.8-38.8C999.8,373.4,999.9,373.4,1000,373.3z"/>
					<path class="st11" d="M997,367.7l-10.5-21.3c-0.1,0-0.1,0-0.2,0c-46.9-3.5-69.9,44.5-69.9,44.5l7.2,1.3l-13.5,6.7
						c0,0,57.4,9.1,86.9-31.1C996.9,367.8,996.9,367.8,997,367.7z"/>
				</g>
				<g>
					<path class="st12" d="M1317.4,222.6l53.2-58.3l-78.1,9.5L987.8,327.6c-8.7,4.4-12.4,14.8-8.7,22l11.1,21.8
						c3.7,7.2,13.8,9.4,22.5,5L1317.4,222.6z"/>
					<path class="st9" d="M1317.4,222.6l53.2-58.3l-68.5,34.8L984.7,360.5l5.5,10.9c3.7,7.2,13.8,9.4,22.5,5L1317.4,222.6z"/>
					<path class="st13" d="M1317.4,222.6l53.2-58.3l-78.1,9.5l-281.3,142c5.1,18.6,13.8,35.3,24.8,48.7L1317.4,222.6z"/>
					<path class="st14" d="M1317.4,222.6l53.2-58.3l-68.5,34.8l-280.8,142.8c4.1,8.2,9.1,15.8,14.8,22.7L1317.4,222.6z"/>
					<path class="st15" d="M1317.4,222.6l53.2-58.3l-78.1,9.5l-262.8,132.7c4.9,18.9,13.6,35.5,24.9,48.7L1317.4,222.6z"/>
					<path class="st16" d="M1315.3,223.7l52.8-57.9l-67.9,34.5l-260.6,132.4c4.1,8.2,9.1,15.8,14.9,22.5L1315.3,223.7z"/>
					<path class="st17" d="M1317.4,222.6l53.2-58.3l-78.1,9.5c2.2,8.5,5.4,17,9.6,25.3C1306.4,207.5,1311.8,215.9,1317.4,222.6z"/>
					<path class="st18" d="M1317.4,222.6l53.2-58.3l-68.5,34.8C1306.4,207.5,1311.8,215.9,1317.4,222.6z"/>
					<path class="st19" d="M1352.9,183.4l17.7-19l-25.8,3.2c0.7,2.8,1.8,5.6,3.2,8.3C1349.4,178.6,1351.1,181.1,1352.9,183.4z"/>
				</g>
			</g>
			<g>
				<g>
					<g>
						<path class="st10" d="M1008.7,419.4l-10.1-20.3c-0.1,0-0.1,0-0.2,0c-40-5.6-57.1,37.7-57.1,37.7l6.1,1.6l-11.2,5.6
							c0,0,49.2,11.4,72.2-24.4C1008.6,419.4,1008.6,419.4,1008.7,419.4z"/>
						<path class="st11" d="M1006.8,415.8l-6.6-13.4h-0.1c-29.5-2.2-44,28-44,28l4.5,0.8l-8.5,4.2
							C952.1,435.5,988.2,441.2,1006.8,415.8C1006.7,415.9,1006.8,415.9,1006.8,415.8z"/>
					</g>
					<g>
						<path class="st12" d="M1208.4,324.6l33.5-36.6l-49.1,6L1001,390.6c-5.5,2.8-7.8,9.3-5.5,13.8l7,13.7c2.3,4.5,8.7,5.9,14.1,3.1
							L1208.4,324.6z"/>
						<path class="st9" d="M1208.4,324.6l33.5-36.6l-43.1,21.9L999,411.3l3.5,6.9c2.3,4.5,8.7,5.9,14.1,3.1L1208.4,324.6z"/>
						<path class="st13" d="M1208.4,324.6l33.5-36.6l-49.1,6l-177,89.3c3.2,11.7,8.7,22.2,15.6,30.7L1208.4,324.6z"/>
						<path class="st14" d="M1208.4,324.6l33.5-36.6l-43.1,21.9l-176.7,89.8c2.6,5.2,5.7,9.9,9.3,14.3L1208.4,324.6z"/>
						<path class="st15" d="M1208.4,324.6l33.5-36.6l-49.1,6l-165.3,83.4c3.1,11.9,8.6,22.3,15.6,30.7L1208.4,324.6z"/>
						<path class="st16" d="M1207,325.3l33.2-36.4l-42.7,21.7l-163.9,83.2c2.6,5.1,5.8,9.9,9.4,14.2L1207,325.3z"/>
						<path class="st17" d="M1208.4,324.6l33.5-36.6l-49.1,6c1.4,5.3,3.4,10.7,6,15.9C1201.4,315,1204.8,320.3,1208.4,324.6z"/>
						<path class="st18" d="M1208.4,324.6l33.5-36.6l-43.1,21.9C1201.4,315,1204.8,320.3,1208.4,324.6z"/>
						<path class="st19" d="M1230.7,299.9l11.2-11.9l-16.2,2c0.5,1.8,1.1,3.5,2,5.2C1228.5,296.9,1229.5,298.5,1230.7,299.9z"/>
					</g>
				</g>
				<g>
					<g>
						<path class="st10" d="M961.8,326.4l-10.1-20.3c-0.1,0-0.1,0-0.2,0c-40-5.6-57.1,37.7-57.1,37.7l6.1,1.6l-11.2,5.6
							c0,0,49.2,11.4,72.2-24.4C961.7,326.5,961.8,326.5,961.8,326.4z"/>
						<path class="st11" d="M960,322.9l-6.6-13.4h-0.1c-29.5-2.2-44,28-44,28l4.5,0.8l-8.5,4.2C905.2,342.5,941.4,348.3,960,322.9
							C959.9,322.9,959.9,322.9,960,322.9z"/>
					</g>
					<g>
						<path class="st12" d="M1161.5,231.7L1195,195l-49.1,6l-191.7,96.7c-5.5,2.8-7.8,9.3-5.5,13.8l7,13.7c2.3,4.5,8.7,5.9,14.1,3.1
							L1161.5,231.7z"/>
						<path class="st9" d="M1161.5,231.7L1195,195l-43.1,21.9L952.2,318.3l3.5,6.9c2.3,4.5,8.7,5.9,14.1,3.1L1161.5,231.7z"/>
						<path class="st13" d="M1161.5,231.7L1195,195l-49.1,6l-177,89.3c3.2,11.7,8.7,22.2,15.6,30.7L1161.5,231.7z"/>
						<path class="st14" d="M1161.5,231.7L1195,195l-43.1,21.9l-176.7,89.8c2.6,5.2,5.7,9.9,9.3,14.3L1161.5,231.7z"/>
						<path class="st15" d="M1161.5,231.7L1195,195l-49.1,6l-165.4,83.4c3.1,11.9,8.6,22.3,15.6,30.7L1161.5,231.7z"/>
						<path class="st16" d="M1160.2,232.3l33.2-36.4l-42.7,21.7l-163.9,83.2c2.6,5.1,5.8,9.9,9.4,14.2L1160.2,232.3z"/>
						<path class="st17" d="M1161.5,231.7L1195,195l-49.1,6c1.4,5.3,3.4,10.7,6,15.9C1154.5,222.1,1158,227.4,1161.5,231.7z"/>
						<path class="st18" d="M1161.5,231.7L1195,195l-43.1,21.9C1154.5,222.1,1158,227.4,1161.5,231.7z"/>
						<path class="st19" d="M1183.8,206.9L1195,195l-16.2,2c0.5,1.8,1.1,3.5,2,5.2C1181.6,204,1182.6,205.5,1183.8,206.9z"/>
					</g>
				</g>
			</g>
		</g>
	</g>
</g>
<path class="st20" d="M706.1,553.7c4.2-5.3,6.7-12,6.7-19.6c0-17.4-14-31.6-31.3-31.6c-17.4,0-31.3,14-31.3,31.6
	c0,10.1,4.8,19,12,24.9c-1.7,2.5-2.8,5.3-2.8,8.7c0,7.8,6.4,14.6,14.3,14.6c5,0,9.8-2.8,12.3-7c2,7.3,8.7,12.6,16.5,12.6
	c9.5,0,17.1-7.8,17.1-17.1C719.2,562.4,713.6,555.4,706.1,553.7z"/>
</svg>
