<?xml version="1.0" encoding="utf-8"?>
<!-- Generator: Adobe Illustrator 19.0.0, SVG Export Plug-In . SVG Version: 6.00 Build 0)  -->
<svg version="1.1" xmlns="http://www.w3.org/2000/svg" xmlns:xlink="http://www.w3.org/1999/xlink" x="0px" y="0px"
	 viewBox="0 0 1466.3 574.6" style="enable-background:new 0 0 1466.3 574.6;" xml:space="preserve">
<style type="text/css">
	.st0{display:none;}
	.st1{display:inline;fill-rule:evenodd;clip-rule:evenodd;fill:#3F5B7A;}
	.st2{fill:#FFFFFF;}
	.st3{opacity:0.5;fill:#4683FC;}
	.st4{opacity:0.5;}
	.st5{fill:#4683FC;}
	.st6{opacity:0.63;fill:#FFFFFF;}
	.st7{fill:#CE4F44;}
	.st8{fill:#FAB600;}
	.st9{fill:#FFD047;}
	.st10{fill-rule:evenodd;clip-rule:evenodd;fill:#D36259;}
	.st11{fill-rule:evenodd;clip-rule:evenodd;fill:#CE4F44;}
	.st12{fill-rule:evenodd;clip-rule:evenodd;fill:#D6F3F7;}
	.st13{fill-rule:evenodd;clip-rule:evenodd;fill:#B9EBF2;}
	.st14{fill-rule:evenodd;clip-rule:evenodd;fill:#E2AA47;}
	.st15{fill-rule:evenodd;clip-rule:evenodd;fill:#EAC261;}
	.st16{fill-rule:evenodd;clip-rule:evenodd;fill:#F4E9DC;stroke:#F4E9DC;stroke-miterlimit:10;}
	.st17{fill-rule:evenodd;clip-rule:evenodd;fill:#EFDABD;}
	.st18{fill-rule:evenodd;clip-rule:evenodd;fill:#70706F;stroke:#70706F;stroke-miterlimit:10;}
	.st19{fill-rule:evenodd;clip-rule:evenodd;fill:#F2EEE9;}
	.st20{fill:#70706F;}
	.st21{fill:#F2EEE9;}
</style>
<g id="Layer_3" class="st0">
	<rect x="35.4" y="-3.4" class="st1" width="1385" height="576"/>
</g>
<g id="Layer_2">
	<g>
		<g>
			<g>
				<g>
					<ellipse class="st2" cx="1068" cy="407.3" rx="1.4" ry="1.3"/>
				</g>
				<g>
					<ellipse class="st2" cx="959.1" cy="444.6" rx="0.7" ry="0.7"/>
				</g>
				<g>
					<ellipse class="st2" cx="965.4" cy="407.9" rx="1.6" ry="1.5"/>
				</g>
				<g>
					<ellipse class="st2" cx="950.9" cy="448.7" rx="0.4" ry="0.4"/>
				</g>
				<g>
					<ellipse class="st2" cx="944.9" cy="452.2" rx="1.3" ry="1.1"/>
				</g>
				<g>
					<path class="st2" d="M938.1,378.5c0-0.5,0.5-0.9,1-0.9c0.6,0,1,0.4,1,0.9c0,0.5-0.5,0.9-1,0.9
						C938.5,379.4,938.1,379,938.1,378.5z"/>
				</g>
				<g>
					<ellipse class="st2" cx="917" cy="450.6" rx="1" ry="0.9"/>
				</g>
				<g>
					<ellipse class="st2" cx="919.6" cy="412.2" rx="1.3" ry="1.2"/>
				</g>
				<g>
					<path class="st2" d="M905,444.5c0-0.7,0.6-1.2,1.3-1.2c0.7,0,1.3,0.6,1.3,1.2c0,0.7-0.6,1.2-1.3,1.2
						C905.6,445.7,905,445.2,905,444.5z"/>
				</g>
				<g>
					<path class="st2" d="M895.9,392.9c0-0.8,0.7-1.5,1.7-1.5c0.9,0,1.7,0.7,1.7,1.5c0,0.8-0.7,1.5-1.7,1.5
						C896.6,394.4,895.9,393.7,895.9,392.9z"/>
				</g>
				<g>
					<ellipse class="st2" cx="878.7" cy="407.5" rx="0.5" ry="0.5"/>
				</g>
				<g>
					<path class="st2" d="M874.3,402.4c0-0.9,0.8-1.6,1.8-1.6c1,0,1.7,0.7,1.7,1.6c0,0.9-0.8,1.6-1.7,1.6
						C875.1,404,874.3,403.3,874.3,402.4z"/>
				</g>
				<g>
					<path class="st2" d="M862.3,414.7c0-0.4,0.4-0.7,0.8-0.7c0.4,0,0.8,0.3,0.8,0.7c0,0.4-0.4,0.7-0.8,0.7
						C862.6,415.4,862.3,415.1,862.3,414.7z"/>
				</g>
				<g>
					<ellipse class="st2" cx="859.5" cy="386.5" rx="0.8" ry="0.8"/>
				</g>
				<g>
					<ellipse class="st2" cx="847" cy="424" rx="1.6" ry="1.4"/>
				</g>
				<g>
					<ellipse class="st2" cx="833.7" cy="402.1" rx="1.2" ry="1.1"/>
				</g>
				<g>
					<ellipse class="st2" cx="819.4" cy="390.4" rx="1.8" ry="1.6"/>
				</g>
				<g>
					<path class="st2" d="M802.3,424.7c0-0.5,0.5-0.9,1-0.9c0.6,0,1,0.4,1,0.9c0,0.5-0.5,0.9-1,0.9
						C802.8,425.6,802.3,425.2,802.3,424.7z"/>
				</g>
				<g>
					<path class="st2" d="M790.5,449.1c0-0.7,0.7-1.3,1.5-1.3c0.8,0,1.5,0.6,1.5,1.3c0,0.7-0.7,1.3-1.5,1.3
						C791.2,450.5,790.5,449.9,790.5,449.1z"/>
				</g>
				<g>
					<path class="st2" d="M752.4,383c0-0.4,0.4-0.8,0.9-0.8c0.5,0,0.9,0.3,0.9,0.8c0,0.4-0.4,0.8-0.9,0.8
						C752.8,383.8,752.4,383.4,752.4,383z"/>
				</g>
				<g>
					<ellipse class="st2" cx="750.1" cy="428.4" rx="1.3" ry="1.2"/>
				</g>
				<g>
					<ellipse class="st2" cx="725.7" cy="429.2" rx="0.7" ry="0.6"/>
				</g>
				<g>
					<ellipse class="st2" cx="717.9" cy="439.5" rx="1.5" ry="1.4"/>
				</g>
				<g>
					<ellipse class="st2" cx="708.4" cy="414.5" rx="0.5" ry="0.4"/>
				</g>
				<g>
					<path class="st2" d="M693.9,441.9c0-0.2,0.1-0.3,0.3-0.3c0.2,0,0.3,0.1,0.3,0.3c0,0.2-0.1,0.3-0.3,0.3
						C694,442.2,693.9,442.1,693.9,441.9z"/>
				</g>
				<g>
					<ellipse class="st2" cx="691.7" cy="451.2" rx="0.5" ry="0.5"/>
				</g>
				<g>
					<ellipse class="st2" cx="680.4" cy="449" rx="0.6" ry="0.6"/>
				</g>
				<g>
					<ellipse class="st2" cx="664.5" cy="420.5" rx="1.7" ry="1.6"/>
				</g>
				<g>
					<path class="st2" d="M568,457.5c0-0.7,0.6-1.3,1.4-1.3c0.8,0,1.4,0.6,1.4,1.3c0,0.7-0.6,1.3-1.4,1.3
						C568.6,458.8,568,458.2,568,457.5z"/>
				</g>
				<g>
					<ellipse class="st2" cx="518.7" cy="399.7" rx="1.6" ry="1.5"/>
				</g>
				<g>
					<ellipse class="st2" cx="494.8" cy="443.6" rx="0.6" ry="0.5"/>
				</g>
				<g>
					<path class="st2" d="M474.8,449c0-0.4,0.4-0.8,0.9-0.8s0.9,0.4,0.9,0.8c0,0.4-0.4,0.8-0.9,0.8S474.8,449.5,474.8,449z"/>
				</g>
				<g>
					<ellipse class="st2" cx="470.6" cy="474.8" rx="1.2" ry="1.1"/>
				</g>
				<g>
					<ellipse class="st2" cx="458.7" cy="469.1" rx="1.1" ry="1"/>
				</g>
				<g>
					<ellipse class="st2" cx="440.9" cy="441.6" rx="1.6" ry="1.5"/>
				</g>
				<g>
					<ellipse class="st2" cx="429.4" cy="466.4" rx="0.3" ry="0.3"/>
				</g>
				<g>
					<ellipse class="st2" cx="423.6" cy="424.4" rx="1.3" ry="1.1"/>
				</g>
				<g>
					<path class="st2" d="M412.5,442.9c0-0.2,0.2-0.4,0.4-0.4c0.2,0,0.4,0.2,0.4,0.4c0,0.2-0.2,0.4-0.4,0.4
						C412.7,443.3,412.5,443.1,412.5,442.9z"/>
				</g>
				<g>
					<ellipse class="st2" cx="394" cy="435.9" rx="0.7" ry="0.6"/>
				</g>
				<g>
					<ellipse class="st2" cx="386.6" cy="430.1" rx="1.3" ry="1.2"/>
				</g>
				<g>
					<ellipse class="st2" cx="385.7" cy="426.4" rx="0.4" ry="0.4"/>
				</g>
				<g>
					<ellipse class="st2" cx="384" cy="427.6" rx="1.5" ry="1.4"/>
				</g>
				<g>
					<path class="st2" d="M369.5,415.2c0-0.3,0.3-0.6,0.6-0.6c0.4,0,0.6,0.3,0.6,0.6c0,0.3-0.3,0.6-0.6,0.6
						C369.8,415.8,369.5,415.5,369.5,415.2z"/>
				</g>
				<g>
					<ellipse class="st2" cx="358.3" cy="442.3" rx="1.4" ry="1.3"/>
				</g>
				<g>
					<ellipse class="st2" cx="340.7" cy="441.3" rx="0.3" ry="0.3"/>
				</g>
				<g>
					<path class="st2" d="M326.6,424c0-0.3,0.3-0.6,0.7-0.6c0.4,0,0.7,0.3,0.7,0.6c0,0.3-0.3,0.6-0.7,0.6
						C326.9,424.6,326.6,424.3,326.6,424z"/>
				</g>
				<g>
					<ellipse class="st2" cx="318.6" cy="404.1" rx="1.8" ry="1.7"/>
				</g>
			</g>
			<g>
				<g>
					<path class="st2" d="M938.1,466.8c0-0.5,0.5-0.9,1-0.9c0.6,0,1,0.4,1,0.9c0,0.5-0.5,0.9-1,0.9
						C938.5,467.7,938.1,467.3,938.1,466.8z"/>
				</g>
				<g>
					<path class="st2" d="M905,532.8c0-0.7,0.6-1.2,1.3-1.2c0.7,0,1.3,0.6,1.3,1.2c0,0.7-0.6,1.2-1.3,1.2
						C905.6,534,905,533.5,905,532.8z"/>
				</g>
				<g>
					<path class="st2" d="M895.9,481.2c0-0.8,0.7-1.5,1.7-1.5c0.9,0,1.7,0.7,1.7,1.5c0,0.8-0.7,1.5-1.7,1.5
						C896.6,482.7,895.9,482,895.9,481.2z"/>
				</g>
				<g>
					<path class="st2" d="M874.3,490.7c0-0.9,0.8-1.6,1.8-1.6c1,0,1.7,0.7,1.7,1.6c0,0.9-0.8,1.6-1.7,1.6
						C875.1,492.4,874.3,491.6,874.3,490.7z"/>
				</g>
				<g>
					<ellipse class="st2" cx="859.5" cy="474.8" rx="0.8" ry="0.8"/>
				</g>
				<g>
					<ellipse class="st2" cx="833.7" cy="490.4" rx="1.2" ry="1.1"/>
				</g>
				<g>
					<ellipse class="st2" cx="819.4" cy="478.7" rx="1.8" ry="1.6"/>
				</g>
				<g>
					<path class="st2" d="M802.3,513c0-0.5,0.5-0.9,1-0.9c0.6,0,1,0.4,1,0.9c0,0.5-0.5,0.9-1,0.9C802.8,513.9,802.3,513.5,802.3,513
						z"/>
				</g>
				<g>
					<ellipse class="st2" cx="792" cy="537.5" rx="1.5" ry="1.3"/>
				</g>
				<g>
					<path class="st2" d="M752.4,471.3c0-0.4,0.4-0.8,0.9-0.8c0.5,0,0.9,0.3,0.9,0.8c0,0.4-0.4,0.8-0.9,0.8
						C752.8,472.1,752.4,471.8,752.4,471.3z"/>
				</g>
				<g>
					<ellipse class="st2" cx="740.8" cy="488.5" rx="1.8" ry="1.7"/>
				</g>
				<g>
					<ellipse class="st2" cx="725.7" cy="517.5" rx="0.7" ry="0.6"/>
				</g>
				<g>
					<ellipse class="st2" cx="717.9" cy="527.9" rx="1.5" ry="1.4"/>
				</g>
				<g>
					<ellipse class="st2" cx="708.4" cy="502.8" rx="0.5" ry="0.4"/>
				</g>
				<g>
					<path class="st2" d="M693.9,530.2c0-0.2,0.1-0.3,0.3-0.3c0.2,0,0.3,0.1,0.3,0.3c0,0.2-0.1,0.3-0.3,0.3
						C694,530.5,693.9,530.4,693.9,530.2z"/>
				</g>
				<g>
					<ellipse class="st2" cx="691.7" cy="539.5" rx="0.5" ry="0.5"/>
				</g>
				<g>
					<ellipse class="st2" cx="680.4" cy="537.4" rx="0.6" ry="0.6"/>
				</g>
				<g>
					<ellipse class="st2" cx="664.5" cy="508.9" rx="1.7" ry="1.6"/>
				</g>
				<g>
					<ellipse class="st2" cx="647.2" cy="477.7" rx="1.1" ry="1"/>
				</g>
				<g>
					<path class="st2" d="M630.1,483.8c0-0.9,0.8-1.6,1.7-1.6c1,0,1.7,0.7,1.7,1.6c0,0.9-0.8,1.6-1.7,1.6
						C630.8,485.4,630.1,484.7,630.1,483.8z"/>
				</g>
				<g>
					<ellipse class="st2" cx="616.7" cy="477.8" rx="1.4" ry="1.3"/>
				</g>
				<g>
					<ellipse class="st2" cx="615.2" cy="479.3" rx="0.7" ry="0.7"/>
				</g>
				<g>
					<ellipse class="st2" cx="618" cy="512.5" rx="1.1" ry="1"/>
				</g>
				<g>
					<ellipse class="st2" cx="613.2" cy="529.4" rx="1.8" ry="1.7"/>
				</g>
				<g>
					<ellipse class="st2" cx="596.7" cy="517.9" rx="1.1" ry="1"/>
				</g>
				<g>
					<path class="st2" d="M579.8,510.8c0-0.2,0.2-0.4,0.4-0.4c0.3,0,0.5,0.2,0.5,0.4c0,0.2-0.2,0.4-0.5,0.4
						C580,511.2,579.8,511,579.8,510.8z"/>
				</g>
				<g>
					<ellipse class="st2" cx="575.3" cy="488" rx="0.6" ry="0.5"/>
				</g>
				<g>
					<ellipse class="st2" cx="569.4" cy="506.7" rx="1.2" ry="1.1"/>
				</g>
				<g>
					<path class="st2" d="M563.3,485c0-0.3,0.3-0.5,0.6-0.5c0.3,0,0.6,0.2,0.6,0.5c0,0.3-0.3,0.6-0.6,0.6
						C563.5,485.6,563.3,485.3,563.3,485z"/>
				</g>
				<g>
					<path class="st2" d="M568,545.9c0-0.7,0.6-1.3,1.4-1.3c0.8,0,1.4,0.6,1.4,1.3c0,0.7-0.6,1.3-1.4,1.3
						C568.6,547.1,568,546.6,568,545.9z"/>
				</g>
				<g>
					<ellipse class="st2" cx="543.3" cy="558.3" rx="1" ry="0.9"/>
				</g>
				<g>
					<path class="st2" d="M534.1,559.7c0-0.7,0.6-1.2,1.3-1.2c0.7,0,1.3,0.5,1.3,1.2c0,0.7-0.6,1.2-1.3,1.2
						C534.7,560.9,534.1,560.4,534.1,559.7z"/>
				</g>
				<g>
					<ellipse class="st2" cx="507.7" cy="540.6" rx="1" ry="0.9"/>
				</g>
				<g>
					<ellipse class="st2" cx="494.8" cy="531.9" rx="0.6" ry="0.5"/>
				</g>
				<g>
					<ellipse class="st2" cx="484.9" cy="548.8" rx="0.8" ry="0.8"/>
				</g>
				<g>
					<path class="st2" d="M474.8,537.4c0-0.4,0.4-0.8,0.9-0.8s0.9,0.4,0.9,0.8c0,0.4-0.4,0.8-0.9,0.8S474.8,537.8,474.8,537.4z"/>
				</g>
				<g>
					<ellipse class="st2" cx="470.6" cy="563.1" rx="1.2" ry="1.1"/>
				</g>
				<g>
					<ellipse class="st2" cx="458.7" cy="557.4" rx="1.1" ry="1"/>
				</g>
				<g>
					<ellipse class="st2" cx="440.9" cy="529.9" rx="1.6" ry="1.5"/>
				</g>
				<g>
					<ellipse class="st2" cx="429.4" cy="554.8" rx="0.3" ry="0.3"/>
				</g>
				<g>
					<ellipse class="st2" cx="423.6" cy="512.7" rx="1.3" ry="1.1"/>
				</g>
				<g>
					<ellipse class="st2" cx="358.3" cy="530.6" rx="1.4" ry="1.3"/>
				</g>
				<g>
					<ellipse class="st2" cx="340.7" cy="529.6" rx="0.3" ry="0.3"/>
				</g>
				<g>
					<path class="st2" d="M326.6,512.3c0-0.3,0.3-0.6,0.7-0.6c0.4,0,0.7,0.3,0.7,0.6s-0.3,0.6-0.7,0.6
						C326.9,512.9,326.6,512.6,326.6,512.3z"/>
				</g>
				<g>
					<ellipse class="st2" cx="318.6" cy="492.4" rx="1.8" ry="1.7"/>
				</g>
			</g>
			<g>
				<g>
					<ellipse class="st2" cx="1137.3" cy="283.2" rx="1.6" ry="1.4"/>
				</g>
				<g>
					<ellipse class="st2" cx="1103.2" cy="318.4" rx="1.6" ry="1.4"/>
				</g>
				<g>
					<path class="st2" d="M1101.6,317.6c0-0.6,0.5-1.1,1.2-1.1c0.6,0,1.2,0.5,1.2,1.1c0,0.6-0.5,1.1-1.2,1.1
						C1102.2,318.7,1101.6,318.2,1101.6,317.6z"/>
				</g>
				<g>
					<ellipse class="st2" cx="1097.9" cy="300.4" rx="1.4" ry="1.3"/>
				</g>
				<g>
					<ellipse class="st2" cx="1111.1" cy="253" rx="0.7" ry="0.7"/>
				</g>
				<g>
					<path class="st2" d="M1087.9,312.6c0-0.5,0.5-1,1-1c0.6,0,1,0.4,1,1c0,0.5-0.5,1-1,1C1088.3,313.6,1087.9,313.1,1087.9,312.6z"
						/>
				</g>
				<g>
					<ellipse class="st2" cx="1102.1" cy="269.1" rx="0.3" ry="0.2"/>
				</g>
				<g>
					<ellipse class="st2" cx="1086" cy="302.1" rx="1.4" ry="1.2"/>
				</g>
				<g>
					<ellipse class="st2" cx="1079.6" cy="275.6" rx="0.3" ry="0.2"/>
				</g>
				<g>
					<ellipse class="st2" cx="1068.8" cy="303" rx="0.9" ry="0.8"/>
				</g>
				<g>
					<ellipse class="st2" cx="1069.4" cy="252.5" rx="1.6" ry="1.5"/>
				</g>
				<g>
					<ellipse class="st2" cx="1068" cy="246.4" rx="1.4" ry="1.3"/>
				</g>
				<g>
					<ellipse class="st2" cx="1043.4" cy="270.5" rx="0.2" ry="0.2"/>
				</g>
				<g>
					<ellipse class="st2" cx="1023.9" cy="286.3" rx="0.6" ry="0.5"/>
				</g>
				<g>
					<path class="st2" d="M1003,300.6c0-0.3,0.3-0.5,0.6-0.5c0.3,0,0.6,0.2,0.6,0.5c0,0.3-0.3,0.5-0.6,0.5
						C1003.3,301.1,1003,300.9,1003,300.6z"/>
				</g>
				<g>
					<path class="st2" d="M983.3,287.8c0-0.6,0.5-1.1,1.2-1.1c0.7,0,1.2,0.5,1.2,1.1c0,0.6-0.5,1.1-1.2,1.1
						C983.9,288.9,983.3,288.4,983.3,287.8z"/>
				</g>
				<g>
					<ellipse class="st2" cx="959.1" cy="283.7" rx="0.7" ry="0.7"/>
				</g>
				<g>
					<ellipse class="st2" cx="950.9" cy="287.9" rx="0.4" ry="0.4"/>
				</g>
				<g>
					<ellipse class="st2" cx="944.9" cy="291.4" rx="1.3" ry="1.1"/>
				</g>
				<g>
					<ellipse class="st2" cx="917" cy="289.8" rx="1" ry="0.9"/>
				</g>
				<g>
					<ellipse class="st2" cx="919.6" cy="251.4" rx="1.3" ry="1.2"/>
				</g>
				<g>
					<path class="st2" d="M905,283.7c0-0.7,0.6-1.2,1.3-1.2c0.7,0,1.3,0.6,1.3,1.2c0,0.7-0.6,1.2-1.3,1.2
						C905.6,284.9,905,284.3,905,283.7z"/>
				</g>
				<g>
					<path class="st2" d="M895.9,232c0-0.8,0.7-1.5,1.7-1.5c0.9,0,1.7,0.7,1.7,1.5c0,0.8-0.7,1.5-1.7,1.5
						C896.6,233.6,895.9,232.9,895.9,232z"/>
				</g>
				<g>
					<ellipse class="st2" cx="878.7" cy="246.7" rx="0.5" ry="0.5"/>
				</g>
				<g>
					<path class="st2" d="M874.3,241.6c0-0.9,0.8-1.6,1.8-1.6c1,0,1.7,0.7,1.7,1.6c0,0.9-0.8,1.6-1.7,1.6
						C875.1,243.2,874.3,242.5,874.3,241.6z"/>
				</g>
				<g>
					<path class="st2" d="M862.3,253.8c0-0.4,0.4-0.7,0.8-0.7c0.4,0,0.8,0.3,0.8,0.7c0,0.4-0.4,0.7-0.8,0.7
						C862.6,254.6,862.3,254.2,862.3,253.8z"/>
				</g>
				<g>
					<ellipse class="st2" cx="859.5" cy="225.7" rx="0.8" ry="0.8"/>
				</g>
				<g>
					<ellipse class="st2" cx="847" cy="263.1" rx="1.6" ry="1.4"/>
				</g>
				<g>
					<ellipse class="st2" cx="833.7" cy="241.2" rx="1.2" ry="1.1"/>
				</g>
				<g>
					<ellipse class="st2" cx="819.4" cy="229.6" rx="1.8" ry="1.6"/>
				</g>
				<g>
					<path class="st2" d="M802.3,263.9c0-0.5,0.5-0.9,1-0.9c0.6,0,1,0.4,1,0.9c0,0.5-0.5,0.9-1,0.9
						C802.8,264.8,802.3,264.4,802.3,263.9z"/>
				</g>
				<g>
					<path class="st2" d="M790.5,288.3c0-0.7,0.7-1.3,1.5-1.3c0.8,0,1.5,0.6,1.5,1.3c0,0.7-0.7,1.3-1.5,1.3
						C791.2,289.6,790.5,289,790.5,288.3z"/>
				</g>
				<g>
					<ellipse class="st2" cx="780.1" cy="247.2" rx="1.1" ry="1"/>
				</g>
				<g>
					<path class="st2" d="M770.4,245.9c0-0.3,0.2-0.5,0.5-0.5c0.3,0,0.5,0.2,0.5,0.5c0,0.3-0.2,0.5-0.5,0.5
						C770.7,246.4,770.4,246.2,770.4,245.9z"/>
				</g>
				<g>
					<ellipse class="st2" cx="764.1" cy="247.8" rx="0.6" ry="0.5"/>
				</g>
				<g>
					<path class="st2" d="M752.4,222.2c0-0.4,0.4-0.8,0.9-0.8c0.5,0,0.9,0.3,0.9,0.8c0,0.4-0.4,0.8-0.9,0.8
						C752.8,223,752.4,222.6,752.4,222.2z"/>
				</g>
				<g>
					<path class="st2" d="M748.7,267.6c0-0.7,0.6-1.2,1.3-1.2c0.7,0,1.3,0.5,1.3,1.2c0,0.7-0.6,1.2-1.3,1.2
						C749.3,268.8,748.7,268.2,748.7,267.6z"/>
				</g>
				<g>
					<ellipse class="st2" cx="740.8" cy="239.4" rx="1.8" ry="1.7"/>
				</g>
				<g>
					<ellipse class="st2" cx="725.7" cy="268.4" rx="0.7" ry="0.6"/>
				</g>
				<g>
					<ellipse class="st2" cx="717.9" cy="278.7" rx="1.5" ry="1.4"/>
				</g>
				<g>
					<ellipse class="st2" cx="708.4" cy="253.7" rx="0.5" ry="0.4"/>
				</g>
				<g>
					<path class="st2" d="M693.9,281.1c0-0.2,0.1-0.3,0.3-0.3c0.2,0,0.3,0.1,0.3,0.3c0,0.2-0.1,0.3-0.3,0.3
						C694,281.4,693.9,281.3,693.9,281.1z"/>
				</g>
				<g>
					<ellipse class="st2" cx="691.7" cy="290.3" rx="0.5" ry="0.5"/>
				</g>
				<g>
					<ellipse class="st2" cx="680.4" cy="288.2" rx="0.6" ry="0.6"/>
				</g>
				<g>
					<ellipse class="st2" cx="664.5" cy="259.7" rx="1.7" ry="1.6"/>
				</g>
				<g>
					<ellipse class="st2" cx="647.2" cy="228.6" rx="1.1" ry="1"/>
				</g>
				<g>
					<path class="st2" d="M630.1,234.7c0-0.9,0.8-1.6,1.7-1.6c1,0,1.7,0.7,1.7,1.6c0,0.9-0.8,1.6-1.7,1.6
						C630.8,236.3,630.1,235.6,630.1,234.7z"/>
				</g>
				<g>
					<ellipse class="st2" cx="616.7" cy="228.7" rx="1.4" ry="1.3"/>
				</g>
				<g>
					<ellipse class="st2" cx="615.2" cy="230.2" rx="0.7" ry="0.7"/>
				</g>
				<g>
					<ellipse class="st2" cx="618" cy="263.3" rx="1.1" ry="1"/>
				</g>
				<g>
					<ellipse class="st2" cx="613.2" cy="280.2" rx="1.8" ry="1.7"/>
				</g>
				<g>
					<ellipse class="st2" cx="596.7" cy="268.8" rx="1.1" ry="1"/>
				</g>
				<g>
					<path class="st2" d="M579.8,261.6c0-0.2,0.2-0.4,0.4-0.4c0.3,0,0.5,0.2,0.5,0.4c0,0.2-0.2,0.4-0.5,0.4
						C580,262.1,579.8,261.9,579.8,261.6z"/>
				</g>
				<g>
					<ellipse class="st2" cx="575.3" cy="238.8" rx="0.6" ry="0.5"/>
				</g>
				<g>
					<ellipse class="st2" cx="569.4" cy="257.5" rx="1.2" ry="1.1"/>
				</g>
				<g>
					<path class="st2" d="M563.3,235.9c0-0.3,0.3-0.5,0.6-0.5c0.3,0,0.6,0.2,0.6,0.5c0,0.3-0.3,0.5-0.6,0.5
						C563.5,236.4,563.3,236.2,563.3,235.9z"/>
				</g>
				<g>
					<ellipse class="st2" cx="552.4" cy="249" rx="1.8" ry="1.6"/>
				</g>
				<g>
					<ellipse class="st2" cx="518.7" cy="238.9" rx="1.6" ry="1.5"/>
				</g>
				<g>
					<ellipse class="st2" cx="507.7" cy="291.5" rx="1" ry="0.9"/>
				</g>
				<g>
					<ellipse class="st2" cx="494.8" cy="282.8" rx="0.6" ry="0.5"/>
				</g>
				<g>
					<ellipse class="st2" cx="484.9" cy="299.7" rx="0.8" ry="0.8"/>
				</g>
				<g>
					<ellipse class="st2" cx="470.6" cy="314" rx="1.2" ry="1.1"/>
				</g>
				<g>
					<ellipse class="st2" cx="458.7" cy="308.3" rx="1.1" ry="1"/>
				</g>
				<g>
					<ellipse class="st2" cx="440.9" cy="280.8" rx="1.6" ry="1.5"/>
				</g>
				<g>
					<ellipse class="st2" cx="429.4" cy="305.6" rx="0.3" ry="0.3"/>
				</g>
				<g>
					<path class="st2" d="M412.5,282.1c0-0.2,0.2-0.4,0.4-0.4c0.2,0,0.4,0.2,0.4,0.4c0,0.2-0.2,0.4-0.4,0.4
						C412.7,282.4,412.5,282.3,412.5,282.1z"/>
				</g>
				<g>
					<ellipse class="st2" cx="394" cy="275.1" rx="0.7" ry="0.6"/>
				</g>
				<g>
					<ellipse class="st2" cx="386.6" cy="269.3" rx="1.3" ry="1.2"/>
				</g>
				<g>
					<ellipse class="st2" cx="385.7" cy="265.6" rx="0.4" ry="0.4"/>
				</g>
				<g>
					<ellipse class="st2" cx="384" cy="266.8" rx="1.5" ry="1.4"/>
				</g>
				<g>
					<ellipse class="st2" cx="358.3" cy="281.4" rx="1.4" ry="1.3"/>
				</g>
				<g>
					<ellipse class="st2" cx="340.7" cy="280.5" rx="0.3" ry="0.3"/>
				</g>
				<g>
					<path class="st2" d="M326.6,263.1c0-0.3,0.3-0.6,0.7-0.6c0.4,0,0.7,0.3,0.7,0.6c0,0.3-0.3,0.6-0.7,0.6
						C326.9,263.8,326.6,263.5,326.6,263.1z"/>
				</g>
				<g>
					<ellipse class="st2" cx="318.6" cy="243.3" rx="1.8" ry="1.7"/>
				</g>
			</g>
			<g>
				<g>
					<ellipse class="st2" cx="1068.8" cy="391.3" rx="0.9" ry="0.8"/>
				</g>
				<g>
					<ellipse class="st2" cx="1069.4" cy="340.9" rx="1.6" ry="1.5"/>
				</g>
				<g>
					<ellipse class="st2" cx="1068" cy="334.7" rx="1.4" ry="1.3"/>
				</g>
				<g>
					<path class="st2" d="M1003,388.9c0-0.3,0.3-0.5,0.6-0.5c0.3,0,0.6,0.2,0.6,0.5c0,0.3-0.3,0.5-0.6,0.5
						C1003.3,389.4,1003,389.2,1003,388.9z"/>
				</g>
				<g>
					<path class="st2" d="M980.3,339.9c0-0.8,0.7-1.4,1.6-1.4c0.9,0,1.6,0.6,1.6,1.4c0,0.8-0.7,1.4-1.6,1.4
						C981,341.3,980.3,340.7,980.3,339.9z"/>
				</g>
				<g>
					<ellipse class="st2" cx="959.1" cy="372.1" rx="0.7" ry="0.7"/>
				</g>
				<g>
					<ellipse class="st2" cx="965.4" cy="335.4" rx="1.6" ry="1.5"/>
				</g>
				<g>
					<ellipse class="st2" cx="950.9" cy="376.2" rx="0.4" ry="0.4"/>
				</g>
				<g>
					<ellipse class="st2" cx="944.9" cy="379.7" rx="1.3" ry="1.1"/>
				</g>
				<g>
					<path class="st2" d="M938.1,306c0-0.5,0.5-0.9,1-0.9c0.6,0,1,0.4,1,0.9c0,0.5-0.5,0.9-1,0.9C938.5,306.9,938.1,306.5,938.1,306
						z"/>
				</g>
				<g>
					<ellipse class="st2" cx="917" cy="378.1" rx="1" ry="0.9"/>
				</g>
				<g>
					<ellipse class="st2" cx="919.6" cy="339.7" rx="1.3" ry="1.2"/>
				</g>
				<g>
					<path class="st2" d="M905,372c0-0.7,0.6-1.2,1.3-1.2c0.7,0,1.3,0.6,1.3,1.2c0,0.7-0.6,1.2-1.3,1.2
						C905.6,373.2,905,372.7,905,372z"/>
				</g>
				<g>
					<path class="st2" d="M895.9,320.4c0-0.8,0.7-1.5,1.7-1.5c0.9,0,1.7,0.7,1.7,1.5c0,0.8-0.7,1.5-1.7,1.5
						C896.6,321.9,895.9,321.2,895.9,320.4z"/>
				</g>
				<g>
					<ellipse class="st2" cx="878.7" cy="335" rx="0.5" ry="0.5"/>
				</g>
				<g>
					<path class="st2" d="M862.3,342.2c0-0.4,0.4-0.7,0.8-0.7c0.4,0,0.8,0.3,0.8,0.7c0,0.4-0.4,0.7-0.8,0.7
						C862.6,342.9,862.3,342.6,862.3,342.2z"/>
				</g>
				<g>
					<ellipse class="st2" cx="859.5" cy="314" rx="0.8" ry="0.8"/>
				</g>
				<g>
					<ellipse class="st2" cx="847" cy="351.5" rx="1.6" ry="1.4"/>
				</g>
				<g>
					<path class="st2" d="M790.5,376.6c0-0.7,0.7-1.3,1.5-1.3c0.8,0,1.5,0.6,1.5,1.3c0,0.7-0.7,1.3-1.5,1.3
						C791.2,378,790.5,377.4,790.5,376.6z"/>
				</g>
				<g>
					<ellipse class="st2" cx="780.1" cy="335.5" rx="1.1" ry="1"/>
				</g>
				<g>
					<path class="st2" d="M770.4,334.2c0-0.3,0.2-0.5,0.5-0.5c0.3,0,0.5,0.2,0.5,0.5c0,0.3-0.2,0.5-0.5,0.5
						C770.7,334.7,770.4,334.5,770.4,334.2z"/>
				</g>
				<g>
					<ellipse class="st2" cx="764.1" cy="336.1" rx="0.6" ry="0.5"/>
				</g>
				<g>
					<path class="st2" d="M752.4,310.5c0-0.4,0.4-0.8,0.9-0.8c0.5,0,0.9,0.3,0.9,0.8c0,0.4-0.4,0.8-0.9,0.8
						C752.8,311.3,752.4,310.9,752.4,310.5z"/>
				</g>
				<g>
					<ellipse class="st2" cx="750.1" cy="355.9" rx="1.3" ry="1.2"/>
				</g>
				<g>
					<ellipse class="st2" cx="740.8" cy="327.7" rx="1.8" ry="1.7"/>
				</g>
				<g>
					<ellipse class="st2" cx="725.7" cy="356.7" rx="0.7" ry="0.6"/>
				</g>
				<g>
					<ellipse class="st2" cx="717.9" cy="367" rx="1.5" ry="1.4"/>
				</g>
				<g>
					<ellipse class="st2" cx="708.4" cy="342" rx="0.5" ry="0.4"/>
				</g>
				<g>
					<ellipse class="st2" cx="691.7" cy="378.7" rx="0.5" ry="0.5"/>
				</g>
				<g>
					<ellipse class="st2" cx="680.4" cy="376.5" rx="0.6" ry="0.6"/>
				</g>
				<g>
					<ellipse class="st2" cx="664.5" cy="348" rx="1.7" ry="1.6"/>
				</g>
				<g>
					<ellipse class="st2" cx="647.2" cy="316.9" rx="1.1" ry="1"/>
				</g>
				<g>
					<path class="st2" d="M630.1,323c0-0.9,0.8-1.6,1.7-1.6c1,0,1.7,0.7,1.7,1.6c0,0.9-0.8,1.6-1.7,1.6
						C630.8,324.6,630.1,323.9,630.1,323z"/>
				</g>
				<g>
					<ellipse class="st2" cx="616.7" cy="317" rx="1.4" ry="1.3"/>
				</g>
				<g>
					<ellipse class="st2" cx="615.2" cy="318.5" rx="0.7" ry="0.7"/>
				</g>
				<g>
					<ellipse class="st2" cx="618" cy="351.7" rx="1.1" ry="1"/>
				</g>
				<g>
					<ellipse class="st2" cx="613.2" cy="368.6" rx="1.8" ry="1.7"/>
				</g>
				<g>
					<ellipse class="st2" cx="596.7" cy="357.1" rx="1.1" ry="1"/>
				</g>
				<g>
					<path class="st2" d="M579.8,350c0-0.2,0.2-0.4,0.4-0.4c0.3,0,0.5,0.2,0.5,0.4c0,0.2-0.2,0.4-0.5,0.4
						C580,350.4,579.8,350.2,579.8,350z"/>
				</g>
				<g>
					<ellipse class="st2" cx="543.3" cy="397.4" rx="1" ry="0.9"/>
				</g>
				<g>
					<path class="st2" d="M534.1,398.9c0-0.7,0.6-1.2,1.3-1.2c0.7,0,1.3,0.5,1.3,1.2c0,0.7-0.6,1.2-1.3,1.2
						C534.7,400.1,534.1,399.6,534.1,398.9z"/>
				</g>
				<g>
					<ellipse class="st2" cx="507.7" cy="379.8" rx="1" ry="0.9"/>
				</g>
				<g>
					<ellipse class="st2" cx="494.8" cy="371.1" rx="0.6" ry="0.5"/>
				</g>
				<g>
					<ellipse class="st2" cx="484.9" cy="388" rx="0.8" ry="0.8"/>
				</g>
				<g>
					<path class="st2" d="M474.8,376.5c0-0.4,0.4-0.8,0.9-0.8s0.9,0.4,0.9,0.8c0,0.4-0.4,0.8-0.9,0.8S474.8,377,474.8,376.5z"/>
				</g>
				<g>
					<ellipse class="st2" cx="470.6" cy="402.3" rx="1.2" ry="1.1"/>
				</g>
				<g>
					<ellipse class="st2" cx="458.7" cy="396.6" rx="1.1" ry="1"/>
				</g>
				<g>
					<ellipse class="st2" cx="440.9" cy="369.1" rx="1.6" ry="1.5"/>
				</g>
				<g>
					<ellipse class="st2" cx="429.4" cy="393.9" rx="0.3" ry="0.3"/>
				</g>
				<g>
					<ellipse class="st2" cx="423.6" cy="351.9" rx="1.3" ry="1.1"/>
				</g>
				<g>
					<path class="st2" d="M412.5,370.4c0-0.2,0.2-0.4,0.4-0.4c0.2,0,0.4,0.2,0.4,0.4c0,0.2-0.2,0.4-0.4,0.4
						C412.7,370.8,412.5,370.6,412.5,370.4z"/>
				</g>
				<g>
					<ellipse class="st2" cx="394" cy="363.4" rx="0.7" ry="0.6"/>
				</g>
				<g>
					<ellipse class="st2" cx="386.6" cy="357.6" rx="1.3" ry="1.2"/>
				</g>
				<g>
					<ellipse class="st2" cx="385.7" cy="353.9" rx="0.4" ry="0.4"/>
				</g>
				<g>
					<ellipse class="st2" cx="384" cy="355.1" rx="1.5" ry="1.4"/>
				</g>
				<g>
					<ellipse class="st2" cx="370.2" cy="342.7" rx="0.6" ry="0.6"/>
				</g>
				<g>
					<ellipse class="st2" cx="358.3" cy="369.8" rx="1.4" ry="1.3"/>
				</g>
				<g>
					<ellipse class="st2" cx="340.7" cy="368.8" rx="0.3" ry="0.3"/>
				</g>
				<g>
					<path class="st2" d="M326.6,351.5c0-0.3,0.3-0.6,0.7-0.6c0.4,0,0.7,0.3,0.7,0.6c0,0.3-0.3,0.6-0.7,0.6
						C326.9,352.1,326.6,351.8,326.6,351.5z"/>
				</g>
				<g>
					<ellipse class="st2" cx="318.6" cy="331.6" rx="1.8" ry="1.7"/>
				</g>
			</g>
			<g>
				<g>
					<ellipse class="st2" cx="317.8" cy="147.8" rx="1" ry="0.9"/>
				</g>
				<g>
					<path class="st2" d="M332.6,123.9c0-0.8-0.7-1.5-1.6-1.5c-0.9,0-1.6,0.7-1.6,1.5c0,0.8,0.7,1.5,1.6,1.5
						C331.9,125.4,332.6,124.7,332.6,123.9z"/>
				</g>
				<g>
					<path class="st2" d="M341.6,121.2c0-0.8-0.7-1.4-1.5-1.4c-0.8,0-1.5,0.6-1.5,1.4c0,0.8,0.7,1.4,1.5,1.4
						C340.9,122.6,341.6,122,341.6,121.2z"/>
				</g>
				<g>
					<path class="st2" d="M334.4,93.6c0-0.6-0.6-1.2-1.3-1.2c-0.7,0-1.3,0.5-1.3,1.2c0,0.6,0.6,1.2,1.3,1.2
						C333.8,94.8,334.4,94.3,334.4,93.6z"/>
				</g>
				<g>
					<ellipse class="st2" cx="348.4" cy="115.1" rx="0.8" ry="0.7"/>
				</g>
				<g>
					<ellipse class="st2" cx="350.8" cy="100.4" rx="0.6" ry="0.5"/>
				</g>
				<g>
					<path class="st2" d="M361.2,90.6c0-0.4-0.3-0.7-0.7-0.7c-0.4,0-0.7,0.3-0.7,0.7s0.3,0.7,0.7,0.7
						C360.8,91.3,361.2,91,361.2,90.6z"/>
				</g>
				<g>
					<ellipse class="st2" cx="381.2" cy="103.2" rx="1.6" ry="1.4"/>
				</g>
				<g>
					<ellipse class="st2" cx="397.6" cy="141" rx="1.2" ry="1.1"/>
				</g>
				<g>
					<ellipse class="st2" cx="415.2" cy="138.4" rx="1.6" ry="1.4"/>
				</g>
				<g>
					<path class="st2" d="M416.8,137.6c0-0.6-0.5-1.1-1.2-1.1c-0.6,0-1.2,0.5-1.2,1.1c0,0.6,0.5,1.1,1.2,1.1
						C416.3,138.7,416.8,138.2,416.8,137.6z"/>
				</g>
				<g>
					<ellipse class="st2" cx="420.5" cy="120.4" rx="1.4" ry="1.3"/>
				</g>
				<g>
					<ellipse class="st2" cx="407.3" cy="73" rx="0.7" ry="0.7"/>
				</g>
				<g>
					<path class="st2" d="M430.6,132.6c0-0.5-0.5-1-1-1c-0.6,0-1,0.4-1,1c0,0.5,0.5,1,1,1C430.1,133.5,430.6,133.1,430.6,132.6z"/>
				</g>
				<g>
					<ellipse class="st2" cx="416.3" cy="89.1" rx="0.3" ry="0.2"/>
				</g>
				<g>
					<ellipse class="st2" cx="432.5" cy="122.1" rx="1.4" ry="1.2"/>
				</g>
				<g>
					<ellipse class="st2" cx="438.8" cy="95.6" rx="0.3" ry="0.2"/>
				</g>
				<g>
					<ellipse class="st2" cx="449.6" cy="122.9" rx="0.9" ry="0.8"/>
				</g>
				<g>
					<ellipse class="st2" cx="449" cy="72.5" rx="1.6" ry="1.5"/>
				</g>
				<g>
					<ellipse class="st2" cx="450.5" cy="66.4" rx="1.4" ry="1.3"/>
				</g>
				<g>
					<ellipse class="st2" cx="475" cy="90.5" rx="0.2" ry="0.2"/>
				</g>
				<g>
					<ellipse class="st2" cx="494.5" cy="106.3" rx="0.6" ry="0.5"/>
				</g>
				<g>
					<path class="st2" d="M515.4,120.6c0-0.3-0.3-0.5-0.6-0.5c-0.3,0-0.6,0.2-0.6,0.5c0,0.3,0.3,0.5,0.6,0.5
						C515.2,121.1,515.4,120.9,515.4,120.6z"/>
				</g>
				<g>
					<ellipse class="st2" cx="512.9" cy="75.5" rx="1.4" ry="1.3"/>
				</g>
				<g>
					<ellipse class="st2" cx="533.9" cy="107.8" rx="1.2" ry="1.1"/>
				</g>
				<g>
					<path class="st2" d="M538.2,71.5c0-0.8-0.7-1.4-1.6-1.4c-0.9,0-1.6,0.6-1.6,1.4c0,0.8,0.7,1.4,1.6,1.4
						C537.4,73,538.2,72.3,538.2,71.5z"/>
				</g>
				<g>
					<ellipse class="st2" cx="559.3" cy="103.7" rx="0.7" ry="0.7"/>
				</g>
				<g>
					<ellipse class="st2" cx="553" cy="67.1" rx="1.6" ry="1.5"/>
				</g>
				<g>
					<ellipse class="st2" cx="567.5" cy="107.9" rx="0.4" ry="0.4"/>
				</g>
				<g>
					<ellipse class="st2" cx="573.5" cy="111.4" rx="1.3" ry="1.1"/>
				</g>
				<g>
					<ellipse class="st2" cx="601.5" cy="109.8" rx="1" ry="0.9"/>
				</g>
				<g>
					<ellipse class="st2" cx="598.9" cy="71.4" rx="1.3" ry="1.2"/>
				</g>
				<g>
					<path class="st2" d="M613.4,103.6c0-0.7-0.6-1.2-1.3-1.2c-0.7,0-1.3,0.6-1.3,1.2c0,0.7,0.6,1.2,1.3,1.2
						C612.8,104.9,613.4,104.3,613.4,103.6z"/>
				</g>
				<g>
					<path class="st2" d="M622.6,52c0-0.8-0.7-1.5-1.7-1.5c-0.9,0-1.7,0.7-1.7,1.5c0,0.8,0.7,1.5,1.7,1.5
						C621.8,53.5,622.6,52.9,622.6,52z"/>
				</g>
				<g>
					<ellipse class="st2" cx="639.8" cy="66.7" rx="0.5" ry="0.5"/>
				</g>
				<g>
					<path class="st2" d="M644.2,61.6c0-0.9-0.8-1.6-1.8-1.6c-1,0-1.7,0.7-1.7,1.6c0,0.9,0.8,1.6,1.7,1.6
						C643.4,63.2,644.2,62.5,644.2,61.6z"/>
				</g>
				<g>
					<path class="st2" d="M656.2,73.8c0-0.4-0.4-0.7-0.8-0.7c-0.4,0-0.8,0.3-0.8,0.7c0,0.4,0.4,0.7,0.8,0.7
						C655.8,74.6,656.2,74.2,656.2,73.8z"/>
				</g>
				<g>
					<ellipse class="st2" cx="658.9" cy="45.7" rx="0.8" ry="0.8"/>
				</g>
				<g>
					<ellipse class="st2" cx="671.4" cy="83.1" rx="1.6" ry="1.4"/>
				</g>
				<g>
					<ellipse class="st2" cx="684.8" cy="61.2" rx="1.2" ry="1.1"/>
				</g>
				<g>
					<ellipse class="st2" cx="699" cy="49.6" rx="1.8" ry="1.6"/>
				</g>
				<g>
					<path class="st2" d="M766.1,42.2c0-0.4-0.4-0.8-0.9-0.8c-0.5,0-0.9,0.3-0.9,0.8c0,0.4,0.4,0.8,0.9,0.8
						C765.7,43,766.1,42.6,766.1,42.2z"/>
				</g>
				<g>
					<ellipse class="st2" cx="810" cy="73.7" rx="0.5" ry="0.4"/>
				</g>
				<g>
					<ellipse class="st2" cx="826.8" cy="110.3" rx="0.5" ry="0.5"/>
				</g>
				<g>
					<ellipse class="st2" cx="838" cy="108.2" rx="0.6" ry="0.6"/>
				</g>
				<g>
					<ellipse class="st2" cx="853.9" cy="79.7" rx="1.7" ry="1.6"/>
				</g>
				<g>
					<ellipse class="st2" cx="905.2" cy="100.2" rx="1.8" ry="1.7"/>
				</g>
				<g>
					<ellipse class="st2" cx="921.7" cy="88.7" rx="1.1" ry="1"/>
				</g>
				<g>
					<path class="st2" d="M938.6,81.6c0-0.2-0.2-0.4-0.4-0.4c-0.3,0-0.5,0.2-0.5,0.4c0,0.2,0.2,0.4,0.5,0.4
						C938.4,82,938.6,81.9,938.6,81.6z"/>
				</g>
				<g>
					<ellipse class="st2" cx="949" cy="77.5" rx="1.2" ry="1.1"/>
				</g>
				<g>
					<path class="st2" d="M950.4,116.7c0-0.7-0.6-1.3-1.4-1.3s-1.4,0.6-1.4,1.3c0,0.7,0.6,1.3,1.4,1.3S950.4,117.4,950.4,116.7z"/>
				</g>
				<g>
					<ellipse class="st2" cx="966.1" cy="68.9" rx="1.8" ry="1.6"/>
				</g>
				<g>
					<ellipse class="st2" cx="975.1" cy="129.1" rx="1" ry="0.9"/>
				</g>
				<g>
					<path class="st2" d="M984.3,130.6c0-0.7-0.6-1.2-1.3-1.2c-0.7,0-1.3,0.5-1.3,1.2c0,0.7,0.6,1.2,1.3,1.2
						C983.8,131.8,984.3,131.2,984.3,130.6z"/>
				</g>
				<g>
					<ellipse class="st2" cx="1010.8" cy="111.4" rx="1" ry="0.9"/>
				</g>
				<g>
					<ellipse class="st2" cx="1023.6" cy="102.7" rx="0.6" ry="0.5"/>
				</g>
				<g>
					<ellipse class="st2" cx="1033.5" cy="119.7" rx="0.8" ry="0.8"/>
				</g>
				<g>
					<path class="st2" d="M1043.6,108.2c0-0.4-0.4-0.8-0.9-0.8s-0.9,0.4-0.9,0.8c0,0.4,0.4,0.8,0.9,0.8S1043.6,108.6,1043.6,108.2z"
						/>
				</g>
				<g>
					<ellipse class="st2" cx="1047.8" cy="134" rx="1.2" ry="1.1"/>
				</g>
				<g>
					<ellipse class="st2" cx="1059.8" cy="128.3" rx="1.1" ry="1"/>
				</g>
				<g>
					<ellipse class="st2" cx="1077.5" cy="100.7" rx="1.6" ry="1.5"/>
				</g>
				<g>
					<ellipse class="st2" cx="1089.1" cy="125.6" rx="0.3" ry="0.3"/>
				</g>
				<g>
					<ellipse class="st2" cx="1094.8" cy="83.5" rx="1.3" ry="1.1"/>
				</g>
				<g>
					<path class="st2" d="M1105.9,102c0-0.2-0.2-0.4-0.4-0.4c-0.2,0-0.4,0.2-0.4,0.4c0,0.2,0.2,0.4,0.4,0.4
						C1105.7,102.4,1105.9,102.3,1105.9,102z"/>
				</g>
				<g>
					<ellipse class="st2" cx="1124.5" cy="95.1" rx="0.7" ry="0.6"/>
				</g>
				<g>
					<ellipse class="st2" cx="1131.8" cy="89.3" rx="1.3" ry="1.2"/>
				</g>
				<g>
					<ellipse class="st2" cx="1132.8" cy="85.6" rx="0.4" ry="0.4"/>
				</g>
				<g>
					<ellipse class="st2" cx="1134.4" cy="86.7" rx="1.5" ry="1.4"/>
				</g>
				<g>
					<ellipse class="st2" cx="1148.3" cy="74.4" rx="0.6" ry="0.6"/>
				</g>
				<g>
					<ellipse class="st2" cx="1160.1" cy="101.4" rx="1.4" ry="1.3"/>
				</g>
				<g>
					<ellipse class="st2" cx="1177.8" cy="100.5" rx="0.3" ry="0.3"/>
				</g>
			</g>
			<g>
				<g>
					<ellipse class="st2" cx="317.8" cy="236.1" rx="1" ry="0.9"/>
				</g>
				<g>
					<ellipse class="st2" cx="339.1" cy="249.5" rx="0.5" ry="0.5"/>
				</g>
				<g>
					<ellipse class="st2" cx="407.3" cy="161.3" rx="0.7" ry="0.7"/>
				</g>
				<g>
					<path class="st2" d="M430.6,220.9c0-0.5-0.5-1-1-1c-0.6,0-1,0.4-1,1c0,0.5,0.5,1,1,1C430.1,221.9,430.6,221.4,430.6,220.9z"/>
				</g>
				<g>
					<ellipse class="st2" cx="416.3" cy="177.4" rx="0.3" ry="0.2"/>
				</g>
				<g>
					<ellipse class="st2" cx="432.5" cy="210.4" rx="1.4" ry="1.2"/>
				</g>
				<g>
					<ellipse class="st2" cx="438.8" cy="184" rx="0.3" ry="0.2"/>
				</g>
				<g>
					<ellipse class="st2" cx="449.6" cy="211.3" rx="0.9" ry="0.8"/>
				</g>
				<g>
					<ellipse class="st2" cx="449" cy="160.9" rx="1.6" ry="1.5"/>
				</g>
				<g>
					<ellipse class="st2" cx="450.5" cy="154.7" rx="1.4" ry="1.3"/>
				</g>
				<g>
					<ellipse class="st2" cx="475" cy="178.8" rx="0.2" ry="0.2"/>
				</g>
				<g>
					<ellipse class="st2" cx="494.5" cy="194.6" rx="0.6" ry="0.5"/>
				</g>
				<g>
					<path class="st2" d="M515.4,208.9c0-0.3-0.3-0.5-0.6-0.5c-0.3,0-0.6,0.2-0.6,0.5c0,0.3,0.3,0.5,0.6,0.5
						C515.2,209.4,515.4,209.2,515.4,208.9z"/>
				</g>
				<g>
					<path class="st2" d="M514.4,163.8c0-0.7-0.6-1.3-1.4-1.3c-0.8,0-1.4,0.6-1.4,1.3c0,0.7,0.6,1.3,1.4,1.3
						C513.7,165.1,514.4,164.5,514.4,163.8z"/>
				</g>
				<g>
					<ellipse class="st2" cx="533.9" cy="196.1" rx="1.2" ry="1.1"/>
				</g>
				<g>
					<path class="st2" d="M538.2,159.9c0-0.8-0.7-1.4-1.6-1.4c-0.9,0-1.6,0.6-1.6,1.4c0,0.8,0.7,1.4,1.6,1.4
						C537.4,161.3,538.2,160.7,538.2,159.9z"/>
				</g>
				<g>
					<ellipse class="st2" cx="559.3" cy="192" rx="0.7" ry="0.7"/>
				</g>
				<g>
					<ellipse class="st2" cx="553" cy="155.4" rx="1.6" ry="1.5"/>
				</g>
				<g>
					<ellipse class="st2" cx="567.5" cy="196.2" rx="0.4" ry="0.4"/>
				</g>
				<g>
					<path class="st2" d="M580.4,126c0-0.5-0.5-0.9-1-0.9c-0.6,0-1,0.4-1,0.9c0,0.5,0.5,0.9,1,0.9
						C579.9,126.9,580.4,126.5,580.4,126z"/>
				</g>
				<g>
					<ellipse class="st2" cx="598.9" cy="159.7" rx="1.3" ry="1.2"/>
				</g>
				<g>
					<path class="st2" d="M622.6,140.3c0-0.8-0.7-1.5-1.7-1.5c-0.9,0-1.7,0.7-1.7,1.5c0,0.8,0.7,1.5,1.7,1.5
						C621.8,141.9,622.6,141.2,622.6,140.3z"/>
				</g>
				<g>
					<ellipse class="st2" cx="639.8" cy="155" rx="0.5" ry="0.5"/>
				</g>
				<g>
					<path class="st2" d="M644.2,149.9c0-0.9-0.8-1.6-1.8-1.6c-1,0-1.7,0.7-1.7,1.6c0,0.9,0.8,1.6,1.7,1.6
						C643.4,151.5,644.2,150.8,644.2,149.9z"/>
				</g>
				<g>
					<path class="st2" d="M656.2,162.2c0-0.4-0.4-0.7-0.8-0.7c-0.4,0-0.8,0.3-0.8,0.7c0,0.4,0.4,0.7,0.8,0.7
						C655.8,162.9,656.2,162.6,656.2,162.2z"/>
				</g>
				<g>
					<ellipse class="st2" cx="658.9" cy="134" rx="0.8" ry="0.8"/>
				</g>
				<g>
					<ellipse class="st2" cx="671.4" cy="171.5" rx="1.6" ry="1.4"/>
				</g>
				<g>
					<ellipse class="st2" cx="684.8" cy="149.5" rx="1.2" ry="1.1"/>
				</g>
				<g>
					<ellipse class="st2" cx="699" cy="137.9" rx="1.8" ry="1.6"/>
				</g>
				<g>
					<path class="st2" d="M716.1,172.2c0-0.5-0.5-0.9-1-0.9c-0.6,0-1,0.4-1,0.9c0,0.5,0.5,0.9,1,0.9
						C715.7,173.1,716.1,172.7,716.1,172.2z"/>
				</g>
				<g>
					<path class="st2" d="M727.9,196.6c0-0.7-0.7-1.3-1.5-1.3c-0.8,0-1.5,0.6-1.5,1.3c0,0.7,0.7,1.3,1.5,1.3
						C727.2,198,727.9,197.4,727.9,196.6z"/>
				</g>
				<g>
					<ellipse class="st2" cx="738.4" cy="155.5" rx="1.1" ry="1"/>
				</g>
				<g>
					<ellipse class="st2" cx="747.5" cy="154.2" rx="0.5" ry="0.5"/>
				</g>
				<g>
					<ellipse class="st2" cx="754.3" cy="156.1" rx="0.6" ry="0.5"/>
				</g>
				<g>
					<ellipse class="st2" cx="768.4" cy="175.9" rx="1.3" ry="1.2"/>
				</g>
				<g>
					<ellipse class="st2" cx="777.6" cy="147.7" rx="1.8" ry="1.7"/>
				</g>
				<g>
					<ellipse class="st2" cx="792.7" cy="176.7" rx="0.7" ry="0.6"/>
				</g>
				<g>
					<ellipse class="st2" cx="800.5" cy="187" rx="1.5" ry="1.4"/>
				</g>
				<g>
					<ellipse class="st2" cx="810" cy="162" rx="0.5" ry="0.4"/>
				</g>
				<g>
					<path class="st2" d="M824.6,189.4c0-0.2-0.1-0.3-0.3-0.3c-0.2,0-0.3,0.1-0.3,0.3c0,0.2,0.1,0.3,0.3,0.3
						C824.4,189.7,824.6,189.6,824.6,189.4z"/>
				</g>
				<g>
					<ellipse class="st2" cx="826.8" cy="198.6" rx="0.5" ry="0.5"/>
				</g>
				<g>
					<ellipse class="st2" cx="838" cy="196.5" rx="0.6" ry="0.6"/>
				</g>
				<g>
					<ellipse class="st2" cx="853.9" cy="168" rx="1.7" ry="1.6"/>
				</g>
				<g>
					<ellipse class="st2" cx="871.2" cy="136.9" rx="1.1" ry="1"/>
				</g>
				<g>
					<path class="st2" d="M888.4,143c0-0.9-0.8-1.6-1.7-1.6c-1,0-1.7,0.7-1.7,1.6c0,0.9,0.8,1.6,1.7,1.6
						C887.6,144.6,888.4,143.9,888.4,143z"/>
				</g>
				<g>
					<ellipse class="st2" cx="901.7" cy="137" rx="1.4" ry="1.3"/>
				</g>
				<g>
					<ellipse class="st2" cx="903.2" cy="138.5" rx="0.7" ry="0.7"/>
				</g>
				<g>
					<ellipse class="st2" cx="900.4" cy="171.6" rx="1.1" ry="1"/>
				</g>
				<g>
					<ellipse class="st2" cx="905.2" cy="188.5" rx="1.8" ry="1.7"/>
				</g>
				<g>
					<path class="st2" d="M938.6,170c0-0.2-0.2-0.4-0.4-0.4c-0.3,0-0.5,0.2-0.5,0.4c0,0.2,0.2,0.4,0.5,0.4
						C938.4,170.4,938.6,170.2,938.6,170z"/>
				</g>
				<g>
					<ellipse class="st2" cx="943.2" cy="147.2" rx="0.6" ry="0.5"/>
				</g>
				<g>
					<ellipse class="st2" cx="949" cy="165.9" rx="1.2" ry="1.1"/>
				</g>
				<g>
					<path class="st2" d="M955.2,144.2c0-0.3-0.3-0.5-0.6-0.5c-0.3,0-0.6,0.2-0.6,0.5c0,0.3,0.3,0.5,0.6,0.5
						C954.9,144.7,955.2,144.5,955.2,144.2z"/>
				</g>
				<g>
					<ellipse class="st2" cx="966.1" cy="157.3" rx="1.8" ry="1.6"/>
				</g>
				<g>
					<ellipse class="st2" cx="975.1" cy="217.4" rx="1" ry="0.9"/>
				</g>
				<g>
					<path class="st2" d="M984.3,218.9c0-0.7-0.6-1.2-1.3-1.2c-0.7,0-1.3,0.5-1.3,1.2c0,0.7,0.6,1.2,1.3,1.2
						C983.8,220.1,984.3,219.5,984.3,218.9z"/>
				</g>
				<g>
					<ellipse class="st2" cx="999.7" cy="147.2" rx="1.6" ry="1.5"/>
				</g>
				<g>
					<ellipse class="st2" cx="1010.8" cy="199.8" rx="1" ry="0.9"/>
				</g>
				<g>
					<ellipse class="st2" cx="1023.6" cy="191.1" rx="0.6" ry="0.5"/>
				</g>
				<g>
					<ellipse class="st2" cx="1033.5" cy="208" rx="0.8" ry="0.8"/>
				</g>
				<g>
					<path class="st2" d="M1043.6,196.5c0-0.4-0.4-0.8-0.9-0.8s-0.9,0.4-0.9,0.8c0,0.4,0.4,0.8,0.9,0.8S1043.6,197,1043.6,196.5z"/>
				</g>
				<g>
					<ellipse class="st2" cx="1047.8" cy="222.3" rx="1.2" ry="1.1"/>
				</g>
				<g>
					<ellipse class="st2" cx="1059.8" cy="216.6" rx="1.1" ry="1"/>
				</g>
				<g>
					<ellipse class="st2" cx="1077.5" cy="189.1" rx="1.6" ry="1.5"/>
				</g>
				<g>
					<ellipse class="st2" cx="1089.1" cy="213.9" rx="0.3" ry="0.3"/>
				</g>
				<g>
					<ellipse class="st2" cx="1094.8" cy="171.9" rx="1.3" ry="1.1"/>
				</g>
				<g>
					<path class="st2" d="M1105.9,190.4c0-0.2-0.2-0.4-0.4-0.4c-0.2,0-0.4,0.2-0.4,0.4c0,0.2,0.2,0.4,0.4,0.4
						C1105.7,190.7,1105.9,190.6,1105.9,190.4z"/>
				</g>
				<g>
					<ellipse class="st2" cx="1124.5" cy="183.4" rx="0.7" ry="0.6"/>
				</g>
				<g>
					<ellipse class="st2" cx="1131.8" cy="177.6" rx="1.3" ry="1.2"/>
				</g>
				<g>
					<ellipse class="st2" cx="1132.8" cy="173.9" rx="0.4" ry="0.4"/>
				</g>
				<g>
					<ellipse class="st2" cx="1134.4" cy="175.1" rx="1.5" ry="1.4"/>
				</g>
				<g>
					<path class="st2" d="M1148.9,162.7c0-0.3-0.3-0.6-0.6-0.6c-0.4,0-0.6,0.3-0.6,0.6c0,0.3,0.3,0.6,0.6,0.6
						C1148.6,163.3,1148.9,163,1148.9,162.7z"/>
				</g>
				<g>
					<ellipse class="st2" cx="1160.1" cy="189.7" rx="1.4" ry="1.3"/>
				</g>
				<g>
					<ellipse class="st2" cx="1177.8" cy="188.8" rx="0.3" ry="0.3"/>
				</g>
			</g>
			<g>
				<g>
					<ellipse class="st2" cx="339.1" cy="88.6" rx="0.5" ry="0.5"/>
				</g>
				<g>
					<ellipse class="st2" cx="397.6" cy="68.5" rx="1.2" ry="1.1"/>
				</g>
				<g>
					<ellipse class="st2" cx="415.2" cy="65.9" rx="1.6" ry="1.4"/>
				</g>
				<g>
					<path class="st2" d="M416.8,65.1c0-0.6-0.5-1.1-1.2-1.1c-0.6,0-1.2,0.5-1.2,1.1c0,0.6,0.5,1.1,1.2,1.1
						C416.3,66.2,416.8,65.7,416.8,65.1z"/>
				</g>
				<g>
					<ellipse class="st2" cx="420.5" cy="47.9" rx="1.4" ry="1.3"/>
				</g>
				<g>
					<path class="st2" d="M430.6,60.1c0-0.5-0.5-1-1-1c-0.6,0-1,0.4-1,1c0,0.5,0.5,1,1,1C430.1,61,430.6,60.6,430.6,60.1z"/>
				</g>
				<g>
					<ellipse class="st2" cx="432.5" cy="49.6" rx="1.4" ry="1.2"/>
				</g>
				<g>
					<ellipse class="st2" cx="438.8" cy="23.1" rx="0.3" ry="0.2"/>
				</g>
				<g>
					<ellipse class="st2" cx="449.6" cy="50.4" rx="0.9" ry="0.8"/>
				</g>
				<g>
					<ellipse class="st2" cx="475" cy="18" rx="0.2" ry="0.2"/>
				</g>
				<g>
					<ellipse class="st2" cx="494.5" cy="33.8" rx="0.6" ry="0.5"/>
				</g>
				<g>
					<path class="st2" d="M515.4,48.1c0-0.3-0.3-0.5-0.6-0.5c-0.3,0-0.6,0.2-0.6,0.5c0,0.3,0.3,0.5,0.6,0.5
						C515.2,48.6,515.4,48.4,515.4,48.1z"/>
				</g>
				<g>
					<ellipse class="st2" cx="671.4" cy="10.6" rx="1.6" ry="1.4"/>
				</g>
				<g>
					<path class="st2" d="M716.1,11.3c0-0.5-0.5-0.9-1-0.9c-0.6,0-1,0.4-1,0.9c0,0.5,0.5,0.9,1,0.9
						C715.7,12.3,716.1,11.9,716.1,11.3z"/>
				</g>
				<g>
					<path class="st2" d="M727.9,35.8c0-0.7-0.7-1.3-1.5-1.3c-0.8,0-1.5,0.6-1.5,1.3c0,0.7,0.7,1.3,1.5,1.3
						C727.2,37.1,727.9,36.5,727.9,35.8z"/>
				</g>
				<g>
					<ellipse class="st2" cx="768.4" cy="15" rx="1.3" ry="1.2"/>
				</g>
				<g>
					<ellipse class="st2" cx="792.7" cy="15.8" rx="0.7" ry="0.6"/>
				</g>
				<g>
					<ellipse class="st2" cx="800.5" cy="26.2" rx="1.5" ry="1.4"/>
				</g>
				<g>
					<ellipse class="st2" cx="810" cy="1.2" rx="0.5" ry="0.4"/>
				</g>
				<g>
					<path class="st2" d="M824.6,28.6c0-0.2-0.1-0.3-0.3-0.3c-0.2,0-0.3,0.1-0.3,0.3c0,0.2,0.1,0.3,0.3,0.3
						C824.4,28.9,824.6,28.7,824.6,28.6z"/>
				</g>
				<g>
					<ellipse class="st2" cx="826.8" cy="37.8" rx="0.5" ry="0.5"/>
				</g>
				<g>
					<ellipse class="st2" cx="838" cy="35.7" rx="0.6" ry="0.6"/>
				</g>
				<g>
					<path class="st2" d="M856.6,7.2c0-1.4-1.2-2.5-2.8-2.5c-1.5,0-2.8,1.1-2.8,2.5c0,1.4,1.2,2.5,2.8,2.5
						C855.4,9.7,856.6,8.6,856.6,7.2z"/>
				</g>
				<g>
					<ellipse class="st2" cx="900.4" cy="10.8" rx="1.1" ry="1"/>
				</g>
				<g>
					<ellipse class="st2" cx="905.2" cy="27.7" rx="1.8" ry="1.7"/>
				</g>
				<g>
					<path class="st2" d="M1043.6,35.7c0-0.4-0.4-0.8-0.9-0.8s-0.9,0.4-0.9,0.8c0,0.4,0.4,0.8,0.9,0.8S1043.6,36.1,1043.6,35.7z"/>
				</g>
				<g>
					<ellipse class="st2" cx="1047.8" cy="61.5" rx="1.2" ry="1.1"/>
				</g>
				<g>
					<ellipse class="st2" cx="1059.8" cy="55.8" rx="1.1" ry="1"/>
				</g>
				<g>
					<ellipse class="st2" cx="1077.5" cy="28.2" rx="1.6" ry="1.5"/>
				</g>
				<g>
					<ellipse class="st2" cx="1089.1" cy="53.1" rx="0.3" ry="0.3"/>
				</g>
				<g>
					<ellipse class="st2" cx="1094.8" cy="11" rx="1.3" ry="1.1"/>
				</g>
				<g>
					<path class="st2" d="M1105.9,29.5c0-0.2-0.2-0.4-0.4-0.4c-0.2,0-0.4,0.2-0.4,0.4c0,0.2,0.2,0.4,0.4,0.4
						C1105.7,29.9,1105.9,29.7,1105.9,29.5z"/>
				</g>
				<g>
					<ellipse class="st2" cx="1124.5" cy="22.6" rx="0.7" ry="0.6"/>
				</g>
				<g>
					<ellipse class="st2" cx="1131.8" cy="16.8" rx="1.3" ry="1.2"/>
				</g>
				<g>
					<ellipse class="st2" cx="1132.8" cy="13" rx="0.4" ry="0.4"/>
				</g>
				<g>
					<path class="st2" d="M1148.9,1.9c0-0.3-0.3-0.6-0.6-0.6c-0.4,0-0.6,0.3-0.6,0.6c0,0.3,0.3,0.6,0.6,0.6
						C1148.6,2.5,1148.9,2.2,1148.9,1.9z"/>
				</g>
			</g>
			<path class="st2" d="M853.9,4.7c-1.5,0-2.8,1.1-2.8,2.5c0,1.4,1.2,2.5,2.8,2.5"/>
			<g>
				<path class="st2" d="M856.6,7.2c0-1.4-1.2-2.5-2.8-2.5c-1.5,0-2.8,1.1-2.8,2.5c0,1.4,1.2,2.5,2.8,2.5
					C855.4,9.7,856.6,8.6,856.6,7.2z"/>
			</g>
			<path class="st2" d="M853.5,5.3c-1.1,0-2.1,0.8-2.1,1.9c0,1,0.9,1.9,2.1,1.9"/>
			<path class="st2" d="M480.5,134c-1.5,0-2.8,1.1-2.8,2.5c0,1.4,1.2,2.5,2.8,2.5"/>
			<path class="st2" d="M1039.5,161.3c-1.5,0-2.8,1.1-2.8,2.5c0,1.4,1.2,2.5,2.8,2.5"/>
			<path class="st2" d="M1053.7,290c-1.5,0-2.8,1.1-2.8,2.5c0,1.4,1.2,2.5,2.8,2.5"/>
			<path class="st2" d="M955.4,353.5c-1.5,0-2.8,1.1-2.8,2.5c0,1.4,1.2,2.5,2.8,2.5"/>
			<path class="st2" d="M686.1,333.5c-1.5,0-2.8,1.1-2.8,2.5c0,1.4,1.2,2.5,2.8,2.5"/>
			<path class="st2" d="M435.2,323.5c-1.5,0-2.8,1.1-2.8,2.5c0,1.4,1.2,2.5,2.8,2.5"/>
			<path class="st2" d="M346.7,313.2c-1.5,0-2.8,1.1-2.8,2.5c0,1.4,1.2,2.5,2.8,2.5"/>
			<path class="st2" d="M1034.9,407.9c-1.5,0-2.8,1.1-2.8,2.5c0,1.4,1.2,2.5,2.8,2.5"/>
			<path class="st2" d="M827.6,451"/>
			<path class="st2" d="M1156.3,225c-1.5,0-2.8,1.1-2.8,2.5c0,1.4,1.2,2.5,2.8,2.5"/>
		</g>
	</g>
	<path class="st2" d="M1192.3,214.9c0-0.4,0.4-0.8,0.8-0.8c0.5,0,0.8,0.3,0.8,0.8c0,0.4-0.4,0.8-0.8,0.8
		C1192.7,215.7,1192.3,215.3,1192.3,214.9"/>
	<g>
		<ellipse class="st2" cx="1426.2" cy="63.7" rx="0.3" ry="0.2"/>
	</g>
	<g>
		<ellipse class="st2" cx="1241.1" cy="84.4" rx="1" ry="0.9"/>
	</g>
	<g>
		<ellipse class="st2" cx="1243.7" cy="46" rx="1.3" ry="1.2"/>
	</g>
	<g>
		<path class="st2" d="M1229.1,78.3c0-0.7,0.6-1.2,1.3-1.2c0.7,0,1.3,0.6,1.3,1.2c0,0.7-0.6,1.2-1.3,1.2
			C1229.7,79.5,1229.1,78.9,1229.1,78.3z"/>
	</g>
	<g>
		<path class="st2" d="M1220,26.6c0-0.8,0.7-1.5,1.7-1.5c0.9,0,1.7,0.7,1.7,1.5c0,0.8-0.7,1.5-1.7,1.5
			C1220.7,28.2,1220,27.5,1220,26.6z"/>
	</g>
	<g>
		<ellipse class="st2" cx="1202.8" cy="41.3" rx="0.5" ry="0.5"/>
	</g>
	<g>
		<path class="st2" d="M1198.4,36.2c0-0.9,0.8-1.6,1.8-1.6c1,0,1.7,0.7,1.7,1.6c0,0.9-0.8,1.6-1.7,1.6
			C1199.2,37.8,1198.4,37.1,1198.4,36.2z"/>
	</g>
	<g>
		<path class="st2" d="M1186.4,48.5c0-0.4,0.4-0.7,0.8-0.7c0.4,0,0.8,0.3,0.8,0.7c0,0.4-0.4,0.7-0.8,0.7
			C1186.7,49.2,1186.4,48.9,1186.4,48.5z"/>
	</g>
	<path class="st2" d="M1182.8,20.3c0-0.4,0.4-0.8,0.8-0.8c0.5,0,0.8,0.3,0.8,0.8c0,0.4-0.4,0.8-0.8,0.8
		C1183.1,21.1,1182.8,20.7,1182.8,20.3"/>
	<g>
		<ellipse class="st2" cx="1243.7" cy="134.4" rx="1.3" ry="1.2"/>
	</g>
	<g>
		<path class="st2" d="M1229.1,166.6c0-0.7,0.6-1.2,1.3-1.2c0.7,0,1.3,0.6,1.3,1.2c0,0.7-0.6,1.2-1.3,1.2
			C1229.7,167.8,1229.1,167.3,1229.1,166.6z"/>
	</g>
	<g>
		<path class="st2" d="M1220,115c0-0.8,0.7-1.5,1.7-1.5c0.9,0,1.7,0.7,1.7,1.5c0,0.8-0.7,1.5-1.7,1.5
			C1220.7,116.5,1220,115.8,1220,115z"/>
	</g>
	<g>
		<path class="st2" d="M1198.4,124.5c0-0.9,0.8-1.6,1.8-1.6c1,0,1.7,0.7,1.7,1.6c0,0.9-0.8,1.6-1.7,1.6
			C1199.2,126.1,1198.4,125.4,1198.4,124.5z"/>
	</g>
	<path class="st2" d="M1182.8,108.6c0-0.4,0.4-0.8,0.8-0.8c0.5,0,0.8,0.3,0.8,0.8c0,0.4-0.4,0.8-0.8,0.8
		C1183.1,109.4,1182.8,109.1,1182.8,108.6"/>
	<g>
		<ellipse class="st2" cx="1241.1" cy="11.9" rx="1" ry="0.9"/>
	</g>
	<g>
		<path class="st2" d="M1229.1,5.8c0-0.7,0.6-1.2,1.3-1.2c0.7,0,1.3,0.6,1.3,1.2c0,0.7-0.6,1.2-1.3,1.2
			C1229.7,7,1229.1,6.4,1229.1,5.8z"/>
	</g>
	<g>
		<ellipse class="st2" cx="310.5" cy="514.2" rx="0.5" ry="0.5"/>
	</g>
	<g>
		<ellipse class="st2" cx="309.6" cy="474.3" rx="1.5" ry="1.4"/>
	</g>
	<g>
		<path class="st2" d="M315.3,446.7c0-0.6,0.6-1.2,1.3-1.2c0.7,0,1.3,0.5,1.3,1.2c0,0.6-0.6,1.2-1.3,1.2
			C315.8,447.9,315.3,447.4,315.3,446.7z"/>
	</g>
	<g>
		<ellipse class="st2" cx="301.2" cy="468.2" rx="0.8" ry="0.7"/>
	</g>
	<g>
		<ellipse class="st2" cx="298.9" cy="453.5" rx="0.6" ry="0.5"/>
	</g>
	<g>
		<path class="st2" d="M288.5,443.7c0-0.4,0.3-0.7,0.7-0.7c0.4,0,0.7,0.3,0.7,0.7c0,0.4-0.3,0.7-0.7,0.7
			C288.8,444.4,288.5,444.1,288.5,443.7z"/>
	</g>
	<g>
		<ellipse class="st2" cx="268.5" cy="456.3" rx="1.6" ry="1.4"/>
	</g>
	<g>
		<ellipse class="st2" cx="252.1" cy="494.1" rx="1.2" ry="1.1"/>
	</g>
	<g>
		<ellipse class="st2" cx="234.4" cy="491.5" rx="1.6" ry="1.4"/>
	</g>
	<g>
		<path class="st2" d="M232.8,490.7c0-0.6,0.5-1.1,1.2-1.1c0.6,0,1.2,0.5,1.2,1.1s-0.5,1.1-1.2,1.1
			C233.3,491.8,232.8,491.3,232.8,490.7z"/>
	</g>
	<g>
		<ellipse class="st2" cx="229.1" cy="473.5" rx="1.4" ry="1.3"/>
	</g>
	<g>
		<ellipse class="st2" cx="242.3" cy="426.1" rx="0.7" ry="0.7"/>
	</g>
	<g>
		<path class="st2" d="M219,485.7c0-0.5,0.5-1,1-1c0.6,0,1,0.4,1,1c0,0.5-0.5,1-1,1C219.5,486.6,219,486.2,219,485.7z"/>
	</g>
	<g>
		<ellipse class="st2" cx="233.3" cy="442.2" rx="0.3" ry="0.2"/>
	</g>
	<g>
		<ellipse class="st2" cx="217.2" cy="475.2" rx="1.4" ry="1.2"/>
	</g>
	<g>
		<ellipse class="st2" cx="210.8" cy="448.7" rx="0.3" ry="0.2"/>
	</g>
	<g>
		<ellipse class="st2" cx="200" cy="476" rx="0.9" ry="0.8"/>
	</g>
	<g>
		<ellipse class="st2" cx="200.6" cy="425.6" rx="1.6" ry="1.5"/>
	</g>
	<g>
		<ellipse class="st2" cx="199.1" cy="419.5" rx="1.4" ry="1.3"/>
	</g>
	<g>
		<ellipse class="st2" cx="174.6" cy="443.6" rx="0.2" ry="0.2"/>
	</g>
	<g>
		<path class="st2" d="M310,586.4c0-0.3,0.2,0,0.5,0c0.3,0,0.5-0.3,0.5,0c0,0.3-0.2,0-0.5,0C310.2,586.4,310,586.7,310,586.4z"/>
	</g>
	<g>
		<ellipse class="st2" cx="309.6" cy="562.7" rx="1.5" ry="1.4"/>
	</g>
	<g>
		<path class="st2" d="M315.3,535c0-0.6,0.6-1.2,1.3-1.2c0.7,0,1.3,0.5,1.3,1.2c0,0.6-0.6,1.2-1.3,1.2
			C315.8,536.2,315.3,535.7,315.3,535z"/>
	</g>
	<g>
		<ellipse class="st2" cx="301.2" cy="556.5" rx="0.8" ry="0.7"/>
	</g>
	<g>
		<ellipse class="st2" cx="298.9" cy="541.8" rx="0.6" ry="0.5"/>
	</g>
	<g>
		<path class="st2" d="M288.5,532.1c0-0.4,0.3-0.7,0.7-0.7c0.4,0,0.7,0.3,0.7,0.7s-0.3,0.7-0.7,0.7
			C288.8,532.7,288.5,532.4,288.5,532.1z"/>
	</g>
	<g>
		<ellipse class="st2" cx="268.5" cy="544.6" rx="1.6" ry="1.4"/>
	</g>
	<g>
		<ellipse class="st2" cx="242.3" cy="514.4" rx="0.7" ry="0.7"/>
	</g>
	<g>
		<ellipse class="st2" cx="233.3" cy="530.5" rx="0.3" ry="0.2"/>
	</g>
	<g>
		<ellipse class="st2" cx="310.5" cy="441.7" rx="0.5" ry="0.5"/>
	</g>
	<g>
		<ellipse class="st2" cx="309.6" cy="401.8" rx="1.5" ry="1.4"/>
	</g>
	<g>
		<ellipse class="st2" cx="301.2" cy="395.7" rx="0.8" ry="0.7"/>
	</g>
	<g>
		<ellipse class="st2" cx="298.9" cy="381" rx="0.6" ry="0.5"/>
	</g>
	<g>
		<ellipse class="st2" cx="268.5" cy="383.8" rx="1.6" ry="1.4"/>
	</g>
	<g>
		<ellipse class="st2" cx="252.1" cy="421.6" rx="1.2" ry="1.1"/>
	</g>
	<g>
		<ellipse class="st2" cx="234.4" cy="419" rx="1.6" ry="1.4"/>
	</g>
	<g>
		<path class="st2" d="M232.8,418.2c0-0.6,0.5-1.1,1.2-1.1c0.6,0,1.2,0.5,1.2,1.1c0,0.6-0.5,1.1-1.2,1.1
			C233.3,419.3,232.8,418.8,232.8,418.2z"/>
	</g>
	<g>
		<ellipse class="st2" cx="229.1" cy="401" rx="1.4" ry="1.3"/>
	</g>
	<g>
		<path class="st2" d="M219,413.2c0-0.5,0.5-1,1-1c0.6,0,1,0.4,1,1c0,0.5-0.5,1-1,1C219.5,414.1,219,413.7,219,413.2z"/>
	</g>
	<g>
		<ellipse class="st2" cx="217.2" cy="402.7" rx="1.4" ry="1.2"/>
	</g>
	<g>
		<ellipse class="st2" cx="200" cy="403.5" rx="0.9" ry="0.8"/>
	</g>
	<path class="st2" d="M166.1,420.1c-1.5,0-2.8,1.1-2.8,2.5c0,1.4,1.2,2.5,2.8,2.5"/>
	<g>
		<ellipse class="st2" cx="311.2" cy="310.6" rx="0.5" ry="0.5"/>
	</g>
	<g>
		<ellipse class="st2" cx="310.3" cy="270.7" rx="1.5" ry="1.4"/>
	</g>
	<g>
		<path class="st2" d="M316,243.1c0-0.6,0.6-1.2,1.3-1.2c0.7,0,1.3,0.5,1.3,1.2c0,0.6-0.6,1.2-1.3,1.2
			C316.5,244.2,316,243.7,316,243.1z"/>
	</g>
	<g>
		<ellipse class="st2" cx="301.9" cy="264.5" rx="0.8" ry="0.7"/>
	</g>
	<g>
		<ellipse class="st2" cx="299.6" cy="249.9" rx="0.6" ry="0.5"/>
	</g>
	<g>
		<path class="st2" d="M289.2,240.1c0-0.4,0.3-0.7,0.7-0.7c0.4,0,0.7,0.3,0.7,0.7c0,0.4-0.3,0.7-0.7,0.7
			C289.5,240.7,289.2,240.5,289.2,240.1z"/>
	</g>
	<g>
		<ellipse class="st2" cx="269.2" cy="252.6" rx="1.6" ry="1.4"/>
	</g>
	<g>
		<ellipse class="st2" cx="252.8" cy="290.4" rx="1.2" ry="1.1"/>
	</g>
	<g>
		<ellipse class="st2" cx="235.1" cy="287.8" rx="1.6" ry="1.4"/>
	</g>
	<g>
		<path class="st2" d="M233.5,287.1c0-0.6,0.5-1.1,1.2-1.1c0.6,0,1.2,0.5,1.2,1.1c0,0.6-0.5,1.1-1.2,1.1
			C234,288.1,233.5,287.6,233.5,287.1z"/>
	</g>
	<g>
		<ellipse class="st2" cx="229.8" cy="269.8" rx="1.4" ry="1.3"/>
	</g>
	<g>
		<ellipse class="st2" cx="243" cy="222.5" rx="0.7" ry="0.7"/>
	</g>
	<g>
		<path class="st2" d="M219.7,282c0-0.5,0.5-1,1-1c0.6,0,1,0.4,1,1c0,0.5-0.5,1-1,1C220.2,283,219.7,282.6,219.7,282z"/>
	</g>
	<g>
		<ellipse class="st2" cx="234" cy="238.5" rx="0.3" ry="0.2"/>
	</g>
	<g>
		<ellipse class="st2" cx="217.9" cy="271.6" rx="1.4" ry="1.2"/>
	</g>
	<g>
		<path class="st2" d="M310.7,382.8c0-0.3,0.2,0,0.5,0c0.3,0,0.5-0.3,0.5,0c0,0.3-0.2,0-0.5,0C310.9,382.8,310.7,383,310.7,382.8z"
			/>
	</g>
	<g>
		<ellipse class="st2" cx="310.3" cy="359" rx="1.5" ry="1.4"/>
	</g>
	<g>
		<path class="st2" d="M316,331.4c0-0.6,0.6-1.2,1.3-1.2c0.7,0,1.3,0.5,1.3,1.2c0,0.6-0.6,1.2-1.3,1.2
			C316.5,332.6,316,332,316,331.4z"/>
	</g>
	<g>
		<ellipse class="st2" cx="301.9" cy="352.9" rx="0.8" ry="0.7"/>
	</g>
	<g>
		<ellipse class="st2" cx="299.6" cy="338.2" rx="0.6" ry="0.5"/>
	</g>
	<g>
		<path class="st2" d="M289.2,328.4c0-0.4,0.3-0.7,0.7-0.7c0.4,0,0.7,0.3,0.7,0.7s-0.3,0.7-0.7,0.7
			C289.5,329.1,289.2,328.8,289.2,328.4z"/>
	</g>
	<g>
		<ellipse class="st2" cx="269.2" cy="340.9" rx="1.6" ry="1.4"/>
	</g>
	<g>
		<path class="st2" d="M251.6,382.8c0-0.6,0.5,0,1.2,0c0.7,0,1.2-0.6,1.2,0c0,0.6-0.5,0-1.2,0C252.1,382.8,251.6,383.3,251.6,382.8z
			"/>
	</g>
	<g>
		<ellipse class="st2" cx="229.8" cy="358.2" rx="1.4" ry="1.3"/>
	</g>
	<g>
		<ellipse class="st2" cx="243" cy="310.8" rx="0.7" ry="0.7"/>
	</g>
	<g>
		<path class="st2" d="M219.7,370.4c0-0.5,0.5-1,1-1c0.6,0,1,0.4,1,1c0,0.5-0.5,1-1,1C220.2,371.3,219.7,370.9,219.7,370.4z"/>
	</g>
	<g>
		<ellipse class="st2" cx="234" cy="326.9" rx="0.3" ry="0.2"/>
	</g>
	<g>
		<ellipse class="st2" cx="217.9" cy="359.9" rx="1.4" ry="1.2"/>
	</g>
	<g>
		<ellipse class="st2" cx="200.7" cy="360.7" rx="0.9" ry="0.8"/>
	</g>
	<g>
		<ellipse class="st2" cx="311.2" cy="238.1" rx="0.5" ry="0.5"/>
	</g>
	<g>
		<ellipse class="st2" cx="310.3" cy="198.2" rx="1.5" ry="1.4"/>
	</g>
	<g>
		<ellipse class="st2" cx="301.9" cy="192" rx="0.8" ry="0.7"/>
	</g>
	<g>
		<ellipse class="st2" cx="299.6" cy="177.4" rx="0.6" ry="0.5"/>
	</g>
	<g>
		<ellipse class="st2" cx="269.2" cy="180.1" rx="1.6" ry="1.4"/>
	</g>
	<g>
		<ellipse class="st2" cx="252.8" cy="217.9" rx="1.2" ry="1.1"/>
	</g>
	<g>
		<path class="st2" d="M310.7,173.4c0-0.3,0.2,0,0.5,0c0.3,0,0.5-0.3,0.5,0c0,0.3-0.2,0-0.5,0C310.9,173.4,310.7,173.7,310.7,173.4z
			"/>
	</g>
	<g>
		<ellipse class="st2" cx="310.3" cy="149.7" rx="1.5" ry="1.4"/>
	</g>
	<g>
		<path class="st2" d="M316,122.1c0-0.6,0.6-1.2,1.3-1.2c0.7,0,1.3,0.5,1.3,1.2c0,0.6-0.6,1.2-1.3,1.2
			C316.5,123.2,316,122.7,316,122.1z"/>
	</g>
	<g>
		<ellipse class="st2" cx="301.9" cy="143.5" rx="0.8" ry="0.7"/>
	</g>
	<g>
		<ellipse class="st2" cx="299.6" cy="128.9" rx="0.6" ry="0.5"/>
	</g>
	<g>
		<path class="st2" d="M1332.8,146c0-0.5,0.4-0.9,1-0.9c0.5,0,1,0.4,1,0.9c0,0.5-0.4,0.9-1,0.9
			C1333.2,146.9,1332.8,146.5,1332.8,146z"/>
	</g>
	<g>
		<ellipse class="st2" cx="270.7" cy="52" rx="1.5" ry="1.3"/>
	</g>
	<g>
		<path class="st2" d="M108.4,141c0-0.5,0.5-0.9,1-0.9s1,0.4,1,0.9c0,0.5-0.5,1-1,1S108.4,141.5,108.4,141z"/>
	</g>
	<g>
		<path class="st2" d="M81.5,551.3c0-0.6,0.6-1.2,1.3-1.2c0.7,0,1.3,0.5,1.3,1.2c0,0.6-0.6,1.2-1.3,1.2
			C82.1,552.5,81.5,552,81.5,551.3z"/>
	</g>
	<g>
		<ellipse class="st2" cx="70.6" cy="-371.3" rx="2.8" ry="2.6"/>
	</g>
	<g>
		<ellipse class="st2" cx="9.4" cy="-308.1" rx="2.8" ry="2.6"/>
	</g>
	<g>
		<path class="st2" d="M6.6-309.5c0-1.1,0.9-1.9,2.1-1.9c1.2,0,2.1,0.9,2.1,1.9s-0.9,1.9-2.1,1.9C7.6-307.5,6.6-308.4,6.6-309.5z"/>
	</g>
	<g>
		<path class="st2" d="M-2.5-340.4c0-1.3,1.1-2.3,2.5-2.3c1.4,0,2.5,1,2.5,2.3c0,1.3-1.1,2.3-2.5,2.3
			C-1.4-338.1-2.5-339.1-2.5-340.4z"/>
	</g>
	<g>
		<path class="st2" d="M22.4-425.4c0-0.7,0.6-1.2,1.3-1.2c0.7,0,1.3,0.5,1.3,1.2c0,0.7-0.6,1.2-1.3,1.2
			C23-424.2,22.4-424.8,22.4-425.4z"/>
	</g>
	<g>
		<path class="st2" d="M-18.1-318.5c0-0.9,0.8-1.7,1.9-1.7c1,0,1.9,0.8,1.9,1.7c0,1-0.8,1.7-1.9,1.7
			C-17.3-316.8-18.1-317.5-18.1-318.5z"/>
	</g>
	<g>
		<path class="st2" d="M83.6,329.6c0-0.2,0.2-0.4,0.5-0.4s0.5,0.2,0.5,0.4c0,0.3-0.2,0.4-0.5,0.4S83.6,329.9,83.6,329.6z"/>
	</g>
	<g>
		<ellipse class="st2" cx="-21.5" cy="-337.3" rx="2.4" ry="2.2"/>
	</g>
	<g>
		<ellipse class="st2" cx="54.8" cy="26.2" rx="0.5" ry="0.4"/>
	</g>
	<g>
		<ellipse class="st2" cx="-52.3" cy="-335.8" rx="1.6" ry="1.5"/>
	</g>
	<g>
		<path class="st2" d="M-54.1-426.3c0-1.4,1.3-2.6,2.9-2.6c1.6,0,2.9,1.2,2.9,2.6c0,1.5-1.3,2.6-2.9,2.6
			C-52.8-423.7-54.1-424.8-54.1-426.3z"/>
	</g>
	<g>
		<path class="st2" d="M-56.3-437.3c0-1.2,1.1-2.2,2.5-2.2c1.4,0,2.5,1,2.5,2.2c0,1.2-1.1,2.2-2.5,2.2
			C-55.2-435-56.3-436-56.3-437.3z"/>
	</g>
	<g>
		<path class="st2" d="M1284.3,404.4c0-0.2,0.2-0.4,0.4-0.4c0.2,0,0.4,0.2,0.4,0.4c0,0.2-0.2,0.4-0.4,0.4
			C1284.5,404.8,1284.3,404.6,1284.3,404.4z"/>
	</g>
	<g>
		<path class="st2" d="M42.2,245.9c0-0.5,0.5-0.9,1-0.9c0.6,0,1,0.4,1,0.9c0,0.5-0.5,0.9-1,0.9C42.7,246.9,42.2,246.4,42.2,245.9z"
			/>
	</g>
	<g>
		<path class="st2" d="M210.1,115.9c0-0.5,0.4,0,1,0c0.5,0,1-0.5,1,0c0,0.5-0.4,0-1,0C210.6,115.9,210.1,116.4,210.1,115.9z"/>
	</g>
	<g>
		<ellipse class="st2" cx="1060.9" cy="516.9" rx="1.5" ry="1.3"/>
	</g>
	<g>
		<path class="st2" d="M1364.7,308.3c0-0.5,0.5-0.9,1-0.9s1,0.4,1,0.9c0,0.5-0.5,1-1,1S1364.7,308.8,1364.7,308.3z"/>
	</g>
	<g>
		<path class="st2" d="M1176.2,481.2c0-0.6,0.6-1.2,1.3-1.2c0.7,0,1.3,0.5,1.3,1.2c0,0.6-0.6,1.2-1.3,1.2
			C1176.8,482.4,1176.2,481.8,1176.2,481.2z"/>
	</g>
	<g>
		<path class="st2" d="M152.5,223.5c0-1.1,0.9,0,2.1,0c1.2,0,2.1-1.1,2.1,0c0,1.1-0.9,0-2.1,0C153.5,223.5,152.5,224.6,152.5,223.5z
			"/>
	</g>
	<g>
		<path class="st2" d="M1315.5,526.5c0-0.7,0.6-1.2,1.3-1.2s1.3,0.5,1.3,1.2c0,0.7-0.6,1.2-1.3,1.2S1315.5,527.2,1315.5,526.5z"/>
	</g>
	<g>
		<path class="st2" d="M1269.8,268.1c0-0.2,0.2-0.4,0.5-0.4c0.3,0,0.5,0.2,0.5,0.4c0,0.3-0.2,0.4-0.5,0.4
			C1270,268.5,1269.8,268.3,1269.8,268.1z"/>
	</g>
	<g>
		<path class="st2" d="M1281.9,23.4c0-1.2,1.1-2.2,2.4-2.2c1.3,0,2.4,1,2.4,2.2c0,1.2-1.1,2.2-2.4,2.2
			C1283,25.6,1281.9,24.6,1281.9,23.4z"/>
	</g>
	<g>
		<ellipse class="st2" cx="-52.3" cy="-177.2" rx="1.6" ry="1.5"/>
	</g>
	<g>
		<path class="st2" d="M1222.2,331.4c0-0.5,0.5-0.9,1-0.9c0.6,0,1,0.4,1,0.9c0,0.5-0.5,0.9-1,0.9
			C1222.7,332.3,1222.2,331.9,1222.2,331.4z"/>
	</g>
	<g>
		<path class="st2" d="M1365.7,443.9c0-0.5,0.5-1,1-1c0.6,0,1,0.4,1,1c0,0.5-0.5,1-1,1C1366.2,444.9,1365.7,444.4,1365.7,443.9z"/>
	</g>
	<g>
		<path class="st2" d="M-168.5-262.5c0-1.3,1.2-2.4,2.6-2.4c1.4,0,2.6,1.1,2.6,2.4c0,1.3-1.1,2.3-2.6,2.3
			C-167.4-260.1-168.5-261.2-168.5-262.5z"/>
	</g>
	<g>
		<path class="st2" d="M-205.8-204.4c0-1.1,1-2,2.1-2c1.2,0,2.1,0.9,2.1,2c0,1.1-1,2-2.1,2C-204.8-202.4-205.8-203.3-205.8-204.4z"
			/>
	</g>
	<g>
		<path class="st2" d="M-211.2-269.5c0-1.4,1.3-2.6,2.8-2.6c1.6,0,2.8,1.2,2.8,2.6c0,1.4-1.3,2.6-2.8,2.6
			C-210-266.9-211.2-268.1-211.2-269.5z"/>
	</g>
	<g>
		<path class="st2" d="M1348.2,232c0-0.7,0.6-1.2,1.3-1.2c0.7,0,1.3,0.5,1.3,1.2s-0.6,1.2-1.3,1.2
			C1348.8,233.2,1348.2,232.7,1348.2,232z"/>
	</g>
	<g>
		<ellipse class="st2" cx="-263.9" cy="-204.2" rx="0.7" ry="0.7"/>
	</g>
	<g>
		<ellipse class="st2" cx="-274.7" cy="-198" rx="2.2" ry="2.1"/>
	</g>
	<g>
		<path class="st2" d="M-326.7-200.8c0-0.9,0.8-1.7,1.8-1.7c1,0,1.8,0.8,1.8,1.7s-0.8,1.7-1.8,1.7
			C-325.9-199.2-326.7-199.9-326.7-200.8z"/>
	</g>
	<g>
		<path class="st2" d="M-322.6-269.7c0-1.2,1.1-2.2,2.4-2.2c1.3,0,2.4,1,2.4,2.2c0,1.2-1.1,2.2-2.4,2.2
			C-321.6-267.5-322.6-268.5-322.6-269.7z"/>
	</g>
	<g>
		<path class="st2" d="M172.4,518.9c0-1.2,1.1-2.2,2.4-2.2c1.3,0,2.4,1,2.4,2.2c0,1.2-1.1,2.2-2.4,2.2
			C173.5,521.2,172.4,520.2,172.4,518.9z"/>
	</g>
	<g>
		<path class="st2" d="M-362.8-304.5c0-1.5,1.3-2.7,3-2.7c1.6,0,3,1.2,3,2.7c0,1.5-1.3,2.7-3,2.7
			C-361.5-301.8-362.8-303-362.8-304.5z"/>
	</g>
	<g>
		<path class="st2" d="M-401.6-287.4c0-1.6,1.4-2.9,3.1-2.9c1.7,0,3.1,1.3,3.1,2.9c0,1.6-1.4,2.9-3.1,2.9
			C-400.2-284.5-401.6-285.8-401.6-287.4z"/>
	</g>
	<g>
		<path class="st2" d="M40.9,488c0-0.5,0.4-0.9,1-0.9c0.5,0,1,0.4,1,0.9c0,0.5-0.4,0.9-1,0.9C41.3,488.9,40.9,488.5,40.9,488z"/>
	</g>
	<g>
		<path class="st2" d="M141.7-469c0-1.4,1.2-2.5,2.7-2.5c1.5,0,2.7,1.1,2.7,2.5c0,1.4-1.2,2.5-2.7,2.5
			C142.9-466.5,141.7-467.6,141.7-469z"/>
	</g>
	<g>
		<ellipse class="st2" cx="1161.5" cy="386.5" rx="1.5" ry="1.3"/>
	</g>
	<g>
		<path class="st2" d="M162.3,49.6c0-0.5,0.5-0.9,1-0.9s1,0.4,1,0.9c0,0.5-0.5,1-1,1S162.3,50.1,162.3,49.6z"/>
	</g>
	<g>
		<ellipse class="st2" cx="70.6" cy="-501.5" rx="2.8" ry="2.6"/>
	</g>
	<g>
		<path class="st2" d="M39-433.6c0-1.1,0.9-1.9,2.1-1.9c1.2,0,2.1,0.9,2.1,1.9c0,1.1-0.9,1.9-2.1,1.9C40-431.6,39-432.5,39-433.6z"
			/>
	</g>
	<g>
		<ellipse class="st2" cx="9.4" cy="-438.3" rx="2.8" ry="2.6"/>
	</g>
	<g>
		<path class="st2" d="M6.6-439.6c0-1.1,0.9-1.9,2.1-1.9c1.2,0,2.1,0.9,2.1,1.9s-0.9,1.9-2.1,1.9C7.6-437.7,6.6-438.6,6.6-439.6z"/>
	</g>
	<g>
		<path class="st2" d="M-2.5-470.5c0-1.3,1.1-2.3,2.5-2.3c1.4,0,2.5,1,2.5,2.3c0,1.3-1.1,2.3-2.5,2.3
			C-1.4-468.2-2.5-469.3-2.5-470.5z"/>
	</g>
	<g>
		<path class="st2" d="M-18.1-448.7c0-0.9,0.8-1.7,1.9-1.7c1,0,1.9,0.8,1.9,1.7c0,1-0.8,1.7-1.9,1.7
			C-17.3-446.9-18.1-447.7-18.1-448.7z"/>
	</g>
	<g>
		<path class="st2" d="M-23.9-467.5c0-1.2,1.1-2.2,2.4-2.2c1.3,0,2.4,1,2.4,2.2c0,1.2-1.1,2.2-2.4,2.2
			C-22.8-465.2-23.9-466.2-23.9-467.5z"/>
	</g>
	<g>
		<ellipse class="st2" cx="-52.3" cy="-466" rx="1.6" ry="1.5"/>
	</g>
	<g>
		<path class="st2" d="M1387.7,29.9c0-0.5,0.5-1,1-1c0.6,0,1,0.4,1,1c0,0.5-0.5,1-1,1C1388.2,30.9,1387.7,30.4,1387.7,29.9z"/>
	</g>
</g>
<g id="Objects">
	<g>
		<g>
			<g>
				<path class="st3" d="M395.7,322.8C395.7,322.9,395.7,322.9,395.7,322.8c0.3,5.5,1.8,11.5,4.8,18c-3.9,0.3-7.9,1.8-11.2,4.7
					c-7.5,6.6-8.6,17.5-2.6,24.4c1.4,1.6,3,2.8,4.8,3.6c-11.9,14.5-12.2,35.4,0.2,49.6c12.1,13.8,23.6,12.5,34.2,13.4
					c0,0-11.7,6.7-11.8,18.1c-0.1,11.5,9.1,20.8,20.5,20.9c0.7,0,1.4,0,2.1-0.1c0,0,0,0.1,0,0.1c-0.1,8.6,3.4,16.3,9,21.9
					c-4.5,3-7.6,8.1-7.6,14c-0.1,9.3,7.4,16.9,16.7,17c9.3,0,17-7.5,17.1-16.8c0-2-0.3-3.9-0.9-5.7c0.9-0.1,1.8-0.3,2.7-0.5
					c0.6,2.5,1.8,5,3.7,7c2.2,2.5,5,4.2,7.9,5c0.3,0.4,0.6,0.7,0.9,1.1c15.4,17.6,43.4,18.2,62.4,1.5c0.3-0.3,0.6-0.5,0.9-0.8
					c1.3,6.5,4.2,12.6,8.8,17.9c14.7,16.8,41,17.8,59.7,2.8c3,7.1,9,12.9,17,15.4c11.6,3.6,23.8-0.8,30.5-10.1
					c2.2-1.1,4.3-2.5,6.3-4.1c15.1-12.4,17.2-34.7,4.8-49.7c-2.4-2.9-5.1-5.3-8.1-7.2c8-11,11.8-25.1,9.2-39.6
					c-5-28.1-31.9-46.8-60-41.8c-1.7,0.3-3.4,0.7-5,1.1c1-9.4-1.9-19.2-8.9-26.7c-5.6-6-12.8-9.6-20.4-10.6
					c-2.4-6.3-6.6-12-12.5-16.3c-9.5-6.9-21.2-8.4-31.7-5.2c0.3-1.2,0.7-2.5,0.9-3.8c6.6-31.3-13.4-62.1-44.7-68.7
					c-18.3-3.9-36.4,1.4-49.7,12.6c-5.3-2.1-11.2-3.1-17.3-2.5C408.4,284.8,393.7,302.7,395.7,322.8z"/>
				<path class="st2" d="M662.2,454.8c-3-22.6-23.8-38.4-46.4-35.4c-6.5,0.9-12.5,3.3-17.6,6.7c-5.2-12.3-16.9-21.4-31.2-22.4
					c-3.7-0.3-7.3,0-10.7,0.8c-1.2-4.2-3.2-8.2-6-11.8c-9.8-12.7-26.6-16.8-40.8-11.1c1-14.5-7.3-28.5-21.5-34.3
					c-14.4-5.9-30.6-1.3-39.9,10.2l-8.3-4.9c0,0-16.1-0.2-25.3,23.4c-10.9,27.9,2.5,35.5,15.3,42c-5.3,0.3-8.5,2.3-10.4,4.9
					c-6.7,9.1-2.8,19.9,3.5,22.8c3.3,1.5,6.5,1.6,6.5,1.6c-1.5,3.5-2.1,7.3-1.2,11.2c1.1,5,4.1,9.3,7.8,12.7
					c7,6.2,17.6,10.4,26.8,7.4l4.2-3c-0.5,9.6,3.8,18.8,12.1,23.7c10.3,6.1,23.4,3.7,32-4.9c1.4,2.5,3.4,4.6,5.9,6.1
					c7.6,4.5,17.6,2.1,23.2-5.4c1.7,0.7,3.5,1.3,5.3,2c2.1,7.1,6.7,13.3,13.3,17.3c14.9,8.8,34.6,3,44.2-13c0.4-0.7,0.8-1.5,1.2-2.3
					c2.1,3.2,4.9,5.9,8.3,7.9c13,7.7,30.2,2.6,38.5-11.3c2.3-3.9,3.7-8,4.2-12.1C660.9,475.6,663.6,465.4,662.2,454.8z"/>
				<path class="st3" d="M524.3,180.3c-7.3-3-15.6,0.4-18.6,7.7c-0.3,0.7-0.5,1.4-0.7,2.1c-6.2-1.7-16.3-2-24.9,9.2
					c-1-1.8-2.5-3.3-4.6-4.1c-4.7-1.9-10,0.3-11.9,4.9c-0.4,1-0.6,2.1-0.7,3.2c-9.3-2-19.1,3.1-23,12.6c-3.8,9.3-0.7,19.6,6.9,24.8
					c-6.4,0.9-12.1,5-14.8,11.4c-2.7,6.5-1.4,13.7,2.8,18.9c-8.2,0.9-15.6,6-19,14.1c-4.8,11.8,0.9,25.3,12.7,30.2
					c0.2,0.1,0.4,0.1,0.5,0.2c-2.7,2.3-5,5.2-6.4,8.7c-4.7,11.6,0.9,24.8,12.5,29.6c0.5,0.2,1.1,0.4,1.6,0.6c-2,1.9-3.6,4.1-4.7,6.8
					c-4.1,10.1,0.7,21.6,10.9,25.8c3.6,1.5,7.4,1.8,10.9,1.2c9.5,7.6,23.4,6.1,31.1-3.4c6.6-8.2,6.4-19.7,0-27.6c3.9-3,6.6-7.7,7-13
					c0.3-4.7-1.2-9.1-3.9-12.5c0,0,0,0,0,0c4.8-3.3,6-9.9,2.7-14.6c-1.5-2.1-3.6-3.6-6-4.2l0.5-1.3c10.9,6.4,25.3,4.3,33.7-5.8
					c9.5-11.2,8.1-28-3.1-37.5c-0.1-0.1-0.3-0.2-0.4-0.3c9.9-2.2,17.9-10.4,19.3-21.1c0.7-5.1-0.3-10.1-2.5-14.4
					c5.5-0.2,11-2.5,15-7c7.9-8.7,7.3-22.2-1.4-30.2c-3.9-3.6-8.8-5.4-13.7-5.5C531.5,185.6,528.6,182.1,524.3,180.3z"/>
				<path class="st3" d="M708.5,466.8c9.4-12.9,6.6-31-6.4-40.4c-2.9-2.1-6.2-3.6-9.5-4.5c5.6-11.2,6-24.7,0-36.8
					c0-0.1-0.1-0.1-0.1-0.2c-0.9-2.5-2-5.2-3.4-7.9c4.3-0.2,8.6-1.8,12.1-5c7.5-6.8,8.4-18.1,2.3-25.9c-1.5-2.6-3.6-4.8-6.3-6.6
					c-0.2-0.1-0.4-0.2-0.6-0.4l67.1-48.5l-22.7-45.1l-100.6,31.7c4.4-13.1,1.8-28-8.1-38.9c-5.6-6.2-12.8-10.2-20.4-11.9
					c-0.2-0.1-0.4-0.1-0.5-0.2c-5.7-1.6-11.4-1.8-16.9-1c3.1-6.9,4.2-14.3,3.4-21.4c0.4-19-13.3-35.9-32.6-38.8
					c-2.3-0.9-4.6-1.5-7-2c-0.1,0.5-0.3,1.1-0.4,1.6c-3.9,0.2-7.6,0.9-11.2,2.2c-1.7,0.4-3.3,0.8-4.9,1.4c0-0.5,0-1-0.1-1.5
					c-1.6-25-23.2-44-48.2-42.4c-0.2,0-0.5,0-0.7,0.1c-1,0-2,0.1-2.9,0.1c-2.5,0.2-4.9,0.6-7.2,1.1c0.2-4.5-1.4-9-4.8-12.5
					c-4.3-4.4-10.5-5.9-16.1-4.6c-9.5,1.2-16.6,9.4-16.3,19.1c0.2,6.9,4.1,12.7,9.8,15.8c-3.8,5-6.6,10.6-8.3,16.8
					c-6.3-1.5-13-1.7-19.8-0.4c-26,5-42.9,30.1-37.9,56.1c3,15.7,13.4,28.1,26.9,34.4c-7,1.8-13.4,6.1-17.7,12.7
					c-9.1,13.9-5.2,32.6,8.7,41.7c1.3,0.9,2.7,1.6,4.2,2.3c-18,21.8-17.1,54,3,74.8c5.5,5.6,11.8,9.9,18.6,12.7c0,0,0,0,0,0
					c-8.4,35,13.2,70.1,48.1,78.5c3.5,0.8,7,1.4,10.5,1.6c0.6,9.7,5.7,19,14.5,24.6c12.8,8.1,29.3,5.7,39.3-4.9
					c2.9,7,7.2,13.6,12.9,19.3c18.9,18.9,47.4,22.3,69.8,10.4c3.4,8,9.1,15.1,16.9,20.2c21,13.7,49.1,7.8,62.8-13.2
					c12-18.4,9-42.2-6.1-57C704.1,471.9,706.5,469.6,708.5,466.8z"/>
				<g class="st4">
					<path class="st5" d="M559.6,240.8c2.3-2.9,3.6-6.5,3.6-10.5c0-9.4-7.5-17-16.8-17c-9.3,0-16.8,7.6-16.8,17
						c0,5.4,2.5,10.3,6.5,13.4c-1,1.3-1.5,2.9-1.5,4.6c0,4.3,3.4,7.8,7.7,7.8c2.8,0,5.2-1.5,6.6-3.7c1.1,3.9,4.6,6.7,8.8,6.7
						c5.1,0,9.2-4.1,9.2-9.2C566.7,245.4,563.7,241.7,559.6,240.8z"/>
					<path class="st5" d="M481,304.3c1.5-1.9,2.4-4.3,2.4-7c0-6.2-5-11.3-11.2-11.3c-6.2,0-11.2,5-11.2,11.3c0,3.6,1.7,6.8,4.3,8.9
						c-0.6,0.9-1,1.9-1,3.1c0,2.8,2.3,5.2,5.1,5.2c1.8,0,3.5-1,4.4-2.5c0.7,2.6,3.1,4.5,5.9,4.5c3.4,0,6.1-2.8,6.1-6.1
						C485.7,307.4,483.7,304.9,481,304.3z"/>
					<path class="st5" d="M548.7,442.5c-0.1-5.7-4.7-10.3-10.4-10.3c-5.8,0-10.4,4.7-10.4,10.5c0,0.5,0,1,0.1,1.5
						c-3.2,1.2-5.5,4.3-5.5,8c0,4.7,3.8,8.5,8.4,8.5c0.9,0,1.7-0.1,2.6-0.4c1.6,6.1,7.1,10.6,13.6,10.6c7.8,0,14.1-6.4,14.1-14.2
						C561.1,449.3,555.7,443.3,548.7,442.5z"/>
					<path class="st5" d="M515.4,345.3c-0.1-5.7-4.7-10.3-10.4-10.3c-5.8,0-10.4,4.7-10.4,10.5c0,0.5,0,1,0.1,1.5
						c-3.2,1.2-5.5,4.3-5.5,8c0,4.7,3.8,8.5,8.4,8.5c0.9,0,1.7-0.1,2.6-0.4c1.6,6.1,7.1,10.6,13.6,10.6c7.8,0,14.1-6.4,14.1-14.2
						C527.9,352.1,522.4,346.1,515.4,345.3z"/>
					<path class="st5" d="M608.4,247c1.9,4.2-2.1,7.3-7.2,7.2c-4-0.1-7.2-3.2-7.2-7.2c0-4,3.2-7.2,7.2-7.2
						C605.2,239.8,606.7,243.4,608.4,247z"/>
					<ellipse class="st5" cx="474.6" cy="165" rx="4.2" ry="4.3"/>
					<path class="st5" d="M700.6,387.1c-1.6,0-3.2,0.3-4.6,0.8c-1.6-12.3-12.1-21.8-24.8-21.8c-13.8,0-25,11.3-25,25.2
						c0,3.8,0.9,7.5,2.4,10.7c-6.6,2.3-11.4,8.7-11.4,16.2c0,9.5,7.6,17.1,17,17.1c9.4,0,17-7.7,17-17.1c0-0.6,0-1.2-0.1-1.7
						c0,0,0.1,0,0.1,0c7,0,13.4-2.9,17.9-7.6c2.5,3.7,6.7,6.2,11.5,6.2c7.6,0,13.8-6.2,13.8-13.9
						C714.4,393.4,708.2,387.1,700.6,387.1z"/>
				</g>
				<path class="st6" d="M662.6,462.8c0.1-5.5-1.9-10.6-5.2-14.5c1.9-1.7,3.9-3.7,5.9-6c14-13.4,16.1-35.5,4-51.3
					c-2.2-2.9-4.7-5.3-7.4-7.4c-1.9-2-3.7-3.9-5.4-5.5c3.5-0.3,12.9-2.8,15.8-5.4c6.6-6,7.5-15.8,1.9-21.9c-1.6-1.8-9.5-2-11.7-2.8
					l119.1-79.1l-9.8-18L632,299.3c4-10.7,2.3-22.8-5.6-31.4c-9.6-10.6-25.5-12.5-38.5-5.6c-0.7-3.3-2.2-6.4-4.6-9
					c-7.2-7.9-19.5-8.6-28.5-2c3.4-14.4-5.5-28.8-19.9-32.2c-14.4-3.4-28.8,5.5-32.2,19.9c-2.1,8.8,0.4,17.6,6,23.9
					c-9.6,5-17.8,13.1-22.8,23.7c-12.2,25.8-1.2,56.6,24.6,68.8c5.5,2.6,11.3,4.2,17.1,4.7c-14.1,13-20.5,33.4-14.7,53.1
					c8.1,27.7,37.1,43.5,64.8,35.4c10-2.9,18.4-8.6,24.7-15.9c1,1.8,2.1,3.5,3.3,5.2c3.8,5,8.6,8.8,13.9,11.4l2.8,3.1
					c-1.5,2.9-2.4,6.1-2.5,9.6c-0.3,11.7,9,21.5,20.8,21.8C652.6,483.8,662.3,474.6,662.6,462.8z"/>
				<g>
					<path class="st3" d="M744.9,392.3c4.4-0.3,8.7-2,12.2-5.2c8.3-7.5,9-20.3,1.5-28.5s-20.3-8.8-28.6-1.3
						c-4.8,4.4-7.1,10.5-6.6,16.5c-1.9,0.2-3.8,1-5.3,2.4c-3.8,3.4-4.1,9.3-0.7,13c2.2,2.5,5.5,3.4,8.6,2.8
						c-2.6,4.1-2.2,9.5,1.1,13.2c4.1,4.5,11.1,4.8,15.6,0.7C746.6,402.3,747.4,396.7,744.9,392.3z"/>
					<path class="st3" d="M657.6,214.4c5-4.7,5.4-12.5,0.8-17.5c-4.6-5.1-12.6-5.5-17.7-0.8c-0.5,0.4-0.9,0.8-1.2,1.3
						c-3.7-1.9-8.3-1.5-11.5,1.5c-4.2,3.8-4.5,10.1-0.8,14.3c0.7,0.8,1.5,1.4,2.4,1.9c-4.2,6.3-3.7,14.8,1.5,20.6
						c6.3,6.9,17,7.4,24,1.1C661.6,230.9,662.5,221.3,657.6,214.4z"/>
					<path class="st3" d="M700.3,212.9c-3.5,3.2-9,2.9-12.2-0.6c-3.2-3.5-2.9-9,0.6-12.1c3.5-3.2,9-2.9,12.2,0.6
						C704.1,204.3,703.8,209.7,700.3,212.9z"/>
					<path class="st3" d="M789.1,361.1c-3.5,3.2-9,2.9-12.2-0.6c-3.2-3.5-2.9-9,0.6-12.1c3.5-3.2,9-2.9,12.2,0.6
						C792.9,352.4,792.6,357.9,789.1,361.1z"/>
					<path class="st3" d="M677.9,204.2c-2.1,1.9-5.3,1.7-7.2-0.3c-1.9-2.1-1.7-5.3,0.4-7.2c2.1-1.9,5.3-1.7,7.2,0.3
						C680.1,199.1,680,202.3,677.9,204.2z"/>
					<path class="st3" d="M786.7,378.2c-2.1,1.9-5.3,1.7-7.2-0.3c-1.9-2.1-1.7-5.3,0.4-7.2c2.1-1.9,5.3-1.7,7.2,0.3
						C788.9,373.1,788.8,376.3,786.7,378.2z"/>
					<path class="st3" d="M622.2,350.6c-0.6-0.7-1.3-1.3-2-1.9l145.4-80.4l-3.4-6.7l-138.8,56.7c-1.3-3.8-3.3-7.5-6.2-10.6
						c-11.1-12.2-30.2-13.1-42.5-2c-3.4,3.1-6,6.8-7.6,10.7c-7.4-4-16.9-3.2-23.6,2.9c-8.4,7.6-9.1,20.5-1.5,28.8
						c7.6,8.3,20.5,8.9,29,1.3c0.5-0.5,1-1,1.5-1.5c0,0,0,0.1,0.1,0.1c5.7,6.2,13.4,9.5,21.2,9.8c-1.3,5.2-0.1,10.9,3.8,15.1
						c6.2,6.8,16.7,7.3,23.5,1.1C627.8,367.9,628.3,357.4,622.2,350.6z"/>
				</g>
			</g>
		</g>
		<g>
			
				<rect x="822.9" y="175.4" transform="matrix(0.4503 0.8929 -0.8929 0.4503 629.2795 -630.6825)" class="st7" width="8" height="40.8"/>
			
				<rect x="850.5" y="230.9" transform="matrix(0.4503 0.8929 -0.8929 0.4503 694.0474 -624.8013)" class="st7" width="8" height="40.8"/>
			<g>
				<g>
					<path class="st8" d="M779,275.9l-16-32.3c-0.1,0-0.2,0-0.2,0c-63.6-8.9-90.8,59.9-90.8,59.9l9.8,2.5l-17.7,8.8
						c0,0,78.3,18.1,114.8-38.8C778.8,276,778.9,276,779,275.9z"/>
					<path class="st9" d="M776,270.3L765.5,249c-0.1,0-0.1,0-0.2,0c-46.9-3.5-69.9,44.5-69.9,44.5l7.2,1.3l-13.5,6.7
						c0,0,57.4,9.1,86.9-31.1C775.9,270.4,775.9,270.4,776,270.3z"/>
				</g>
				<g>
					<path class="st10" d="M1096.4,125.2l53.2-58.3l-78.1,9.5L766.8,230.2c-8.7,4.4-12.4,14.8-8.7,22l11.1,21.8
						c3.7,7.2,13.8,9.4,22.5,5L1096.4,125.2z"/>
					<path class="st11" d="M1096.4,125.2l53.2-58.3l-68.5,34.8L763.7,263.1l5.5,10.9c3.7,7.2,13.8,9.4,22.5,5L1096.4,125.2z"/>
					<path class="st12" d="M1096.4,125.2l53.2-58.3l-78.1,9.5L790.2,218.4c5.1,18.6,13.8,35.3,24.8,48.7L1096.4,125.2z"/>
					<path class="st13" d="M1096.4,125.2l53.2-58.3l-68.5,34.8L800.3,244.5c4.1,8.2,9.1,15.8,14.8,22.7L1096.4,125.2z"/>
					<path class="st14" d="M1096.4,125.2l53.2-58.3l-78.1,9.5L808.7,209.1c4.9,18.9,13.6,35.5,24.9,48.7L1096.4,125.2z"/>
					<path class="st15" d="M1094.3,126.3l52.8-57.9l-67.9,34.5L818.6,235.3c4.1,8.2,9.1,15.8,14.9,22.5L1094.3,126.3z"/>
					<path class="st16" d="M1096.4,125.2l53.2-58.3l-78.1,9.5c2.2,8.5,5.4,17,9.6,25.3C1085.4,110.1,1090.8,118.5,1096.4,125.2z"/>
					<path class="st17" d="M1096.4,125.2l53.2-58.3l-68.5,34.8C1085.4,110.1,1090.8,118.5,1096.4,125.2z"/>
					<path class="st18" d="M1131.9,86l17.7-19l-25.8,3.2c0.7,2.8,1.8,5.6,3.2,8.3C1128.4,81.2,1130.1,83.7,1131.9,86z"/>
				</g>
			</g>
			<g>
				<g>
					<g>
						<path class="st8" d="M787.7,322l-10.1-20.3c-0.1,0-0.1,0-0.2,0c-40-5.6-57.1,37.7-57.1,37.7l6.1,1.6l-11.2,5.6
							c0,0,49.2,11.4,72.2-24.4C787.6,322,787.6,322,787.7,322z"/>
						<path class="st9" d="M785.8,318.4l-6.6-13.4c0,0-0.1,0-0.1,0c-29.5-2.2-44,28-44,28l4.5,0.8l-8.5,4.2
							C731.1,338.1,767.2,343.8,785.8,318.4C785.7,318.5,785.8,318.5,785.8,318.4z"/>
					</g>
					<g>
						<path class="st10" d="M987.4,227.2l33.5-36.6l-49.1,6L780,293.2c-5.5,2.8-7.8,9.3-5.5,13.8l7,13.7c2.3,4.5,8.7,5.9,14.1,3.1
							L987.4,227.2z"/>
						<path class="st11" d="M987.4,227.2l33.5-36.6l-43.1,21.9L778,313.9l3.5,6.9c2.3,4.5,8.7,5.9,14.1,3.1L987.4,227.2z"/>
						<path class="st12" d="M987.4,227.2l33.5-36.6l-49.1,6l-177,89.3c3.2,11.7,8.7,22.2,15.6,30.7L987.4,227.2z"/>
						<path class="st13" d="M987.4,227.2l33.5-36.6l-43.1,21.9l-176.7,89.8c2.6,5.2,5.7,9.9,9.3,14.3L987.4,227.2z"/>
						<path class="st14" d="M987.4,227.2l33.5-36.6l-49.1,6l-165.3,83.4c3.1,11.9,8.6,22.3,15.6,30.7L987.4,227.2z"/>
						<path class="st15" d="M986,227.9l33.2-36.4l-42.7,21.7l-163.9,83.2c2.6,5.1,5.8,9.9,9.4,14.2L986,227.9z"/>
						<path class="st16" d="M987.4,227.2l33.5-36.6l-49.1,6c1.4,5.3,3.4,10.7,6,15.9C980.4,217.6,983.8,222.9,987.4,227.2z"/>
						<path class="st17" d="M987.4,227.2l33.5-36.6l-43.1,21.9C980.4,217.6,983.8,222.9,987.4,227.2z"/>
						<path class="st18" d="M1009.7,202.5l11.2-11.9l-16.2,2c0.5,1.8,1.1,3.5,2,5.2C1007.5,199.5,1008.5,201.1,1009.7,202.5z"/>
					</g>
				</g>
				<g>
					<g>
						<path class="st8" d="M740.8,229l-10.1-20.3c-0.1,0-0.1,0-0.2,0c-40-5.6-57.1,37.7-57.1,37.7l6.1,1.6l-11.2,5.6
							c0,0,49.2,11.4,72.2-24.4C740.7,229.1,740.8,229.1,740.8,229z"/>
						<path class="st9" d="M739,225.5l-6.6-13.4c0,0-0.1,0-0.1,0c-29.5-2.2-44,28-44,28l4.5,0.8l-8.5,4.2
							C684.2,245.1,720.4,250.9,739,225.5C738.9,225.5,738.9,225.5,739,225.5z"/>
					</g>
					<g>
						<path class="st10" d="M940.5,134.3L974,97.6l-49.1,6l-191.7,96.7c-5.5,2.8-7.8,9.3-5.5,13.8l7,13.7c2.3,4.5,8.7,5.9,14.1,3.1
							L940.5,134.3z"/>
						<path class="st11" d="M940.5,134.3L974,97.6l-43.1,21.9L731.2,220.9l3.5,6.9c2.3,4.5,8.7,5.9,14.1,3.1L940.5,134.3z"/>
						<path class="st12" d="M940.5,134.3L974,97.6l-49.1,6l-177,89.3c3.2,11.7,8.7,22.2,15.6,30.7L940.5,134.3z"/>
						<path class="st13" d="M940.5,134.3L974,97.6l-43.1,21.9l-176.7,89.8c2.6,5.2,5.7,9.9,9.3,14.3L940.5,134.3z"/>
						<path class="st14" d="M940.5,134.3L974,97.6l-49.1,6L759.5,187c3.1,11.9,8.6,22.3,15.6,30.7L940.5,134.3z"/>
						<path class="st15" d="M939.2,134.9l33.2-36.4l-42.7,21.7l-163.9,83.2c2.6,5.1,5.8,9.9,9.4,14.2L939.2,134.9z"/>
						<path class="st16" d="M940.5,134.3L974,97.6l-49.1,6c1.4,5.3,3.4,10.7,6,15.9C933.5,124.7,937,130,940.5,134.3z"/>
						<path class="st17" d="M940.5,134.3L974,97.6l-43.1,21.9C933.5,124.7,937,130,940.5,134.3z"/>
						<path class="st18" d="M962.8,109.5L974,97.6l-16.2,2c0.5,1.8,1.1,3.5,2,5.2C960.6,106.6,961.6,108.1,962.8,109.5z"/>
					</g>
				</g>
			</g>
		</g>
	</g>
	<g>
		<g>
			<path class="st19" d="M1035.6,143.5c-1.7,0-3.4-0.2-5.1-0.7c-4.7-1.3-8.6-4.4-11-8.7c-2.4-4.3-2.9-9.2-1.6-14
				c2.2-7.8,9.5-13.3,17.6-13.3c1.7,0,3.4,0.2,5.1,0.7c4.7,1.3,8.6,4.4,11,8.7c2.4,4.3,2.9,9.2,1.6,14
				C1050.9,138,1043.7,143.5,1035.6,143.5L1035.6,143.5z"/>
			<path class="st20" d="M1035.5,110.4c1.4,0,2.7,0.2,4.1,0.6c3.8,1.1,6.9,3.6,8.8,7s2.4,7.4,1.3,11.2c-1.8,6.3-7.6,10.7-14.1,10.7
				c-1.4,0-2.7-0.2-4.1-0.6c-3.8-1.1-6.9-3.6-8.8-7c-1.9-3.4-2.4-7.4-1.3-11.2C1023.2,114.8,1029,110.4,1035.5,110.4 M1035.5,103.2
				c-9.6,0-18.4,6.3-21.1,16c-3.3,11.7,3.4,23.8,15.1,27.2c2,0.6,4.1,0.9,6.1,0.9c9.6,0,18.4-6.3,21.1-16
				c3.3-11.7-3.4-23.8-15.1-27.2C1039.6,103.4,1037.5,103.2,1035.5,103.2L1035.5,103.2z"/>
		</g>
		<circle class="st21" cx="1051.7" cy="116" r="1.8"/>
		<circle class="st21" cx="1018.8" cy="133.9" r="1.8"/>
		<circle class="st21" cx="1017" cy="123.7" r="1.8"/>
		<circle class="st21" cx="1053.6" cy="127.9" r="1.8"/>
		<circle class="st21" cx="1020.7" cy="114" r="1.8"/>
		<circle class="st21" cx="1030.4" cy="107.7" r="1.8"/>
		<circle class="st21" cx="1042.1" cy="108.6" r="1.8"/>
		<circle class="st21" cx="1026.8" cy="141.6" r="1.8"/>
		<circle class="st21" cx="1038.5" cy="142.9" r="1.8"/>
		<circle class="st21" cx="1049" cy="137.4" r="1.8"/>
	</g>
</g>
</svg>
