<?xml version="1.0" encoding="utf-8"?>
<!-- Generator: Adobe Illustrator 19.0.0, SVG Export Plug-In . SVG Version: 6.00 Build 0)  -->
<svg version="1.1" id="Layer_1" xmlns="http://www.w3.org/2000/svg" xmlns:xlink="http://www.w3.org/1999/xlink" x="0px" y="0px"
	 viewBox="-574 401 350 200" style="enable-background:new -574 401 350 200;" xml:space="preserve">
<style type="text/css">
	.st0{fill:#282C35;}
	.st1{fill:#3E434F;}
	.st2{fill:#E6E7E8;}
	.st3{fill:#F1F2F2;}
	.st4{fill:#E3E4E4;}
	.st5{fill:#D1D3D4;}
	.st6{fill:#393E49;}
	.st7{fill:#FFFFFF;}
	.st8{fill:#C2C4C5;}
	.st9{fill:#C3EBF3;}
	.st10{opacity:0.3;fill:#A7A9AC;enable-background:new    ;}
	.st11{opacity:0.3;fill:#FF876C;enable-background:new    ;}
	.st12{opacity:0.2;fill:#FF876C;enable-background:new    ;}
	.st13{opacity:0.2;fill:#C85B55;enable-background:new    ;}
</style>
<g id="XMLID_277_">
	<g id="XMLID_280_">
		<path id="XMLID_114_" class="st0" d="M-315.2,446c0-3.2-2.2-5.7-5-5.7h-157.6c-2.8,0-5,2.6-5,5.7v92.4h167.6L-315.2,446
			L-315.2,446z"/>
		<path id="XMLID_113_" class="st1" d="M-326.3,454.6c0-2.6-1.9-4.7-4.3-4.7h-136.9c-2.4,0-4.3,2.1-4.3,4.7v76.5h145.5V454.6z"/>
		<polygon id="XMLID_112_" class="st2" points="-376.6,563 -380.8,563 -416.4,563 -420.6,563 -422.8,587 -416.4,587 -380.8,587 
			-374.4,587 		"/>
		<path id="XMLID_111_" class="st3" d="M-482.8,538.2v25.5c0,2.6,2.2,4.7,5,4.7h157.6c2.8,0,5-2.1,5-4.7v-25.5H-482.8z"/>
		<polygon id="XMLID_110_" class="st4" points="-376.4,571.2 -420.8,571.2 -420.6,568.3 -376.6,568.3 		"/>
		<g id="XMLID_282_">
			<path id="XMLID_109_" class="st5" d="M-368.3,591c0.2-0.4,0.3-0.8,0.3-1.3c0-1.7-1.4-3.1-3.1-3.1h-55.7c-1.7,0-3.1,1.4-3.1,3.1
				c0,0.4,0.1,0.9,0.3,1.3H-368.3z"/>
		</g>
		<path id="XMLID_108_" class="st2" d="M-391.9,553.2c0,3.7-3,6.7-6.7,6.7c-3.7,0-6.7-3-6.7-6.7s3-6.7,6.7-6.7
			C-394.9,546.5-391.9,549.5-391.9,553.2z"/>
	</g>
	<g id="XMLID_278_">
		<path id="XMLID_107_" class="st6" d="M-326.3,455.8v-1.2c0-2.6-1.9-4.7-4.3-4.7h-136.9c-2.4,0-4.3,2.1-4.3,4.7v75.6
			C-452.5,494-396.9,465.6-326.3,455.8z"/>
	</g>
</g>
<g id="XMLID_183_">
	<g id="XMLID_211_">
		<g id="XMLID_212_">
			<g id="XMLID_213_">
				<g id="XMLID_222_">
					<rect id="XMLID_76_" x="-456" y="434.8" class="st7" width="114.1" height="96.3"/>
					<path id="XMLID_75_" class="st5" d="M-342,426.8c0-3.2-2.6-5.7-5.7-5.7h-102.7c-3.2,0-5.7,2.6-5.7,5.7v0.2H-342V426.8z"/>
					<rect id="XMLID_74_" x="-456" y="427" class="st2" width="114.1" height="7.8"/>
				</g>
				<path id="XMLID_73_" class="st7" d="M-443.1,432.2c0,0.3,0.3,0.5,0.7,0.5h86.8c0.4,0,0.7-0.2,0.7-0.5v-2.7
					c0-0.3-0.3-0.5-0.7-0.5h-86.8c-0.4,0-0.7,0.2-0.7,0.5C-443.2,429.5-443.2,432.2-443.1,432.2z"/>
				<circle id="XMLID_72_" class="st8" cx="-451.9" cy="424" r="0.8"/>
				<circle id="XMLID_71_" class="st8" cx="-449.5" cy="424" r="0.8"/>
				<circle id="XMLID_70_" class="st8" cx="-447.1" cy="424" r="0.8"/>
				<path id="XMLID_69_" class="st5" d="M-453.5,431.5c0,0.4,0.4,0.8,0.8,0.8h1.7c0.4,0,0.8-0.4,0.8-0.8v-1.3c0-0.4-0.4-0.8-0.8-0.8
					h-1.7c-0.4,0-0.8,0.4-0.8,0.8V431.5z"/>
				<path id="XMLID_68_" class="st5" d="M-448.5,431.5c0,0.4,0.4,0.8,0.8,0.8h1.7c0.4,0,0.8-0.4,0.8-0.8v-1.3c0-0.4-0.4-0.8-0.8-0.8
					h-1.7c-0.4,0-0.8,0.4-0.8,0.8V431.5z"/>
				<path id="XMLID_67_" class="st5" d="M-352.9,431.5c0,0.4,0.4,0.8,0.8,0.8h1.7c0.4,0,0.8-0.4,0.8-0.8v-1.3c0-0.4-0.4-0.8-0.8-0.8
					h-1.7c-0.4,0-0.8,0.4-0.8,0.8V431.5z"/>
				<path id="XMLID_66_" class="st5" d="M-348,431.5c0,0.4,0.4,0.8,0.8,0.8h1.7c0.4,0,0.8-0.4,0.8-0.8v-1.3c0-0.4-0.4-0.8-0.8-0.8
					h-1.7c-0.4,0-0.8,0.4-0.8,0.8V431.5z"/>
			</g>
		</g>
	</g>
	<rect id="XMLID_65_" x="-451.9" y="438.4" class="st9" width="72.8" height="24.3"/>
	<rect id="XMLID_64_" x="-377" y="438.4" class="st10" width="30.6" height="24.3"/>
	<rect id="XMLID_63_" x="-456" y="465.4" class="st11" width="114.1" height="20.4"/>
	<rect id="XMLID_62_" x="-451" y="489.2" class="st9" width="32.7" height="21.7"/>
	<rect id="XMLID_61_" x="-415.2" y="489.2" class="st9" width="32.7" height="21.7"/>
	<rect id="XMLID_60_" x="-379" y="489.2" class="st9" width="32.7" height="21.7"/>
	<g id="XMLID_200_">
		<rect id="XMLID_59_" x="-451" y="514.2" class="st10" width="24.5" height="3.6"/>
		<rect id="XMLID_58_" x="-451" y="519.5" class="st3" width="28.9" height="1.9"/>
		<rect id="XMLID_57_" x="-451" y="523.5" class="st3" width="17.7" height="1.9"/>
		<rect id="XMLID_56_" x="-431.9" y="523.5" class="st3" width="7.9" height="1.9"/>
	</g>
	<g id="XMLID_195_">
		<rect id="XMLID_55_" x="-450.9" y="472.4" class="st12" width="17.5" height="2"/>
		<rect id="XMLID_54_" x="-450.9" y="475.4" class="st13" width="20.6" height="1"/>
		<rect id="XMLID_53_" x="-450.9" y="477.6" class="st13" width="12.6" height="1"/>
		<rect id="XMLID_52_" x="-437.1" y="477.6" class="st13" width="5.7" height="1"/>
	</g>
	<g id="XMLID_190_">
		<rect id="XMLID_51_" x="-415.2" y="513.8" class="st10" width="24.5" height="3.6"/>
		<rect id="XMLID_50_" x="-415.2" y="519.2" class="st3" width="28.9" height="1.9"/>
		<rect id="XMLID_49_" x="-415.2" y="523.2" class="st3" width="17.7" height="1.9"/>
		<rect id="XMLID_48_" x="-396" y="523.2" class="st3" width="7.9" height="1.9"/>
	</g>
	<g id="XMLID_185_">
		<rect id="XMLID_47_" x="-379" y="513.8" class="st10" width="24.5" height="3.6"/>
		<rect id="XMLID_46_" x="-379" y="519.2" class="st3" width="28.9" height="1.9"/>
		<rect id="XMLID_45_" x="-379" y="523.2" class="st3" width="17.7" height="1.9"/>
		<rect id="XMLID_44_" x="-359.9" y="523.2" class="st3" width="7.9" height="1.9"/>
	</g>
	<rect id="XMLID_43_" x="-351.2" y="473.5" class="st12" width="4.9" height="4.3"/>
</g>
</svg>
